%
M48
M72
T01C0.0236
T02C0.0354
T03C0.0360
T04C0.0374
T05C0.0394
T06C0.0400
T07C0.0470
T08C0.0906
T09C0.1260
%
T01
X4581Y7099
X5123Y10199
X7306Y10975
X8814Y12857
X7633Y15613
X8066Y16548
X8863Y18172
X10566Y18024
X10635Y18713
X10487Y19737
X7830Y20534
X5812Y20583
X5910Y19697
X4188Y19254
X3942Y20042
X3351Y20435
X4089Y21075
X3597Y22109
X4139Y22502
X4581Y23437
X5763Y24471
X6166Y25691
X7337Y25357
X9011Y24520
X11422Y23191
X14463Y22828
X16983Y23634
X19985Y25160
X22643Y23487
X26678Y19500
X27072Y21666
X28154Y21370
X22741Y15219
X25753Y12469
X26520Y12975
X28017Y12778
X22741Y7640
X18520Y5581
X14965Y7542
X16639Y9707
X11926Y6369
X9847Y7591
X11127Y9018
X10930Y15760
X11324Y16548
X14335Y18546
X15595Y18250
X14631Y16439
X18410Y20140
X20920Y27916
X19089Y29530
X27170Y28605
X7830Y28605
X4040Y25061
X3646Y26046
X2269Y27817
X4188Y16941
X4040Y15465
X2515Y14431
X3351Y12955
T02
X24048Y12770
X24048Y13770
X24048Y14770
X24048Y15770
X24048Y16770
X24048Y17770
X24048Y18770
X24048Y20284
X24048Y21284
X24048Y22284
X24048Y23284
X24048Y24284
X24048Y25284
X24048Y26284
X24048Y27284
X29048Y27284
X29048Y26284
X29048Y25284
X29048Y24284
X29048Y23284
X29048Y22284
X29048Y21284
X29048Y20284
X29048Y18770
X29048Y17770
X29048Y16770
X29048Y15770
X29048Y14770
X29048Y13770
X29048Y12770
X29048Y11770
X29048Y10404
X29048Y9404
X29048Y8404
X29048Y7404
X29048Y6404
X29048Y5404
X29048Y4404
X29048Y3404
X24048Y3404
X24048Y4404
X24048Y5404
X24048Y6404
X24048Y7404
X24048Y8404
X24048Y9404
X24048Y10404
X24048Y11770
T03
X3359Y11117
X2359Y11117
X2359Y10117
X3359Y10117
X3359Y9117
X2359Y9117
X2359Y8117
X3359Y8117
X3359Y7117
X2359Y7117
X2359Y15463
X2359Y16463
X2359Y17463
X2359Y18463
X3359Y18463
X3359Y17463
X3359Y16463
X3359Y15463
X3359Y19463
X2359Y19463
T04
X9257Y6000
X9257Y5213
X10241Y5213
X10241Y6000
T05
X15064Y6105
X16954Y4884
X15064Y3703
X5221Y3998
X27269Y3998
X27269Y30376
X5221Y30376
T06
X3548Y30105
X3548Y29105
X3548Y28105
X3548Y27105
X8121Y27473
X9901Y27473
X9901Y24913
X8121Y24913
X11808Y29983
X12808Y29983
X19928Y29983
X20928Y29983
X26080Y26258
X27080Y26258
X27080Y25258
X27080Y24258
X26080Y24258
X26080Y25258
X31009Y25282
X31009Y24282
X31009Y23282
X31009Y22282
X27080Y17744
X27080Y16744
X27080Y15744
X26080Y15744
X26080Y16744
X26080Y17744
X30959Y16768
X30959Y15768
X30959Y14768
X30959Y13768
X26981Y9428
X25981Y9428
X25981Y8428
X26981Y8428
X26981Y7428
X25981Y7428
X31009Y7412
X31009Y8412
X31009Y6412
X31009Y5412
X15284Y8821
X14284Y8821
X13284Y8821
X12284Y8821
T07
X23365Y30115
X25365Y30115
T08
X12119Y4146
X7379Y4146
T09
X1678Y3998
X1678Y30376
X30812Y30376
X30812Y3998
M30
