G75*
%MOIN*%
%OFA0B0*%
%FSLAX24Y24*%
%IPPOS*%
%LPD*%
%AMOC8*
5,1,8,0,0,1.08239X$1,22.5*
%
%ADD10C,0.0000*%
%ADD11C,0.0060*%
%ADD12C,0.0030*%
%ADD13C,0.0100*%
%ADD14C,0.0020*%
%ADD15C,0.0010*%
%ADD16C,0.0040*%
%ADD17C,0.0050*%
%ADD18C,0.0070*%
%ADD19C,0.0080*%
D10*
X000497Y002817D02*
X000497Y031557D01*
X031993Y031557D01*
X031993Y002817D01*
X000497Y002817D01*
X001048Y003998D02*
X001050Y004048D01*
X001056Y004098D01*
X001066Y004147D01*
X001080Y004195D01*
X001097Y004242D01*
X001118Y004287D01*
X001143Y004331D01*
X001171Y004372D01*
X001203Y004411D01*
X001237Y004448D01*
X001274Y004482D01*
X001314Y004512D01*
X001356Y004539D01*
X001400Y004563D01*
X001446Y004584D01*
X001493Y004600D01*
X001541Y004613D01*
X001591Y004622D01*
X001640Y004627D01*
X001691Y004628D01*
X001741Y004625D01*
X001790Y004618D01*
X001839Y004607D01*
X001887Y004592D01*
X001933Y004574D01*
X001978Y004552D01*
X002021Y004526D01*
X002062Y004497D01*
X002101Y004465D01*
X002137Y004430D01*
X002169Y004392D01*
X002199Y004352D01*
X002226Y004309D01*
X002249Y004265D01*
X002268Y004219D01*
X002284Y004171D01*
X002296Y004122D01*
X002304Y004073D01*
X002308Y004023D01*
X002308Y003973D01*
X002304Y003923D01*
X002296Y003874D01*
X002284Y003825D01*
X002268Y003777D01*
X002249Y003731D01*
X002226Y003687D01*
X002199Y003644D01*
X002169Y003604D01*
X002137Y003566D01*
X002101Y003531D01*
X002062Y003499D01*
X002021Y003470D01*
X001978Y003444D01*
X001933Y003422D01*
X001887Y003404D01*
X001839Y003389D01*
X001790Y003378D01*
X001741Y003371D01*
X001691Y003368D01*
X001640Y003369D01*
X001591Y003374D01*
X001541Y003383D01*
X001493Y003396D01*
X001446Y003412D01*
X001400Y003433D01*
X001356Y003457D01*
X001314Y003484D01*
X001274Y003514D01*
X001237Y003548D01*
X001203Y003585D01*
X001171Y003624D01*
X001143Y003665D01*
X001118Y003709D01*
X001097Y003754D01*
X001080Y003801D01*
X001066Y003849D01*
X001056Y003898D01*
X001050Y003948D01*
X001048Y003998D01*
X005024Y003998D02*
X005026Y004025D01*
X005032Y004052D01*
X005041Y004078D01*
X005054Y004102D01*
X005070Y004125D01*
X005089Y004144D01*
X005111Y004161D01*
X005135Y004175D01*
X005160Y004185D01*
X005187Y004192D01*
X005214Y004195D01*
X005242Y004194D01*
X005269Y004189D01*
X005295Y004181D01*
X005319Y004169D01*
X005342Y004153D01*
X005363Y004135D01*
X005380Y004114D01*
X005395Y004090D01*
X005406Y004065D01*
X005414Y004039D01*
X005418Y004012D01*
X005418Y003984D01*
X005414Y003957D01*
X005406Y003931D01*
X005395Y003906D01*
X005380Y003882D01*
X005363Y003861D01*
X005342Y003843D01*
X005320Y003827D01*
X005295Y003815D01*
X005269Y003807D01*
X005242Y003802D01*
X005214Y003801D01*
X005187Y003804D01*
X005160Y003811D01*
X005135Y003821D01*
X005111Y003835D01*
X005089Y003852D01*
X005070Y003871D01*
X005054Y003894D01*
X005041Y003918D01*
X005032Y003944D01*
X005026Y003971D01*
X005024Y003998D01*
X027072Y003998D02*
X027074Y004025D01*
X027080Y004052D01*
X027089Y004078D01*
X027102Y004102D01*
X027118Y004125D01*
X027137Y004144D01*
X027159Y004161D01*
X027183Y004175D01*
X027208Y004185D01*
X027235Y004192D01*
X027262Y004195D01*
X027290Y004194D01*
X027317Y004189D01*
X027343Y004181D01*
X027367Y004169D01*
X027390Y004153D01*
X027411Y004135D01*
X027428Y004114D01*
X027443Y004090D01*
X027454Y004065D01*
X027462Y004039D01*
X027466Y004012D01*
X027466Y003984D01*
X027462Y003957D01*
X027454Y003931D01*
X027443Y003906D01*
X027428Y003882D01*
X027411Y003861D01*
X027390Y003843D01*
X027368Y003827D01*
X027343Y003815D01*
X027317Y003807D01*
X027290Y003802D01*
X027262Y003801D01*
X027235Y003804D01*
X027208Y003811D01*
X027183Y003821D01*
X027159Y003835D01*
X027137Y003852D01*
X027118Y003871D01*
X027102Y003894D01*
X027089Y003918D01*
X027080Y003944D01*
X027074Y003971D01*
X027072Y003998D01*
X030182Y003998D02*
X030184Y004048D01*
X030190Y004098D01*
X030200Y004147D01*
X030214Y004195D01*
X030231Y004242D01*
X030252Y004287D01*
X030277Y004331D01*
X030305Y004372D01*
X030337Y004411D01*
X030371Y004448D01*
X030408Y004482D01*
X030448Y004512D01*
X030490Y004539D01*
X030534Y004563D01*
X030580Y004584D01*
X030627Y004600D01*
X030675Y004613D01*
X030725Y004622D01*
X030774Y004627D01*
X030825Y004628D01*
X030875Y004625D01*
X030924Y004618D01*
X030973Y004607D01*
X031021Y004592D01*
X031067Y004574D01*
X031112Y004552D01*
X031155Y004526D01*
X031196Y004497D01*
X031235Y004465D01*
X031271Y004430D01*
X031303Y004392D01*
X031333Y004352D01*
X031360Y004309D01*
X031383Y004265D01*
X031402Y004219D01*
X031418Y004171D01*
X031430Y004122D01*
X031438Y004073D01*
X031442Y004023D01*
X031442Y003973D01*
X031438Y003923D01*
X031430Y003874D01*
X031418Y003825D01*
X031402Y003777D01*
X031383Y003731D01*
X031360Y003687D01*
X031333Y003644D01*
X031303Y003604D01*
X031271Y003566D01*
X031235Y003531D01*
X031196Y003499D01*
X031155Y003470D01*
X031112Y003444D01*
X031067Y003422D01*
X031021Y003404D01*
X030973Y003389D01*
X030924Y003378D01*
X030875Y003371D01*
X030825Y003368D01*
X030774Y003369D01*
X030725Y003374D01*
X030675Y003383D01*
X030627Y003396D01*
X030580Y003412D01*
X030534Y003433D01*
X030490Y003457D01*
X030448Y003484D01*
X030408Y003514D01*
X030371Y003548D01*
X030337Y003585D01*
X030305Y003624D01*
X030277Y003665D01*
X030252Y003709D01*
X030231Y003754D01*
X030214Y003801D01*
X030200Y003849D01*
X030190Y003898D01*
X030184Y003948D01*
X030182Y003998D01*
X030182Y030376D02*
X030184Y030426D01*
X030190Y030476D01*
X030200Y030525D01*
X030214Y030573D01*
X030231Y030620D01*
X030252Y030665D01*
X030277Y030709D01*
X030305Y030750D01*
X030337Y030789D01*
X030371Y030826D01*
X030408Y030860D01*
X030448Y030890D01*
X030490Y030917D01*
X030534Y030941D01*
X030580Y030962D01*
X030627Y030978D01*
X030675Y030991D01*
X030725Y031000D01*
X030774Y031005D01*
X030825Y031006D01*
X030875Y031003D01*
X030924Y030996D01*
X030973Y030985D01*
X031021Y030970D01*
X031067Y030952D01*
X031112Y030930D01*
X031155Y030904D01*
X031196Y030875D01*
X031235Y030843D01*
X031271Y030808D01*
X031303Y030770D01*
X031333Y030730D01*
X031360Y030687D01*
X031383Y030643D01*
X031402Y030597D01*
X031418Y030549D01*
X031430Y030500D01*
X031438Y030451D01*
X031442Y030401D01*
X031442Y030351D01*
X031438Y030301D01*
X031430Y030252D01*
X031418Y030203D01*
X031402Y030155D01*
X031383Y030109D01*
X031360Y030065D01*
X031333Y030022D01*
X031303Y029982D01*
X031271Y029944D01*
X031235Y029909D01*
X031196Y029877D01*
X031155Y029848D01*
X031112Y029822D01*
X031067Y029800D01*
X031021Y029782D01*
X030973Y029767D01*
X030924Y029756D01*
X030875Y029749D01*
X030825Y029746D01*
X030774Y029747D01*
X030725Y029752D01*
X030675Y029761D01*
X030627Y029774D01*
X030580Y029790D01*
X030534Y029811D01*
X030490Y029835D01*
X030448Y029862D01*
X030408Y029892D01*
X030371Y029926D01*
X030337Y029963D01*
X030305Y030002D01*
X030277Y030043D01*
X030252Y030087D01*
X030231Y030132D01*
X030214Y030179D01*
X030200Y030227D01*
X030190Y030276D01*
X030184Y030326D01*
X030182Y030376D01*
X027072Y030376D02*
X027074Y030403D01*
X027080Y030430D01*
X027089Y030456D01*
X027102Y030480D01*
X027118Y030503D01*
X027137Y030522D01*
X027159Y030539D01*
X027183Y030553D01*
X027208Y030563D01*
X027235Y030570D01*
X027262Y030573D01*
X027290Y030572D01*
X027317Y030567D01*
X027343Y030559D01*
X027367Y030547D01*
X027390Y030531D01*
X027411Y030513D01*
X027428Y030492D01*
X027443Y030468D01*
X027454Y030443D01*
X027462Y030417D01*
X027466Y030390D01*
X027466Y030362D01*
X027462Y030335D01*
X027454Y030309D01*
X027443Y030284D01*
X027428Y030260D01*
X027411Y030239D01*
X027390Y030221D01*
X027368Y030205D01*
X027343Y030193D01*
X027317Y030185D01*
X027290Y030180D01*
X027262Y030179D01*
X027235Y030182D01*
X027208Y030189D01*
X027183Y030199D01*
X027159Y030213D01*
X027137Y030230D01*
X027118Y030249D01*
X027102Y030272D01*
X027089Y030296D01*
X027080Y030322D01*
X027074Y030349D01*
X027072Y030376D01*
X005024Y030376D02*
X005026Y030403D01*
X005032Y030430D01*
X005041Y030456D01*
X005054Y030480D01*
X005070Y030503D01*
X005089Y030522D01*
X005111Y030539D01*
X005135Y030553D01*
X005160Y030563D01*
X005187Y030570D01*
X005214Y030573D01*
X005242Y030572D01*
X005269Y030567D01*
X005295Y030559D01*
X005319Y030547D01*
X005342Y030531D01*
X005363Y030513D01*
X005380Y030492D01*
X005395Y030468D01*
X005406Y030443D01*
X005414Y030417D01*
X005418Y030390D01*
X005418Y030362D01*
X005414Y030335D01*
X005406Y030309D01*
X005395Y030284D01*
X005380Y030260D01*
X005363Y030239D01*
X005342Y030221D01*
X005320Y030205D01*
X005295Y030193D01*
X005269Y030185D01*
X005242Y030180D01*
X005214Y030179D01*
X005187Y030182D01*
X005160Y030189D01*
X005135Y030199D01*
X005111Y030213D01*
X005089Y030230D01*
X005070Y030249D01*
X005054Y030272D01*
X005041Y030296D01*
X005032Y030322D01*
X005026Y030349D01*
X005024Y030376D01*
X001048Y030376D02*
X001050Y030426D01*
X001056Y030476D01*
X001066Y030525D01*
X001080Y030573D01*
X001097Y030620D01*
X001118Y030665D01*
X001143Y030709D01*
X001171Y030750D01*
X001203Y030789D01*
X001237Y030826D01*
X001274Y030860D01*
X001314Y030890D01*
X001356Y030917D01*
X001400Y030941D01*
X001446Y030962D01*
X001493Y030978D01*
X001541Y030991D01*
X001591Y031000D01*
X001640Y031005D01*
X001691Y031006D01*
X001741Y031003D01*
X001790Y030996D01*
X001839Y030985D01*
X001887Y030970D01*
X001933Y030952D01*
X001978Y030930D01*
X002021Y030904D01*
X002062Y030875D01*
X002101Y030843D01*
X002137Y030808D01*
X002169Y030770D01*
X002199Y030730D01*
X002226Y030687D01*
X002249Y030643D01*
X002268Y030597D01*
X002284Y030549D01*
X002296Y030500D01*
X002304Y030451D01*
X002308Y030401D01*
X002308Y030351D01*
X002304Y030301D01*
X002296Y030252D01*
X002284Y030203D01*
X002268Y030155D01*
X002249Y030109D01*
X002226Y030065D01*
X002199Y030022D01*
X002169Y029982D01*
X002137Y029944D01*
X002101Y029909D01*
X002062Y029877D01*
X002021Y029848D01*
X001978Y029822D01*
X001933Y029800D01*
X001887Y029782D01*
X001839Y029767D01*
X001790Y029756D01*
X001741Y029749D01*
X001691Y029746D01*
X001640Y029747D01*
X001591Y029752D01*
X001541Y029761D01*
X001493Y029774D01*
X001446Y029790D01*
X001400Y029811D01*
X001356Y029835D01*
X001314Y029862D01*
X001274Y029892D01*
X001237Y029926D01*
X001203Y029963D01*
X001171Y030002D01*
X001143Y030043D01*
X001118Y030087D01*
X001097Y030132D01*
X001080Y030179D01*
X001066Y030227D01*
X001056Y030276D01*
X001050Y030326D01*
X001048Y030376D01*
D11*
X003048Y030355D02*
X003048Y029855D01*
X003298Y029605D01*
X003048Y029355D01*
X003048Y028855D01*
X003298Y028605D01*
X003798Y028605D01*
X004048Y028855D01*
X004048Y029355D01*
X003798Y029605D01*
X003298Y029605D01*
X003798Y029605D02*
X004048Y029855D01*
X004048Y030355D01*
X003798Y030605D01*
X003298Y030605D01*
X003048Y030355D01*
X003298Y028605D02*
X003048Y028355D01*
X003048Y027855D01*
X003298Y027605D01*
X003048Y027355D01*
X003048Y026855D01*
X003298Y026605D01*
X003798Y026605D01*
X004048Y026855D01*
X004048Y027355D01*
X003798Y027605D01*
X003298Y027605D01*
X003798Y027605D02*
X004048Y027855D01*
X004048Y028355D01*
X003798Y028605D01*
X007811Y027043D02*
X007811Y026693D01*
X007811Y025743D01*
X007811Y025343D01*
X008611Y024993D02*
X008711Y024993D01*
X008711Y024893D01*
X009311Y024893D01*
X009311Y024993D01*
X009411Y024993D01*
X010211Y025343D02*
X010211Y025693D01*
X010211Y026693D01*
X010211Y027043D01*
X009411Y027393D02*
X009311Y027393D01*
X009311Y027493D01*
X008711Y027493D01*
X008711Y027393D01*
X008611Y027393D01*
X008911Y026193D02*
X008913Y026213D01*
X008919Y026231D01*
X008928Y026249D01*
X008940Y026264D01*
X008955Y026276D01*
X008973Y026285D01*
X008991Y026291D01*
X009011Y026293D01*
X009031Y026291D01*
X009049Y026285D01*
X009067Y026276D01*
X009082Y026264D01*
X009094Y026249D01*
X009103Y026231D01*
X009109Y026213D01*
X009111Y026193D01*
X009109Y026173D01*
X009103Y026155D01*
X009094Y026137D01*
X009082Y026122D01*
X009067Y026110D01*
X009049Y026101D01*
X009031Y026095D01*
X009011Y026093D01*
X008991Y026095D01*
X008973Y026101D01*
X008955Y026110D01*
X008940Y026122D01*
X008928Y026137D01*
X008919Y026155D01*
X008913Y026173D01*
X008911Y026193D01*
X008311Y026193D02*
X008313Y026245D01*
X008319Y026297D01*
X008329Y026349D01*
X008342Y026399D01*
X008359Y026449D01*
X008380Y026497D01*
X008405Y026543D01*
X008433Y026587D01*
X008464Y026629D01*
X008498Y026669D01*
X008535Y026706D01*
X008575Y026740D01*
X008617Y026771D01*
X008661Y026799D01*
X008707Y026824D01*
X008755Y026845D01*
X008805Y026862D01*
X008855Y026875D01*
X008907Y026885D01*
X008959Y026891D01*
X009011Y026893D01*
X009063Y026891D01*
X009115Y026885D01*
X009167Y026875D01*
X009217Y026862D01*
X009267Y026845D01*
X009315Y026824D01*
X009361Y026799D01*
X009405Y026771D01*
X009447Y026740D01*
X009487Y026706D01*
X009524Y026669D01*
X009558Y026629D01*
X009589Y026587D01*
X009617Y026543D01*
X009642Y026497D01*
X009663Y026449D01*
X009680Y026399D01*
X009693Y026349D01*
X009703Y026297D01*
X009709Y026245D01*
X009711Y026193D01*
X009709Y026141D01*
X009703Y026089D01*
X009693Y026037D01*
X009680Y025987D01*
X009663Y025937D01*
X009642Y025889D01*
X009617Y025843D01*
X009589Y025799D01*
X009558Y025757D01*
X009524Y025717D01*
X009487Y025680D01*
X009447Y025646D01*
X009405Y025615D01*
X009361Y025587D01*
X009315Y025562D01*
X009267Y025541D01*
X009217Y025524D01*
X009167Y025511D01*
X009115Y025501D01*
X009063Y025495D01*
X009011Y025493D01*
X008959Y025495D01*
X008907Y025501D01*
X008855Y025511D01*
X008805Y025524D01*
X008755Y025541D01*
X008707Y025562D01*
X008661Y025587D01*
X008617Y025615D01*
X008575Y025646D01*
X008535Y025680D01*
X008498Y025717D01*
X008464Y025757D01*
X008433Y025799D01*
X008405Y025843D01*
X008380Y025889D01*
X008359Y025937D01*
X008342Y025987D01*
X008329Y026037D01*
X008319Y026089D01*
X008313Y026141D01*
X008311Y026193D01*
X011558Y029483D02*
X012058Y029483D01*
X012308Y029733D01*
X012558Y029483D01*
X013058Y029483D01*
X013308Y029733D01*
X013308Y030233D01*
X013058Y030483D01*
X012558Y030483D01*
X012308Y030233D01*
X012308Y029733D01*
X012308Y030233D02*
X012058Y030483D01*
X011558Y030483D01*
X011308Y030233D01*
X011308Y029733D01*
X011558Y029483D01*
X019428Y029733D02*
X019678Y029483D01*
X020178Y029483D01*
X020428Y029733D01*
X020678Y029483D01*
X021178Y029483D01*
X021428Y029733D01*
X021428Y030233D01*
X021178Y030483D01*
X020678Y030483D01*
X020428Y030233D01*
X020428Y029733D01*
X020428Y030233D02*
X020178Y030483D01*
X019678Y030483D01*
X019428Y030233D01*
X019428Y029733D01*
X022365Y030815D02*
X022365Y031765D01*
X026365Y031765D01*
X026365Y030815D01*
X025715Y030815D01*
X026365Y030815D02*
X026365Y028215D01*
X026365Y028115D01*
X022365Y028115D01*
X022365Y028215D01*
X022365Y030815D01*
X023015Y030815D01*
X023715Y030815D02*
X025015Y030815D01*
X025165Y028745D02*
X025167Y028773D01*
X025173Y028800D01*
X025182Y028826D01*
X025195Y028851D01*
X025212Y028874D01*
X025231Y028894D01*
X025253Y028911D01*
X025277Y028925D01*
X025303Y028935D01*
X025330Y028942D01*
X025358Y028945D01*
X025386Y028944D01*
X025413Y028939D01*
X025440Y028930D01*
X025465Y028918D01*
X025488Y028903D01*
X025509Y028884D01*
X025527Y028863D01*
X025542Y028839D01*
X025553Y028813D01*
X025561Y028787D01*
X025565Y028759D01*
X025565Y028731D01*
X025561Y028703D01*
X025553Y028677D01*
X025542Y028651D01*
X025527Y028627D01*
X025509Y028606D01*
X025488Y028587D01*
X025465Y028572D01*
X025440Y028560D01*
X025413Y028551D01*
X025386Y028546D01*
X025358Y028545D01*
X025330Y028548D01*
X025303Y028555D01*
X025277Y028565D01*
X025253Y028579D01*
X025231Y028596D01*
X025212Y028616D01*
X025195Y028639D01*
X025182Y028664D01*
X025173Y028690D01*
X025167Y028717D01*
X025165Y028745D01*
X026365Y028215D02*
X022365Y028215D01*
X023165Y028745D02*
X023167Y028773D01*
X023173Y028800D01*
X023182Y028826D01*
X023195Y028851D01*
X023212Y028874D01*
X023231Y028894D01*
X023253Y028911D01*
X023277Y028925D01*
X023303Y028935D01*
X023330Y028942D01*
X023358Y028945D01*
X023386Y028944D01*
X023413Y028939D01*
X023440Y028930D01*
X023465Y028918D01*
X023488Y028903D01*
X023509Y028884D01*
X023527Y028863D01*
X023542Y028839D01*
X023553Y028813D01*
X023561Y028787D01*
X023565Y028759D01*
X023565Y028731D01*
X023561Y028703D01*
X023553Y028677D01*
X023542Y028651D01*
X023527Y028627D01*
X023509Y028606D01*
X023488Y028587D01*
X023465Y028572D01*
X023440Y028560D01*
X023413Y028551D01*
X023386Y028546D01*
X023358Y028545D01*
X023330Y028548D01*
X023303Y028555D01*
X023277Y028565D01*
X023253Y028579D01*
X023231Y028596D01*
X023212Y028616D01*
X023195Y028639D01*
X023182Y028664D01*
X023173Y028690D01*
X023167Y028717D01*
X023165Y028745D01*
X023698Y027734D02*
X023698Y019834D01*
X029398Y019834D01*
X029398Y027734D01*
X027048Y027734D01*
X027046Y027690D01*
X027040Y027647D01*
X027031Y027605D01*
X027018Y027563D01*
X027001Y027523D01*
X026981Y027484D01*
X026958Y027447D01*
X026931Y027413D01*
X026902Y027380D01*
X026869Y027351D01*
X026835Y027324D01*
X026798Y027301D01*
X026759Y027281D01*
X026719Y027264D01*
X026677Y027251D01*
X026635Y027242D01*
X026592Y027236D01*
X026548Y027234D01*
X026504Y027236D01*
X026461Y027242D01*
X026419Y027251D01*
X026377Y027264D01*
X026337Y027281D01*
X026298Y027301D01*
X026261Y027324D01*
X026227Y027351D01*
X026194Y027380D01*
X026165Y027413D01*
X026138Y027447D01*
X026115Y027484D01*
X026095Y027523D01*
X026078Y027563D01*
X026065Y027605D01*
X026056Y027647D01*
X026050Y027690D01*
X026048Y027734D01*
X023698Y027734D01*
X025580Y026508D02*
X025580Y026008D01*
X025830Y025758D01*
X027330Y025758D01*
X027580Y025508D01*
X027580Y025008D01*
X027330Y024758D01*
X027580Y024508D01*
X027580Y024008D01*
X027330Y023758D01*
X025830Y023758D01*
X025580Y024008D01*
X025580Y024508D01*
X025830Y024758D01*
X027330Y024758D01*
X027330Y025758D02*
X027580Y026008D01*
X027580Y026508D01*
X027330Y026758D01*
X025830Y026758D01*
X025580Y026508D01*
X025830Y025758D02*
X025580Y025508D01*
X025580Y025008D01*
X025830Y024758D01*
X030509Y024532D02*
X030509Y024032D01*
X030759Y023782D01*
X031259Y023782D01*
X031509Y024032D01*
X031509Y024532D01*
X031259Y024782D01*
X030759Y024782D01*
X030509Y024532D01*
X030759Y024782D02*
X030509Y025032D01*
X030509Y025532D01*
X030759Y025782D01*
X031259Y025782D01*
X031509Y025532D01*
X031509Y025032D01*
X031259Y024782D01*
X031259Y023782D02*
X031509Y023532D01*
X031509Y023032D01*
X031259Y022782D01*
X031509Y022532D01*
X031509Y022032D01*
X031259Y021782D01*
X030759Y021782D01*
X030509Y022032D01*
X030509Y022532D01*
X030759Y022782D01*
X030509Y023032D01*
X030509Y023532D01*
X030759Y023782D01*
X030759Y022782D02*
X031259Y022782D01*
X029398Y019220D02*
X029398Y011320D01*
X023698Y011320D01*
X023698Y019220D01*
X026048Y019220D01*
X026050Y019176D01*
X026056Y019133D01*
X026065Y019091D01*
X026078Y019049D01*
X026095Y019009D01*
X026115Y018970D01*
X026138Y018933D01*
X026165Y018899D01*
X026194Y018866D01*
X026227Y018837D01*
X026261Y018810D01*
X026298Y018787D01*
X026337Y018767D01*
X026377Y018750D01*
X026419Y018737D01*
X026461Y018728D01*
X026504Y018722D01*
X026548Y018720D01*
X026592Y018722D01*
X026635Y018728D01*
X026677Y018737D01*
X026719Y018750D01*
X026759Y018767D01*
X026798Y018787D01*
X026835Y018810D01*
X026869Y018837D01*
X026902Y018866D01*
X026931Y018899D01*
X026958Y018933D01*
X026981Y018970D01*
X027001Y019009D01*
X027018Y019049D01*
X027031Y019091D01*
X027040Y019133D01*
X027046Y019176D01*
X027048Y019220D01*
X029398Y019220D01*
X027580Y017994D02*
X027580Y017494D01*
X027330Y017244D01*
X025830Y017244D01*
X025580Y016994D01*
X025580Y016494D01*
X025830Y016244D01*
X025580Y015994D01*
X025580Y015494D01*
X025830Y015244D01*
X027330Y015244D01*
X027580Y015494D01*
X027580Y015994D01*
X027330Y016244D01*
X025830Y016244D01*
X025830Y017244D02*
X025580Y017494D01*
X025580Y017994D01*
X025830Y018244D01*
X027330Y018244D01*
X027580Y017994D01*
X027330Y017244D02*
X027580Y016994D01*
X027580Y016494D01*
X027330Y016244D01*
X030459Y016018D02*
X030459Y015518D01*
X030709Y015268D01*
X031209Y015268D01*
X031459Y015518D01*
X031459Y016018D01*
X031209Y016268D01*
X030709Y016268D01*
X030459Y016018D01*
X030709Y016268D02*
X030459Y016518D01*
X030459Y017018D01*
X030709Y017268D01*
X031209Y017268D01*
X031459Y017018D01*
X031459Y016518D01*
X031209Y016268D01*
X031209Y015268D02*
X031459Y015018D01*
X031459Y014518D01*
X031209Y014268D01*
X031459Y014018D01*
X031459Y013518D01*
X031209Y013268D01*
X030709Y013268D01*
X030459Y013518D01*
X030459Y014018D01*
X030709Y014268D01*
X030459Y014518D01*
X030459Y015018D01*
X030709Y015268D01*
X030709Y014268D02*
X031209Y014268D01*
X029398Y010854D02*
X029398Y002954D01*
X023698Y002954D01*
X023698Y010854D01*
X026048Y010854D01*
X026050Y010810D01*
X026056Y010767D01*
X026065Y010725D01*
X026078Y010683D01*
X026095Y010643D01*
X026115Y010604D01*
X026138Y010567D01*
X026165Y010533D01*
X026194Y010500D01*
X026227Y010471D01*
X026261Y010444D01*
X026298Y010421D01*
X026337Y010401D01*
X026377Y010384D01*
X026419Y010371D01*
X026461Y010362D01*
X026504Y010356D01*
X026548Y010354D01*
X026592Y010356D01*
X026635Y010362D01*
X026677Y010371D01*
X026719Y010384D01*
X026759Y010401D01*
X026798Y010421D01*
X026835Y010444D01*
X026869Y010471D01*
X026902Y010500D01*
X026931Y010533D01*
X026958Y010567D01*
X026981Y010604D01*
X027001Y010643D01*
X027018Y010683D01*
X027031Y010725D01*
X027040Y010767D01*
X027046Y010810D01*
X027048Y010854D01*
X029398Y010854D01*
X027481Y009678D02*
X027481Y009178D01*
X027231Y008928D01*
X025731Y008928D01*
X025481Y008678D01*
X025481Y008178D01*
X025731Y007928D01*
X025481Y007678D01*
X025481Y007178D01*
X025731Y006928D01*
X027231Y006928D01*
X027481Y007178D01*
X027481Y007678D01*
X027231Y007928D01*
X025731Y007928D01*
X025731Y008928D02*
X025481Y009178D01*
X025481Y009678D01*
X025731Y009928D01*
X027231Y009928D01*
X027481Y009678D01*
X027231Y008928D02*
X027481Y008678D01*
X027481Y008178D01*
X027231Y007928D01*
X030509Y008162D02*
X030509Y008662D01*
X030759Y008912D01*
X031259Y008912D01*
X031509Y008662D01*
X031509Y008162D01*
X031259Y007912D01*
X031509Y007662D01*
X031509Y007162D01*
X031259Y006912D01*
X030759Y006912D01*
X030509Y007162D01*
X030509Y007662D01*
X030759Y007912D01*
X030509Y008162D01*
X030759Y007912D02*
X031259Y007912D01*
X031259Y006912D02*
X031509Y006662D01*
X031509Y006162D01*
X031259Y005912D01*
X031509Y005662D01*
X031509Y005162D01*
X031259Y004912D01*
X030759Y004912D01*
X030509Y005162D01*
X030509Y005662D01*
X030759Y005912D01*
X030509Y006162D01*
X030509Y006662D01*
X030759Y006912D01*
X030759Y005912D02*
X031259Y005912D01*
X020939Y005874D02*
X020939Y006088D01*
X020939Y005981D02*
X020512Y005981D01*
X020512Y005874D01*
X020299Y005981D02*
X020192Y005981D01*
X019889Y005979D02*
X019889Y005659D01*
X019783Y005552D01*
X019676Y005659D01*
X019676Y005979D01*
X019569Y005979D02*
X019889Y005979D01*
X019889Y006197D02*
X019462Y006197D01*
X019462Y006303D01*
X019569Y006410D01*
X019462Y006517D01*
X019569Y006624D01*
X019889Y006624D01*
X019889Y006410D02*
X019569Y006410D01*
X019569Y006841D02*
X019462Y006948D01*
X019462Y007161D01*
X019569Y007268D01*
X019676Y007268D01*
X019676Y006841D01*
X019783Y006841D02*
X019569Y006841D01*
X019783Y006841D02*
X019889Y006948D01*
X019889Y007161D01*
X019889Y007486D02*
X019462Y007486D01*
X019462Y007806D01*
X019569Y007913D01*
X019889Y007913D01*
X019783Y008237D02*
X019356Y008237D01*
X019462Y008130D02*
X019462Y008344D01*
X019249Y008560D02*
X019249Y008880D01*
X019356Y008987D01*
X019569Y008987D01*
X019676Y008880D01*
X019676Y008560D01*
X019889Y008560D02*
X019249Y008560D01*
X019676Y008773D02*
X019889Y008987D01*
X019783Y009205D02*
X019569Y009205D01*
X019462Y009311D01*
X019462Y009525D01*
X019569Y009632D01*
X019676Y009632D01*
X019676Y009205D01*
X019783Y009205D02*
X019889Y009311D01*
X019889Y009525D01*
X019783Y009849D02*
X019569Y009849D01*
X019462Y009956D01*
X019462Y010276D01*
X019462Y010494D02*
X019783Y010494D01*
X019889Y010600D01*
X019889Y010921D01*
X019996Y010921D02*
X020103Y010814D01*
X020103Y010707D01*
X019996Y010921D02*
X019462Y010921D01*
X019569Y011138D02*
X019783Y011138D01*
X019889Y011245D01*
X019889Y011565D01*
X019889Y011783D02*
X019889Y011996D01*
X019889Y011889D02*
X019249Y011889D01*
X019249Y011783D01*
X019462Y011565D02*
X019462Y011245D01*
X019569Y011138D01*
X019889Y010276D02*
X019889Y009956D01*
X019783Y009849D01*
X020299Y009634D02*
X020299Y009527D01*
X020299Y009634D02*
X020939Y009634D01*
X020939Y009740D02*
X020939Y009527D01*
X020939Y009309D02*
X020619Y009309D01*
X020512Y009203D01*
X020512Y008989D01*
X020619Y008882D01*
X020512Y008665D02*
X020512Y008344D01*
X020619Y008238D01*
X020833Y008238D01*
X020939Y008344D01*
X020939Y008665D01*
X020939Y008882D02*
X020299Y008882D01*
X019889Y008344D02*
X019783Y008237D01*
X020299Y007913D02*
X020299Y007700D01*
X020406Y007593D01*
X020512Y007593D01*
X020619Y007700D01*
X020619Y007913D01*
X020726Y008020D01*
X020833Y008020D01*
X020939Y007913D01*
X020939Y007700D01*
X020833Y007593D01*
X020406Y008020D02*
X020299Y007913D01*
X020619Y006731D02*
X020939Y006731D01*
X020619Y006731D02*
X020512Y006624D01*
X020512Y006304D01*
X020939Y006304D01*
X020939Y005657D02*
X020619Y005657D01*
X020512Y005550D01*
X020619Y005443D01*
X020939Y005443D01*
X020939Y005230D02*
X020512Y005230D01*
X020512Y005337D01*
X020619Y005443D01*
X020512Y005013D02*
X020512Y004906D01*
X020726Y004693D01*
X020939Y004693D02*
X020512Y004693D01*
X020512Y004475D02*
X020939Y004475D01*
X020619Y004475D02*
X020619Y004048D01*
X020512Y004048D02*
X020299Y004262D01*
X020512Y004475D01*
X020512Y004048D02*
X020939Y004048D01*
X019889Y004048D02*
X019249Y004048D01*
X019249Y004475D01*
X019462Y004693D02*
X019462Y004799D01*
X019889Y004799D01*
X019889Y004693D02*
X019889Y004906D01*
X019889Y005122D02*
X019889Y005336D01*
X019889Y005229D02*
X019249Y005229D01*
X019249Y005122D01*
X019249Y004799D02*
X019142Y004799D01*
X019569Y004262D02*
X019569Y004048D01*
X019462Y005659D02*
X019462Y005872D01*
X019569Y005979D01*
X015784Y008571D02*
X015534Y008321D01*
X015034Y008321D01*
X014784Y008571D01*
X014534Y008321D01*
X014034Y008321D01*
X013784Y008571D01*
X013784Y009071D01*
X014034Y009321D01*
X014534Y009321D01*
X014784Y009071D01*
X015034Y009321D01*
X015534Y009321D01*
X015784Y009071D01*
X015784Y008571D01*
X014784Y008571D02*
X014784Y009071D01*
X013784Y009071D02*
X013534Y009321D01*
X013034Y009321D01*
X012784Y009071D01*
X012534Y009321D01*
X012034Y009321D01*
X011784Y009071D01*
X011784Y008571D01*
X012034Y008321D01*
X012534Y008321D01*
X012784Y008571D01*
X012784Y009071D01*
X012784Y008571D02*
X013034Y008321D01*
X013534Y008321D01*
X013784Y008571D01*
X019249Y013502D02*
X019676Y013502D01*
X019889Y013715D01*
X019676Y013929D01*
X019249Y013929D01*
X019462Y014146D02*
X019249Y014360D01*
X019889Y014360D01*
X019889Y014573D02*
X019889Y014146D01*
X020299Y014039D02*
X020512Y014252D01*
X020726Y014252D01*
X020939Y014039D01*
X020833Y013821D02*
X020939Y013714D01*
X020939Y013501D01*
X020833Y013394D01*
X020406Y013394D01*
X020299Y013501D01*
X020299Y013714D01*
X020406Y013821D01*
X020299Y013178D02*
X020512Y012964D01*
X020726Y012964D01*
X020939Y013178D01*
X020939Y012104D02*
X020939Y011890D01*
X020939Y011997D02*
X020299Y011997D01*
X020299Y011890D01*
X020619Y011673D02*
X020512Y011566D01*
X020512Y011352D01*
X020619Y011246D01*
X020833Y011246D01*
X020939Y011352D01*
X020939Y011566D01*
X020726Y011673D02*
X020726Y011246D01*
X020939Y011028D02*
X020939Y010708D01*
X020833Y010601D01*
X020619Y010601D01*
X020512Y010708D01*
X020512Y011028D01*
X021046Y011028D01*
X021153Y010921D01*
X021153Y010815D01*
X020939Y010277D02*
X020939Y010063D01*
X020833Y009956D01*
X020619Y009956D01*
X020512Y010063D01*
X020512Y010277D01*
X020619Y010384D01*
X020726Y010384D01*
X020726Y009956D01*
X020726Y011673D02*
X020619Y011673D01*
X019889Y012319D02*
X019889Y012533D01*
X019889Y012319D02*
X019783Y012212D01*
X019569Y012212D01*
X019462Y012319D01*
X019462Y012533D01*
X019569Y012639D01*
X019676Y012639D01*
X019676Y012212D01*
X020406Y015113D02*
X020299Y015220D01*
X020299Y015433D01*
X020406Y015540D01*
X020512Y015540D01*
X020939Y015113D01*
X020939Y015540D01*
X020833Y015757D02*
X020406Y016184D01*
X020833Y016184D01*
X020939Y016078D01*
X020939Y015864D01*
X020833Y015757D01*
X020406Y015757D01*
X020299Y015864D01*
X020299Y016078D01*
X020406Y016184D01*
X020512Y016402D02*
X020299Y016615D01*
X020939Y016615D01*
X020939Y016402D02*
X020939Y016829D01*
X020939Y017047D02*
X020833Y017047D01*
X020406Y017474D01*
X020299Y017474D01*
X020299Y017047D01*
X004709Y017213D02*
X004609Y017213D01*
X004609Y014463D01*
X004709Y014463D01*
X004709Y013963D01*
X004609Y013963D01*
X004609Y013463D01*
X001109Y013463D01*
X001109Y015313D01*
X001309Y015463D01*
X001309Y015663D01*
X001309Y016263D01*
X001309Y016463D01*
X001109Y016613D01*
X001109Y016663D01*
X001509Y016663D01*
X001609Y016663D01*
X001609Y016263D01*
X001609Y015663D01*
X001509Y015663D01*
X001309Y015663D01*
X001609Y015663D02*
X001609Y013963D01*
X004109Y013963D01*
X004109Y020963D01*
X001609Y020963D01*
X001609Y018263D01*
X001509Y018263D01*
X001109Y018263D01*
X001109Y019213D01*
X001159Y019213D01*
X001159Y019713D01*
X001109Y019713D01*
X001109Y021463D01*
X004609Y021463D01*
X004609Y020963D01*
X004709Y020963D01*
X004709Y020463D01*
X004609Y020463D01*
X004609Y017713D01*
X004709Y017713D01*
X004709Y017213D01*
X001909Y016663D02*
X001609Y016663D01*
X001909Y016663D02*
X001909Y018263D01*
X001609Y018263D01*
X001109Y018263D02*
X001109Y016663D01*
X001309Y016263D02*
X001509Y016263D01*
X001609Y016263D01*
X001109Y013117D02*
X001109Y011367D01*
X001159Y011367D01*
X001159Y010867D01*
X001109Y010867D01*
X001109Y009917D01*
X001509Y009917D01*
X001609Y009917D01*
X001609Y012617D01*
X004109Y012617D01*
X004109Y005617D01*
X001609Y005617D01*
X001609Y007317D01*
X001609Y007917D01*
X001609Y008317D01*
X001509Y008317D01*
X001109Y008317D01*
X001109Y009917D01*
X001609Y009917D02*
X001909Y009917D01*
X001909Y008317D01*
X001609Y008317D01*
X001309Y008117D02*
X001109Y008267D01*
X001109Y008317D01*
X001309Y008117D02*
X001309Y007917D01*
X001309Y007317D01*
X001509Y007317D01*
X001609Y007317D01*
X001309Y007317D02*
X001309Y007117D01*
X001109Y006967D01*
X001109Y005117D01*
X004609Y005117D01*
X004609Y005617D01*
X004709Y005617D01*
X004709Y006117D01*
X004609Y006117D01*
X004609Y008867D01*
X004709Y008867D01*
X004709Y009367D01*
X004609Y009367D01*
X004609Y012117D01*
X004709Y012117D01*
X004709Y012617D01*
X004609Y012617D01*
X004609Y013117D01*
X001109Y013117D01*
X001309Y007917D02*
X001509Y007917D01*
X001609Y007917D01*
D12*
X011535Y009784D02*
X011597Y009722D01*
X011721Y009722D01*
X011782Y009784D01*
X011782Y009907D01*
X011659Y009907D01*
X011535Y009784D02*
X011535Y010031D01*
X011597Y010092D01*
X011721Y010092D01*
X011782Y010031D01*
X011904Y010092D02*
X012151Y009722D01*
X012151Y010092D01*
X012272Y010092D02*
X012272Y009722D01*
X012457Y009722D01*
X012519Y009784D01*
X012519Y010031D01*
X012457Y010092D01*
X012272Y010092D01*
X012272Y010322D02*
X012272Y010692D01*
X012457Y010692D01*
X012519Y010631D01*
X012519Y010507D01*
X012457Y010446D01*
X012272Y010446D01*
X012396Y010446D02*
X012519Y010322D01*
X012764Y010322D02*
X012764Y010692D01*
X012887Y010692D02*
X012640Y010692D01*
X012151Y010569D02*
X012151Y010322D01*
X012151Y010507D02*
X011904Y010507D01*
X011904Y010569D02*
X011904Y010322D01*
X011782Y010384D02*
X011782Y010692D01*
X011904Y010569D02*
X012027Y010692D01*
X012151Y010569D01*
X011782Y010384D02*
X011721Y010322D01*
X011597Y010322D01*
X011535Y010384D01*
X011535Y010692D01*
X011904Y010092D02*
X011904Y009722D01*
X013009Y009722D02*
X013009Y010092D01*
X013194Y010092D01*
X013256Y010031D01*
X013256Y009907D01*
X013194Y009846D01*
X013009Y009846D01*
X013132Y009846D02*
X013256Y009722D01*
X013377Y009722D02*
X013624Y009969D01*
X013377Y009969D02*
X013624Y009722D01*
X014114Y010092D02*
X014361Y010092D01*
X014237Y010092D02*
X014237Y009722D01*
X014482Y009722D02*
X014729Y009969D01*
X014482Y009969D02*
X014729Y009722D01*
X015219Y009784D02*
X015280Y009722D01*
X015404Y009722D01*
X015465Y009784D01*
X015465Y009907D01*
X015404Y009969D01*
X015342Y009969D01*
X015219Y009907D01*
X015219Y010092D01*
X015465Y010092D01*
X015587Y010092D02*
X015587Y009846D01*
X015710Y009722D01*
X015834Y009846D01*
X015834Y010092D01*
X024813Y010169D02*
X025007Y010169D01*
X025108Y010169D02*
X025108Y010459D01*
X025301Y010169D01*
X025301Y010459D01*
X025007Y010459D02*
X024813Y010459D01*
X024813Y010169D01*
X024813Y010314D02*
X024910Y010314D01*
X025007Y009459D02*
X025007Y009169D01*
X025108Y009217D02*
X025156Y009169D01*
X025253Y009169D01*
X025301Y009217D01*
X025301Y009266D01*
X025253Y009314D01*
X025156Y009314D01*
X025108Y009362D01*
X025108Y009411D01*
X025156Y009459D01*
X025253Y009459D01*
X025301Y009411D01*
X025402Y009362D02*
X025499Y009459D01*
X025499Y009169D01*
X025402Y009169D02*
X025596Y009169D01*
X025007Y009459D02*
X024910Y009362D01*
X024813Y009459D01*
X024813Y009169D01*
X024813Y008459D02*
X024910Y008362D01*
X025007Y008459D01*
X025007Y008169D01*
X025108Y008217D02*
X025156Y008169D01*
X025253Y008169D01*
X025301Y008217D01*
X025301Y008266D01*
X025253Y008314D01*
X025156Y008314D01*
X025108Y008362D01*
X025108Y008411D01*
X025156Y008459D01*
X025253Y008459D01*
X025301Y008411D01*
X025402Y008411D02*
X025451Y008459D01*
X025547Y008459D01*
X025596Y008411D01*
X025596Y008362D01*
X025402Y008169D01*
X025596Y008169D01*
X025547Y007459D02*
X025596Y007411D01*
X025596Y007362D01*
X025547Y007314D01*
X025596Y007266D01*
X025596Y007217D01*
X025547Y007169D01*
X025451Y007169D01*
X025402Y007217D01*
X025301Y007217D02*
X025253Y007169D01*
X025156Y007169D01*
X025108Y007217D01*
X025156Y007314D02*
X025108Y007362D01*
X025108Y007411D01*
X025156Y007459D01*
X025253Y007459D01*
X025301Y007411D01*
X025402Y007411D02*
X025451Y007459D01*
X025547Y007459D01*
X025547Y007314D02*
X025499Y007314D01*
X025301Y007266D02*
X025301Y007217D01*
X025301Y007266D02*
X025253Y007314D01*
X025156Y007314D01*
X025007Y007459D02*
X025007Y007169D01*
X024813Y007169D02*
X024813Y007459D01*
X024910Y007362D01*
X025007Y007459D01*
X024813Y008169D02*
X024813Y008459D01*
X024813Y006459D02*
X024958Y006459D01*
X025007Y006411D01*
X025007Y006314D01*
X024958Y006266D01*
X024813Y006266D01*
X024910Y006266D02*
X025007Y006169D01*
X025108Y006217D02*
X025156Y006169D01*
X025253Y006169D01*
X025301Y006217D01*
X025301Y006266D01*
X025253Y006314D01*
X025156Y006314D01*
X025108Y006362D01*
X025108Y006411D01*
X025156Y006459D01*
X025253Y006459D01*
X025301Y006411D01*
X025402Y006459D02*
X025596Y006459D01*
X025499Y006459D02*
X025499Y006169D01*
X024813Y006169D02*
X024813Y006459D01*
X024861Y005459D02*
X024813Y005411D01*
X024813Y005362D01*
X024861Y005314D01*
X024958Y005314D01*
X025007Y005266D01*
X025007Y005217D01*
X024958Y005169D01*
X024861Y005169D01*
X024813Y005217D01*
X024861Y005459D02*
X024958Y005459D01*
X025007Y005411D01*
X025108Y005459D02*
X025108Y005169D01*
X025301Y005169D01*
X025402Y005169D02*
X025402Y005459D01*
X025547Y005459D01*
X025596Y005411D01*
X025596Y005314D01*
X025547Y005266D01*
X025402Y005266D01*
X025402Y004459D02*
X025402Y004169D01*
X025596Y004169D01*
X025697Y004169D02*
X025697Y004459D01*
X025842Y004459D01*
X025890Y004411D01*
X025890Y004314D01*
X025842Y004266D01*
X025697Y004266D01*
X025499Y004314D02*
X025402Y004314D01*
X025402Y004459D02*
X025596Y004459D01*
X025301Y004459D02*
X025108Y004459D01*
X025204Y004459D02*
X025204Y004169D01*
X025007Y004217D02*
X024958Y004169D01*
X024861Y004169D01*
X024813Y004217D01*
X024861Y004314D02*
X024958Y004314D01*
X025007Y004266D01*
X025007Y004217D01*
X024861Y004314D02*
X024813Y004362D01*
X024813Y004411D01*
X024861Y004459D01*
X024958Y004459D01*
X025007Y004411D01*
X024958Y003459D02*
X024813Y003459D01*
X024813Y003169D01*
X024958Y003169D01*
X025007Y003217D01*
X025007Y003411D01*
X024958Y003459D01*
X025108Y003459D02*
X025204Y003459D01*
X025156Y003459D02*
X025156Y003169D01*
X025108Y003169D02*
X025204Y003169D01*
X025304Y003169D02*
X025304Y003459D01*
X025449Y003459D01*
X025498Y003411D01*
X025498Y003314D01*
X025449Y003266D01*
X025304Y003266D01*
X025401Y003266D02*
X025498Y003169D01*
X027429Y003397D02*
X027477Y003349D01*
X027574Y003349D01*
X027623Y003397D01*
X027623Y003494D01*
X027526Y003494D01*
X027623Y003591D02*
X027574Y003639D01*
X027477Y003639D01*
X027429Y003591D01*
X027429Y003397D01*
X027724Y003349D02*
X027724Y003639D01*
X027917Y003349D01*
X027917Y003639D01*
X028018Y003639D02*
X028018Y003349D01*
X028164Y003349D01*
X028212Y003397D01*
X028212Y003591D01*
X028164Y003639D01*
X028018Y003639D01*
X028018Y004349D02*
X028164Y004349D01*
X028212Y004397D01*
X028212Y004591D01*
X028164Y004639D01*
X028018Y004639D01*
X028018Y004349D01*
X027917Y004397D02*
X027917Y004591D01*
X027869Y004639D01*
X027724Y004639D01*
X027724Y004349D01*
X027869Y004349D01*
X027917Y004397D01*
X027623Y004446D02*
X027623Y004639D01*
X027623Y004446D02*
X027526Y004349D01*
X027429Y004446D01*
X027429Y004639D01*
X027724Y005349D02*
X027917Y005349D01*
X027820Y005349D02*
X027820Y005639D01*
X027724Y005542D01*
X028018Y005494D02*
X028164Y005494D01*
X028212Y005446D01*
X028212Y005397D01*
X028164Y005349D01*
X028018Y005349D01*
X028018Y005639D01*
X028164Y005639D01*
X028212Y005591D01*
X028212Y005542D01*
X028164Y005494D01*
X028212Y006349D02*
X028212Y006542D01*
X028115Y006639D01*
X028018Y006542D01*
X028018Y006349D01*
X027917Y006349D02*
X027724Y006349D01*
X027820Y006349D02*
X027820Y006639D01*
X027724Y006542D01*
X028018Y006494D02*
X028212Y006494D01*
X028212Y007349D02*
X028212Y007542D01*
X028115Y007639D01*
X028018Y007542D01*
X028018Y007349D01*
X027917Y007349D02*
X027724Y007349D01*
X027917Y007542D01*
X027917Y007591D01*
X027869Y007639D01*
X027772Y007639D01*
X027724Y007591D01*
X028018Y007494D02*
X028212Y007494D01*
X028164Y008349D02*
X028018Y008349D01*
X028018Y008639D01*
X028164Y008639D01*
X028212Y008591D01*
X028212Y008542D01*
X028164Y008494D01*
X028018Y008494D01*
X027917Y008542D02*
X027917Y008591D01*
X027869Y008639D01*
X027772Y008639D01*
X027724Y008591D01*
X027917Y008542D02*
X027724Y008349D01*
X027917Y008349D01*
X028164Y008349D02*
X028212Y008397D01*
X028212Y008446D01*
X028164Y008494D01*
X028164Y009349D02*
X028212Y009397D01*
X028212Y009591D01*
X028164Y009639D01*
X028018Y009639D01*
X028018Y009349D01*
X028164Y009349D01*
X027917Y009349D02*
X027917Y009639D01*
X027724Y009639D02*
X027917Y009349D01*
X027724Y009349D02*
X027724Y009639D01*
X027623Y009591D02*
X027574Y009639D01*
X027477Y009639D01*
X027429Y009591D01*
X027429Y009397D01*
X027477Y009349D01*
X027574Y009349D01*
X027623Y009397D01*
X027623Y009494D01*
X027526Y009494D01*
X027527Y010349D02*
X027527Y010542D01*
X027576Y010542D01*
X027624Y010494D01*
X027672Y010542D01*
X027721Y010494D01*
X027721Y010349D01*
X027624Y010349D02*
X027624Y010494D01*
X027822Y010494D02*
X027870Y010542D01*
X027967Y010542D01*
X028015Y010494D01*
X028015Y010397D01*
X027967Y010349D01*
X027870Y010349D01*
X027822Y010397D01*
X027822Y010494D01*
X028117Y010542D02*
X028213Y010542D01*
X028165Y010591D02*
X028165Y010397D01*
X028213Y010349D01*
X027426Y010446D02*
X027426Y010639D01*
X027426Y010446D02*
X027329Y010349D01*
X027233Y010446D01*
X027233Y010639D01*
X027477Y011715D02*
X027574Y011715D01*
X027623Y011763D01*
X027623Y011860D01*
X027526Y011860D01*
X027429Y011957D02*
X027429Y011763D01*
X027477Y011715D01*
X027429Y011957D02*
X027477Y012005D01*
X027574Y012005D01*
X027623Y011957D01*
X027724Y012005D02*
X027917Y011715D01*
X027917Y012005D01*
X028018Y012005D02*
X028018Y011715D01*
X028164Y011715D01*
X028212Y011763D01*
X028212Y011957D01*
X028164Y012005D01*
X028018Y012005D01*
X027724Y012005D02*
X027724Y011715D01*
X027724Y012715D02*
X027869Y012715D01*
X027917Y012763D01*
X027917Y012957D01*
X027869Y013005D01*
X027724Y013005D01*
X027724Y012715D01*
X027623Y012812D02*
X027623Y013005D01*
X027623Y012812D02*
X027526Y012715D01*
X027429Y012812D01*
X027429Y013005D01*
X028018Y013005D02*
X028018Y012715D01*
X028164Y012715D01*
X028212Y012763D01*
X028212Y012957D01*
X028164Y013005D01*
X028018Y013005D01*
X028018Y013715D02*
X028164Y013715D01*
X028212Y013763D01*
X028212Y013812D01*
X028164Y013860D01*
X028018Y013860D01*
X028018Y013715D02*
X028018Y014005D01*
X028164Y014005D01*
X028212Y013957D01*
X028212Y013909D01*
X028164Y013860D01*
X027917Y013715D02*
X027724Y013715D01*
X027820Y013715D02*
X027820Y014005D01*
X027724Y013909D01*
X027724Y014715D02*
X027917Y014715D01*
X027820Y014715D02*
X027820Y015005D01*
X027724Y014909D01*
X028018Y014909D02*
X028115Y015005D01*
X028212Y014909D01*
X028212Y014715D01*
X028212Y014860D02*
X028018Y014860D01*
X028018Y014909D02*
X028018Y014715D01*
X028018Y015715D02*
X028018Y015909D01*
X028115Y016005D01*
X028212Y015909D01*
X028212Y015715D01*
X028212Y015860D02*
X028018Y015860D01*
X027917Y015909D02*
X027917Y015957D01*
X027869Y016005D01*
X027772Y016005D01*
X027724Y015957D01*
X027917Y015909D02*
X027724Y015715D01*
X027917Y015715D01*
X027917Y016715D02*
X027724Y016715D01*
X027917Y016909D01*
X027917Y016957D01*
X027869Y017005D01*
X027772Y017005D01*
X027724Y016957D01*
X028018Y017005D02*
X028018Y016715D01*
X028164Y016715D01*
X028212Y016763D01*
X028212Y016812D01*
X028164Y016860D01*
X028018Y016860D01*
X028018Y017005D02*
X028164Y017005D01*
X028212Y016957D01*
X028212Y016909D01*
X028164Y016860D01*
X028164Y017715D02*
X028212Y017763D01*
X028212Y017957D01*
X028164Y018005D01*
X028018Y018005D01*
X028018Y017715D01*
X028164Y017715D01*
X027917Y017715D02*
X027917Y018005D01*
X027724Y018005D02*
X027917Y017715D01*
X027724Y017715D02*
X027724Y018005D01*
X027623Y017957D02*
X027574Y018005D01*
X027477Y018005D01*
X027429Y017957D01*
X027429Y017763D01*
X027477Y017715D01*
X027574Y017715D01*
X027623Y017763D01*
X027623Y017860D01*
X027526Y017860D01*
X027527Y018715D02*
X027527Y018909D01*
X027576Y018909D01*
X027624Y018860D01*
X027672Y018909D01*
X027721Y018860D01*
X027721Y018715D01*
X027624Y018715D02*
X027624Y018860D01*
X027822Y018860D02*
X027822Y018763D01*
X027870Y018715D01*
X027967Y018715D01*
X028015Y018763D01*
X028015Y018860D01*
X027967Y018909D01*
X027870Y018909D01*
X027822Y018860D01*
X028117Y018909D02*
X028213Y018909D01*
X028165Y018957D02*
X028165Y018763D01*
X028213Y018715D01*
X027426Y018812D02*
X027426Y019005D01*
X027426Y018812D02*
X027329Y018715D01*
X027233Y018812D01*
X027233Y019005D01*
X027477Y020229D02*
X027574Y020229D01*
X027623Y020277D01*
X027623Y020374D01*
X027526Y020374D01*
X027623Y020471D02*
X027574Y020519D01*
X027477Y020519D01*
X027429Y020471D01*
X027429Y020277D01*
X027477Y020229D01*
X027724Y020229D02*
X027724Y020519D01*
X027917Y020229D01*
X027917Y020519D01*
X028018Y020519D02*
X028018Y020229D01*
X028164Y020229D01*
X028212Y020277D01*
X028212Y020471D01*
X028164Y020519D01*
X028018Y020519D01*
X028018Y021229D02*
X028164Y021229D01*
X028212Y021277D01*
X028212Y021471D01*
X028164Y021519D01*
X028018Y021519D01*
X028018Y021229D01*
X027917Y021277D02*
X027917Y021471D01*
X027869Y021519D01*
X027724Y021519D01*
X027724Y021229D01*
X027869Y021229D01*
X027917Y021277D01*
X027623Y021326D02*
X027623Y021519D01*
X027623Y021326D02*
X027526Y021229D01*
X027429Y021326D01*
X027429Y021519D01*
X027724Y022229D02*
X027917Y022229D01*
X027820Y022229D02*
X027820Y022519D01*
X027724Y022422D01*
X028018Y022374D02*
X028164Y022374D01*
X028212Y022326D01*
X028212Y022277D01*
X028164Y022229D01*
X028018Y022229D01*
X028018Y022519D01*
X028164Y022519D01*
X028212Y022471D01*
X028212Y022422D01*
X028164Y022374D01*
X028212Y023229D02*
X028212Y023422D01*
X028115Y023519D01*
X028018Y023422D01*
X028018Y023229D01*
X027917Y023229D02*
X027724Y023229D01*
X027820Y023229D02*
X027820Y023519D01*
X027724Y023422D01*
X028018Y023374D02*
X028212Y023374D01*
X028212Y024229D02*
X028212Y024422D01*
X028115Y024519D01*
X028018Y024422D01*
X028018Y024229D01*
X027917Y024229D02*
X027724Y024229D01*
X027917Y024422D01*
X027917Y024471D01*
X027869Y024519D01*
X027772Y024519D01*
X027724Y024471D01*
X028018Y024374D02*
X028212Y024374D01*
X028164Y025229D02*
X028018Y025229D01*
X028018Y025519D01*
X028164Y025519D01*
X028212Y025471D01*
X028212Y025422D01*
X028164Y025374D01*
X028018Y025374D01*
X027917Y025422D02*
X027917Y025471D01*
X027869Y025519D01*
X027772Y025519D01*
X027724Y025471D01*
X027917Y025422D02*
X027724Y025229D01*
X027917Y025229D01*
X028164Y025229D02*
X028212Y025277D01*
X028212Y025326D01*
X028164Y025374D01*
X028164Y026229D02*
X028212Y026277D01*
X028212Y026471D01*
X028164Y026519D01*
X028018Y026519D01*
X028018Y026229D01*
X028164Y026229D01*
X027917Y026229D02*
X027917Y026519D01*
X027724Y026519D02*
X027917Y026229D01*
X027724Y026229D02*
X027724Y026519D01*
X027623Y026471D02*
X027574Y026519D01*
X027477Y026519D01*
X027429Y026471D01*
X027429Y026277D01*
X027477Y026229D01*
X027574Y026229D01*
X027623Y026277D01*
X027623Y026374D01*
X027526Y026374D01*
X027527Y027229D02*
X027527Y027422D01*
X027576Y027422D01*
X027624Y027374D01*
X027672Y027422D01*
X027721Y027374D01*
X027721Y027229D01*
X027624Y027229D02*
X027624Y027374D01*
X027822Y027374D02*
X027822Y027277D01*
X027870Y027229D01*
X027967Y027229D01*
X028015Y027277D01*
X028015Y027374D01*
X027967Y027422D01*
X027870Y027422D01*
X027822Y027374D01*
X028117Y027422D02*
X028213Y027422D01*
X028165Y027471D02*
X028165Y027277D01*
X028213Y027229D01*
X027426Y027326D02*
X027426Y027519D01*
X027233Y027519D02*
X027233Y027326D01*
X027329Y027229D01*
X027426Y027326D01*
X025499Y026339D02*
X025499Y026049D01*
X025402Y026049D02*
X025596Y026049D01*
X025402Y026242D02*
X025499Y026339D01*
X025301Y026291D02*
X025253Y026339D01*
X025156Y026339D01*
X025108Y026291D01*
X025108Y026242D01*
X025156Y026194D01*
X025253Y026194D01*
X025301Y026146D01*
X025301Y026097D01*
X025253Y026049D01*
X025156Y026049D01*
X025108Y026097D01*
X025007Y026049D02*
X025007Y026339D01*
X024910Y026242D01*
X024813Y026339D01*
X024813Y026049D01*
X024813Y025339D02*
X024910Y025242D01*
X025007Y025339D01*
X025007Y025049D01*
X025108Y025097D02*
X025156Y025049D01*
X025253Y025049D01*
X025301Y025097D01*
X025301Y025146D01*
X025253Y025194D01*
X025156Y025194D01*
X025108Y025242D01*
X025108Y025291D01*
X025156Y025339D01*
X025253Y025339D01*
X025301Y025291D01*
X025402Y025291D02*
X025451Y025339D01*
X025547Y025339D01*
X025596Y025291D01*
X025596Y025242D01*
X025402Y025049D01*
X025596Y025049D01*
X025547Y024339D02*
X025596Y024291D01*
X025596Y024242D01*
X025547Y024194D01*
X025596Y024146D01*
X025596Y024097D01*
X025547Y024049D01*
X025451Y024049D01*
X025402Y024097D01*
X025301Y024097D02*
X025253Y024049D01*
X025156Y024049D01*
X025108Y024097D01*
X025156Y024194D02*
X025108Y024242D01*
X025108Y024291D01*
X025156Y024339D01*
X025253Y024339D01*
X025301Y024291D01*
X025402Y024291D02*
X025451Y024339D01*
X025547Y024339D01*
X025547Y024194D02*
X025499Y024194D01*
X025301Y024146D02*
X025301Y024097D01*
X025301Y024146D02*
X025253Y024194D01*
X025156Y024194D01*
X025007Y024339D02*
X025007Y024049D01*
X024813Y024049D02*
X024813Y024339D01*
X024910Y024242D01*
X025007Y024339D01*
X024813Y025049D02*
X024813Y025339D01*
X024813Y027049D02*
X025007Y027049D01*
X025108Y027049D02*
X025108Y027339D01*
X025301Y027049D01*
X025301Y027339D01*
X025007Y027339D02*
X024813Y027339D01*
X024813Y027049D01*
X024813Y027194D02*
X024910Y027194D01*
X024958Y023339D02*
X025007Y023291D01*
X025007Y023194D01*
X024958Y023146D01*
X024813Y023146D01*
X024910Y023146D02*
X025007Y023049D01*
X025108Y023097D02*
X025156Y023049D01*
X025253Y023049D01*
X025301Y023097D01*
X025301Y023146D01*
X025253Y023194D01*
X025156Y023194D01*
X025108Y023242D01*
X025108Y023291D01*
X025156Y023339D01*
X025253Y023339D01*
X025301Y023291D01*
X025402Y023339D02*
X025596Y023339D01*
X025499Y023339D02*
X025499Y023049D01*
X024958Y023339D02*
X024813Y023339D01*
X024813Y023049D01*
X024861Y022339D02*
X024813Y022291D01*
X024813Y022242D01*
X024861Y022194D01*
X024958Y022194D01*
X025007Y022146D01*
X025007Y022097D01*
X024958Y022049D01*
X024861Y022049D01*
X024813Y022097D01*
X024861Y022339D02*
X024958Y022339D01*
X025007Y022291D01*
X025108Y022339D02*
X025108Y022049D01*
X025301Y022049D01*
X025402Y022049D02*
X025402Y022339D01*
X025547Y022339D01*
X025596Y022291D01*
X025596Y022194D01*
X025547Y022146D01*
X025402Y022146D01*
X025402Y021339D02*
X025402Y021049D01*
X025596Y021049D01*
X025697Y021049D02*
X025697Y021339D01*
X025842Y021339D01*
X025890Y021291D01*
X025890Y021194D01*
X025842Y021146D01*
X025697Y021146D01*
X025499Y021194D02*
X025402Y021194D01*
X025402Y021339D02*
X025596Y021339D01*
X025301Y021339D02*
X025108Y021339D01*
X025204Y021339D02*
X025204Y021049D01*
X025007Y021097D02*
X024958Y021049D01*
X024861Y021049D01*
X024813Y021097D01*
X024861Y021194D02*
X024958Y021194D01*
X025007Y021146D01*
X025007Y021097D01*
X024861Y021194D02*
X024813Y021242D01*
X024813Y021291D01*
X024861Y021339D01*
X024958Y021339D01*
X025007Y021291D01*
X024958Y020339D02*
X024813Y020339D01*
X024813Y020049D01*
X024958Y020049D01*
X025007Y020097D01*
X025007Y020291D01*
X024958Y020339D01*
X025108Y020339D02*
X025204Y020339D01*
X025156Y020339D02*
X025156Y020049D01*
X025108Y020049D02*
X025204Y020049D01*
X025304Y020049D02*
X025304Y020339D01*
X025449Y020339D01*
X025498Y020291D01*
X025498Y020194D01*
X025449Y020146D01*
X025304Y020146D01*
X025401Y020146D02*
X025498Y020049D01*
X025301Y018825D02*
X025301Y018535D01*
X025108Y018825D01*
X025108Y018535D01*
X025007Y018535D02*
X024813Y018535D01*
X024813Y018825D01*
X025007Y018825D01*
X024910Y018680D02*
X024813Y018680D01*
X024813Y017825D02*
X024910Y017729D01*
X025007Y017825D01*
X025007Y017535D01*
X025108Y017583D02*
X025156Y017535D01*
X025253Y017535D01*
X025301Y017583D01*
X025301Y017632D01*
X025253Y017680D01*
X025156Y017680D01*
X025108Y017729D01*
X025108Y017777D01*
X025156Y017825D01*
X025253Y017825D01*
X025301Y017777D01*
X025402Y017729D02*
X025499Y017825D01*
X025499Y017535D01*
X025402Y017535D02*
X025596Y017535D01*
X025547Y016825D02*
X025451Y016825D01*
X025402Y016777D01*
X025301Y016777D02*
X025253Y016825D01*
X025156Y016825D01*
X025108Y016777D01*
X025108Y016729D01*
X025156Y016680D01*
X025253Y016680D01*
X025301Y016632D01*
X025301Y016583D01*
X025253Y016535D01*
X025156Y016535D01*
X025108Y016583D01*
X025007Y016535D02*
X025007Y016825D01*
X024910Y016729D01*
X024813Y016825D01*
X024813Y016535D01*
X025402Y016535D02*
X025596Y016729D01*
X025596Y016777D01*
X025547Y016825D01*
X025596Y016535D02*
X025402Y016535D01*
X025451Y015825D02*
X025402Y015777D01*
X025451Y015825D02*
X025547Y015825D01*
X025596Y015777D01*
X025596Y015729D01*
X025547Y015680D01*
X025596Y015632D01*
X025596Y015583D01*
X025547Y015535D01*
X025451Y015535D01*
X025402Y015583D01*
X025301Y015583D02*
X025253Y015535D01*
X025156Y015535D01*
X025108Y015583D01*
X025156Y015680D02*
X025108Y015729D01*
X025108Y015777D01*
X025156Y015825D01*
X025253Y015825D01*
X025301Y015777D01*
X025253Y015680D02*
X025301Y015632D01*
X025301Y015583D01*
X025253Y015680D02*
X025156Y015680D01*
X025007Y015825D02*
X025007Y015535D01*
X024813Y015535D02*
X024813Y015825D01*
X024910Y015729D01*
X025007Y015825D01*
X025499Y015680D02*
X025547Y015680D01*
X025499Y014825D02*
X025499Y014535D01*
X025301Y014583D02*
X025253Y014535D01*
X025156Y014535D01*
X025108Y014583D01*
X025156Y014680D02*
X025108Y014729D01*
X025108Y014777D01*
X025156Y014825D01*
X025253Y014825D01*
X025301Y014777D01*
X025253Y014680D02*
X025301Y014632D01*
X025301Y014583D01*
X025253Y014680D02*
X025156Y014680D01*
X025007Y014680D02*
X024958Y014632D01*
X024813Y014632D01*
X024910Y014632D02*
X025007Y014535D01*
X025007Y014680D02*
X025007Y014777D01*
X024958Y014825D01*
X024813Y014825D01*
X024813Y014535D01*
X025402Y014825D02*
X025596Y014825D01*
X025547Y013825D02*
X025402Y013825D01*
X025402Y013535D01*
X025402Y013632D02*
X025547Y013632D01*
X025596Y013680D01*
X025596Y013777D01*
X025547Y013825D01*
X025301Y013535D02*
X025108Y013535D01*
X025108Y013825D01*
X025007Y013777D02*
X024958Y013825D01*
X024861Y013825D01*
X024813Y013777D01*
X024813Y013729D01*
X024861Y013680D01*
X024958Y013680D01*
X025007Y013632D01*
X025007Y013583D01*
X024958Y013535D01*
X024861Y013535D01*
X024813Y013583D01*
X024861Y012825D02*
X024813Y012777D01*
X024813Y012729D01*
X024861Y012680D01*
X024958Y012680D01*
X025007Y012632D01*
X025007Y012583D01*
X024958Y012535D01*
X024861Y012535D01*
X024813Y012583D01*
X024861Y012825D02*
X024958Y012825D01*
X025007Y012777D01*
X025108Y012825D02*
X025301Y012825D01*
X025204Y012825D02*
X025204Y012535D01*
X025402Y012535D02*
X025596Y012535D01*
X025697Y012535D02*
X025697Y012825D01*
X025842Y012825D01*
X025890Y012777D01*
X025890Y012680D01*
X025842Y012632D01*
X025697Y012632D01*
X025499Y012680D02*
X025402Y012680D01*
X025402Y012825D02*
X025402Y012535D01*
X025402Y012825D02*
X025596Y012825D01*
X025449Y011825D02*
X025304Y011825D01*
X025304Y011535D01*
X025304Y011632D02*
X025449Y011632D01*
X025498Y011680D01*
X025498Y011777D01*
X025449Y011825D01*
X025401Y011632D02*
X025498Y011535D01*
X025204Y011535D02*
X025108Y011535D01*
X025156Y011535D02*
X025156Y011825D01*
X025108Y011825D02*
X025204Y011825D01*
X025007Y011777D02*
X024958Y011825D01*
X024813Y011825D01*
X024813Y011535D01*
X024958Y011535D01*
X025007Y011583D01*
X025007Y011777D01*
X024813Y017535D02*
X024813Y017825D01*
D13*
X012072Y006351D02*
X012072Y004900D01*
X012072Y006351D02*
X007426Y006351D01*
X007426Y004900D01*
X007426Y003351D02*
X007426Y000150D01*
X012072Y000150D01*
X012072Y003351D01*
D14*
X011389Y003695D02*
X011389Y004040D01*
X011192Y004040D01*
X011192Y004237D02*
X011165Y004235D01*
X011139Y004230D01*
X011114Y004221D01*
X011090Y004208D01*
X011068Y004193D01*
X011048Y004174D01*
X011031Y004154D01*
X011017Y004131D01*
X011006Y004106D01*
X010999Y004080D01*
X010995Y004053D01*
X010995Y004027D01*
X010999Y004000D01*
X011006Y003974D01*
X011017Y003949D01*
X011031Y003926D01*
X011048Y003906D01*
X011068Y003887D01*
X011090Y003872D01*
X011114Y003859D01*
X011139Y003850D01*
X011165Y003845D01*
X011192Y003843D01*
X011192Y004040D01*
X011093Y004434D02*
X011054Y004432D01*
X011016Y004426D01*
X010979Y004417D01*
X010942Y004404D01*
X010907Y004387D01*
X010874Y004368D01*
X010843Y004345D01*
X010814Y004319D01*
X010788Y004290D01*
X010765Y004259D01*
X010746Y004226D01*
X010729Y004191D01*
X010716Y004154D01*
X010707Y004117D01*
X010701Y004079D01*
X010699Y004040D01*
X010701Y004001D01*
X010707Y003963D01*
X010716Y003926D01*
X010729Y003889D01*
X010746Y003854D01*
X010765Y003821D01*
X010788Y003790D01*
X010814Y003761D01*
X010843Y003735D01*
X010874Y003712D01*
X010907Y003693D01*
X010942Y003676D01*
X010979Y003663D01*
X011016Y003654D01*
X011054Y003648D01*
X011093Y003646D01*
X011192Y004236D02*
X011241Y004241D01*
X011290Y004243D01*
X011339Y004241D01*
X011388Y004236D01*
X011387Y004237D02*
X011387Y004412D01*
X011388Y003695D02*
X011331Y003678D01*
X011272Y003664D01*
X011213Y003654D01*
X011153Y003648D01*
X011093Y003646D01*
X010601Y003646D02*
X010404Y003941D01*
X010257Y004089D02*
X010109Y004089D01*
X010109Y004237D01*
X010257Y004237D01*
X010272Y004235D01*
X010287Y004231D01*
X010300Y004223D01*
X010312Y004213D01*
X010321Y004200D01*
X010327Y004186D01*
X010331Y004171D01*
X010331Y004155D01*
X010327Y004140D01*
X010321Y004126D01*
X010312Y004113D01*
X010300Y004103D01*
X010287Y004095D01*
X010272Y004091D01*
X010257Y004089D01*
X010404Y003941D02*
X010434Y003943D01*
X010463Y003948D01*
X010491Y003957D01*
X010518Y003969D01*
X010544Y003985D01*
X010567Y004003D01*
X010588Y004024D01*
X010606Y004047D01*
X010622Y004073D01*
X010634Y004100D01*
X010643Y004128D01*
X010648Y004157D01*
X010650Y004187D01*
X010648Y004217D01*
X010643Y004246D01*
X010634Y004274D01*
X010622Y004301D01*
X010606Y004327D01*
X010588Y004350D01*
X010567Y004371D01*
X010544Y004389D01*
X010518Y004405D01*
X010491Y004417D01*
X010463Y004426D01*
X010434Y004431D01*
X010404Y004433D01*
X009863Y004433D01*
X009863Y003646D01*
X010109Y003646D01*
X010109Y003941D01*
X010306Y003646D01*
X010601Y003646D01*
X009765Y003646D02*
X009765Y003843D01*
X009322Y003843D01*
X009322Y003941D01*
X009765Y003941D01*
X009765Y004138D01*
X009322Y004138D01*
X009322Y004237D01*
X009765Y004237D01*
X009765Y004433D01*
X009076Y004433D01*
X009076Y003646D01*
X009765Y003646D01*
X008780Y003646D02*
X008485Y003646D01*
X008780Y003843D01*
X008780Y003646D02*
X008807Y003648D01*
X008833Y003653D01*
X008858Y003662D01*
X008882Y003675D01*
X008904Y003690D01*
X008924Y003709D01*
X008941Y003729D01*
X008955Y003752D01*
X008966Y003777D01*
X008973Y003803D01*
X008977Y003830D01*
X008977Y003856D01*
X008973Y003883D01*
X008966Y003909D01*
X008955Y003934D01*
X008941Y003957D01*
X008924Y003977D01*
X008904Y003996D01*
X008882Y004011D01*
X008858Y004024D01*
X008833Y004033D01*
X008807Y004038D01*
X008780Y004040D01*
X008780Y004237D02*
X008485Y004433D01*
X008780Y004433D01*
X008780Y004434D02*
X008807Y004432D01*
X008833Y004427D01*
X008858Y004418D01*
X008882Y004405D01*
X008904Y004390D01*
X008924Y004371D01*
X008941Y004351D01*
X008955Y004328D01*
X008966Y004303D01*
X008973Y004277D01*
X008977Y004250D01*
X008977Y004224D01*
X008973Y004197D01*
X008966Y004171D01*
X008955Y004146D01*
X008941Y004123D01*
X008924Y004103D01*
X008904Y004084D01*
X008882Y004069D01*
X008858Y004056D01*
X008833Y004047D01*
X008807Y004042D01*
X008780Y004040D01*
X008780Y004237D02*
X008485Y004040D01*
X008780Y003843D01*
X008485Y003646D02*
X008485Y004040D01*
X008485Y004433D01*
X008239Y004433D01*
X008239Y003646D01*
X008485Y003646D01*
X011093Y004433D02*
X011168Y004434D01*
X011243Y004430D01*
X011318Y004423D01*
X011392Y004412D01*
X004209Y005517D02*
X004209Y012717D01*
X001509Y012717D01*
X001509Y009917D01*
X001509Y008317D02*
X001509Y007917D01*
X001509Y007317D02*
X001509Y005517D01*
X004209Y005517D01*
X004209Y013863D02*
X001509Y013863D01*
X001509Y015663D01*
X001509Y016263D02*
X001509Y016663D01*
X001509Y018263D02*
X001509Y021063D01*
X004209Y021063D01*
X004209Y013863D01*
X007811Y025743D02*
X007911Y025743D01*
X007911Y026693D01*
X007811Y026693D01*
X010111Y026693D02*
X010111Y025693D01*
X010211Y025693D01*
X010211Y026693D02*
X010111Y026693D01*
D15*
X010097Y003498D02*
X010122Y003473D01*
X010122Y003373D01*
X010097Y003348D01*
X010047Y003348D01*
X010022Y003373D01*
X010022Y003473D01*
X010047Y003498D01*
X010097Y003498D01*
X010316Y003498D02*
X010416Y003348D01*
X010416Y003498D01*
X010316Y003498D02*
X010316Y003348D01*
X010611Y003348D02*
X010661Y003348D01*
X010636Y003348D02*
X010636Y003498D01*
X010611Y003498D02*
X010661Y003498D01*
X010857Y003473D02*
X010857Y003373D01*
X010882Y003348D01*
X010932Y003348D01*
X010957Y003373D01*
X010957Y003473D02*
X010932Y003498D01*
X010882Y003498D01*
X010857Y003473D01*
X011151Y003473D02*
X011151Y003448D01*
X011176Y003423D01*
X011226Y003423D01*
X011251Y003398D01*
X011251Y003373D01*
X011226Y003348D01*
X011176Y003348D01*
X011151Y003373D01*
X011151Y003473D02*
X011176Y003498D01*
X011226Y003498D01*
X011251Y003473D01*
X009827Y003473D02*
X009827Y003423D01*
X009802Y003398D01*
X009727Y003398D01*
X009727Y003348D02*
X009727Y003498D01*
X009802Y003498D01*
X009827Y003473D01*
X009777Y003398D02*
X009827Y003348D01*
X009533Y003498D02*
X009432Y003498D01*
X009482Y003498D02*
X009482Y003348D01*
X009238Y003373D02*
X009213Y003348D01*
X009163Y003348D01*
X009138Y003373D01*
X009138Y003473D01*
X009163Y003498D01*
X009213Y003498D01*
X009238Y003473D01*
X008943Y003498D02*
X008843Y003498D01*
X008843Y003348D01*
X008943Y003348D01*
X008893Y003423D02*
X008843Y003423D01*
X008649Y003348D02*
X008548Y003348D01*
X008548Y003498D01*
X008354Y003498D02*
X008254Y003498D01*
X008254Y003348D01*
X008354Y003348D01*
X008304Y003423D02*
X008254Y003423D01*
D16*
X007959Y006666D02*
X008036Y006743D01*
X008036Y006820D01*
X007959Y006896D01*
X007729Y006896D01*
X007729Y006743D01*
X007806Y006666D01*
X007959Y006666D01*
X007729Y006896D02*
X007883Y007050D01*
X008036Y007126D01*
X007576Y007126D02*
X007269Y006666D01*
X007576Y006666D02*
X007269Y007126D01*
X013584Y006981D02*
X013661Y006904D01*
X013737Y006904D01*
X013814Y006981D01*
X013814Y007365D01*
X013737Y007365D02*
X013891Y007365D01*
X014044Y007211D02*
X014198Y007365D01*
X014198Y006904D01*
X014351Y006904D02*
X014044Y006904D01*
D17*
X016163Y008686D02*
X016238Y008611D01*
X016313Y008611D01*
X016388Y008686D01*
X016388Y009061D01*
X016313Y009061D02*
X016463Y009061D01*
X016623Y009061D02*
X016849Y009061D01*
X016924Y008986D01*
X016924Y008836D01*
X016849Y008761D01*
X016623Y008761D01*
X016623Y008611D02*
X016623Y009061D01*
X017084Y008911D02*
X017234Y009061D01*
X017234Y008611D01*
X017084Y008611D02*
X017384Y008611D01*
X017544Y008611D02*
X017844Y008911D01*
X017844Y008986D01*
X017769Y009061D01*
X017619Y009061D01*
X017544Y008986D01*
X017544Y008611D02*
X017844Y008611D01*
X025892Y006333D02*
X025967Y006258D01*
X026042Y006258D01*
X026117Y006333D01*
X026117Y006708D01*
X026042Y006708D02*
X026192Y006708D01*
X026352Y006708D02*
X026578Y006708D01*
X026653Y006633D01*
X026653Y006483D01*
X026578Y006408D01*
X026352Y006408D01*
X026352Y006258D02*
X026352Y006708D01*
X026813Y006558D02*
X026963Y006708D01*
X026963Y006258D01*
X026813Y006258D02*
X027113Y006258D01*
X029785Y006334D02*
X029860Y006410D01*
X030010Y006410D01*
X030085Y006334D01*
X030085Y006109D01*
X030235Y006109D02*
X029785Y006109D01*
X029785Y006334D01*
X029935Y006570D02*
X029785Y006720D01*
X030235Y006720D01*
X030235Y006570D02*
X030235Y006870D01*
X030235Y007030D02*
X030235Y007330D01*
X030235Y007180D02*
X029785Y007180D01*
X029935Y007030D01*
X029785Y005949D02*
X029785Y005799D01*
X029785Y005874D02*
X030160Y005874D01*
X030235Y005799D01*
X030235Y005724D01*
X030160Y005649D01*
X030111Y013432D02*
X030186Y013507D01*
X030186Y013582D01*
X030111Y013657D01*
X029736Y013657D01*
X029736Y013582D02*
X029736Y013732D01*
X029736Y013892D02*
X029736Y014118D01*
X029811Y014193D01*
X029961Y014193D01*
X030036Y014118D01*
X030036Y013892D01*
X030186Y013892D02*
X029736Y013892D01*
X029736Y014353D02*
X029736Y014653D01*
X029811Y014653D01*
X030111Y014353D01*
X030186Y014353D01*
X027113Y014699D02*
X027038Y014624D01*
X026888Y014624D01*
X026813Y014699D01*
X026813Y014849D02*
X026963Y014924D01*
X027038Y014924D01*
X027113Y014849D01*
X027113Y014699D01*
X026813Y014849D02*
X026813Y015074D01*
X027113Y015074D01*
X026653Y014999D02*
X026653Y014849D01*
X026578Y014774D01*
X026352Y014774D01*
X026352Y014624D02*
X026352Y015074D01*
X026578Y015074D01*
X026653Y014999D01*
X026192Y015074D02*
X026042Y015074D01*
X026117Y015074D02*
X026117Y014699D01*
X026042Y014624D01*
X025967Y014624D01*
X025892Y014699D01*
X030012Y021995D02*
X030088Y022070D01*
X030088Y022145D01*
X030012Y022220D01*
X029637Y022220D01*
X029637Y022145D02*
X029637Y022295D01*
X029637Y022455D02*
X029637Y022681D01*
X029712Y022756D01*
X029862Y022756D01*
X029937Y022681D01*
X029937Y022455D01*
X030088Y022455D02*
X029637Y022455D01*
X029712Y022916D02*
X029787Y022916D01*
X029862Y022991D01*
X029862Y023141D01*
X029937Y023216D01*
X030012Y023216D01*
X030088Y023141D01*
X030088Y022991D01*
X030012Y022916D01*
X029937Y022916D01*
X029862Y022991D01*
X029862Y023141D02*
X029787Y023216D01*
X029712Y023216D01*
X029637Y023141D01*
X029637Y022991D01*
X029712Y022916D01*
X027113Y023163D02*
X027113Y023239D01*
X027038Y023314D01*
X026813Y023314D01*
X026813Y023163D01*
X026888Y023088D01*
X027038Y023088D01*
X027113Y023163D01*
X026813Y023314D02*
X026963Y023464D01*
X027113Y023539D01*
X026653Y023464D02*
X026653Y023314D01*
X026578Y023239D01*
X026352Y023239D01*
X026352Y023088D02*
X026352Y023539D01*
X026578Y023539D01*
X026653Y023464D01*
X026192Y023539D02*
X026042Y023539D01*
X026117Y023539D02*
X026117Y023163D01*
X026042Y023088D01*
X025967Y023088D01*
X025892Y023163D01*
X021990Y028432D02*
X021689Y028432D01*
X021840Y028432D02*
X021840Y028882D01*
X021689Y028732D01*
X021529Y028882D02*
X021229Y028432D01*
X021529Y028432D02*
X021229Y028882D01*
X019093Y029842D02*
X019093Y030292D01*
X018867Y030067D01*
X019168Y030067D01*
X018707Y030067D02*
X018632Y029992D01*
X018407Y029992D01*
X018407Y029842D02*
X018407Y030292D01*
X018632Y030292D01*
X018707Y030217D01*
X018707Y030067D01*
X018247Y030292D02*
X018097Y030292D01*
X018172Y030292D02*
X018172Y029917D01*
X018097Y029842D01*
X018022Y029842D01*
X017947Y029917D01*
X010998Y029917D02*
X010923Y029842D01*
X010773Y029842D01*
X010698Y029917D01*
X010848Y030067D02*
X010923Y030067D01*
X010998Y029992D01*
X010998Y029917D01*
X010923Y030067D02*
X010998Y030142D01*
X010998Y030217D01*
X010923Y030292D01*
X010773Y030292D01*
X010698Y030217D01*
X010538Y030217D02*
X010538Y030067D01*
X010463Y029992D01*
X010238Y029992D01*
X010238Y029842D02*
X010238Y030292D01*
X010463Y030292D01*
X010538Y030217D01*
X010078Y030292D02*
X009927Y030292D01*
X010002Y030292D02*
X010002Y029917D01*
X009927Y029842D01*
X009852Y029842D01*
X009777Y029917D01*
X010936Y027258D02*
X010936Y026958D01*
X010936Y027108D02*
X010485Y027108D01*
X010635Y026958D01*
X010560Y026798D02*
X010485Y026723D01*
X010485Y026573D01*
X010560Y026498D01*
X010635Y026498D01*
X010710Y026573D01*
X010710Y026723D01*
X010786Y026798D01*
X010861Y026798D01*
X010936Y026723D01*
X010936Y026573D01*
X010861Y026498D01*
X003759Y026415D02*
X003759Y026115D01*
X003459Y026415D01*
X003383Y026415D01*
X003308Y026340D01*
X003308Y026190D01*
X003383Y026115D01*
X003383Y025955D02*
X003534Y025955D01*
X003609Y025879D01*
X003609Y025654D01*
X003759Y025654D02*
X003308Y025654D01*
X003308Y025879D01*
X003383Y025955D01*
X003308Y025494D02*
X003308Y025344D01*
X003308Y025419D02*
X003684Y025419D01*
X003759Y025344D01*
X003759Y025269D01*
X003684Y025194D01*
X003584Y020328D02*
X003584Y020028D01*
X003284Y020328D01*
X003209Y020328D01*
X003134Y020253D01*
X003134Y020103D01*
X003209Y020028D01*
X002584Y020028D02*
X002584Y020328D01*
X002584Y020178D02*
X002134Y020178D01*
X002284Y020028D01*
X001659Y017728D02*
X001359Y017728D01*
X001659Y017428D01*
X001734Y017503D01*
X001734Y017653D01*
X001659Y017728D01*
X001359Y017728D02*
X001284Y017653D01*
X001284Y017503D01*
X001359Y017428D01*
X001659Y017428D01*
X001734Y017267D02*
X001734Y016967D01*
X001734Y017117D02*
X001284Y017117D01*
X001434Y016967D01*
X002584Y011981D02*
X002584Y011681D01*
X002584Y011831D02*
X002134Y011831D01*
X002284Y011681D01*
X003134Y011756D02*
X003209Y011681D01*
X003134Y011756D02*
X003134Y011906D01*
X003209Y011981D01*
X003284Y011981D01*
X003584Y011681D01*
X003584Y011981D01*
X001659Y009381D02*
X001359Y009381D01*
X001659Y009081D01*
X001734Y009156D01*
X001734Y009306D01*
X001659Y009381D01*
X001659Y009081D02*
X001359Y009081D01*
X001284Y009156D01*
X001284Y009306D01*
X001359Y009381D01*
X001734Y008921D02*
X001734Y008621D01*
X001734Y008771D02*
X001284Y008771D01*
X001434Y008621D01*
D18*
X004894Y011323D02*
X004999Y011218D01*
X005104Y011218D01*
X005209Y011323D01*
X005209Y011533D01*
X005314Y011638D01*
X005419Y011638D01*
X005524Y011533D01*
X005524Y011323D01*
X005419Y011218D01*
X004894Y011323D02*
X004894Y011533D01*
X004999Y011638D01*
X004894Y011862D02*
X005314Y011862D01*
X005524Y012073D01*
X005314Y012283D01*
X004894Y012283D01*
X004999Y012507D02*
X004894Y012612D01*
X004894Y012822D01*
X004999Y012927D01*
X005104Y012927D01*
X005524Y012507D01*
X005524Y012927D01*
X005419Y019564D02*
X005524Y019669D01*
X005524Y019880D01*
X005419Y019985D01*
X005314Y019985D01*
X005209Y019880D01*
X005209Y019669D01*
X005104Y019564D01*
X004999Y019564D01*
X004894Y019669D01*
X004894Y019880D01*
X004999Y019985D01*
X004894Y020209D02*
X005314Y020209D01*
X005524Y020419D01*
X005314Y020629D01*
X004894Y020629D01*
X004999Y020853D02*
X004894Y020959D01*
X004894Y021169D01*
X004999Y021274D01*
X005104Y021274D01*
X005209Y021169D01*
X005314Y021274D01*
X005419Y021274D01*
X005524Y021169D01*
X005524Y020959D01*
X005419Y020853D01*
X005209Y021064D02*
X005209Y021169D01*
D19*
X013371Y006420D02*
X014001Y006420D01*
X013371Y006420D02*
X013371Y000790D01*
X016757Y000790D01*
X016757Y003920D01*
X016757Y005790D02*
X016757Y006420D01*
X016127Y006420D01*
M02*
