G75*
%MOIN*%
%OFA0B0*%
%FSLAX24Y24*%
%IPPOS*%
%LPD*%
%AMOC8*
5,1,8,0,0,1.08239X$1,22.5*
%
%ADD10C,0.0000*%
%ADD11OC8,0.0591*%
%ADD12OC8,0.1424*%
%ADD13R,0.0394X0.0433*%
%ADD14R,0.0472X0.0472*%
%ADD15R,0.0591X0.0630*%
%ADD16R,0.0600X0.0600*%
%ADD17C,0.0600*%
%ADD18OC8,0.0540*%
%ADD19OC8,0.0480*%
%ADD20C,0.0240*%
%ADD21C,0.0320*%
%ADD22C,0.0079*%
%ADD23C,0.0197*%
%ADD24C,0.0236*%
%ADD25C,0.0400*%
D10*
X000394Y000139D02*
X000394Y035179D01*
X039370Y035179D01*
X039370Y000139D01*
X000394Y000139D01*
X000945Y002108D02*
X000947Y002158D01*
X000953Y002208D01*
X000963Y002257D01*
X000977Y002305D01*
X000994Y002352D01*
X001015Y002397D01*
X001040Y002441D01*
X001068Y002482D01*
X001100Y002521D01*
X001134Y002558D01*
X001171Y002592D01*
X001211Y002622D01*
X001253Y002649D01*
X001297Y002673D01*
X001343Y002694D01*
X001390Y002710D01*
X001438Y002723D01*
X001488Y002732D01*
X001537Y002737D01*
X001588Y002738D01*
X001638Y002735D01*
X001687Y002728D01*
X001736Y002717D01*
X001784Y002702D01*
X001830Y002684D01*
X001875Y002662D01*
X001918Y002636D01*
X001959Y002607D01*
X001998Y002575D01*
X002034Y002540D01*
X002066Y002502D01*
X002096Y002462D01*
X002123Y002419D01*
X002146Y002375D01*
X002165Y002329D01*
X002181Y002281D01*
X002193Y002232D01*
X002201Y002183D01*
X002205Y002133D01*
X002205Y002083D01*
X002201Y002033D01*
X002193Y001984D01*
X002181Y001935D01*
X002165Y001887D01*
X002146Y001841D01*
X002123Y001797D01*
X002096Y001754D01*
X002066Y001714D01*
X002034Y001676D01*
X001998Y001641D01*
X001959Y001609D01*
X001918Y001580D01*
X001875Y001554D01*
X001830Y001532D01*
X001784Y001514D01*
X001736Y001499D01*
X001687Y001488D01*
X001638Y001481D01*
X001588Y001478D01*
X001537Y001479D01*
X001488Y001484D01*
X001438Y001493D01*
X001390Y001506D01*
X001343Y001522D01*
X001297Y001543D01*
X001253Y001567D01*
X001211Y001594D01*
X001171Y001624D01*
X001134Y001658D01*
X001100Y001695D01*
X001068Y001734D01*
X001040Y001775D01*
X001015Y001819D01*
X000994Y001864D01*
X000977Y001911D01*
X000963Y001959D01*
X000953Y002008D01*
X000947Y002058D01*
X000945Y002108D01*
X000854Y011793D02*
X000856Y011843D01*
X000862Y011893D01*
X000872Y011942D01*
X000886Y011990D01*
X000903Y012037D01*
X000924Y012082D01*
X000949Y012126D01*
X000977Y012167D01*
X001009Y012206D01*
X001043Y012243D01*
X001080Y012277D01*
X001120Y012307D01*
X001162Y012334D01*
X001206Y012358D01*
X001252Y012379D01*
X001299Y012395D01*
X001347Y012408D01*
X001397Y012417D01*
X001446Y012422D01*
X001497Y012423D01*
X001547Y012420D01*
X001596Y012413D01*
X001645Y012402D01*
X001693Y012387D01*
X001739Y012369D01*
X001784Y012347D01*
X001827Y012321D01*
X001868Y012292D01*
X001907Y012260D01*
X001943Y012225D01*
X001975Y012187D01*
X002005Y012147D01*
X002032Y012104D01*
X002055Y012060D01*
X002074Y012014D01*
X002090Y011966D01*
X002102Y011917D01*
X002110Y011868D01*
X002114Y011818D01*
X002114Y011768D01*
X002110Y011718D01*
X002102Y011669D01*
X002090Y011620D01*
X002074Y011572D01*
X002055Y011526D01*
X002032Y011482D01*
X002005Y011439D01*
X001975Y011399D01*
X001943Y011361D01*
X001907Y011326D01*
X001868Y011294D01*
X001827Y011265D01*
X001784Y011239D01*
X001739Y011217D01*
X001693Y011199D01*
X001645Y011184D01*
X001596Y011173D01*
X001547Y011166D01*
X001497Y011163D01*
X001446Y011164D01*
X001397Y011169D01*
X001347Y011178D01*
X001299Y011191D01*
X001252Y011207D01*
X001206Y011228D01*
X001162Y011252D01*
X001120Y011279D01*
X001080Y011309D01*
X001043Y011343D01*
X001009Y011380D01*
X000977Y011419D01*
X000949Y011460D01*
X000924Y011504D01*
X000903Y011549D01*
X000886Y011596D01*
X000872Y011644D01*
X000862Y011693D01*
X000856Y011743D01*
X000854Y011793D01*
X000846Y011803D02*
X000848Y011853D01*
X000854Y011903D01*
X000864Y011952D01*
X000878Y012000D01*
X000895Y012047D01*
X000916Y012092D01*
X000941Y012136D01*
X000969Y012177D01*
X001001Y012216D01*
X001035Y012253D01*
X001072Y012287D01*
X001112Y012317D01*
X001154Y012344D01*
X001198Y012368D01*
X001244Y012389D01*
X001291Y012405D01*
X001339Y012418D01*
X001389Y012427D01*
X001438Y012432D01*
X001489Y012433D01*
X001539Y012430D01*
X001588Y012423D01*
X001637Y012412D01*
X001685Y012397D01*
X001731Y012379D01*
X001776Y012357D01*
X001819Y012331D01*
X001860Y012302D01*
X001899Y012270D01*
X001935Y012235D01*
X001967Y012197D01*
X001997Y012157D01*
X002024Y012114D01*
X002047Y012070D01*
X002066Y012024D01*
X002082Y011976D01*
X002094Y011927D01*
X002102Y011878D01*
X002106Y011828D01*
X002106Y011778D01*
X002102Y011728D01*
X002094Y011679D01*
X002082Y011630D01*
X002066Y011582D01*
X002047Y011536D01*
X002024Y011492D01*
X001997Y011449D01*
X001967Y011409D01*
X001935Y011371D01*
X001899Y011336D01*
X001860Y011304D01*
X001819Y011275D01*
X001776Y011249D01*
X001731Y011227D01*
X001685Y011209D01*
X001637Y011194D01*
X001588Y011183D01*
X001539Y011176D01*
X001489Y011173D01*
X001438Y011174D01*
X001389Y011179D01*
X001339Y011188D01*
X001291Y011201D01*
X001244Y011217D01*
X001198Y011238D01*
X001154Y011262D01*
X001112Y011289D01*
X001072Y011319D01*
X001035Y011353D01*
X001001Y011390D01*
X000969Y011429D01*
X000941Y011470D01*
X000916Y011514D01*
X000895Y011559D01*
X000878Y011606D01*
X000864Y011654D01*
X000854Y011703D01*
X000848Y011753D01*
X000846Y011803D01*
X001339Y030848D02*
X001341Y030898D01*
X001347Y030948D01*
X001357Y030997D01*
X001371Y031045D01*
X001388Y031092D01*
X001409Y031137D01*
X001434Y031181D01*
X001462Y031222D01*
X001494Y031261D01*
X001528Y031298D01*
X001565Y031332D01*
X001605Y031362D01*
X001647Y031389D01*
X001691Y031413D01*
X001737Y031434D01*
X001784Y031450D01*
X001832Y031463D01*
X001882Y031472D01*
X001931Y031477D01*
X001982Y031478D01*
X002032Y031475D01*
X002081Y031468D01*
X002130Y031457D01*
X002178Y031442D01*
X002224Y031424D01*
X002269Y031402D01*
X002312Y031376D01*
X002353Y031347D01*
X002392Y031315D01*
X002428Y031280D01*
X002460Y031242D01*
X002490Y031202D01*
X002517Y031159D01*
X002540Y031115D01*
X002559Y031069D01*
X002575Y031021D01*
X002587Y030972D01*
X002595Y030923D01*
X002599Y030873D01*
X002599Y030823D01*
X002595Y030773D01*
X002587Y030724D01*
X002575Y030675D01*
X002559Y030627D01*
X002540Y030581D01*
X002517Y030537D01*
X002490Y030494D01*
X002460Y030454D01*
X002428Y030416D01*
X002392Y030381D01*
X002353Y030349D01*
X002312Y030320D01*
X002269Y030294D01*
X002224Y030272D01*
X002178Y030254D01*
X002130Y030239D01*
X002081Y030228D01*
X002032Y030221D01*
X001982Y030218D01*
X001931Y030219D01*
X001882Y030224D01*
X001832Y030233D01*
X001784Y030246D01*
X001737Y030262D01*
X001691Y030283D01*
X001647Y030307D01*
X001605Y030334D01*
X001565Y030364D01*
X001528Y030398D01*
X001494Y030435D01*
X001462Y030474D01*
X001434Y030515D01*
X001409Y030559D01*
X001388Y030604D01*
X001371Y030651D01*
X001357Y030699D01*
X001347Y030748D01*
X001341Y030798D01*
X001339Y030848D01*
X000854Y033446D02*
X000856Y033496D01*
X000862Y033546D01*
X000872Y033595D01*
X000886Y033643D01*
X000903Y033690D01*
X000924Y033735D01*
X000949Y033779D01*
X000977Y033820D01*
X001009Y033859D01*
X001043Y033896D01*
X001080Y033930D01*
X001120Y033960D01*
X001162Y033987D01*
X001206Y034011D01*
X001252Y034032D01*
X001299Y034048D01*
X001347Y034061D01*
X001397Y034070D01*
X001446Y034075D01*
X001497Y034076D01*
X001547Y034073D01*
X001596Y034066D01*
X001645Y034055D01*
X001693Y034040D01*
X001739Y034022D01*
X001784Y034000D01*
X001827Y033974D01*
X001868Y033945D01*
X001907Y033913D01*
X001943Y033878D01*
X001975Y033840D01*
X002005Y033800D01*
X002032Y033757D01*
X002055Y033713D01*
X002074Y033667D01*
X002090Y033619D01*
X002102Y033570D01*
X002110Y033521D01*
X002114Y033471D01*
X002114Y033421D01*
X002110Y033371D01*
X002102Y033322D01*
X002090Y033273D01*
X002074Y033225D01*
X002055Y033179D01*
X002032Y033135D01*
X002005Y033092D01*
X001975Y033052D01*
X001943Y033014D01*
X001907Y032979D01*
X001868Y032947D01*
X001827Y032918D01*
X001784Y032892D01*
X001739Y032870D01*
X001693Y032852D01*
X001645Y032837D01*
X001596Y032826D01*
X001547Y032819D01*
X001497Y032816D01*
X001446Y032817D01*
X001397Y032822D01*
X001347Y032831D01*
X001299Y032844D01*
X001252Y032860D01*
X001206Y032881D01*
X001162Y032905D01*
X001120Y032932D01*
X001080Y032962D01*
X001043Y032996D01*
X001009Y033033D01*
X000977Y033072D01*
X000949Y033113D01*
X000924Y033157D01*
X000903Y033202D01*
X000886Y033249D01*
X000872Y033297D01*
X000862Y033346D01*
X000856Y033396D01*
X000854Y033446D01*
X000846Y033456D02*
X000848Y033506D01*
X000854Y033556D01*
X000864Y033605D01*
X000878Y033653D01*
X000895Y033700D01*
X000916Y033745D01*
X000941Y033789D01*
X000969Y033830D01*
X001001Y033869D01*
X001035Y033906D01*
X001072Y033940D01*
X001112Y033970D01*
X001154Y033997D01*
X001198Y034021D01*
X001244Y034042D01*
X001291Y034058D01*
X001339Y034071D01*
X001389Y034080D01*
X001438Y034085D01*
X001489Y034086D01*
X001539Y034083D01*
X001588Y034076D01*
X001637Y034065D01*
X001685Y034050D01*
X001731Y034032D01*
X001776Y034010D01*
X001819Y033984D01*
X001860Y033955D01*
X001899Y033923D01*
X001935Y033888D01*
X001967Y033850D01*
X001997Y033810D01*
X002024Y033767D01*
X002047Y033723D01*
X002066Y033677D01*
X002082Y033629D01*
X002094Y033580D01*
X002102Y033531D01*
X002106Y033481D01*
X002106Y033431D01*
X002102Y033381D01*
X002094Y033332D01*
X002082Y033283D01*
X002066Y033235D01*
X002047Y033189D01*
X002024Y033145D01*
X001997Y033102D01*
X001967Y033062D01*
X001935Y033024D01*
X001899Y032989D01*
X001860Y032957D01*
X001819Y032928D01*
X001776Y032902D01*
X001731Y032880D01*
X001685Y032862D01*
X001637Y032847D01*
X001588Y032836D01*
X001539Y032829D01*
X001489Y032826D01*
X001438Y032827D01*
X001389Y032832D01*
X001339Y032841D01*
X001291Y032854D01*
X001244Y032870D01*
X001198Y032891D01*
X001154Y032915D01*
X001112Y032942D01*
X001072Y032972D01*
X001035Y033006D01*
X001001Y033043D01*
X000969Y033082D01*
X000941Y033123D01*
X000916Y033167D01*
X000895Y033212D01*
X000878Y033259D01*
X000864Y033307D01*
X000854Y033356D01*
X000848Y033406D01*
X000846Y033456D01*
X037165Y030848D02*
X037167Y030898D01*
X037173Y030948D01*
X037183Y030997D01*
X037197Y031045D01*
X037214Y031092D01*
X037235Y031137D01*
X037260Y031181D01*
X037288Y031222D01*
X037320Y031261D01*
X037354Y031298D01*
X037391Y031332D01*
X037431Y031362D01*
X037473Y031389D01*
X037517Y031413D01*
X037563Y031434D01*
X037610Y031450D01*
X037658Y031463D01*
X037708Y031472D01*
X037757Y031477D01*
X037808Y031478D01*
X037858Y031475D01*
X037907Y031468D01*
X037956Y031457D01*
X038004Y031442D01*
X038050Y031424D01*
X038095Y031402D01*
X038138Y031376D01*
X038179Y031347D01*
X038218Y031315D01*
X038254Y031280D01*
X038286Y031242D01*
X038316Y031202D01*
X038343Y031159D01*
X038366Y031115D01*
X038385Y031069D01*
X038401Y031021D01*
X038413Y030972D01*
X038421Y030923D01*
X038425Y030873D01*
X038425Y030823D01*
X038421Y030773D01*
X038413Y030724D01*
X038401Y030675D01*
X038385Y030627D01*
X038366Y030581D01*
X038343Y030537D01*
X038316Y030494D01*
X038286Y030454D01*
X038254Y030416D01*
X038218Y030381D01*
X038179Y030349D01*
X038138Y030320D01*
X038095Y030294D01*
X038050Y030272D01*
X038004Y030254D01*
X037956Y030239D01*
X037907Y030228D01*
X037858Y030221D01*
X037808Y030218D01*
X037757Y030219D01*
X037708Y030224D01*
X037658Y030233D01*
X037610Y030246D01*
X037563Y030262D01*
X037517Y030283D01*
X037473Y030307D01*
X037431Y030334D01*
X037391Y030364D01*
X037354Y030398D01*
X037320Y030435D01*
X037288Y030474D01*
X037260Y030515D01*
X037235Y030559D01*
X037214Y030604D01*
X037197Y030651D01*
X037183Y030699D01*
X037173Y030748D01*
X037167Y030798D01*
X037165Y030848D01*
X037354Y033446D02*
X037356Y033496D01*
X037362Y033546D01*
X037372Y033595D01*
X037386Y033643D01*
X037403Y033690D01*
X037424Y033735D01*
X037449Y033779D01*
X037477Y033820D01*
X037509Y033859D01*
X037543Y033896D01*
X037580Y033930D01*
X037620Y033960D01*
X037662Y033987D01*
X037706Y034011D01*
X037752Y034032D01*
X037799Y034048D01*
X037847Y034061D01*
X037897Y034070D01*
X037946Y034075D01*
X037997Y034076D01*
X038047Y034073D01*
X038096Y034066D01*
X038145Y034055D01*
X038193Y034040D01*
X038239Y034022D01*
X038284Y034000D01*
X038327Y033974D01*
X038368Y033945D01*
X038407Y033913D01*
X038443Y033878D01*
X038475Y033840D01*
X038505Y033800D01*
X038532Y033757D01*
X038555Y033713D01*
X038574Y033667D01*
X038590Y033619D01*
X038602Y033570D01*
X038610Y033521D01*
X038614Y033471D01*
X038614Y033421D01*
X038610Y033371D01*
X038602Y033322D01*
X038590Y033273D01*
X038574Y033225D01*
X038555Y033179D01*
X038532Y033135D01*
X038505Y033092D01*
X038475Y033052D01*
X038443Y033014D01*
X038407Y032979D01*
X038368Y032947D01*
X038327Y032918D01*
X038284Y032892D01*
X038239Y032870D01*
X038193Y032852D01*
X038145Y032837D01*
X038096Y032826D01*
X038047Y032819D01*
X037997Y032816D01*
X037946Y032817D01*
X037897Y032822D01*
X037847Y032831D01*
X037799Y032844D01*
X037752Y032860D01*
X037706Y032881D01*
X037662Y032905D01*
X037620Y032932D01*
X037580Y032962D01*
X037543Y032996D01*
X037509Y033033D01*
X037477Y033072D01*
X037449Y033113D01*
X037424Y033157D01*
X037403Y033202D01*
X037386Y033249D01*
X037372Y033297D01*
X037362Y033346D01*
X037356Y033396D01*
X037354Y033446D01*
X037362Y033456D02*
X037364Y033506D01*
X037370Y033556D01*
X037380Y033605D01*
X037394Y033653D01*
X037411Y033700D01*
X037432Y033745D01*
X037457Y033789D01*
X037485Y033830D01*
X037517Y033869D01*
X037551Y033906D01*
X037588Y033940D01*
X037628Y033970D01*
X037670Y033997D01*
X037714Y034021D01*
X037760Y034042D01*
X037807Y034058D01*
X037855Y034071D01*
X037905Y034080D01*
X037954Y034085D01*
X038005Y034086D01*
X038055Y034083D01*
X038104Y034076D01*
X038153Y034065D01*
X038201Y034050D01*
X038247Y034032D01*
X038292Y034010D01*
X038335Y033984D01*
X038376Y033955D01*
X038415Y033923D01*
X038451Y033888D01*
X038483Y033850D01*
X038513Y033810D01*
X038540Y033767D01*
X038563Y033723D01*
X038582Y033677D01*
X038598Y033629D01*
X038610Y033580D01*
X038618Y033531D01*
X038622Y033481D01*
X038622Y033431D01*
X038618Y033381D01*
X038610Y033332D01*
X038598Y033283D01*
X038582Y033235D01*
X038563Y033189D01*
X038540Y033145D01*
X038513Y033102D01*
X038483Y033062D01*
X038451Y033024D01*
X038415Y032989D01*
X038376Y032957D01*
X038335Y032928D01*
X038292Y032902D01*
X038247Y032880D01*
X038201Y032862D01*
X038153Y032847D01*
X038104Y032836D01*
X038055Y032829D01*
X038005Y032826D01*
X037954Y032827D01*
X037905Y032832D01*
X037855Y032841D01*
X037807Y032854D01*
X037760Y032870D01*
X037714Y032891D01*
X037670Y032915D01*
X037628Y032942D01*
X037588Y032972D01*
X037551Y033006D01*
X037517Y033043D01*
X037485Y033082D01*
X037457Y033123D01*
X037432Y033167D01*
X037411Y033212D01*
X037394Y033259D01*
X037380Y033307D01*
X037370Y033356D01*
X037364Y033406D01*
X037362Y033456D01*
X037468Y011793D02*
X037470Y011843D01*
X037476Y011893D01*
X037486Y011942D01*
X037500Y011990D01*
X037517Y012037D01*
X037538Y012082D01*
X037563Y012126D01*
X037591Y012167D01*
X037623Y012206D01*
X037657Y012243D01*
X037694Y012277D01*
X037734Y012307D01*
X037776Y012334D01*
X037820Y012358D01*
X037866Y012379D01*
X037913Y012395D01*
X037961Y012408D01*
X038011Y012417D01*
X038060Y012422D01*
X038111Y012423D01*
X038161Y012420D01*
X038210Y012413D01*
X038259Y012402D01*
X038307Y012387D01*
X038353Y012369D01*
X038398Y012347D01*
X038441Y012321D01*
X038482Y012292D01*
X038521Y012260D01*
X038557Y012225D01*
X038589Y012187D01*
X038619Y012147D01*
X038646Y012104D01*
X038669Y012060D01*
X038688Y012014D01*
X038704Y011966D01*
X038716Y011917D01*
X038724Y011868D01*
X038728Y011818D01*
X038728Y011768D01*
X038724Y011718D01*
X038716Y011669D01*
X038704Y011620D01*
X038688Y011572D01*
X038669Y011526D01*
X038646Y011482D01*
X038619Y011439D01*
X038589Y011399D01*
X038557Y011361D01*
X038521Y011326D01*
X038482Y011294D01*
X038441Y011265D01*
X038398Y011239D01*
X038353Y011217D01*
X038307Y011199D01*
X038259Y011184D01*
X038210Y011173D01*
X038161Y011166D01*
X038111Y011163D01*
X038060Y011164D01*
X038011Y011169D01*
X037961Y011178D01*
X037913Y011191D01*
X037866Y011207D01*
X037820Y011228D01*
X037776Y011252D01*
X037734Y011279D01*
X037694Y011309D01*
X037657Y011343D01*
X037623Y011380D01*
X037591Y011419D01*
X037563Y011460D01*
X037538Y011504D01*
X037517Y011549D01*
X037500Y011596D01*
X037486Y011644D01*
X037476Y011693D01*
X037470Y011743D01*
X037468Y011793D01*
X037165Y002108D02*
X037167Y002158D01*
X037173Y002208D01*
X037183Y002257D01*
X037197Y002305D01*
X037214Y002352D01*
X037235Y002397D01*
X037260Y002441D01*
X037288Y002482D01*
X037320Y002521D01*
X037354Y002558D01*
X037391Y002592D01*
X037431Y002622D01*
X037473Y002649D01*
X037517Y002673D01*
X037563Y002694D01*
X037610Y002710D01*
X037658Y002723D01*
X037708Y002732D01*
X037757Y002737D01*
X037808Y002738D01*
X037858Y002735D01*
X037907Y002728D01*
X037956Y002717D01*
X038004Y002702D01*
X038050Y002684D01*
X038095Y002662D01*
X038138Y002636D01*
X038179Y002607D01*
X038218Y002575D01*
X038254Y002540D01*
X038286Y002502D01*
X038316Y002462D01*
X038343Y002419D01*
X038366Y002375D01*
X038385Y002329D01*
X038401Y002281D01*
X038413Y002232D01*
X038421Y002183D01*
X038425Y002133D01*
X038425Y002083D01*
X038421Y002033D01*
X038413Y001984D01*
X038401Y001935D01*
X038385Y001887D01*
X038366Y001841D01*
X038343Y001797D01*
X038316Y001754D01*
X038286Y001714D01*
X038254Y001676D01*
X038218Y001641D01*
X038179Y001609D01*
X038138Y001580D01*
X038095Y001554D01*
X038050Y001532D01*
X038004Y001514D01*
X037956Y001499D01*
X037907Y001488D01*
X037858Y001481D01*
X037808Y001478D01*
X037757Y001479D01*
X037708Y001484D01*
X037658Y001493D01*
X037610Y001506D01*
X037563Y001522D01*
X037517Y001543D01*
X037473Y001567D01*
X037431Y001594D01*
X037391Y001624D01*
X037354Y001658D01*
X037320Y001695D01*
X037288Y001734D01*
X037260Y001775D01*
X037235Y001819D01*
X037214Y001864D01*
X037197Y001911D01*
X037183Y001959D01*
X037173Y002008D01*
X037167Y002058D01*
X037165Y002108D01*
D11*
X030325Y004155D03*
X030325Y005155D03*
X030325Y006155D03*
X024575Y006155D03*
X024575Y004155D03*
D12*
X027325Y003030D03*
X027325Y007280D03*
D13*
X032441Y005966D03*
X033110Y005966D03*
X033110Y004376D03*
X032441Y004376D03*
X032441Y002726D03*
X033110Y002726D03*
X019195Y004210D03*
X018526Y004210D03*
D14*
X005290Y030981D03*
X005290Y031768D03*
D15*
X006570Y031374D03*
D16*
X004437Y033210D03*
D17*
X005437Y033210D03*
X006437Y033210D03*
X007437Y033210D03*
X008437Y033210D03*
X009437Y033210D03*
X010437Y033210D03*
X011437Y033210D03*
X012437Y033210D03*
X013437Y033210D03*
X014437Y033210D03*
X015437Y033210D03*
X016437Y033210D03*
X017437Y033210D03*
X018437Y033210D03*
X019437Y033210D03*
D18*
X013713Y026820D03*
X013713Y025820D03*
X012713Y025820D03*
X012713Y026820D03*
X011713Y026820D03*
X011713Y025820D03*
X010713Y025820D03*
X010713Y026820D03*
X009713Y026820D03*
X009713Y025820D03*
X030382Y025722D03*
X031382Y025722D03*
X032382Y025722D03*
X033382Y025722D03*
X034382Y025722D03*
X034382Y026722D03*
X033382Y026722D03*
X032382Y026722D03*
X031382Y026722D03*
X030382Y026722D03*
D19*
X019376Y006261D03*
X019376Y005261D03*
D20*
X016043Y025779D02*
X013730Y025779D01*
X013713Y025820D01*
X011713Y026820D02*
X011713Y028240D01*
X009437Y030515D01*
X009437Y033210D01*
X007437Y033210D02*
X007437Y030448D01*
X010679Y027206D01*
X010679Y026830D01*
X010713Y026820D01*
X016043Y025779D02*
X017437Y027173D01*
X017437Y033210D01*
X006570Y033078D02*
X006570Y031374D01*
X005955Y031291D02*
X005659Y030996D01*
X005305Y030996D01*
X005290Y030981D01*
X005955Y031291D02*
X005955Y032374D01*
X005437Y032891D01*
X005437Y033210D01*
X006437Y033210D02*
X006570Y033078D01*
D21*
X005437Y033210D02*
X006667Y034441D01*
X017520Y034441D01*
X018437Y033523D01*
X018437Y033210D01*
X018437Y031112D01*
X020472Y029076D01*
X028028Y029076D01*
X030382Y026722D01*
X030382Y026929D01*
X031791Y028338D01*
X036811Y028338D01*
X037352Y027797D01*
X037352Y014706D01*
X034843Y012196D01*
X034843Y007698D01*
X033110Y005966D01*
X033110Y004376D01*
X033110Y002726D01*
X032441Y002726D02*
X032364Y002649D01*
X030463Y002649D01*
X028593Y004519D01*
X028396Y004519D01*
X027116Y004519D01*
X026752Y004155D01*
X024575Y004155D01*
X030325Y004155D02*
X032220Y004155D01*
X032441Y004376D01*
X031630Y005155D02*
X032441Y005966D01*
X031630Y005155D02*
X030325Y005155D01*
X009713Y026820D02*
X008801Y026820D01*
X005315Y030307D01*
X005315Y030956D01*
X005290Y030981D01*
D22*
X004955Y030958D02*
X002838Y030958D01*
X002838Y031021D02*
X002705Y031340D01*
X002461Y031585D01*
X002141Y031717D01*
X001796Y031717D01*
X001476Y031585D01*
X001232Y031340D01*
X001099Y031021D01*
X001099Y030675D01*
X001232Y030356D01*
X001476Y030111D01*
X001796Y029979D01*
X002141Y029979D01*
X002461Y030111D01*
X002705Y030356D01*
X002838Y030675D01*
X002838Y031021D01*
X002832Y031036D02*
X004955Y031036D01*
X004955Y031113D02*
X002800Y031113D01*
X002768Y031190D02*
X004955Y031190D01*
X004955Y031258D02*
X004955Y030703D01*
X005013Y030645D01*
X005056Y030645D01*
X005056Y030255D01*
X005095Y030160D01*
X005168Y030087D01*
X008654Y026601D01*
X008750Y026561D01*
X009450Y026561D01*
X009560Y026451D01*
X009866Y026451D01*
X010082Y026667D01*
X010082Y026973D01*
X009866Y027190D01*
X009560Y027190D01*
X009450Y027080D01*
X008909Y027080D01*
X005574Y030414D01*
X005574Y030652D01*
X005626Y030703D01*
X005626Y030776D01*
X005750Y030776D01*
X005879Y030905D01*
X006174Y031200D01*
X006174Y032464D01*
X005715Y032924D01*
X005776Y032984D01*
X005836Y033131D01*
X005836Y033243D01*
X006775Y034181D01*
X017412Y034181D01*
X018128Y033466D01*
X018098Y033436D01*
X018038Y033290D01*
X018038Y033131D01*
X018098Y032984D01*
X018178Y032905D01*
X018178Y031060D01*
X018217Y030965D01*
X020253Y028929D01*
X020326Y028856D01*
X020421Y028817D01*
X027920Y028817D01*
X030013Y026725D01*
X030013Y026569D01*
X030229Y026353D01*
X030535Y026353D01*
X030751Y026569D01*
X030751Y026875D01*
X030723Y026903D01*
X031899Y028079D01*
X036704Y028079D01*
X037093Y027689D01*
X037093Y014814D01*
X034623Y012343D01*
X034105Y012343D01*
X034105Y012266D02*
X034591Y012266D01*
X034583Y012248D02*
X034583Y007806D01*
X033059Y006282D01*
X032872Y006282D01*
X032814Y006224D01*
X032814Y005708D01*
X032851Y005672D01*
X032851Y004670D01*
X032814Y004633D01*
X032814Y004118D01*
X032851Y004081D01*
X032851Y003021D01*
X032814Y002984D01*
X032814Y002468D01*
X032872Y002410D01*
X033348Y002410D01*
X033406Y002468D01*
X033406Y002984D01*
X033370Y003021D01*
X033370Y004081D01*
X033406Y004118D01*
X033406Y004633D01*
X033370Y004670D01*
X033370Y005672D01*
X033406Y005708D01*
X033406Y005896D01*
X034989Y007479D01*
X034989Y007479D01*
X035062Y007552D01*
X035102Y007647D01*
X035102Y012089D01*
X037499Y014486D01*
X037572Y014559D01*
X037612Y014655D01*
X037612Y027848D01*
X037572Y027944D01*
X037031Y028485D01*
X036958Y028558D01*
X036863Y028598D01*
X031740Y028598D01*
X031644Y028558D01*
X030279Y027192D01*
X028174Y029296D01*
X028079Y029336D01*
X020580Y029336D01*
X018696Y031219D01*
X018696Y032905D01*
X018776Y032984D01*
X018836Y033131D01*
X018836Y033290D01*
X018776Y033436D01*
X018696Y033516D01*
X018696Y033575D01*
X018657Y033670D01*
X017740Y034587D01*
X017667Y034660D01*
X017571Y034700D01*
X006616Y034700D01*
X006520Y034660D01*
X005470Y033610D01*
X005358Y033610D01*
X005211Y033549D01*
X005098Y033436D01*
X005038Y033290D01*
X005038Y033131D01*
X005098Y032984D01*
X005211Y032872D01*
X005218Y032869D01*
X005218Y032800D01*
X005735Y032283D01*
X005735Y031382D01*
X005619Y031265D01*
X005568Y031316D01*
X005013Y031316D01*
X004955Y031258D01*
X004964Y031267D02*
X002736Y031267D01*
X002701Y031344D02*
X005698Y031344D01*
X005735Y031422D02*
X005613Y031422D01*
X005612Y031420D02*
X005638Y031446D01*
X005656Y031478D01*
X005666Y031514D01*
X005666Y031729D01*
X005330Y031729D01*
X005330Y031807D01*
X005666Y031807D01*
X005666Y032023D01*
X005656Y032058D01*
X005638Y032090D01*
X005612Y032116D01*
X005580Y032134D01*
X005545Y032144D01*
X005330Y032144D01*
X005330Y031807D01*
X005251Y031807D01*
X005251Y031729D01*
X004915Y031729D01*
X004915Y031514D01*
X004924Y031478D01*
X004942Y031446D01*
X004968Y031420D01*
X005000Y031402D01*
X005036Y031393D01*
X005251Y031393D01*
X005251Y031729D01*
X005330Y031729D01*
X005330Y031393D01*
X005545Y031393D01*
X005580Y031402D01*
X005612Y031420D01*
X005662Y031499D02*
X005735Y031499D01*
X005735Y031576D02*
X005666Y031576D01*
X005666Y031653D02*
X005735Y031653D01*
X005735Y031731D02*
X005330Y031731D01*
X005330Y031808D02*
X005251Y031808D01*
X005251Y031807D02*
X005251Y032144D01*
X005036Y032144D01*
X005000Y032134D01*
X004968Y032116D01*
X004942Y032090D01*
X004924Y032058D01*
X004915Y032023D01*
X004915Y031807D01*
X005251Y031807D01*
X005251Y031731D02*
X000633Y031731D01*
X000633Y031808D02*
X004915Y031808D01*
X004915Y031885D02*
X000633Y031885D01*
X000633Y031962D02*
X004915Y031962D01*
X004919Y032040D02*
X000633Y032040D01*
X000633Y032117D02*
X004970Y032117D01*
X005251Y032117D02*
X005330Y032117D01*
X005330Y032040D02*
X005251Y032040D01*
X005251Y031962D02*
X005330Y031962D01*
X005330Y031885D02*
X005251Y031885D01*
X005251Y031653D02*
X005330Y031653D01*
X005330Y031576D02*
X005251Y031576D01*
X005251Y031499D02*
X005330Y031499D01*
X005330Y031422D02*
X005251Y031422D01*
X004967Y031422D02*
X002624Y031422D01*
X002547Y031499D02*
X004918Y031499D01*
X004915Y031576D02*
X002470Y031576D01*
X002296Y031653D02*
X004915Y031653D01*
X005666Y031808D02*
X005735Y031808D01*
X005735Y031885D02*
X005666Y031885D01*
X005666Y031962D02*
X005735Y031962D01*
X005735Y032040D02*
X005661Y032040D01*
X005610Y032117D02*
X005735Y032117D01*
X005735Y032194D02*
X000633Y032194D01*
X000633Y032271D02*
X005735Y032271D01*
X005669Y032349D02*
X000633Y032349D01*
X000633Y032426D02*
X005592Y032426D01*
X005515Y032503D02*
X000633Y032503D01*
X000633Y032580D02*
X001304Y032580D01*
X001311Y032577D02*
X001657Y032577D01*
X001977Y032710D01*
X002221Y032954D01*
X002354Y033274D01*
X002354Y033619D01*
X002221Y033939D01*
X002215Y033945D01*
X002213Y033949D01*
X001969Y034193D01*
X001649Y034326D01*
X001303Y034326D01*
X000984Y034193D01*
X000739Y033949D01*
X000633Y033692D01*
X000633Y034939D01*
X039131Y034939D01*
X039131Y000379D01*
X000633Y000379D01*
X000633Y011567D01*
X000739Y011310D01*
X000746Y011304D01*
X000747Y011300D01*
X000992Y011056D01*
X001311Y010924D01*
X001657Y010924D01*
X001977Y011056D01*
X002221Y011300D01*
X002354Y011620D01*
X002354Y011966D01*
X002221Y012285D01*
X002215Y012292D01*
X002213Y012295D01*
X001969Y012540D01*
X001649Y012672D01*
X001303Y012672D01*
X000984Y012540D01*
X000739Y012295D01*
X000633Y012038D01*
X000633Y033221D01*
X000739Y032964D01*
X000746Y032957D01*
X000747Y032954D01*
X000992Y032710D01*
X001311Y032577D01*
X001117Y032658D02*
X000633Y032658D01*
X000633Y032735D02*
X000967Y032735D01*
X000889Y032812D02*
X000633Y032812D01*
X000633Y032889D02*
X000812Y032889D01*
X000738Y032967D02*
X000633Y032967D01*
X000633Y033044D02*
X000706Y033044D01*
X000674Y033121D02*
X000633Y033121D01*
X000633Y033198D02*
X000642Y033198D01*
X000633Y033739D02*
X000653Y033739D01*
X000633Y033816D02*
X000685Y033816D01*
X000717Y033893D02*
X000633Y033893D01*
X000633Y033971D02*
X000761Y033971D01*
X000839Y034048D02*
X000633Y034048D01*
X000633Y034125D02*
X000916Y034125D01*
X001006Y034202D02*
X000633Y034202D01*
X000633Y034280D02*
X001193Y034280D01*
X001760Y034280D02*
X006140Y034280D01*
X006217Y034357D02*
X000633Y034357D01*
X000633Y034434D02*
X006294Y034434D01*
X006371Y034511D02*
X000633Y034511D01*
X000633Y034589D02*
X006449Y034589D01*
X006533Y034666D02*
X000633Y034666D01*
X000633Y034743D02*
X039131Y034743D01*
X039131Y034666D02*
X017654Y034666D01*
X017738Y034589D02*
X039131Y034589D01*
X039131Y034511D02*
X017816Y034511D01*
X017893Y034434D02*
X039131Y034434D01*
X039131Y034357D02*
X017970Y034357D01*
X018047Y034280D02*
X037708Y034280D01*
X037819Y034326D02*
X037500Y034193D01*
X037255Y033949D01*
X037254Y033945D01*
X037247Y033939D01*
X037115Y033619D01*
X037115Y033274D01*
X037247Y032954D01*
X037492Y032710D01*
X037811Y032577D01*
X038157Y032577D01*
X038477Y032710D01*
X038721Y032954D01*
X038723Y032957D01*
X038729Y032964D01*
X038861Y033283D01*
X038861Y033629D01*
X038729Y033949D01*
X038485Y034193D01*
X038165Y034326D01*
X037819Y034326D01*
X037522Y034202D02*
X018125Y034202D01*
X018202Y034125D02*
X037432Y034125D01*
X037354Y034048D02*
X018279Y034048D01*
X018356Y033971D02*
X037277Y033971D01*
X037228Y033893D02*
X018434Y033893D01*
X018511Y033816D02*
X037196Y033816D01*
X037164Y033739D02*
X018588Y033739D01*
X018660Y033662D02*
X037132Y033662D01*
X037115Y033584D02*
X019669Y033584D01*
X019667Y033586D02*
X019606Y033617D01*
X019540Y033639D01*
X019476Y033649D01*
X019476Y033250D01*
X019398Y033250D01*
X019398Y033649D01*
X019334Y033639D01*
X019268Y033617D01*
X019207Y033586D01*
X019151Y033545D01*
X019102Y033496D01*
X019061Y033441D01*
X019030Y033379D01*
X019008Y033313D01*
X018998Y033250D01*
X019398Y033250D01*
X019398Y033171D01*
X019476Y033171D01*
X019476Y032772D01*
X019540Y032782D01*
X019606Y032803D01*
X019667Y032834D01*
X019723Y032875D01*
X019772Y032924D01*
X019813Y032980D01*
X019844Y033042D01*
X019866Y033107D01*
X019876Y033171D01*
X019476Y033171D01*
X019476Y033250D01*
X019876Y033250D01*
X019866Y033313D01*
X019844Y033379D01*
X019813Y033441D01*
X019772Y033496D01*
X019723Y033545D01*
X019667Y033586D01*
X019761Y033507D02*
X037115Y033507D01*
X037115Y033430D02*
X019818Y033430D01*
X019853Y033353D02*
X037115Y033353D01*
X037115Y033276D02*
X019872Y033276D01*
X019868Y033121D02*
X037178Y033121D01*
X037146Y033198D02*
X019476Y033198D01*
X019476Y033121D02*
X019398Y033121D01*
X019398Y033171D02*
X019398Y032772D01*
X019334Y032782D01*
X019268Y032803D01*
X019207Y032834D01*
X019151Y032875D01*
X019102Y032924D01*
X019061Y032980D01*
X019030Y033042D01*
X019008Y033107D01*
X018998Y033171D01*
X019398Y033171D01*
X019398Y033198D02*
X018836Y033198D01*
X018832Y033121D02*
X019006Y033121D01*
X019029Y033044D02*
X018800Y033044D01*
X018758Y032967D02*
X019071Y032967D01*
X019137Y032889D02*
X018696Y032889D01*
X018696Y032812D02*
X019251Y032812D01*
X019398Y032812D02*
X019476Y032812D01*
X019476Y032889D02*
X019398Y032889D01*
X019398Y032967D02*
X019476Y032967D01*
X019476Y033044D02*
X019398Y033044D01*
X019398Y033276D02*
X019476Y033276D01*
X019476Y033353D02*
X019398Y033353D01*
X019398Y033430D02*
X019476Y033430D01*
X019476Y033507D02*
X019398Y033507D01*
X019398Y033584D02*
X019476Y033584D01*
X019205Y033584D02*
X018692Y033584D01*
X018705Y033507D02*
X019113Y033507D01*
X019056Y033430D02*
X018778Y033430D01*
X018810Y033353D02*
X019021Y033353D01*
X019002Y033276D02*
X018836Y033276D01*
X018178Y032889D02*
X017681Y032889D01*
X017663Y032872D02*
X017776Y032984D01*
X017836Y033131D01*
X017836Y033290D01*
X017776Y033436D01*
X017663Y033549D01*
X017516Y033610D01*
X017358Y033610D01*
X017211Y033549D01*
X017098Y033436D01*
X017038Y033290D01*
X017038Y033131D01*
X017098Y032984D01*
X017211Y032872D01*
X017218Y032869D01*
X017218Y027264D01*
X015952Y025999D01*
X014057Y025999D01*
X013866Y026190D01*
X013560Y026190D01*
X013343Y025973D01*
X013343Y025667D01*
X013560Y025451D01*
X013866Y025451D01*
X013974Y025560D01*
X016134Y025560D01*
X016263Y025688D01*
X017656Y027082D01*
X017656Y032869D01*
X017663Y032872D01*
X017656Y032812D02*
X018178Y032812D01*
X018178Y032735D02*
X017656Y032735D01*
X017656Y032658D02*
X018178Y032658D01*
X018178Y032580D02*
X017656Y032580D01*
X017656Y032503D02*
X018178Y032503D01*
X018178Y032426D02*
X017656Y032426D01*
X017656Y032349D02*
X018178Y032349D01*
X018178Y032271D02*
X017656Y032271D01*
X017656Y032194D02*
X018178Y032194D01*
X018178Y032117D02*
X017656Y032117D01*
X017656Y032040D02*
X018178Y032040D01*
X018178Y031962D02*
X017656Y031962D01*
X017656Y031885D02*
X018178Y031885D01*
X018178Y031808D02*
X017656Y031808D01*
X017656Y031731D02*
X018178Y031731D01*
X018178Y031653D02*
X017656Y031653D01*
X017656Y031576D02*
X018178Y031576D01*
X018178Y031499D02*
X017656Y031499D01*
X017656Y031422D02*
X018178Y031422D01*
X018178Y031344D02*
X017656Y031344D01*
X017656Y031267D02*
X018178Y031267D01*
X018178Y031190D02*
X017656Y031190D01*
X017656Y031113D02*
X018178Y031113D01*
X018188Y031036D02*
X017656Y031036D01*
X017656Y030958D02*
X018224Y030958D01*
X018301Y030881D02*
X017656Y030881D01*
X017656Y030804D02*
X018378Y030804D01*
X018455Y030727D02*
X017656Y030727D01*
X017656Y030649D02*
X018533Y030649D01*
X018610Y030572D02*
X017656Y030572D01*
X017656Y030495D02*
X018687Y030495D01*
X018764Y030418D02*
X017656Y030418D01*
X017656Y030340D02*
X018842Y030340D01*
X018919Y030263D02*
X017656Y030263D01*
X017656Y030186D02*
X018996Y030186D01*
X019073Y030109D02*
X017656Y030109D01*
X017656Y030031D02*
X019151Y030031D01*
X019228Y029954D02*
X017656Y029954D01*
X017656Y029877D02*
X019305Y029877D01*
X019382Y029800D02*
X017656Y029800D01*
X017656Y029722D02*
X019460Y029722D01*
X019537Y029645D02*
X017656Y029645D01*
X017656Y029568D02*
X019614Y029568D01*
X019691Y029491D02*
X017656Y029491D01*
X017656Y029413D02*
X019769Y029413D01*
X019846Y029336D02*
X017656Y029336D01*
X017656Y029259D02*
X019923Y029259D01*
X020000Y029182D02*
X017656Y029182D01*
X017656Y029105D02*
X020077Y029105D01*
X020155Y029027D02*
X017656Y029027D01*
X017656Y028950D02*
X020232Y028950D01*
X020309Y028873D02*
X017656Y028873D01*
X017656Y028796D02*
X027942Y028796D01*
X028019Y028718D02*
X017656Y028718D01*
X017656Y028641D02*
X028096Y028641D01*
X028173Y028564D02*
X017656Y028564D01*
X017656Y028487D02*
X028251Y028487D01*
X028328Y028409D02*
X017656Y028409D01*
X017656Y028332D02*
X028405Y028332D01*
X028482Y028255D02*
X017656Y028255D01*
X017656Y028178D02*
X028559Y028178D01*
X028637Y028100D02*
X017656Y028100D01*
X017656Y028023D02*
X028714Y028023D01*
X028791Y027946D02*
X017656Y027946D01*
X017656Y027869D02*
X028868Y027869D01*
X028946Y027791D02*
X017656Y027791D01*
X017656Y027714D02*
X029023Y027714D01*
X029100Y027637D02*
X017656Y027637D01*
X017656Y027560D02*
X029177Y027560D01*
X029255Y027482D02*
X017656Y027482D01*
X017656Y027405D02*
X029332Y027405D01*
X029409Y027328D02*
X017656Y027328D01*
X017656Y027251D02*
X029486Y027251D01*
X029564Y027174D02*
X017656Y027174D01*
X017656Y027096D02*
X029641Y027096D01*
X029718Y027019D02*
X017593Y027019D01*
X017516Y026942D02*
X029795Y026942D01*
X029873Y026865D02*
X017439Y026865D01*
X017362Y026787D02*
X029950Y026787D01*
X030013Y026710D02*
X017284Y026710D01*
X017207Y026633D02*
X030013Y026633D01*
X030026Y026556D02*
X017130Y026556D01*
X017053Y026478D02*
X030103Y026478D01*
X030180Y026401D02*
X016976Y026401D01*
X016898Y026324D02*
X031958Y026324D01*
X032035Y026401D02*
X031583Y026401D01*
X031535Y026353D02*
X031751Y026569D01*
X031751Y026875D01*
X031746Y026881D01*
X031972Y027107D01*
X032595Y027107D01*
X032676Y027026D01*
X032676Y026950D01*
X032535Y027091D01*
X032229Y027091D01*
X032013Y026875D01*
X032013Y026569D01*
X032108Y026474D01*
X031808Y026174D01*
X031692Y026058D01*
X031692Y025934D01*
X031535Y026091D01*
X031229Y026091D01*
X031013Y025875D01*
X031013Y025569D01*
X031184Y025397D01*
X030579Y025397D01*
X030535Y025353D02*
X030751Y025569D01*
X030751Y025875D01*
X030535Y026091D01*
X030229Y026091D01*
X030013Y025875D01*
X030013Y025569D01*
X030229Y025353D01*
X030535Y025353D01*
X030656Y025474D02*
X031107Y025474D01*
X031184Y025397D02*
X031184Y015658D01*
X023524Y007999D01*
X020833Y007999D01*
X020718Y007883D01*
X019436Y006601D01*
X019235Y006601D01*
X019037Y006402D01*
X019037Y006121D01*
X019235Y005922D01*
X019517Y005922D01*
X019715Y006121D01*
X019715Y006321D01*
X020997Y007603D01*
X023688Y007603D01*
X031464Y015379D01*
X031580Y015494D01*
X031580Y025397D01*
X031692Y025397D01*
X031692Y025474D02*
X031656Y025474D01*
X031692Y025510D02*
X031692Y024560D01*
X031672Y024540D01*
X031672Y024360D01*
X031918Y024114D01*
X031918Y010072D01*
X028178Y006332D01*
X028178Y004779D01*
X027065Y004779D01*
X026969Y004739D01*
X026896Y004666D01*
X026645Y004414D01*
X024874Y004414D01*
X024738Y004550D01*
X024411Y004550D01*
X024180Y004319D01*
X024180Y003992D01*
X024411Y003760D01*
X024738Y003760D01*
X024874Y003896D01*
X026804Y003896D01*
X026899Y003935D01*
X027224Y004260D01*
X028485Y004260D01*
X030243Y002502D01*
X030316Y002429D01*
X030411Y002390D01*
X032416Y002390D01*
X032465Y002410D01*
X032679Y002410D01*
X032737Y002468D01*
X032737Y002984D01*
X032679Y003042D01*
X032203Y003042D01*
X032145Y002984D01*
X032145Y002909D01*
X030570Y002909D01*
X028739Y004739D01*
X028644Y004779D01*
X028613Y004779D01*
X028613Y006152D01*
X032226Y009764D01*
X032353Y009892D01*
X032353Y024294D01*
X032088Y024560D01*
X032088Y025494D01*
X032229Y025353D01*
X032535Y025353D01*
X032676Y025494D01*
X032676Y024954D01*
X032657Y024934D01*
X032657Y009924D01*
X029388Y006656D01*
X029261Y006529D01*
X029261Y004911D01*
X029930Y004242D01*
X029930Y003992D01*
X030161Y003760D01*
X030488Y003760D01*
X030624Y003896D01*
X032272Y003896D01*
X032367Y003935D01*
X032492Y004060D01*
X032679Y004060D01*
X032737Y004118D01*
X032737Y004633D01*
X032679Y004691D01*
X032203Y004691D01*
X032145Y004633D01*
X032145Y004446D01*
X032113Y004414D01*
X030624Y004414D01*
X030488Y004550D01*
X030238Y004550D01*
X029696Y005092D01*
X029696Y006348D01*
X033091Y009744D01*
X033091Y024934D01*
X033072Y024954D01*
X033072Y025510D01*
X033229Y025353D01*
X033535Y025353D01*
X033710Y025527D01*
X033710Y008538D01*
X032300Y007129D01*
X032184Y007013D01*
X032184Y006263D01*
X032145Y006224D01*
X032145Y006037D01*
X031522Y005414D01*
X030624Y005414D01*
X030488Y005550D01*
X030161Y005550D01*
X029930Y005319D01*
X029930Y004992D01*
X030161Y004760D01*
X030488Y004760D01*
X030624Y004896D01*
X031682Y004896D01*
X031777Y004935D01*
X032492Y005650D01*
X032679Y005650D01*
X032737Y005708D01*
X032737Y006224D01*
X032679Y006282D01*
X032580Y006282D01*
X032580Y006849D01*
X033989Y008259D01*
X034105Y008374D01*
X034105Y025476D01*
X034229Y025353D01*
X034535Y025353D01*
X034751Y025569D01*
X034751Y025875D01*
X034535Y026091D01*
X034229Y026091D01*
X034105Y025968D01*
X034105Y026058D01*
X033989Y026174D01*
X033673Y026490D01*
X033751Y026569D01*
X033751Y026875D01*
X033535Y027091D01*
X033229Y027091D01*
X033072Y026934D01*
X033072Y027190D01*
X032956Y027306D01*
X032759Y027503D01*
X031808Y027503D01*
X031692Y027387D01*
X031397Y027091D01*
X031229Y027091D01*
X031013Y026875D01*
X031013Y026569D01*
X031229Y026353D01*
X031535Y026353D01*
X031661Y026478D02*
X032103Y026478D01*
X032026Y026556D02*
X031738Y026556D01*
X031751Y026633D02*
X032013Y026633D01*
X032013Y026710D02*
X031751Y026710D01*
X031751Y026787D02*
X032013Y026787D01*
X032013Y026865D02*
X031751Y026865D01*
X031807Y026942D02*
X032079Y026942D01*
X032157Y027019D02*
X031884Y027019D01*
X031961Y027096D02*
X032606Y027096D01*
X032607Y027019D02*
X032676Y027019D01*
X033072Y027019D02*
X033157Y027019D01*
X033079Y026942D02*
X033072Y026942D01*
X033072Y027096D02*
X034177Y027096D01*
X034212Y027131D02*
X033973Y026892D01*
X033973Y026761D01*
X034343Y026761D01*
X034343Y026683D01*
X034421Y026683D01*
X034421Y026761D01*
X034791Y026761D01*
X034791Y026892D01*
X034551Y027131D01*
X034421Y027131D01*
X034421Y026761D01*
X034343Y026761D01*
X034343Y027131D01*
X034212Y027131D01*
X034343Y027096D02*
X034421Y027096D01*
X034421Y027019D02*
X034343Y027019D01*
X034343Y026942D02*
X034421Y026942D01*
X034421Y026865D02*
X034343Y026865D01*
X034343Y026787D02*
X034421Y026787D01*
X034421Y026710D02*
X037093Y026710D01*
X037093Y026633D02*
X034791Y026633D01*
X034791Y026683D02*
X034421Y026683D01*
X034421Y026313D01*
X034551Y026313D01*
X034791Y026552D01*
X034791Y026683D01*
X034791Y026787D02*
X037093Y026787D01*
X037093Y026865D02*
X034791Y026865D01*
X034741Y026942D02*
X037093Y026942D01*
X037093Y027019D02*
X034664Y027019D01*
X034587Y027096D02*
X037093Y027096D01*
X037093Y027174D02*
X033072Y027174D01*
X033011Y027251D02*
X037093Y027251D01*
X037093Y027328D02*
X032934Y027328D01*
X032856Y027405D02*
X037093Y027405D01*
X037093Y027482D02*
X032779Y027482D01*
X031788Y027482D02*
X031302Y027482D01*
X031225Y027405D02*
X031711Y027405D01*
X031633Y027328D02*
X031148Y027328D01*
X031071Y027251D02*
X031556Y027251D01*
X031479Y027174D02*
X030993Y027174D01*
X030916Y027096D02*
X031402Y027096D01*
X031157Y027019D02*
X030839Y027019D01*
X030762Y026942D02*
X031079Y026942D01*
X031013Y026865D02*
X030751Y026865D01*
X030751Y026787D02*
X031013Y026787D01*
X031013Y026710D02*
X030751Y026710D01*
X030751Y026633D02*
X031013Y026633D01*
X031026Y026556D02*
X030738Y026556D01*
X030661Y026478D02*
X031103Y026478D01*
X031180Y026401D02*
X030583Y026401D01*
X030611Y026015D02*
X031152Y026015D01*
X031075Y025938D02*
X030689Y025938D01*
X030751Y025860D02*
X031013Y025860D01*
X031013Y025783D02*
X030751Y025783D01*
X030751Y025706D02*
X031013Y025706D01*
X031013Y025629D02*
X030751Y025629D01*
X030734Y025551D02*
X031030Y025551D01*
X031184Y025320D02*
X000633Y025320D01*
X000633Y025397D02*
X030185Y025397D01*
X030107Y025474D02*
X013889Y025474D01*
X013966Y025551D02*
X030030Y025551D01*
X030013Y025629D02*
X016203Y025629D01*
X016280Y025706D02*
X030013Y025706D01*
X030013Y025783D02*
X016358Y025783D01*
X016435Y025860D02*
X030013Y025860D01*
X030075Y025938D02*
X016512Y025938D01*
X016589Y026015D02*
X030152Y026015D01*
X031184Y025243D02*
X000633Y025243D01*
X000633Y025165D02*
X031184Y025165D01*
X031184Y025088D02*
X000633Y025088D01*
X000633Y025011D02*
X031184Y025011D01*
X031184Y024934D02*
X000633Y024934D01*
X000633Y024856D02*
X031184Y024856D01*
X031184Y024779D02*
X000633Y024779D01*
X000633Y024702D02*
X031184Y024702D01*
X031184Y024625D02*
X000633Y024625D01*
X000633Y024547D02*
X031184Y024547D01*
X031184Y024470D02*
X000633Y024470D01*
X000633Y024393D02*
X031184Y024393D01*
X031184Y024316D02*
X000633Y024316D01*
X000633Y024238D02*
X031184Y024238D01*
X031184Y024161D02*
X000633Y024161D01*
X000633Y024084D02*
X031184Y024084D01*
X031184Y024007D02*
X000633Y024007D01*
X000633Y023929D02*
X031184Y023929D01*
X031184Y023852D02*
X000633Y023852D01*
X000633Y023775D02*
X031184Y023775D01*
X031184Y023698D02*
X000633Y023698D01*
X000633Y023620D02*
X031184Y023620D01*
X031184Y023543D02*
X000633Y023543D01*
X000633Y023466D02*
X031184Y023466D01*
X031184Y023389D02*
X000633Y023389D01*
X000633Y023311D02*
X031184Y023311D01*
X031184Y023234D02*
X000633Y023234D01*
X000633Y023157D02*
X031184Y023157D01*
X031184Y023080D02*
X000633Y023080D01*
X000633Y023003D02*
X031184Y023003D01*
X031184Y022925D02*
X000633Y022925D01*
X000633Y022848D02*
X031184Y022848D01*
X031184Y022771D02*
X000633Y022771D01*
X000633Y022694D02*
X031184Y022694D01*
X031184Y022616D02*
X000633Y022616D01*
X000633Y022539D02*
X031184Y022539D01*
X031184Y022462D02*
X000633Y022462D01*
X000633Y022385D02*
X031184Y022385D01*
X031184Y022307D02*
X000633Y022307D01*
X000633Y022230D02*
X031184Y022230D01*
X031184Y022153D02*
X000633Y022153D01*
X000633Y022076D02*
X031184Y022076D01*
X031184Y021998D02*
X000633Y021998D01*
X000633Y021921D02*
X031184Y021921D01*
X031184Y021844D02*
X000633Y021844D01*
X000633Y021767D02*
X031184Y021767D01*
X031184Y021689D02*
X000633Y021689D01*
X000633Y021612D02*
X031184Y021612D01*
X031184Y021535D02*
X000633Y021535D01*
X000633Y021458D02*
X031184Y021458D01*
X031184Y021380D02*
X000633Y021380D01*
X000633Y021303D02*
X031184Y021303D01*
X031184Y021226D02*
X000633Y021226D01*
X000633Y021149D02*
X031184Y021149D01*
X031184Y021072D02*
X000633Y021072D01*
X000633Y020994D02*
X031184Y020994D01*
X031184Y020917D02*
X000633Y020917D01*
X000633Y020840D02*
X031184Y020840D01*
X031184Y020763D02*
X000633Y020763D01*
X000633Y020685D02*
X031184Y020685D01*
X031184Y020608D02*
X000633Y020608D01*
X000633Y020531D02*
X031184Y020531D01*
X031184Y020454D02*
X000633Y020454D01*
X000633Y020376D02*
X031184Y020376D01*
X031184Y020299D02*
X000633Y020299D01*
X000633Y020222D02*
X031184Y020222D01*
X031184Y020145D02*
X000633Y020145D01*
X000633Y020067D02*
X031184Y020067D01*
X031184Y019990D02*
X000633Y019990D01*
X000633Y019913D02*
X031184Y019913D01*
X031184Y019836D02*
X000633Y019836D01*
X000633Y019758D02*
X031184Y019758D01*
X031184Y019681D02*
X000633Y019681D01*
X000633Y019604D02*
X031184Y019604D01*
X031184Y019527D02*
X000633Y019527D01*
X000633Y019449D02*
X031184Y019449D01*
X031184Y019372D02*
X000633Y019372D01*
X000633Y019295D02*
X031184Y019295D01*
X031184Y019218D02*
X000633Y019218D01*
X000633Y019141D02*
X031184Y019141D01*
X031184Y019063D02*
X000633Y019063D01*
X000633Y018986D02*
X031184Y018986D01*
X031184Y018909D02*
X000633Y018909D01*
X000633Y018832D02*
X031184Y018832D01*
X031184Y018754D02*
X000633Y018754D01*
X000633Y018677D02*
X031184Y018677D01*
X031184Y018600D02*
X000633Y018600D01*
X000633Y018523D02*
X031184Y018523D01*
X031184Y018445D02*
X000633Y018445D01*
X000633Y018368D02*
X031184Y018368D01*
X031184Y018291D02*
X000633Y018291D01*
X000633Y018214D02*
X031184Y018214D01*
X031184Y018136D02*
X000633Y018136D01*
X000633Y018059D02*
X031184Y018059D01*
X031184Y017982D02*
X000633Y017982D01*
X000633Y017905D02*
X031184Y017905D01*
X031184Y017827D02*
X000633Y017827D01*
X000633Y017750D02*
X031184Y017750D01*
X031184Y017673D02*
X000633Y017673D01*
X000633Y017596D02*
X031184Y017596D01*
X031184Y017518D02*
X000633Y017518D01*
X000633Y017441D02*
X031184Y017441D01*
X031184Y017364D02*
X000633Y017364D01*
X000633Y017287D02*
X031184Y017287D01*
X031184Y017209D02*
X000633Y017209D01*
X000633Y017132D02*
X031184Y017132D01*
X031184Y017055D02*
X000633Y017055D01*
X000633Y016978D02*
X031184Y016978D01*
X031184Y016901D02*
X000633Y016901D01*
X000633Y016823D02*
X031184Y016823D01*
X031184Y016746D02*
X000633Y016746D01*
X000633Y016669D02*
X031184Y016669D01*
X031184Y016592D02*
X000633Y016592D01*
X000633Y016514D02*
X031184Y016514D01*
X031184Y016437D02*
X000633Y016437D01*
X000633Y016360D02*
X031184Y016360D01*
X031184Y016283D02*
X000633Y016283D01*
X000633Y016205D02*
X031184Y016205D01*
X031184Y016128D02*
X000633Y016128D01*
X000633Y016051D02*
X031184Y016051D01*
X031184Y015974D02*
X000633Y015974D01*
X000633Y015896D02*
X031184Y015896D01*
X031184Y015819D02*
X000633Y015819D01*
X000633Y015742D02*
X031184Y015742D01*
X031184Y015665D02*
X000633Y015665D01*
X000633Y015587D02*
X031113Y015587D01*
X031036Y015510D02*
X000633Y015510D01*
X000633Y015433D02*
X030959Y015433D01*
X030882Y015356D02*
X000633Y015356D01*
X000633Y015278D02*
X030804Y015278D01*
X030727Y015201D02*
X000633Y015201D01*
X000633Y015124D02*
X030650Y015124D01*
X030573Y015047D02*
X000633Y015047D01*
X000633Y014970D02*
X030495Y014970D01*
X030418Y014892D02*
X000633Y014892D01*
X000633Y014815D02*
X030341Y014815D01*
X030264Y014738D02*
X000633Y014738D01*
X000633Y014661D02*
X030186Y014661D01*
X030109Y014583D02*
X000633Y014583D01*
X000633Y014506D02*
X030032Y014506D01*
X029955Y014429D02*
X000633Y014429D01*
X000633Y014352D02*
X029877Y014352D01*
X029800Y014274D02*
X000633Y014274D01*
X000633Y014197D02*
X029723Y014197D01*
X029646Y014120D02*
X000633Y014120D01*
X000633Y014043D02*
X029568Y014043D01*
X029491Y013965D02*
X000633Y013965D01*
X000633Y013888D02*
X029414Y013888D01*
X029337Y013811D02*
X000633Y013811D01*
X000633Y013734D02*
X029259Y013734D01*
X029182Y013656D02*
X000633Y013656D01*
X000633Y013579D02*
X029105Y013579D01*
X029028Y013502D02*
X000633Y013502D01*
X000633Y013425D02*
X028951Y013425D01*
X028873Y013347D02*
X000633Y013347D01*
X000633Y013270D02*
X028796Y013270D01*
X028719Y013193D02*
X000633Y013193D01*
X000633Y013116D02*
X028642Y013116D01*
X028564Y013039D02*
X000633Y013039D01*
X000633Y012961D02*
X028487Y012961D01*
X028410Y012884D02*
X000633Y012884D01*
X000633Y012807D02*
X028333Y012807D01*
X028255Y012730D02*
X000633Y012730D01*
X000633Y012652D02*
X001256Y012652D01*
X001069Y012575D02*
X000633Y012575D01*
X000633Y012498D02*
X000942Y012498D01*
X000865Y012421D02*
X000633Y012421D01*
X000633Y012343D02*
X000788Y012343D01*
X000727Y012266D02*
X000633Y012266D01*
X000633Y012189D02*
X000695Y012189D01*
X000663Y012112D02*
X000633Y012112D01*
X000633Y011494D02*
X000663Y011494D01*
X000633Y011416D02*
X000695Y011416D01*
X000727Y011339D02*
X000633Y011339D01*
X000633Y011262D02*
X000786Y011262D01*
X000863Y011185D02*
X000633Y011185D01*
X000633Y011108D02*
X000940Y011108D01*
X001054Y011030D02*
X000633Y011030D01*
X000633Y010953D02*
X001240Y010953D01*
X001728Y010953D02*
X026479Y010953D01*
X026556Y011030D02*
X001915Y011030D01*
X002028Y011108D02*
X026633Y011108D01*
X026711Y011185D02*
X002105Y011185D01*
X002183Y011262D02*
X026788Y011262D01*
X026865Y011339D02*
X002237Y011339D01*
X002269Y011416D02*
X026942Y011416D01*
X027019Y011494D02*
X002301Y011494D01*
X002333Y011571D02*
X027097Y011571D01*
X027174Y011648D02*
X002354Y011648D01*
X002354Y011725D02*
X027251Y011725D01*
X027328Y011803D02*
X002354Y011803D01*
X002354Y011880D02*
X027406Y011880D01*
X027483Y011957D02*
X002354Y011957D01*
X002325Y012034D02*
X027560Y012034D01*
X027637Y012112D02*
X002293Y012112D01*
X002261Y012189D02*
X027715Y012189D01*
X027792Y012266D02*
X002229Y012266D01*
X002165Y012343D02*
X027869Y012343D01*
X027946Y012421D02*
X002088Y012421D01*
X002011Y012498D02*
X028024Y012498D01*
X028101Y012575D02*
X001883Y012575D01*
X001697Y012652D02*
X028178Y012652D01*
X028429Y012343D02*
X031918Y012343D01*
X031918Y012266D02*
X028351Y012266D01*
X028274Y012189D02*
X031918Y012189D01*
X031918Y012112D02*
X028197Y012112D01*
X028120Y012034D02*
X031918Y012034D01*
X031918Y011957D02*
X028042Y011957D01*
X027965Y011880D02*
X031918Y011880D01*
X031918Y011803D02*
X027888Y011803D01*
X027811Y011725D02*
X031918Y011725D01*
X031918Y011648D02*
X027733Y011648D01*
X027656Y011571D02*
X031918Y011571D01*
X031918Y011494D02*
X027579Y011494D01*
X027502Y011416D02*
X031918Y011416D01*
X031918Y011339D02*
X027424Y011339D01*
X027347Y011262D02*
X031918Y011262D01*
X031918Y011185D02*
X027270Y011185D01*
X027193Y011108D02*
X031918Y011108D01*
X031918Y011030D02*
X027116Y011030D01*
X027038Y010953D02*
X031918Y010953D01*
X031918Y010876D02*
X026961Y010876D01*
X026884Y010799D02*
X031918Y010799D01*
X031918Y010721D02*
X026807Y010721D01*
X026729Y010644D02*
X031918Y010644D01*
X031918Y010567D02*
X026652Y010567D01*
X026575Y010490D02*
X031918Y010490D01*
X031918Y010412D02*
X026498Y010412D01*
X026420Y010335D02*
X031918Y010335D01*
X031918Y010258D02*
X026343Y010258D01*
X026266Y010181D02*
X031918Y010181D01*
X031918Y010103D02*
X026189Y010103D01*
X026111Y010026D02*
X031873Y010026D01*
X031795Y009949D02*
X026034Y009949D01*
X025957Y009872D02*
X031718Y009872D01*
X031641Y009794D02*
X025880Y009794D01*
X025802Y009717D02*
X031564Y009717D01*
X031486Y009640D02*
X025725Y009640D01*
X025648Y009563D02*
X031409Y009563D01*
X031332Y009485D02*
X025571Y009485D01*
X025493Y009408D02*
X031255Y009408D01*
X031177Y009331D02*
X025416Y009331D01*
X025339Y009254D02*
X031100Y009254D01*
X031023Y009176D02*
X025262Y009176D01*
X025184Y009099D02*
X030946Y009099D01*
X030868Y009022D02*
X025107Y009022D01*
X025030Y008945D02*
X030791Y008945D01*
X030714Y008868D02*
X024953Y008868D01*
X024876Y008790D02*
X030637Y008790D01*
X030559Y008713D02*
X024798Y008713D01*
X024721Y008636D02*
X030482Y008636D01*
X030405Y008559D02*
X024644Y008559D01*
X024567Y008481D02*
X030328Y008481D01*
X030250Y008404D02*
X024489Y008404D01*
X024412Y008327D02*
X030173Y008327D01*
X030096Y008250D02*
X024335Y008250D01*
X024258Y008172D02*
X030019Y008172D01*
X029942Y008095D02*
X024180Y008095D01*
X024103Y008018D02*
X026915Y008018D01*
X026989Y008091D02*
X026514Y007616D01*
X026514Y006944D01*
X026989Y006469D01*
X027661Y006469D01*
X028136Y006944D01*
X028136Y007616D01*
X027661Y008091D01*
X026989Y008091D01*
X026838Y007941D02*
X024026Y007941D01*
X023949Y007863D02*
X026761Y007863D01*
X026684Y007786D02*
X023871Y007786D01*
X023794Y007709D02*
X026606Y007709D01*
X026529Y007632D02*
X023717Y007632D01*
X023544Y008018D02*
X000633Y008018D01*
X000633Y008095D02*
X023621Y008095D01*
X023698Y008172D02*
X000633Y008172D01*
X000633Y008250D02*
X023775Y008250D01*
X023853Y008327D02*
X000633Y008327D01*
X000633Y008404D02*
X023930Y008404D01*
X024007Y008481D02*
X000633Y008481D01*
X000633Y008559D02*
X024084Y008559D01*
X024162Y008636D02*
X000633Y008636D01*
X000633Y008713D02*
X024239Y008713D01*
X024316Y008790D02*
X000633Y008790D01*
X000633Y008868D02*
X024393Y008868D01*
X024471Y008945D02*
X000633Y008945D01*
X000633Y009022D02*
X024548Y009022D01*
X024625Y009099D02*
X000633Y009099D01*
X000633Y009176D02*
X024702Y009176D01*
X024780Y009254D02*
X000633Y009254D01*
X000633Y009331D02*
X024857Y009331D01*
X024934Y009408D02*
X000633Y009408D01*
X000633Y009485D02*
X025011Y009485D01*
X025088Y009563D02*
X000633Y009563D01*
X000633Y009640D02*
X025166Y009640D01*
X025243Y009717D02*
X000633Y009717D01*
X000633Y009794D02*
X025320Y009794D01*
X025397Y009872D02*
X000633Y009872D01*
X000633Y009949D02*
X025475Y009949D01*
X025552Y010026D02*
X000633Y010026D01*
X000633Y010103D02*
X025629Y010103D01*
X025706Y010181D02*
X000633Y010181D01*
X000633Y010258D02*
X025784Y010258D01*
X025861Y010335D02*
X000633Y010335D01*
X000633Y010412D02*
X025938Y010412D01*
X026015Y010490D02*
X000633Y010490D01*
X000633Y010567D02*
X026093Y010567D01*
X026170Y010644D02*
X000633Y010644D01*
X000633Y010721D02*
X026247Y010721D01*
X026324Y010799D02*
X000633Y010799D01*
X000633Y010876D02*
X026402Y010876D01*
X028506Y012421D02*
X031918Y012421D01*
X031918Y012498D02*
X028583Y012498D01*
X028660Y012575D02*
X031918Y012575D01*
X031918Y012652D02*
X028738Y012652D01*
X028815Y012730D02*
X031918Y012730D01*
X031918Y012807D02*
X028892Y012807D01*
X028969Y012884D02*
X031918Y012884D01*
X031918Y012961D02*
X029047Y012961D01*
X029124Y013039D02*
X031918Y013039D01*
X031918Y013116D02*
X029201Y013116D01*
X029278Y013193D02*
X031918Y013193D01*
X031918Y013270D02*
X029355Y013270D01*
X029433Y013347D02*
X031918Y013347D01*
X031918Y013425D02*
X029510Y013425D01*
X029587Y013502D02*
X031918Y013502D01*
X031918Y013579D02*
X029664Y013579D01*
X029742Y013656D02*
X031918Y013656D01*
X031918Y013734D02*
X029819Y013734D01*
X029896Y013811D02*
X031918Y013811D01*
X031918Y013888D02*
X029973Y013888D01*
X030051Y013965D02*
X031918Y013965D01*
X031918Y014043D02*
X030128Y014043D01*
X030205Y014120D02*
X031918Y014120D01*
X031918Y014197D02*
X030282Y014197D01*
X030360Y014274D02*
X031918Y014274D01*
X031918Y014352D02*
X030437Y014352D01*
X030514Y014429D02*
X031918Y014429D01*
X031918Y014506D02*
X030591Y014506D01*
X030669Y014583D02*
X031918Y014583D01*
X031918Y014661D02*
X030746Y014661D01*
X030823Y014738D02*
X031918Y014738D01*
X031918Y014815D02*
X030900Y014815D01*
X030978Y014892D02*
X031918Y014892D01*
X031918Y014970D02*
X031055Y014970D01*
X031132Y015047D02*
X031918Y015047D01*
X031918Y015124D02*
X031209Y015124D01*
X031286Y015201D02*
X031918Y015201D01*
X031918Y015278D02*
X031364Y015278D01*
X031441Y015356D02*
X031918Y015356D01*
X031918Y015433D02*
X031518Y015433D01*
X031580Y015510D02*
X031918Y015510D01*
X031918Y015587D02*
X031580Y015587D01*
X031580Y015665D02*
X031918Y015665D01*
X031918Y015742D02*
X031580Y015742D01*
X031580Y015819D02*
X031918Y015819D01*
X031918Y015896D02*
X031580Y015896D01*
X031580Y015974D02*
X031918Y015974D01*
X031918Y016051D02*
X031580Y016051D01*
X031580Y016128D02*
X031918Y016128D01*
X031918Y016205D02*
X031580Y016205D01*
X031580Y016283D02*
X031918Y016283D01*
X031918Y016360D02*
X031580Y016360D01*
X031580Y016437D02*
X031918Y016437D01*
X031918Y016514D02*
X031580Y016514D01*
X031580Y016592D02*
X031918Y016592D01*
X031918Y016669D02*
X031580Y016669D01*
X031580Y016746D02*
X031918Y016746D01*
X031918Y016823D02*
X031580Y016823D01*
X031580Y016901D02*
X031918Y016901D01*
X031918Y016978D02*
X031580Y016978D01*
X031580Y017055D02*
X031918Y017055D01*
X031918Y017132D02*
X031580Y017132D01*
X031580Y017209D02*
X031918Y017209D01*
X031918Y017287D02*
X031580Y017287D01*
X031580Y017364D02*
X031918Y017364D01*
X031918Y017441D02*
X031580Y017441D01*
X031580Y017518D02*
X031918Y017518D01*
X031918Y017596D02*
X031580Y017596D01*
X031580Y017673D02*
X031918Y017673D01*
X031918Y017750D02*
X031580Y017750D01*
X031580Y017827D02*
X031918Y017827D01*
X031918Y017905D02*
X031580Y017905D01*
X031580Y017982D02*
X031918Y017982D01*
X031918Y018059D02*
X031580Y018059D01*
X031580Y018136D02*
X031918Y018136D01*
X031918Y018214D02*
X031580Y018214D01*
X031580Y018291D02*
X031918Y018291D01*
X031918Y018368D02*
X031580Y018368D01*
X031580Y018445D02*
X031918Y018445D01*
X031918Y018523D02*
X031580Y018523D01*
X031580Y018600D02*
X031918Y018600D01*
X031918Y018677D02*
X031580Y018677D01*
X031580Y018754D02*
X031918Y018754D01*
X031918Y018832D02*
X031580Y018832D01*
X031580Y018909D02*
X031918Y018909D01*
X031918Y018986D02*
X031580Y018986D01*
X031580Y019063D02*
X031918Y019063D01*
X031918Y019141D02*
X031580Y019141D01*
X031580Y019218D02*
X031918Y019218D01*
X031918Y019295D02*
X031580Y019295D01*
X031580Y019372D02*
X031918Y019372D01*
X031918Y019449D02*
X031580Y019449D01*
X031580Y019527D02*
X031918Y019527D01*
X031918Y019604D02*
X031580Y019604D01*
X031580Y019681D02*
X031918Y019681D01*
X031918Y019758D02*
X031580Y019758D01*
X031580Y019836D02*
X031918Y019836D01*
X031918Y019913D02*
X031580Y019913D01*
X031580Y019990D02*
X031918Y019990D01*
X031918Y020067D02*
X031580Y020067D01*
X031580Y020145D02*
X031918Y020145D01*
X031918Y020222D02*
X031580Y020222D01*
X031580Y020299D02*
X031918Y020299D01*
X031918Y020376D02*
X031580Y020376D01*
X031580Y020454D02*
X031918Y020454D01*
X031918Y020531D02*
X031580Y020531D01*
X031580Y020608D02*
X031918Y020608D01*
X031918Y020685D02*
X031580Y020685D01*
X031580Y020763D02*
X031918Y020763D01*
X031918Y020840D02*
X031580Y020840D01*
X031580Y020917D02*
X031918Y020917D01*
X031918Y020994D02*
X031580Y020994D01*
X031580Y021072D02*
X031918Y021072D01*
X031918Y021149D02*
X031580Y021149D01*
X031580Y021226D02*
X031918Y021226D01*
X031918Y021303D02*
X031580Y021303D01*
X031580Y021380D02*
X031918Y021380D01*
X031918Y021458D02*
X031580Y021458D01*
X031580Y021535D02*
X031918Y021535D01*
X031918Y021612D02*
X031580Y021612D01*
X031580Y021689D02*
X031918Y021689D01*
X031918Y021767D02*
X031580Y021767D01*
X031580Y021844D02*
X031918Y021844D01*
X031918Y021921D02*
X031580Y021921D01*
X031580Y021998D02*
X031918Y021998D01*
X031918Y022076D02*
X031580Y022076D01*
X031580Y022153D02*
X031918Y022153D01*
X031918Y022230D02*
X031580Y022230D01*
X031580Y022307D02*
X031918Y022307D01*
X031918Y022385D02*
X031580Y022385D01*
X031580Y022462D02*
X031918Y022462D01*
X031918Y022539D02*
X031580Y022539D01*
X031580Y022616D02*
X031918Y022616D01*
X031918Y022694D02*
X031580Y022694D01*
X031580Y022771D02*
X031918Y022771D01*
X031918Y022848D02*
X031580Y022848D01*
X031580Y022925D02*
X031918Y022925D01*
X031918Y023003D02*
X031580Y023003D01*
X031580Y023080D02*
X031918Y023080D01*
X031918Y023157D02*
X031580Y023157D01*
X031580Y023234D02*
X031918Y023234D01*
X031918Y023311D02*
X031580Y023311D01*
X031580Y023389D02*
X031918Y023389D01*
X031918Y023466D02*
X031580Y023466D01*
X031580Y023543D02*
X031918Y023543D01*
X031918Y023620D02*
X031580Y023620D01*
X031580Y023698D02*
X031918Y023698D01*
X031918Y023775D02*
X031580Y023775D01*
X031580Y023852D02*
X031918Y023852D01*
X031918Y023929D02*
X031580Y023929D01*
X031580Y024007D02*
X031918Y024007D01*
X031918Y024084D02*
X031580Y024084D01*
X031580Y024161D02*
X031871Y024161D01*
X031794Y024238D02*
X031580Y024238D01*
X031580Y024316D02*
X031717Y024316D01*
X031672Y024393D02*
X031580Y024393D01*
X031580Y024470D02*
X031672Y024470D01*
X031679Y024547D02*
X031580Y024547D01*
X031580Y024625D02*
X031692Y024625D01*
X031692Y024702D02*
X031580Y024702D01*
X031580Y024779D02*
X031692Y024779D01*
X031692Y024856D02*
X031580Y024856D01*
X031580Y024934D02*
X031692Y024934D01*
X031692Y025011D02*
X031580Y025011D01*
X031580Y025088D02*
X031692Y025088D01*
X031692Y025165D02*
X031580Y025165D01*
X031580Y025243D02*
X031692Y025243D01*
X031692Y025320D02*
X031580Y025320D01*
X031580Y025397D02*
X031692Y025510D01*
X032088Y025474D02*
X032107Y025474D01*
X032088Y025397D02*
X032185Y025397D01*
X032088Y025320D02*
X032676Y025320D01*
X032676Y025397D02*
X032579Y025397D01*
X032656Y025474D02*
X032676Y025474D01*
X032676Y025243D02*
X032088Y025243D01*
X032088Y025165D02*
X032676Y025165D01*
X032676Y025088D02*
X032088Y025088D01*
X032088Y025011D02*
X032676Y025011D01*
X032657Y024934D02*
X032088Y024934D01*
X032088Y024856D02*
X032657Y024856D01*
X032657Y024779D02*
X032088Y024779D01*
X032088Y024702D02*
X032657Y024702D01*
X032657Y024625D02*
X032088Y024625D01*
X032100Y024547D02*
X032657Y024547D01*
X032657Y024470D02*
X032178Y024470D01*
X032255Y024393D02*
X032657Y024393D01*
X032657Y024316D02*
X032332Y024316D01*
X032353Y024238D02*
X032657Y024238D01*
X032657Y024161D02*
X032353Y024161D01*
X032353Y024084D02*
X032657Y024084D01*
X032657Y024007D02*
X032353Y024007D01*
X032353Y023929D02*
X032657Y023929D01*
X032657Y023852D02*
X032353Y023852D01*
X032353Y023775D02*
X032657Y023775D01*
X032657Y023698D02*
X032353Y023698D01*
X032353Y023620D02*
X032657Y023620D01*
X032657Y023543D02*
X032353Y023543D01*
X032353Y023466D02*
X032657Y023466D01*
X032657Y023389D02*
X032353Y023389D01*
X032353Y023311D02*
X032657Y023311D01*
X032657Y023234D02*
X032353Y023234D01*
X032353Y023157D02*
X032657Y023157D01*
X032657Y023080D02*
X032353Y023080D01*
X032353Y023003D02*
X032657Y023003D01*
X032657Y022925D02*
X032353Y022925D01*
X032353Y022848D02*
X032657Y022848D01*
X032657Y022771D02*
X032353Y022771D01*
X032353Y022694D02*
X032657Y022694D01*
X032657Y022616D02*
X032353Y022616D01*
X032353Y022539D02*
X032657Y022539D01*
X032657Y022462D02*
X032353Y022462D01*
X032353Y022385D02*
X032657Y022385D01*
X032657Y022307D02*
X032353Y022307D01*
X032353Y022230D02*
X032657Y022230D01*
X032657Y022153D02*
X032353Y022153D01*
X032353Y022076D02*
X032657Y022076D01*
X032657Y021998D02*
X032353Y021998D01*
X032353Y021921D02*
X032657Y021921D01*
X032657Y021844D02*
X032353Y021844D01*
X032353Y021767D02*
X032657Y021767D01*
X032657Y021689D02*
X032353Y021689D01*
X032353Y021612D02*
X032657Y021612D01*
X032657Y021535D02*
X032353Y021535D01*
X032353Y021458D02*
X032657Y021458D01*
X032657Y021380D02*
X032353Y021380D01*
X032353Y021303D02*
X032657Y021303D01*
X032657Y021226D02*
X032353Y021226D01*
X032353Y021149D02*
X032657Y021149D01*
X032657Y021072D02*
X032353Y021072D01*
X032353Y020994D02*
X032657Y020994D01*
X032657Y020917D02*
X032353Y020917D01*
X032353Y020840D02*
X032657Y020840D01*
X032657Y020763D02*
X032353Y020763D01*
X032353Y020685D02*
X032657Y020685D01*
X032657Y020608D02*
X032353Y020608D01*
X032353Y020531D02*
X032657Y020531D01*
X032657Y020454D02*
X032353Y020454D01*
X032353Y020376D02*
X032657Y020376D01*
X032657Y020299D02*
X032353Y020299D01*
X032353Y020222D02*
X032657Y020222D01*
X032657Y020145D02*
X032353Y020145D01*
X032353Y020067D02*
X032657Y020067D01*
X032657Y019990D02*
X032353Y019990D01*
X032353Y019913D02*
X032657Y019913D01*
X032657Y019836D02*
X032353Y019836D01*
X032353Y019758D02*
X032657Y019758D01*
X032657Y019681D02*
X032353Y019681D01*
X032353Y019604D02*
X032657Y019604D01*
X032657Y019527D02*
X032353Y019527D01*
X032353Y019449D02*
X032657Y019449D01*
X032657Y019372D02*
X032353Y019372D01*
X032353Y019295D02*
X032657Y019295D01*
X032657Y019218D02*
X032353Y019218D01*
X032353Y019141D02*
X032657Y019141D01*
X032657Y019063D02*
X032353Y019063D01*
X032353Y018986D02*
X032657Y018986D01*
X032657Y018909D02*
X032353Y018909D01*
X032353Y018832D02*
X032657Y018832D01*
X032657Y018754D02*
X032353Y018754D01*
X032353Y018677D02*
X032657Y018677D01*
X032657Y018600D02*
X032353Y018600D01*
X032353Y018523D02*
X032657Y018523D01*
X032657Y018445D02*
X032353Y018445D01*
X032353Y018368D02*
X032657Y018368D01*
X032657Y018291D02*
X032353Y018291D01*
X032353Y018214D02*
X032657Y018214D01*
X032657Y018136D02*
X032353Y018136D01*
X032353Y018059D02*
X032657Y018059D01*
X032657Y017982D02*
X032353Y017982D01*
X032353Y017905D02*
X032657Y017905D01*
X032657Y017827D02*
X032353Y017827D01*
X032353Y017750D02*
X032657Y017750D01*
X032657Y017673D02*
X032353Y017673D01*
X032353Y017596D02*
X032657Y017596D01*
X032657Y017518D02*
X032353Y017518D01*
X032353Y017441D02*
X032657Y017441D01*
X032657Y017364D02*
X032353Y017364D01*
X032353Y017287D02*
X032657Y017287D01*
X032657Y017209D02*
X032353Y017209D01*
X032353Y017132D02*
X032657Y017132D01*
X032657Y017055D02*
X032353Y017055D01*
X032353Y016978D02*
X032657Y016978D01*
X032657Y016901D02*
X032353Y016901D01*
X032353Y016823D02*
X032657Y016823D01*
X032657Y016746D02*
X032353Y016746D01*
X032353Y016669D02*
X032657Y016669D01*
X032657Y016592D02*
X032353Y016592D01*
X032353Y016514D02*
X032657Y016514D01*
X032657Y016437D02*
X032353Y016437D01*
X032353Y016360D02*
X032657Y016360D01*
X032657Y016283D02*
X032353Y016283D01*
X032353Y016205D02*
X032657Y016205D01*
X032657Y016128D02*
X032353Y016128D01*
X032353Y016051D02*
X032657Y016051D01*
X032657Y015974D02*
X032353Y015974D01*
X032353Y015896D02*
X032657Y015896D01*
X032657Y015819D02*
X032353Y015819D01*
X032353Y015742D02*
X032657Y015742D01*
X032657Y015665D02*
X032353Y015665D01*
X032353Y015587D02*
X032657Y015587D01*
X032657Y015510D02*
X032353Y015510D01*
X032353Y015433D02*
X032657Y015433D01*
X032657Y015356D02*
X032353Y015356D01*
X032353Y015278D02*
X032657Y015278D01*
X032657Y015201D02*
X032353Y015201D01*
X032353Y015124D02*
X032657Y015124D01*
X032657Y015047D02*
X032353Y015047D01*
X032353Y014970D02*
X032657Y014970D01*
X032657Y014892D02*
X032353Y014892D01*
X032353Y014815D02*
X032657Y014815D01*
X032657Y014738D02*
X032353Y014738D01*
X032353Y014661D02*
X032657Y014661D01*
X032657Y014583D02*
X032353Y014583D01*
X032353Y014506D02*
X032657Y014506D01*
X032657Y014429D02*
X032353Y014429D01*
X032353Y014352D02*
X032657Y014352D01*
X032657Y014274D02*
X032353Y014274D01*
X032353Y014197D02*
X032657Y014197D01*
X032657Y014120D02*
X032353Y014120D01*
X032353Y014043D02*
X032657Y014043D01*
X032657Y013965D02*
X032353Y013965D01*
X032353Y013888D02*
X032657Y013888D01*
X032657Y013811D02*
X032353Y013811D01*
X032353Y013734D02*
X032657Y013734D01*
X032657Y013656D02*
X032353Y013656D01*
X032353Y013579D02*
X032657Y013579D01*
X032657Y013502D02*
X032353Y013502D01*
X032353Y013425D02*
X032657Y013425D01*
X032657Y013347D02*
X032353Y013347D01*
X032353Y013270D02*
X032657Y013270D01*
X032657Y013193D02*
X032353Y013193D01*
X032353Y013116D02*
X032657Y013116D01*
X032657Y013039D02*
X032353Y013039D01*
X032353Y012961D02*
X032657Y012961D01*
X032657Y012884D02*
X032353Y012884D01*
X032353Y012807D02*
X032657Y012807D01*
X032657Y012730D02*
X032353Y012730D01*
X032353Y012652D02*
X032657Y012652D01*
X032657Y012575D02*
X032353Y012575D01*
X032353Y012498D02*
X032657Y012498D01*
X032657Y012421D02*
X032353Y012421D01*
X032353Y012343D02*
X032657Y012343D01*
X032657Y012266D02*
X032353Y012266D01*
X032353Y012189D02*
X032657Y012189D01*
X032657Y012112D02*
X032353Y012112D01*
X032353Y012034D02*
X032657Y012034D01*
X032657Y011957D02*
X032353Y011957D01*
X032353Y011880D02*
X032657Y011880D01*
X032657Y011803D02*
X032353Y011803D01*
X032353Y011725D02*
X032657Y011725D01*
X032657Y011648D02*
X032353Y011648D01*
X032353Y011571D02*
X032657Y011571D01*
X032657Y011494D02*
X032353Y011494D01*
X032353Y011416D02*
X032657Y011416D01*
X032657Y011339D02*
X032353Y011339D01*
X032353Y011262D02*
X032657Y011262D01*
X032657Y011185D02*
X032353Y011185D01*
X032353Y011108D02*
X032657Y011108D01*
X032657Y011030D02*
X032353Y011030D01*
X032353Y010953D02*
X032657Y010953D01*
X032657Y010876D02*
X032353Y010876D01*
X032353Y010799D02*
X032657Y010799D01*
X032657Y010721D02*
X032353Y010721D01*
X032353Y010644D02*
X032657Y010644D01*
X032657Y010567D02*
X032353Y010567D01*
X032353Y010490D02*
X032657Y010490D01*
X032657Y010412D02*
X032353Y010412D01*
X032353Y010335D02*
X032657Y010335D01*
X032657Y010258D02*
X032353Y010258D01*
X032353Y010181D02*
X032657Y010181D01*
X032657Y010103D02*
X032353Y010103D01*
X032353Y010026D02*
X032657Y010026D01*
X032657Y009949D02*
X032353Y009949D01*
X032333Y009872D02*
X032604Y009872D01*
X032527Y009794D02*
X032256Y009794D01*
X032226Y009764D02*
X032226Y009764D01*
X032179Y009717D02*
X032449Y009717D01*
X032372Y009640D02*
X032101Y009640D01*
X032024Y009563D02*
X032295Y009563D01*
X032218Y009485D02*
X031947Y009485D01*
X031870Y009408D02*
X032140Y009408D01*
X032063Y009331D02*
X031792Y009331D01*
X031715Y009254D02*
X031986Y009254D01*
X031909Y009176D02*
X031638Y009176D01*
X031561Y009099D02*
X031831Y009099D01*
X031754Y009022D02*
X031484Y009022D01*
X031406Y008945D02*
X031677Y008945D01*
X031600Y008868D02*
X031329Y008868D01*
X031252Y008790D02*
X031522Y008790D01*
X031445Y008713D02*
X031175Y008713D01*
X031097Y008636D02*
X031368Y008636D01*
X031291Y008559D02*
X031020Y008559D01*
X030943Y008481D02*
X031214Y008481D01*
X031136Y008404D02*
X030866Y008404D01*
X030788Y008327D02*
X031059Y008327D01*
X030982Y008250D02*
X030711Y008250D01*
X030634Y008172D02*
X030905Y008172D01*
X030827Y008095D02*
X030557Y008095D01*
X030479Y008018D02*
X030750Y008018D01*
X030673Y007941D02*
X030402Y007941D01*
X030325Y007863D02*
X030596Y007863D01*
X030518Y007786D02*
X030248Y007786D01*
X030170Y007709D02*
X030441Y007709D01*
X030364Y007632D02*
X030093Y007632D01*
X030016Y007554D02*
X030287Y007554D01*
X030209Y007477D02*
X029939Y007477D01*
X029861Y007400D02*
X030132Y007400D01*
X030055Y007323D02*
X029784Y007323D01*
X029707Y007245D02*
X029978Y007245D01*
X029900Y007168D02*
X029630Y007168D01*
X029553Y007091D02*
X029823Y007091D01*
X029746Y007014D02*
X029475Y007014D01*
X029398Y006937D02*
X029669Y006937D01*
X029591Y006859D02*
X029321Y006859D01*
X029244Y006782D02*
X029514Y006782D01*
X029437Y006705D02*
X029166Y006705D01*
X029089Y006628D02*
X029360Y006628D01*
X029283Y006550D02*
X029012Y006550D01*
X028935Y006473D02*
X029261Y006473D01*
X029261Y006396D02*
X028857Y006396D01*
X028780Y006319D02*
X029261Y006319D01*
X029261Y006241D02*
X028703Y006241D01*
X028626Y006164D02*
X029261Y006164D01*
X029261Y006087D02*
X028613Y006087D01*
X028613Y006010D02*
X029261Y006010D01*
X029261Y005932D02*
X028613Y005932D01*
X028613Y005855D02*
X029261Y005855D01*
X029261Y005778D02*
X028613Y005778D01*
X028613Y005701D02*
X029261Y005701D01*
X029261Y005623D02*
X028613Y005623D01*
X028613Y005546D02*
X029261Y005546D01*
X029261Y005469D02*
X028613Y005469D01*
X028613Y005392D02*
X029261Y005392D01*
X029261Y005314D02*
X028613Y005314D01*
X028613Y005237D02*
X029261Y005237D01*
X029261Y005160D02*
X028613Y005160D01*
X028613Y005083D02*
X029261Y005083D01*
X029261Y005006D02*
X028613Y005006D01*
X028613Y004928D02*
X029261Y004928D01*
X029321Y004851D02*
X028613Y004851D01*
X028656Y004774D02*
X029399Y004774D01*
X029476Y004697D02*
X028782Y004697D01*
X028859Y004619D02*
X029553Y004619D01*
X029630Y004542D02*
X028937Y004542D01*
X029014Y004465D02*
X029708Y004465D01*
X029785Y004388D02*
X029091Y004388D01*
X029168Y004310D02*
X029862Y004310D01*
X029930Y004233D02*
X029246Y004233D01*
X029323Y004156D02*
X029930Y004156D01*
X029930Y004079D02*
X029400Y004079D01*
X029477Y004001D02*
X029930Y004001D01*
X029998Y003924D02*
X029554Y003924D01*
X029632Y003847D02*
X030075Y003847D01*
X030152Y003770D02*
X029709Y003770D01*
X029786Y003692D02*
X032851Y003692D01*
X032851Y003615D02*
X029863Y003615D01*
X029941Y003538D02*
X032851Y003538D01*
X032851Y003461D02*
X030018Y003461D01*
X030095Y003383D02*
X032851Y003383D01*
X032851Y003306D02*
X030172Y003306D01*
X030250Y003229D02*
X032851Y003229D01*
X032851Y003152D02*
X030327Y003152D01*
X030404Y003075D02*
X032851Y003075D01*
X032828Y002997D02*
X032724Y002997D01*
X032737Y002920D02*
X032814Y002920D01*
X032814Y002843D02*
X032737Y002843D01*
X032737Y002766D02*
X032814Y002766D01*
X032814Y002688D02*
X032737Y002688D01*
X032737Y002611D02*
X032814Y002611D01*
X032814Y002534D02*
X032737Y002534D01*
X032725Y002457D02*
X032826Y002457D01*
X033395Y002457D02*
X036999Y002457D01*
X037031Y002534D02*
X033406Y002534D01*
X033406Y002611D02*
X037069Y002611D01*
X037058Y002600D02*
X036926Y002281D01*
X036926Y001935D01*
X037058Y001615D01*
X037303Y001371D01*
X037622Y001239D01*
X037968Y001239D01*
X038288Y001371D01*
X038532Y001615D01*
X038665Y001935D01*
X038665Y002281D01*
X038532Y002600D01*
X038288Y002845D01*
X037968Y002977D01*
X037622Y002977D01*
X037303Y002845D01*
X037058Y002600D01*
X037146Y002688D02*
X033406Y002688D01*
X033406Y002766D02*
X037224Y002766D01*
X037301Y002843D02*
X033406Y002843D01*
X033406Y002920D02*
X037484Y002920D01*
X038106Y002920D02*
X039131Y002920D01*
X039131Y002843D02*
X038290Y002843D01*
X038367Y002766D02*
X039131Y002766D01*
X039131Y002688D02*
X038444Y002688D01*
X038521Y002611D02*
X039131Y002611D01*
X039131Y002534D02*
X038560Y002534D01*
X038592Y002457D02*
X039131Y002457D01*
X039131Y002379D02*
X038624Y002379D01*
X038656Y002302D02*
X039131Y002302D01*
X039131Y002225D02*
X038665Y002225D01*
X038665Y002148D02*
X039131Y002148D01*
X039131Y002070D02*
X038665Y002070D01*
X038665Y001993D02*
X039131Y001993D01*
X039131Y001916D02*
X038657Y001916D01*
X038625Y001839D02*
X039131Y001839D01*
X039131Y001761D02*
X038593Y001761D01*
X038561Y001684D02*
X039131Y001684D01*
X039131Y001607D02*
X038524Y001607D01*
X038446Y001530D02*
X039131Y001530D01*
X039131Y001452D02*
X038369Y001452D01*
X038292Y001375D02*
X039131Y001375D01*
X039131Y001298D02*
X038112Y001298D01*
X037479Y001298D02*
X001891Y001298D01*
X001748Y001239D02*
X002067Y001371D01*
X002312Y001615D01*
X002444Y001935D01*
X002444Y002281D01*
X002312Y002600D01*
X002067Y002845D01*
X001748Y002977D01*
X001402Y002977D01*
X001082Y002845D01*
X000838Y002600D01*
X000706Y002281D01*
X000706Y001935D01*
X000838Y001615D01*
X001082Y001371D01*
X001402Y001239D01*
X001748Y001239D01*
X002072Y001375D02*
X037299Y001375D01*
X037221Y001452D02*
X002149Y001452D01*
X002226Y001530D02*
X037144Y001530D01*
X037067Y001607D02*
X002303Y001607D01*
X002340Y001684D02*
X037030Y001684D01*
X036998Y001761D02*
X002372Y001761D01*
X002404Y001839D02*
X036966Y001839D01*
X036934Y001916D02*
X002436Y001916D01*
X002444Y001993D02*
X036926Y001993D01*
X036926Y002070D02*
X002444Y002070D01*
X002444Y002148D02*
X036926Y002148D01*
X036926Y002225D02*
X027667Y002225D01*
X027661Y002219D02*
X028136Y002694D01*
X028136Y003366D01*
X027661Y003841D01*
X026989Y003841D01*
X026514Y003366D01*
X026514Y002694D01*
X026989Y002219D01*
X027661Y002219D01*
X027744Y002302D02*
X036935Y002302D01*
X036967Y002379D02*
X027821Y002379D01*
X027898Y002457D02*
X030288Y002457D01*
X030211Y002534D02*
X027976Y002534D01*
X028053Y002611D02*
X030134Y002611D01*
X030057Y002688D02*
X028130Y002688D01*
X028136Y002766D02*
X029979Y002766D01*
X029902Y002843D02*
X028136Y002843D01*
X028136Y002920D02*
X029825Y002920D01*
X029748Y002997D02*
X028136Y002997D01*
X028136Y003075D02*
X029671Y003075D01*
X029593Y003152D02*
X028136Y003152D01*
X028136Y003229D02*
X029516Y003229D01*
X029439Y003306D02*
X028136Y003306D01*
X028119Y003383D02*
X029362Y003383D01*
X029284Y003461D02*
X028041Y003461D01*
X027964Y003538D02*
X029207Y003538D01*
X029130Y003615D02*
X027887Y003615D01*
X027810Y003692D02*
X029053Y003692D01*
X028975Y003770D02*
X027732Y003770D01*
X027197Y004233D02*
X028512Y004233D01*
X028589Y004156D02*
X027120Y004156D01*
X027042Y004079D02*
X028666Y004079D01*
X028744Y004001D02*
X026965Y004001D01*
X026872Y003924D02*
X028821Y003924D01*
X028898Y003847D02*
X024825Y003847D01*
X024747Y003770D02*
X026917Y003770D01*
X026840Y003692D02*
X000633Y003692D01*
X000633Y003615D02*
X026763Y003615D01*
X026685Y003538D02*
X000633Y003538D01*
X000633Y003461D02*
X026608Y003461D01*
X026531Y003383D02*
X000633Y003383D01*
X000633Y003306D02*
X026514Y003306D01*
X026514Y003229D02*
X000633Y003229D01*
X000633Y003152D02*
X026514Y003152D01*
X026514Y003075D02*
X000633Y003075D01*
X000633Y002997D02*
X026514Y002997D01*
X026514Y002920D02*
X001886Y002920D01*
X002069Y002843D02*
X026514Y002843D01*
X026514Y002766D02*
X002146Y002766D01*
X002224Y002688D02*
X026519Y002688D01*
X026597Y002611D02*
X002301Y002611D01*
X002339Y002534D02*
X026674Y002534D01*
X026751Y002457D02*
X002371Y002457D01*
X002403Y002379D02*
X026828Y002379D01*
X026906Y002302D02*
X002435Y002302D01*
X002444Y002225D02*
X026983Y002225D01*
X026695Y004465D02*
X024823Y004465D01*
X024746Y004542D02*
X026772Y004542D01*
X026849Y004619D02*
X019675Y004619D01*
X019675Y004542D02*
X024404Y004542D01*
X024326Y004465D02*
X019675Y004465D01*
X019675Y004388D02*
X024249Y004388D01*
X024180Y004310D02*
X019666Y004310D01*
X019675Y004332D02*
X019675Y005081D01*
X019715Y005121D01*
X019715Y005402D01*
X019517Y005601D01*
X019235Y005601D01*
X019037Y005402D01*
X019037Y005121D01*
X019077Y005081D01*
X019077Y004526D01*
X018957Y004526D01*
X018899Y004468D01*
X018899Y004277D01*
X018896Y004270D01*
X018896Y004151D01*
X018899Y004143D01*
X018899Y003953D01*
X018957Y003894D01*
X019433Y003894D01*
X019491Y003953D01*
X019491Y004083D01*
X019630Y004222D01*
X019675Y004332D01*
X019634Y004233D02*
X024180Y004233D01*
X024180Y004156D02*
X019564Y004156D01*
X019491Y004079D02*
X024180Y004079D01*
X024180Y004001D02*
X019491Y004001D01*
X019463Y003924D02*
X024248Y003924D01*
X024325Y003847D02*
X000633Y003847D01*
X000633Y003924D02*
X018208Y003924D01*
X018199Y003940D02*
X018217Y003908D01*
X018243Y003882D01*
X018275Y003864D01*
X018310Y003854D01*
X018486Y003854D01*
X018486Y004171D01*
X018189Y004171D01*
X018189Y003975D01*
X018199Y003940D01*
X018189Y004001D02*
X000633Y004001D01*
X000633Y004079D02*
X018189Y004079D01*
X018189Y004156D02*
X000633Y004156D01*
X000633Y004233D02*
X018486Y004233D01*
X018486Y004250D02*
X018486Y004171D01*
X018565Y004171D01*
X018565Y004250D01*
X018486Y004250D01*
X018486Y004566D01*
X018310Y004566D01*
X018275Y004557D01*
X018243Y004538D01*
X018217Y004512D01*
X018199Y004481D01*
X018189Y004445D01*
X018189Y004250D01*
X018486Y004250D01*
X018486Y004310D02*
X018565Y004310D01*
X018565Y004250D02*
X018565Y004566D01*
X018741Y004566D01*
X018776Y004557D01*
X018808Y004538D01*
X018834Y004512D01*
X018852Y004481D01*
X018862Y004445D01*
X018862Y004250D01*
X018565Y004250D01*
X018565Y004233D02*
X018896Y004233D01*
X018862Y004171D02*
X018565Y004171D01*
X018565Y003854D01*
X018741Y003854D01*
X018776Y003864D01*
X018808Y003882D01*
X018834Y003908D01*
X018852Y003940D01*
X018862Y003975D01*
X018862Y004171D01*
X018862Y004156D02*
X018896Y004156D01*
X018899Y004079D02*
X018862Y004079D01*
X018862Y004001D02*
X018899Y004001D01*
X018927Y003924D02*
X018843Y003924D01*
X018565Y003924D02*
X018486Y003924D01*
X018486Y004001D02*
X018565Y004001D01*
X018565Y004079D02*
X018486Y004079D01*
X018486Y004156D02*
X018565Y004156D01*
X018565Y004388D02*
X018486Y004388D01*
X018486Y004465D02*
X018565Y004465D01*
X018565Y004542D02*
X018486Y004542D01*
X018250Y004542D02*
X000633Y004542D01*
X000633Y004465D02*
X018195Y004465D01*
X018189Y004388D02*
X000633Y004388D01*
X000633Y004310D02*
X018189Y004310D01*
X018801Y004542D02*
X019077Y004542D01*
X019077Y004619D02*
X000633Y004619D01*
X000633Y004697D02*
X019077Y004697D01*
X019077Y004774D02*
X000633Y004774D01*
X000633Y004851D02*
X019077Y004851D01*
X019077Y004928D02*
X000633Y004928D01*
X000633Y005006D02*
X019077Y005006D01*
X019075Y005083D02*
X000633Y005083D01*
X000633Y005160D02*
X019037Y005160D01*
X019037Y005237D02*
X000633Y005237D01*
X000633Y005314D02*
X019037Y005314D01*
X019037Y005392D02*
X000633Y005392D01*
X000633Y005469D02*
X019104Y005469D01*
X019181Y005546D02*
X000633Y005546D01*
X000633Y005623D02*
X028178Y005623D01*
X028178Y005546D02*
X019571Y005546D01*
X019648Y005469D02*
X028178Y005469D01*
X028178Y005392D02*
X019715Y005392D01*
X019715Y005314D02*
X028178Y005314D01*
X028178Y005237D02*
X019715Y005237D01*
X019715Y005160D02*
X028178Y005160D01*
X028178Y005083D02*
X019677Y005083D01*
X019675Y005006D02*
X028178Y005006D01*
X028178Y004928D02*
X019675Y004928D01*
X019675Y004851D02*
X028178Y004851D01*
X028178Y005701D02*
X000633Y005701D01*
X000633Y005778D02*
X024337Y005778D01*
X024395Y005720D02*
X024140Y005975D01*
X024140Y006116D01*
X024535Y006116D01*
X024535Y006194D01*
X024140Y006194D01*
X024140Y006335D01*
X024395Y006590D01*
X024535Y006590D01*
X024535Y006194D01*
X024614Y006194D01*
X025009Y006194D01*
X025009Y006335D01*
X024755Y006590D01*
X024614Y006590D01*
X024614Y006194D01*
X024614Y006116D01*
X025009Y006116D01*
X025009Y005975D01*
X024755Y005720D01*
X024614Y005720D01*
X024614Y006116D01*
X024535Y006116D01*
X024535Y005720D01*
X024395Y005720D01*
X024535Y005778D02*
X024614Y005778D01*
X024614Y005855D02*
X024535Y005855D01*
X024535Y005932D02*
X024614Y005932D01*
X024614Y006010D02*
X024535Y006010D01*
X024535Y006087D02*
X024614Y006087D01*
X024614Y006164D02*
X028178Y006164D01*
X028178Y006087D02*
X025009Y006087D01*
X025009Y006010D02*
X028178Y006010D01*
X028178Y005932D02*
X024967Y005932D01*
X024890Y005855D02*
X028178Y005855D01*
X028178Y005778D02*
X024812Y005778D01*
X024535Y006164D02*
X019715Y006164D01*
X019715Y006241D02*
X024140Y006241D01*
X024140Y006319D02*
X019715Y006319D01*
X019790Y006396D02*
X024201Y006396D01*
X024278Y006473D02*
X019867Y006473D01*
X019945Y006550D02*
X024355Y006550D01*
X024535Y006550D02*
X024614Y006550D01*
X024614Y006473D02*
X024535Y006473D01*
X024535Y006396D02*
X024614Y006396D01*
X024614Y006319D02*
X024535Y006319D01*
X024535Y006241D02*
X024614Y006241D01*
X024872Y006473D02*
X026985Y006473D01*
X026907Y006550D02*
X024794Y006550D01*
X024949Y006396D02*
X028242Y006396D01*
X028178Y006319D02*
X025009Y006319D01*
X025009Y006241D02*
X028178Y006241D01*
X028319Y006473D02*
X027665Y006473D01*
X027742Y006550D02*
X028397Y006550D01*
X028474Y006628D02*
X027819Y006628D01*
X027897Y006705D02*
X028551Y006705D01*
X028628Y006782D02*
X027974Y006782D01*
X028051Y006859D02*
X028706Y006859D01*
X028783Y006937D02*
X028128Y006937D01*
X028136Y007014D02*
X028860Y007014D01*
X028937Y007091D02*
X028136Y007091D01*
X028136Y007168D02*
X029015Y007168D01*
X029092Y007245D02*
X028136Y007245D01*
X028136Y007323D02*
X029169Y007323D01*
X029246Y007400D02*
X028136Y007400D01*
X028136Y007477D02*
X029324Y007477D01*
X029401Y007554D02*
X028136Y007554D01*
X028120Y007632D02*
X029478Y007632D01*
X029555Y007709D02*
X028043Y007709D01*
X027966Y007786D02*
X029633Y007786D01*
X029710Y007863D02*
X027889Y007863D01*
X027811Y007941D02*
X029787Y007941D01*
X029864Y008018D02*
X027734Y008018D01*
X026514Y007554D02*
X020949Y007554D01*
X020871Y007477D02*
X026514Y007477D01*
X026514Y007400D02*
X020794Y007400D01*
X020717Y007323D02*
X026514Y007323D01*
X026514Y007245D02*
X020640Y007245D01*
X020563Y007168D02*
X026514Y007168D01*
X026514Y007091D02*
X020485Y007091D01*
X020408Y007014D02*
X026514Y007014D01*
X026521Y006937D02*
X020331Y006937D01*
X020254Y006859D02*
X026598Y006859D01*
X026676Y006782D02*
X020176Y006782D01*
X020099Y006705D02*
X026753Y006705D01*
X026830Y006628D02*
X020022Y006628D01*
X019771Y006937D02*
X000633Y006937D01*
X000633Y007014D02*
X019849Y007014D01*
X019926Y007091D02*
X000633Y007091D01*
X000633Y007168D02*
X020003Y007168D01*
X020080Y007245D02*
X000633Y007245D01*
X000633Y007323D02*
X020158Y007323D01*
X020235Y007400D02*
X000633Y007400D01*
X000633Y007477D02*
X020312Y007477D01*
X020389Y007554D02*
X000633Y007554D01*
X000633Y007632D02*
X020467Y007632D01*
X020544Y007709D02*
X000633Y007709D01*
X000633Y007786D02*
X020621Y007786D01*
X020698Y007863D02*
X000633Y007863D01*
X000633Y007941D02*
X020775Y007941D01*
X019694Y006859D02*
X000633Y006859D01*
X000633Y006782D02*
X019617Y006782D01*
X019540Y006705D02*
X000633Y006705D01*
X000633Y006628D02*
X019462Y006628D01*
X019185Y006550D02*
X000633Y006550D01*
X000633Y006473D02*
X019108Y006473D01*
X019037Y006396D02*
X000633Y006396D01*
X000633Y006319D02*
X019037Y006319D01*
X019037Y006241D02*
X000633Y006241D01*
X000633Y006164D02*
X019037Y006164D01*
X019071Y006087D02*
X000633Y006087D01*
X000633Y006010D02*
X019148Y006010D01*
X019225Y005932D02*
X000633Y005932D01*
X000633Y005855D02*
X024260Y005855D01*
X024183Y005932D02*
X019527Y005932D01*
X019604Y006010D02*
X024140Y006010D01*
X024140Y006087D02*
X019681Y006087D01*
X019675Y004774D02*
X027053Y004774D01*
X026927Y004697D02*
X019675Y004697D01*
X018899Y004465D02*
X018857Y004465D01*
X018862Y004388D02*
X018899Y004388D01*
X018899Y004310D02*
X018862Y004310D01*
X024402Y003770D02*
X000633Y003770D01*
X000633Y002920D02*
X001264Y002920D01*
X001080Y002843D02*
X000633Y002843D01*
X000633Y002766D02*
X001003Y002766D01*
X000926Y002688D02*
X000633Y002688D01*
X000633Y002611D02*
X000849Y002611D01*
X000810Y002534D02*
X000633Y002534D01*
X000633Y002457D02*
X000778Y002457D01*
X000746Y002379D02*
X000633Y002379D01*
X000633Y002302D02*
X000714Y002302D01*
X000706Y002225D02*
X000633Y002225D01*
X000633Y002148D02*
X000706Y002148D01*
X000706Y002070D02*
X000633Y002070D01*
X000633Y001993D02*
X000706Y001993D01*
X000713Y001916D02*
X000633Y001916D01*
X000633Y001839D02*
X000745Y001839D01*
X000777Y001761D02*
X000633Y001761D01*
X000633Y001684D02*
X000809Y001684D01*
X000846Y001607D02*
X000633Y001607D01*
X000633Y001530D02*
X000924Y001530D01*
X001001Y001452D02*
X000633Y001452D01*
X000633Y001375D02*
X001078Y001375D01*
X001259Y001298D02*
X000633Y001298D01*
X000633Y001221D02*
X039131Y001221D01*
X039131Y001143D02*
X000633Y001143D01*
X000633Y001066D02*
X039131Y001066D01*
X039131Y000989D02*
X000633Y000989D01*
X000633Y000912D02*
X039131Y000912D01*
X039131Y000835D02*
X000633Y000835D01*
X000633Y000757D02*
X039131Y000757D01*
X039131Y000680D02*
X000633Y000680D01*
X000633Y000603D02*
X039131Y000603D01*
X039131Y000526D02*
X000633Y000526D01*
X000633Y000448D02*
X039131Y000448D01*
X039131Y002997D02*
X033393Y002997D01*
X033370Y003075D02*
X039131Y003075D01*
X039131Y003152D02*
X033370Y003152D01*
X033370Y003229D02*
X039131Y003229D01*
X039131Y003306D02*
X033370Y003306D01*
X033370Y003383D02*
X039131Y003383D01*
X039131Y003461D02*
X033370Y003461D01*
X033370Y003538D02*
X039131Y003538D01*
X039131Y003615D02*
X033370Y003615D01*
X033370Y003692D02*
X039131Y003692D01*
X039131Y003770D02*
X033370Y003770D01*
X033370Y003847D02*
X039131Y003847D01*
X039131Y003924D02*
X033370Y003924D01*
X033370Y004001D02*
X039131Y004001D01*
X039131Y004079D02*
X033370Y004079D01*
X033406Y004156D02*
X039131Y004156D01*
X039131Y004233D02*
X033406Y004233D01*
X033406Y004310D02*
X039131Y004310D01*
X039131Y004388D02*
X033406Y004388D01*
X033406Y004465D02*
X039131Y004465D01*
X039131Y004542D02*
X033406Y004542D01*
X033406Y004619D02*
X039131Y004619D01*
X039131Y004697D02*
X033370Y004697D01*
X033370Y004774D02*
X039131Y004774D01*
X039131Y004851D02*
X033370Y004851D01*
X033370Y004928D02*
X039131Y004928D01*
X039131Y005006D02*
X033370Y005006D01*
X033370Y005083D02*
X039131Y005083D01*
X039131Y005160D02*
X033370Y005160D01*
X033370Y005237D02*
X039131Y005237D01*
X039131Y005314D02*
X033370Y005314D01*
X033370Y005392D02*
X039131Y005392D01*
X039131Y005469D02*
X033370Y005469D01*
X033370Y005546D02*
X039131Y005546D01*
X039131Y005623D02*
X033370Y005623D01*
X033399Y005701D02*
X039131Y005701D01*
X039131Y005778D02*
X033406Y005778D01*
X033406Y005855D02*
X039131Y005855D01*
X039131Y005932D02*
X033443Y005932D01*
X033521Y006010D02*
X039131Y006010D01*
X039131Y006087D02*
X033598Y006087D01*
X033675Y006164D02*
X039131Y006164D01*
X039131Y006241D02*
X033752Y006241D01*
X033829Y006319D02*
X039131Y006319D01*
X039131Y006396D02*
X033907Y006396D01*
X033984Y006473D02*
X039131Y006473D01*
X039131Y006550D02*
X034061Y006550D01*
X034138Y006628D02*
X039131Y006628D01*
X039131Y006705D02*
X034216Y006705D01*
X034293Y006782D02*
X039131Y006782D01*
X039131Y006859D02*
X034370Y006859D01*
X034447Y006937D02*
X039131Y006937D01*
X039131Y007014D02*
X034525Y007014D01*
X034602Y007091D02*
X039131Y007091D01*
X039131Y007168D02*
X034679Y007168D01*
X034756Y007245D02*
X039131Y007245D01*
X039131Y007323D02*
X034834Y007323D01*
X034911Y007400D02*
X039131Y007400D01*
X039131Y007477D02*
X034988Y007477D01*
X035064Y007554D02*
X039131Y007554D01*
X039131Y007632D02*
X035096Y007632D01*
X035102Y007709D02*
X039131Y007709D01*
X039131Y007786D02*
X035102Y007786D01*
X035102Y007863D02*
X039131Y007863D01*
X039131Y007941D02*
X035102Y007941D01*
X035102Y008018D02*
X039131Y008018D01*
X039131Y008095D02*
X035102Y008095D01*
X035102Y008172D02*
X039131Y008172D01*
X039131Y008250D02*
X035102Y008250D01*
X035102Y008327D02*
X039131Y008327D01*
X039131Y008404D02*
X035102Y008404D01*
X035102Y008481D02*
X039131Y008481D01*
X039131Y008559D02*
X035102Y008559D01*
X035102Y008636D02*
X039131Y008636D01*
X039131Y008713D02*
X035102Y008713D01*
X035102Y008790D02*
X039131Y008790D01*
X039131Y008868D02*
X035102Y008868D01*
X035102Y008945D02*
X039131Y008945D01*
X039131Y009022D02*
X035102Y009022D01*
X035102Y009099D02*
X039131Y009099D01*
X039131Y009176D02*
X035102Y009176D01*
X035102Y009254D02*
X039131Y009254D01*
X039131Y009331D02*
X035102Y009331D01*
X035102Y009408D02*
X039131Y009408D01*
X039131Y009485D02*
X035102Y009485D01*
X035102Y009563D02*
X039131Y009563D01*
X039131Y009640D02*
X035102Y009640D01*
X035102Y009717D02*
X039131Y009717D01*
X039131Y009794D02*
X035102Y009794D01*
X035102Y009872D02*
X039131Y009872D01*
X039131Y009949D02*
X035102Y009949D01*
X035102Y010026D02*
X039131Y010026D01*
X039131Y010103D02*
X035102Y010103D01*
X035102Y010181D02*
X039131Y010181D01*
X039131Y010258D02*
X035102Y010258D01*
X035102Y010335D02*
X039131Y010335D01*
X039131Y010412D02*
X035102Y010412D01*
X035102Y010490D02*
X039131Y010490D01*
X039131Y010567D02*
X035102Y010567D01*
X035102Y010644D02*
X039131Y010644D01*
X039131Y010721D02*
X035102Y010721D01*
X035102Y010799D02*
X039131Y010799D01*
X039131Y010876D02*
X035102Y010876D01*
X035102Y010953D02*
X037855Y010953D01*
X037926Y010924D02*
X037606Y011056D01*
X037361Y011300D01*
X037229Y011620D01*
X037229Y011966D01*
X037361Y012285D01*
X037606Y012530D01*
X037926Y012662D01*
X038271Y012662D01*
X038591Y012530D01*
X038835Y012285D01*
X038968Y011966D01*
X038968Y011620D01*
X038835Y011300D01*
X038591Y011056D01*
X038271Y010924D01*
X037926Y010924D01*
X037668Y011030D02*
X035102Y011030D01*
X035102Y011108D02*
X037554Y011108D01*
X037477Y011185D02*
X035102Y011185D01*
X035102Y011262D02*
X037400Y011262D01*
X037345Y011339D02*
X035102Y011339D01*
X035102Y011416D02*
X037313Y011416D01*
X037281Y011494D02*
X035102Y011494D01*
X035102Y011571D02*
X037249Y011571D01*
X037229Y011648D02*
X035102Y011648D01*
X035102Y011725D02*
X037229Y011725D01*
X037229Y011803D02*
X035102Y011803D01*
X035102Y011880D02*
X037229Y011880D01*
X037229Y011957D02*
X035102Y011957D01*
X035102Y012034D02*
X037258Y012034D01*
X037290Y012112D02*
X035124Y012112D01*
X035202Y012189D02*
X037322Y012189D01*
X037354Y012266D02*
X035279Y012266D01*
X035356Y012343D02*
X037420Y012343D01*
X037497Y012421D02*
X035433Y012421D01*
X035511Y012498D02*
X037574Y012498D01*
X037715Y012575D02*
X035588Y012575D01*
X035665Y012652D02*
X037902Y012652D01*
X038295Y012652D02*
X039131Y012652D01*
X039131Y012575D02*
X038482Y012575D01*
X038623Y012498D02*
X039131Y012498D01*
X039131Y012421D02*
X038700Y012421D01*
X038777Y012343D02*
X039131Y012343D01*
X039131Y012266D02*
X038843Y012266D01*
X038875Y012189D02*
X039131Y012189D01*
X039131Y012112D02*
X038907Y012112D01*
X038939Y012034D02*
X039131Y012034D01*
X039131Y011957D02*
X038968Y011957D01*
X038968Y011880D02*
X039131Y011880D01*
X039131Y011803D02*
X038968Y011803D01*
X038968Y011725D02*
X039131Y011725D01*
X039131Y011648D02*
X038968Y011648D01*
X038947Y011571D02*
X039131Y011571D01*
X039131Y011494D02*
X038915Y011494D01*
X038883Y011416D02*
X039131Y011416D01*
X039131Y011339D02*
X038851Y011339D01*
X038797Y011262D02*
X039131Y011262D01*
X039131Y011185D02*
X038720Y011185D01*
X038642Y011108D02*
X039131Y011108D01*
X039131Y011030D02*
X038529Y011030D01*
X038342Y010953D02*
X039131Y010953D01*
X039131Y012730D02*
X035742Y012730D01*
X035820Y012807D02*
X039131Y012807D01*
X039131Y012884D02*
X035897Y012884D01*
X035974Y012961D02*
X039131Y012961D01*
X039131Y013039D02*
X036051Y013039D01*
X036129Y013116D02*
X039131Y013116D01*
X039131Y013193D02*
X036206Y013193D01*
X036283Y013270D02*
X039131Y013270D01*
X039131Y013347D02*
X036360Y013347D01*
X036438Y013425D02*
X039131Y013425D01*
X039131Y013502D02*
X036515Y013502D01*
X036592Y013579D02*
X039131Y013579D01*
X039131Y013656D02*
X036669Y013656D01*
X036747Y013734D02*
X039131Y013734D01*
X039131Y013811D02*
X036824Y013811D01*
X036901Y013888D02*
X039131Y013888D01*
X039131Y013965D02*
X036978Y013965D01*
X037056Y014043D02*
X039131Y014043D01*
X039131Y014120D02*
X037133Y014120D01*
X037210Y014197D02*
X039131Y014197D01*
X039131Y014274D02*
X037287Y014274D01*
X037364Y014352D02*
X039131Y014352D01*
X039131Y014429D02*
X037442Y014429D01*
X037519Y014506D02*
X039131Y014506D01*
X039131Y014583D02*
X037582Y014583D01*
X037612Y014661D02*
X039131Y014661D01*
X039131Y014738D02*
X037612Y014738D01*
X037612Y014815D02*
X039131Y014815D01*
X039131Y014892D02*
X037612Y014892D01*
X037612Y014970D02*
X039131Y014970D01*
X039131Y015047D02*
X037612Y015047D01*
X037612Y015124D02*
X039131Y015124D01*
X039131Y015201D02*
X037612Y015201D01*
X037612Y015278D02*
X039131Y015278D01*
X039131Y015356D02*
X037612Y015356D01*
X037612Y015433D02*
X039131Y015433D01*
X039131Y015510D02*
X037612Y015510D01*
X037612Y015587D02*
X039131Y015587D01*
X039131Y015665D02*
X037612Y015665D01*
X037612Y015742D02*
X039131Y015742D01*
X039131Y015819D02*
X037612Y015819D01*
X037612Y015896D02*
X039131Y015896D01*
X039131Y015974D02*
X037612Y015974D01*
X037612Y016051D02*
X039131Y016051D01*
X039131Y016128D02*
X037612Y016128D01*
X037612Y016205D02*
X039131Y016205D01*
X039131Y016283D02*
X037612Y016283D01*
X037612Y016360D02*
X039131Y016360D01*
X039131Y016437D02*
X037612Y016437D01*
X037612Y016514D02*
X039131Y016514D01*
X039131Y016592D02*
X037612Y016592D01*
X037612Y016669D02*
X039131Y016669D01*
X039131Y016746D02*
X037612Y016746D01*
X037612Y016823D02*
X039131Y016823D01*
X039131Y016901D02*
X037612Y016901D01*
X037612Y016978D02*
X039131Y016978D01*
X039131Y017055D02*
X037612Y017055D01*
X037612Y017132D02*
X039131Y017132D01*
X039131Y017209D02*
X037612Y017209D01*
X037612Y017287D02*
X039131Y017287D01*
X039131Y017364D02*
X037612Y017364D01*
X037612Y017441D02*
X039131Y017441D01*
X039131Y017518D02*
X037612Y017518D01*
X037612Y017596D02*
X039131Y017596D01*
X039131Y017673D02*
X037612Y017673D01*
X037612Y017750D02*
X039131Y017750D01*
X039131Y017827D02*
X037612Y017827D01*
X037612Y017905D02*
X039131Y017905D01*
X039131Y017982D02*
X037612Y017982D01*
X037612Y018059D02*
X039131Y018059D01*
X039131Y018136D02*
X037612Y018136D01*
X037612Y018214D02*
X039131Y018214D01*
X039131Y018291D02*
X037612Y018291D01*
X037612Y018368D02*
X039131Y018368D01*
X039131Y018445D02*
X037612Y018445D01*
X037612Y018523D02*
X039131Y018523D01*
X039131Y018600D02*
X037612Y018600D01*
X037612Y018677D02*
X039131Y018677D01*
X039131Y018754D02*
X037612Y018754D01*
X037612Y018832D02*
X039131Y018832D01*
X039131Y018909D02*
X037612Y018909D01*
X037612Y018986D02*
X039131Y018986D01*
X039131Y019063D02*
X037612Y019063D01*
X037612Y019141D02*
X039131Y019141D01*
X039131Y019218D02*
X037612Y019218D01*
X037612Y019295D02*
X039131Y019295D01*
X039131Y019372D02*
X037612Y019372D01*
X037612Y019449D02*
X039131Y019449D01*
X039131Y019527D02*
X037612Y019527D01*
X037612Y019604D02*
X039131Y019604D01*
X039131Y019681D02*
X037612Y019681D01*
X037612Y019758D02*
X039131Y019758D01*
X039131Y019836D02*
X037612Y019836D01*
X037612Y019913D02*
X039131Y019913D01*
X039131Y019990D02*
X037612Y019990D01*
X037612Y020067D02*
X039131Y020067D01*
X039131Y020145D02*
X037612Y020145D01*
X037612Y020222D02*
X039131Y020222D01*
X039131Y020299D02*
X037612Y020299D01*
X037612Y020376D02*
X039131Y020376D01*
X039131Y020454D02*
X037612Y020454D01*
X037612Y020531D02*
X039131Y020531D01*
X039131Y020608D02*
X037612Y020608D01*
X037612Y020685D02*
X039131Y020685D01*
X039131Y020763D02*
X037612Y020763D01*
X037612Y020840D02*
X039131Y020840D01*
X039131Y020917D02*
X037612Y020917D01*
X037612Y020994D02*
X039131Y020994D01*
X039131Y021072D02*
X037612Y021072D01*
X037612Y021149D02*
X039131Y021149D01*
X039131Y021226D02*
X037612Y021226D01*
X037612Y021303D02*
X039131Y021303D01*
X039131Y021380D02*
X037612Y021380D01*
X037612Y021458D02*
X039131Y021458D01*
X039131Y021535D02*
X037612Y021535D01*
X037612Y021612D02*
X039131Y021612D01*
X039131Y021689D02*
X037612Y021689D01*
X037612Y021767D02*
X039131Y021767D01*
X039131Y021844D02*
X037612Y021844D01*
X037612Y021921D02*
X039131Y021921D01*
X039131Y021998D02*
X037612Y021998D01*
X037612Y022076D02*
X039131Y022076D01*
X039131Y022153D02*
X037612Y022153D01*
X037612Y022230D02*
X039131Y022230D01*
X039131Y022307D02*
X037612Y022307D01*
X037612Y022385D02*
X039131Y022385D01*
X039131Y022462D02*
X037612Y022462D01*
X037612Y022539D02*
X039131Y022539D01*
X039131Y022616D02*
X037612Y022616D01*
X037612Y022694D02*
X039131Y022694D01*
X039131Y022771D02*
X037612Y022771D01*
X037612Y022848D02*
X039131Y022848D01*
X039131Y022925D02*
X037612Y022925D01*
X037612Y023003D02*
X039131Y023003D01*
X039131Y023080D02*
X037612Y023080D01*
X037612Y023157D02*
X039131Y023157D01*
X039131Y023234D02*
X037612Y023234D01*
X037612Y023311D02*
X039131Y023311D01*
X039131Y023389D02*
X037612Y023389D01*
X037612Y023466D02*
X039131Y023466D01*
X039131Y023543D02*
X037612Y023543D01*
X037612Y023620D02*
X039131Y023620D01*
X039131Y023698D02*
X037612Y023698D01*
X037612Y023775D02*
X039131Y023775D01*
X039131Y023852D02*
X037612Y023852D01*
X037612Y023929D02*
X039131Y023929D01*
X039131Y024007D02*
X037612Y024007D01*
X037612Y024084D02*
X039131Y024084D01*
X039131Y024161D02*
X037612Y024161D01*
X037612Y024238D02*
X039131Y024238D01*
X039131Y024316D02*
X037612Y024316D01*
X037612Y024393D02*
X039131Y024393D01*
X039131Y024470D02*
X037612Y024470D01*
X037612Y024547D02*
X039131Y024547D01*
X039131Y024625D02*
X037612Y024625D01*
X037612Y024702D02*
X039131Y024702D01*
X039131Y024779D02*
X037612Y024779D01*
X037612Y024856D02*
X039131Y024856D01*
X039131Y024934D02*
X037612Y024934D01*
X037612Y025011D02*
X039131Y025011D01*
X039131Y025088D02*
X037612Y025088D01*
X037612Y025165D02*
X039131Y025165D01*
X039131Y025243D02*
X037612Y025243D01*
X037612Y025320D02*
X039131Y025320D01*
X039131Y025397D02*
X037612Y025397D01*
X037612Y025474D02*
X039131Y025474D01*
X039131Y025551D02*
X037612Y025551D01*
X037612Y025629D02*
X039131Y025629D01*
X039131Y025706D02*
X037612Y025706D01*
X037612Y025783D02*
X039131Y025783D01*
X039131Y025860D02*
X037612Y025860D01*
X037612Y025938D02*
X039131Y025938D01*
X039131Y026015D02*
X037612Y026015D01*
X037612Y026092D02*
X039131Y026092D01*
X039131Y026169D02*
X037612Y026169D01*
X037612Y026247D02*
X039131Y026247D01*
X039131Y026324D02*
X037612Y026324D01*
X037612Y026401D02*
X039131Y026401D01*
X039131Y026478D02*
X037612Y026478D01*
X037612Y026556D02*
X039131Y026556D01*
X039131Y026633D02*
X037612Y026633D01*
X037612Y026710D02*
X039131Y026710D01*
X039131Y026787D02*
X037612Y026787D01*
X037612Y026865D02*
X039131Y026865D01*
X039131Y026942D02*
X037612Y026942D01*
X037612Y027019D02*
X039131Y027019D01*
X039131Y027096D02*
X037612Y027096D01*
X037612Y027174D02*
X039131Y027174D01*
X039131Y027251D02*
X037612Y027251D01*
X037612Y027328D02*
X039131Y027328D01*
X039131Y027405D02*
X037612Y027405D01*
X037612Y027482D02*
X039131Y027482D01*
X039131Y027560D02*
X037612Y027560D01*
X037612Y027637D02*
X039131Y027637D01*
X039131Y027714D02*
X037612Y027714D01*
X037612Y027791D02*
X039131Y027791D01*
X039131Y027869D02*
X037603Y027869D01*
X037570Y027946D02*
X039131Y027946D01*
X039131Y028023D02*
X037493Y028023D01*
X037416Y028100D02*
X039131Y028100D01*
X039131Y028178D02*
X037338Y028178D01*
X037261Y028255D02*
X039131Y028255D01*
X039131Y028332D02*
X037184Y028332D01*
X037107Y028409D02*
X039131Y028409D01*
X039131Y028487D02*
X037029Y028487D01*
X036944Y028564D02*
X039131Y028564D01*
X039131Y028641D02*
X028830Y028641D01*
X028907Y028564D02*
X031658Y028564D01*
X031573Y028487D02*
X028984Y028487D01*
X029061Y028409D02*
X031496Y028409D01*
X031418Y028332D02*
X029139Y028332D01*
X029216Y028255D02*
X031341Y028255D01*
X031264Y028178D02*
X029293Y028178D01*
X029370Y028100D02*
X031187Y028100D01*
X031110Y028023D02*
X029448Y028023D01*
X029525Y027946D02*
X031032Y027946D01*
X030955Y027869D02*
X029602Y027869D01*
X029679Y027791D02*
X030878Y027791D01*
X030801Y027714D02*
X029757Y027714D01*
X029834Y027637D02*
X030723Y027637D01*
X030646Y027560D02*
X029911Y027560D01*
X029988Y027482D02*
X030569Y027482D01*
X030492Y027405D02*
X030066Y027405D01*
X030143Y027328D02*
X030414Y027328D01*
X030337Y027251D02*
X030220Y027251D01*
X031380Y027560D02*
X037093Y027560D01*
X037093Y027637D02*
X031457Y027637D01*
X031534Y027714D02*
X037068Y027714D01*
X036991Y027791D02*
X031611Y027791D01*
X031689Y027869D02*
X036914Y027869D01*
X036836Y027946D02*
X031766Y027946D01*
X031843Y028023D02*
X036759Y028023D01*
X037093Y026556D02*
X034791Y026556D01*
X034717Y026478D02*
X037093Y026478D01*
X037093Y026401D02*
X034640Y026401D01*
X034563Y026324D02*
X037093Y026324D01*
X037093Y026247D02*
X033917Y026247D01*
X033994Y026169D02*
X037093Y026169D01*
X037093Y026092D02*
X034071Y026092D01*
X034105Y026015D02*
X034152Y026015D01*
X034212Y026313D02*
X034343Y026313D01*
X034343Y026683D01*
X033973Y026683D01*
X033973Y026552D01*
X034212Y026313D01*
X034201Y026324D02*
X033839Y026324D01*
X033762Y026401D02*
X034124Y026401D01*
X034047Y026478D02*
X033685Y026478D01*
X033738Y026556D02*
X033973Y026556D01*
X033973Y026633D02*
X033751Y026633D01*
X033751Y026710D02*
X034343Y026710D01*
X034343Y026633D02*
X034421Y026633D01*
X034421Y026556D02*
X034343Y026556D01*
X034343Y026478D02*
X034421Y026478D01*
X034421Y026401D02*
X034343Y026401D01*
X034343Y026324D02*
X034421Y026324D01*
X034611Y026015D02*
X037093Y026015D01*
X037093Y025938D02*
X034689Y025938D01*
X034751Y025860D02*
X037093Y025860D01*
X037093Y025783D02*
X034751Y025783D01*
X034751Y025706D02*
X037093Y025706D01*
X037093Y025629D02*
X034751Y025629D01*
X034734Y025551D02*
X037093Y025551D01*
X037093Y025474D02*
X034656Y025474D01*
X034579Y025397D02*
X037093Y025397D01*
X037093Y025320D02*
X034105Y025320D01*
X034105Y025397D02*
X034185Y025397D01*
X034107Y025474D02*
X034105Y025474D01*
X034105Y025243D02*
X037093Y025243D01*
X037093Y025165D02*
X034105Y025165D01*
X034105Y025088D02*
X037093Y025088D01*
X037093Y025011D02*
X034105Y025011D01*
X034105Y024934D02*
X037093Y024934D01*
X037093Y024856D02*
X034105Y024856D01*
X034105Y024779D02*
X037093Y024779D01*
X037093Y024702D02*
X034105Y024702D01*
X034105Y024625D02*
X037093Y024625D01*
X037093Y024547D02*
X034105Y024547D01*
X034105Y024470D02*
X037093Y024470D01*
X037093Y024393D02*
X034105Y024393D01*
X034105Y024316D02*
X037093Y024316D01*
X037093Y024238D02*
X034105Y024238D01*
X034105Y024161D02*
X037093Y024161D01*
X037093Y024084D02*
X034105Y024084D01*
X034105Y024007D02*
X037093Y024007D01*
X037093Y023929D02*
X034105Y023929D01*
X034105Y023852D02*
X037093Y023852D01*
X037093Y023775D02*
X034105Y023775D01*
X034105Y023698D02*
X037093Y023698D01*
X037093Y023620D02*
X034105Y023620D01*
X034105Y023543D02*
X037093Y023543D01*
X037093Y023466D02*
X034105Y023466D01*
X034105Y023389D02*
X037093Y023389D01*
X037093Y023311D02*
X034105Y023311D01*
X034105Y023234D02*
X037093Y023234D01*
X037093Y023157D02*
X034105Y023157D01*
X034105Y023080D02*
X037093Y023080D01*
X037093Y023003D02*
X034105Y023003D01*
X034105Y022925D02*
X037093Y022925D01*
X037093Y022848D02*
X034105Y022848D01*
X034105Y022771D02*
X037093Y022771D01*
X037093Y022694D02*
X034105Y022694D01*
X034105Y022616D02*
X037093Y022616D01*
X037093Y022539D02*
X034105Y022539D01*
X034105Y022462D02*
X037093Y022462D01*
X037093Y022385D02*
X034105Y022385D01*
X034105Y022307D02*
X037093Y022307D01*
X037093Y022230D02*
X034105Y022230D01*
X034105Y022153D02*
X037093Y022153D01*
X037093Y022076D02*
X034105Y022076D01*
X034105Y021998D02*
X037093Y021998D01*
X037093Y021921D02*
X034105Y021921D01*
X034105Y021844D02*
X037093Y021844D01*
X037093Y021767D02*
X034105Y021767D01*
X034105Y021689D02*
X037093Y021689D01*
X037093Y021612D02*
X034105Y021612D01*
X034105Y021535D02*
X037093Y021535D01*
X037093Y021458D02*
X034105Y021458D01*
X034105Y021380D02*
X037093Y021380D01*
X037093Y021303D02*
X034105Y021303D01*
X034105Y021226D02*
X037093Y021226D01*
X037093Y021149D02*
X034105Y021149D01*
X034105Y021072D02*
X037093Y021072D01*
X037093Y020994D02*
X034105Y020994D01*
X034105Y020917D02*
X037093Y020917D01*
X037093Y020840D02*
X034105Y020840D01*
X034105Y020763D02*
X037093Y020763D01*
X037093Y020685D02*
X034105Y020685D01*
X034105Y020608D02*
X037093Y020608D01*
X037093Y020531D02*
X034105Y020531D01*
X034105Y020454D02*
X037093Y020454D01*
X037093Y020376D02*
X034105Y020376D01*
X034105Y020299D02*
X037093Y020299D01*
X037093Y020222D02*
X034105Y020222D01*
X034105Y020145D02*
X037093Y020145D01*
X037093Y020067D02*
X034105Y020067D01*
X034105Y019990D02*
X037093Y019990D01*
X037093Y019913D02*
X034105Y019913D01*
X034105Y019836D02*
X037093Y019836D01*
X037093Y019758D02*
X034105Y019758D01*
X034105Y019681D02*
X037093Y019681D01*
X037093Y019604D02*
X034105Y019604D01*
X034105Y019527D02*
X037093Y019527D01*
X037093Y019449D02*
X034105Y019449D01*
X034105Y019372D02*
X037093Y019372D01*
X037093Y019295D02*
X034105Y019295D01*
X034105Y019218D02*
X037093Y019218D01*
X037093Y019141D02*
X034105Y019141D01*
X034105Y019063D02*
X037093Y019063D01*
X037093Y018986D02*
X034105Y018986D01*
X034105Y018909D02*
X037093Y018909D01*
X037093Y018832D02*
X034105Y018832D01*
X034105Y018754D02*
X037093Y018754D01*
X037093Y018677D02*
X034105Y018677D01*
X034105Y018600D02*
X037093Y018600D01*
X037093Y018523D02*
X034105Y018523D01*
X034105Y018445D02*
X037093Y018445D01*
X037093Y018368D02*
X034105Y018368D01*
X034105Y018291D02*
X037093Y018291D01*
X037093Y018214D02*
X034105Y018214D01*
X034105Y018136D02*
X037093Y018136D01*
X037093Y018059D02*
X034105Y018059D01*
X034105Y017982D02*
X037093Y017982D01*
X037093Y017905D02*
X034105Y017905D01*
X034105Y017827D02*
X037093Y017827D01*
X037093Y017750D02*
X034105Y017750D01*
X034105Y017673D02*
X037093Y017673D01*
X037093Y017596D02*
X034105Y017596D01*
X034105Y017518D02*
X037093Y017518D01*
X037093Y017441D02*
X034105Y017441D01*
X034105Y017364D02*
X037093Y017364D01*
X037093Y017287D02*
X034105Y017287D01*
X034105Y017209D02*
X037093Y017209D01*
X037093Y017132D02*
X034105Y017132D01*
X034105Y017055D02*
X037093Y017055D01*
X037093Y016978D02*
X034105Y016978D01*
X034105Y016901D02*
X037093Y016901D01*
X037093Y016823D02*
X034105Y016823D01*
X034105Y016746D02*
X037093Y016746D01*
X037093Y016669D02*
X034105Y016669D01*
X034105Y016592D02*
X037093Y016592D01*
X037093Y016514D02*
X034105Y016514D01*
X034105Y016437D02*
X037093Y016437D01*
X037093Y016360D02*
X034105Y016360D01*
X034105Y016283D02*
X037093Y016283D01*
X037093Y016205D02*
X034105Y016205D01*
X034105Y016128D02*
X037093Y016128D01*
X037093Y016051D02*
X034105Y016051D01*
X034105Y015974D02*
X037093Y015974D01*
X037093Y015896D02*
X034105Y015896D01*
X034105Y015819D02*
X037093Y015819D01*
X037093Y015742D02*
X034105Y015742D01*
X034105Y015665D02*
X037093Y015665D01*
X037093Y015587D02*
X034105Y015587D01*
X034105Y015510D02*
X037093Y015510D01*
X037093Y015433D02*
X034105Y015433D01*
X034105Y015356D02*
X037093Y015356D01*
X037093Y015278D02*
X034105Y015278D01*
X034105Y015201D02*
X037093Y015201D01*
X037093Y015124D02*
X034105Y015124D01*
X034105Y015047D02*
X037093Y015047D01*
X037093Y014970D02*
X034105Y014970D01*
X034105Y014892D02*
X037093Y014892D01*
X037093Y014815D02*
X034105Y014815D01*
X034105Y014738D02*
X037017Y014738D01*
X036940Y014661D02*
X034105Y014661D01*
X034105Y014583D02*
X036863Y014583D01*
X036785Y014506D02*
X034105Y014506D01*
X034105Y014429D02*
X036708Y014429D01*
X036631Y014352D02*
X034105Y014352D01*
X034105Y014274D02*
X036554Y014274D01*
X036476Y014197D02*
X034105Y014197D01*
X034105Y014120D02*
X036399Y014120D01*
X036322Y014043D02*
X034105Y014043D01*
X034105Y013965D02*
X036245Y013965D01*
X036167Y013888D02*
X034105Y013888D01*
X034105Y013811D02*
X036090Y013811D01*
X036013Y013734D02*
X034105Y013734D01*
X034105Y013656D02*
X035936Y013656D01*
X035858Y013579D02*
X034105Y013579D01*
X034105Y013502D02*
X035781Y013502D01*
X035704Y013425D02*
X034105Y013425D01*
X034105Y013347D02*
X035627Y013347D01*
X035549Y013270D02*
X034105Y013270D01*
X034105Y013193D02*
X035472Y013193D01*
X035395Y013116D02*
X034105Y013116D01*
X034105Y013039D02*
X035318Y013039D01*
X035241Y012961D02*
X034105Y012961D01*
X034105Y012884D02*
X035163Y012884D01*
X035086Y012807D02*
X034105Y012807D01*
X034105Y012730D02*
X035009Y012730D01*
X034932Y012652D02*
X034105Y012652D01*
X034105Y012575D02*
X034854Y012575D01*
X034777Y012498D02*
X034105Y012498D01*
X034105Y012421D02*
X034700Y012421D01*
X034623Y012343D02*
X034583Y012248D01*
X034583Y012189D02*
X034105Y012189D01*
X034105Y012112D02*
X034583Y012112D01*
X034583Y012034D02*
X034105Y012034D01*
X034105Y011957D02*
X034583Y011957D01*
X034583Y011880D02*
X034105Y011880D01*
X034105Y011803D02*
X034583Y011803D01*
X034583Y011725D02*
X034105Y011725D01*
X034105Y011648D02*
X034583Y011648D01*
X034583Y011571D02*
X034105Y011571D01*
X034105Y011494D02*
X034583Y011494D01*
X034583Y011416D02*
X034105Y011416D01*
X034105Y011339D02*
X034583Y011339D01*
X034583Y011262D02*
X034105Y011262D01*
X034105Y011185D02*
X034583Y011185D01*
X034583Y011108D02*
X034105Y011108D01*
X034105Y011030D02*
X034583Y011030D01*
X034583Y010953D02*
X034105Y010953D01*
X034105Y010876D02*
X034583Y010876D01*
X034583Y010799D02*
X034105Y010799D01*
X034105Y010721D02*
X034583Y010721D01*
X034583Y010644D02*
X034105Y010644D01*
X034105Y010567D02*
X034583Y010567D01*
X034583Y010490D02*
X034105Y010490D01*
X034105Y010412D02*
X034583Y010412D01*
X034583Y010335D02*
X034105Y010335D01*
X034105Y010258D02*
X034583Y010258D01*
X034583Y010181D02*
X034105Y010181D01*
X034105Y010103D02*
X034583Y010103D01*
X034583Y010026D02*
X034105Y010026D01*
X034105Y009949D02*
X034583Y009949D01*
X034583Y009872D02*
X034105Y009872D01*
X034105Y009794D02*
X034583Y009794D01*
X034583Y009717D02*
X034105Y009717D01*
X034105Y009640D02*
X034583Y009640D01*
X034583Y009563D02*
X034105Y009563D01*
X034105Y009485D02*
X034583Y009485D01*
X034583Y009408D02*
X034105Y009408D01*
X034105Y009331D02*
X034583Y009331D01*
X034583Y009254D02*
X034105Y009254D01*
X034105Y009176D02*
X034583Y009176D01*
X034583Y009099D02*
X034105Y009099D01*
X034105Y009022D02*
X034583Y009022D01*
X034583Y008945D02*
X034105Y008945D01*
X034105Y008868D02*
X034583Y008868D01*
X034583Y008790D02*
X034105Y008790D01*
X034105Y008713D02*
X034583Y008713D01*
X034583Y008636D02*
X034105Y008636D01*
X034105Y008559D02*
X034583Y008559D01*
X034583Y008481D02*
X034105Y008481D01*
X034105Y008404D02*
X034583Y008404D01*
X034583Y008327D02*
X034058Y008327D01*
X033981Y008250D02*
X034583Y008250D01*
X034583Y008172D02*
X033903Y008172D01*
X033826Y008095D02*
X034583Y008095D01*
X034583Y008018D02*
X033749Y008018D01*
X033672Y007941D02*
X034583Y007941D01*
X034583Y007863D02*
X033594Y007863D01*
X033517Y007786D02*
X034563Y007786D01*
X034486Y007709D02*
X033440Y007709D01*
X033363Y007632D02*
X034409Y007632D01*
X034332Y007554D02*
X033285Y007554D01*
X033208Y007477D02*
X034255Y007477D01*
X034177Y007400D02*
X033131Y007400D01*
X033054Y007323D02*
X034100Y007323D01*
X034023Y007245D02*
X032976Y007245D01*
X032899Y007168D02*
X033946Y007168D01*
X033868Y007091D02*
X032822Y007091D01*
X032745Y007014D02*
X033791Y007014D01*
X033714Y006937D02*
X032667Y006937D01*
X032590Y006859D02*
X033637Y006859D01*
X033559Y006782D02*
X032580Y006782D01*
X032580Y006705D02*
X033482Y006705D01*
X033405Y006628D02*
X032580Y006628D01*
X032580Y006550D02*
X033328Y006550D01*
X033250Y006473D02*
X032580Y006473D01*
X032580Y006396D02*
X033173Y006396D01*
X033096Y006319D02*
X032580Y006319D01*
X032720Y006241D02*
X032832Y006241D01*
X032814Y006164D02*
X032737Y006164D01*
X032737Y006087D02*
X032814Y006087D01*
X032814Y006010D02*
X032737Y006010D01*
X032737Y005932D02*
X032814Y005932D01*
X032814Y005855D02*
X032737Y005855D01*
X032737Y005778D02*
X032814Y005778D01*
X032822Y005701D02*
X032729Y005701D01*
X032851Y005623D02*
X032465Y005623D01*
X032388Y005546D02*
X032851Y005546D01*
X032851Y005469D02*
X032311Y005469D01*
X032233Y005392D02*
X032851Y005392D01*
X032851Y005314D02*
X032156Y005314D01*
X032079Y005237D02*
X032851Y005237D01*
X032851Y005160D02*
X032002Y005160D01*
X031924Y005083D02*
X032851Y005083D01*
X032851Y005006D02*
X031847Y005006D01*
X031760Y004928D02*
X032851Y004928D01*
X032851Y004851D02*
X030579Y004851D01*
X030502Y004774D02*
X032851Y004774D01*
X032851Y004697D02*
X030091Y004697D01*
X030148Y004774D02*
X030014Y004774D01*
X030071Y004851D02*
X029936Y004851D01*
X029994Y004928D02*
X029859Y004928D01*
X029930Y005006D02*
X029782Y005006D01*
X029705Y005083D02*
X029930Y005083D01*
X029930Y005160D02*
X029696Y005160D01*
X029696Y005237D02*
X029930Y005237D01*
X029930Y005314D02*
X029696Y005314D01*
X029696Y005392D02*
X030003Y005392D01*
X030081Y005469D02*
X029696Y005469D01*
X029696Y005546D02*
X030158Y005546D01*
X030145Y005720D02*
X029890Y005975D01*
X029890Y006116D01*
X030285Y006116D01*
X030285Y006194D01*
X029890Y006194D01*
X029890Y006335D01*
X030145Y006590D01*
X030285Y006590D01*
X030285Y006194D01*
X030364Y006194D01*
X030759Y006194D01*
X030759Y006335D01*
X030505Y006590D01*
X030364Y006590D01*
X030364Y006194D01*
X030364Y006116D01*
X030759Y006116D01*
X030759Y005975D01*
X030505Y005720D01*
X030364Y005720D01*
X030364Y006116D01*
X030285Y006116D01*
X030285Y005720D01*
X030145Y005720D01*
X030087Y005778D02*
X029696Y005778D01*
X029696Y005855D02*
X030010Y005855D01*
X029933Y005932D02*
X029696Y005932D01*
X029696Y006010D02*
X029890Y006010D01*
X029890Y006087D02*
X029696Y006087D01*
X029696Y006164D02*
X030285Y006164D01*
X030285Y006087D02*
X030364Y006087D01*
X030364Y006164D02*
X032145Y006164D01*
X032145Y006087D02*
X030759Y006087D01*
X030759Y006010D02*
X032118Y006010D01*
X032040Y005932D02*
X030717Y005932D01*
X030640Y005855D02*
X031963Y005855D01*
X031886Y005778D02*
X030562Y005778D01*
X030364Y005778D02*
X030285Y005778D01*
X030285Y005855D02*
X030364Y005855D01*
X030364Y005932D02*
X030285Y005932D01*
X030285Y006010D02*
X030364Y006010D01*
X030364Y006241D02*
X030285Y006241D01*
X030285Y006319D02*
X030364Y006319D01*
X030364Y006396D02*
X030285Y006396D01*
X030285Y006473D02*
X030364Y006473D01*
X030364Y006550D02*
X030285Y006550D01*
X030105Y006550D02*
X029898Y006550D01*
X029975Y006628D02*
X032184Y006628D01*
X032184Y006705D02*
X030052Y006705D01*
X030129Y006782D02*
X032184Y006782D01*
X032184Y006859D02*
X030207Y006859D01*
X030284Y006937D02*
X032184Y006937D01*
X032185Y007014D02*
X030361Y007014D01*
X030438Y007091D02*
X032262Y007091D01*
X032340Y007168D02*
X030516Y007168D01*
X030593Y007245D02*
X032417Y007245D01*
X032494Y007323D02*
X030670Y007323D01*
X030747Y007400D02*
X032571Y007400D01*
X032649Y007477D02*
X030825Y007477D01*
X030902Y007554D02*
X032726Y007554D01*
X032803Y007632D02*
X030979Y007632D01*
X031056Y007709D02*
X032880Y007709D01*
X032958Y007786D02*
X031133Y007786D01*
X031211Y007863D02*
X033035Y007863D01*
X033112Y007941D02*
X031288Y007941D01*
X031365Y008018D02*
X033189Y008018D01*
X033267Y008095D02*
X031442Y008095D01*
X031520Y008172D02*
X033344Y008172D01*
X033421Y008250D02*
X031597Y008250D01*
X031674Y008327D02*
X033498Y008327D01*
X033576Y008404D02*
X031751Y008404D01*
X031829Y008481D02*
X033653Y008481D01*
X033710Y008559D02*
X031906Y008559D01*
X031983Y008636D02*
X033710Y008636D01*
X033710Y008713D02*
X032060Y008713D01*
X032138Y008790D02*
X033710Y008790D01*
X033710Y008868D02*
X032215Y008868D01*
X032292Y008945D02*
X033710Y008945D01*
X033710Y009022D02*
X032369Y009022D01*
X032447Y009099D02*
X033710Y009099D01*
X033710Y009176D02*
X032524Y009176D01*
X032601Y009254D02*
X033710Y009254D01*
X033710Y009331D02*
X032678Y009331D01*
X032756Y009408D02*
X033710Y009408D01*
X033710Y009485D02*
X032833Y009485D01*
X032910Y009563D02*
X033710Y009563D01*
X033710Y009640D02*
X032987Y009640D01*
X033065Y009717D02*
X033710Y009717D01*
X033710Y009794D02*
X033091Y009794D01*
X033091Y009872D02*
X033710Y009872D01*
X033710Y009949D02*
X033091Y009949D01*
X033091Y010026D02*
X033710Y010026D01*
X033710Y010103D02*
X033091Y010103D01*
X033091Y010181D02*
X033710Y010181D01*
X033710Y010258D02*
X033091Y010258D01*
X033091Y010335D02*
X033710Y010335D01*
X033710Y010412D02*
X033091Y010412D01*
X033091Y010490D02*
X033710Y010490D01*
X033710Y010567D02*
X033091Y010567D01*
X033091Y010644D02*
X033710Y010644D01*
X033710Y010721D02*
X033091Y010721D01*
X033091Y010799D02*
X033710Y010799D01*
X033710Y010876D02*
X033091Y010876D01*
X033091Y010953D02*
X033710Y010953D01*
X033710Y011030D02*
X033091Y011030D01*
X033091Y011108D02*
X033710Y011108D01*
X033710Y011185D02*
X033091Y011185D01*
X033091Y011262D02*
X033710Y011262D01*
X033710Y011339D02*
X033091Y011339D01*
X033091Y011416D02*
X033710Y011416D01*
X033710Y011494D02*
X033091Y011494D01*
X033091Y011571D02*
X033710Y011571D01*
X033710Y011648D02*
X033091Y011648D01*
X033091Y011725D02*
X033710Y011725D01*
X033710Y011803D02*
X033091Y011803D01*
X033091Y011880D02*
X033710Y011880D01*
X033710Y011957D02*
X033091Y011957D01*
X033091Y012034D02*
X033710Y012034D01*
X033710Y012112D02*
X033091Y012112D01*
X033091Y012189D02*
X033710Y012189D01*
X033710Y012266D02*
X033091Y012266D01*
X033091Y012343D02*
X033710Y012343D01*
X033710Y012421D02*
X033091Y012421D01*
X033091Y012498D02*
X033710Y012498D01*
X033710Y012575D02*
X033091Y012575D01*
X033091Y012652D02*
X033710Y012652D01*
X033710Y012730D02*
X033091Y012730D01*
X033091Y012807D02*
X033710Y012807D01*
X033710Y012884D02*
X033091Y012884D01*
X033091Y012961D02*
X033710Y012961D01*
X033710Y013039D02*
X033091Y013039D01*
X033091Y013116D02*
X033710Y013116D01*
X033710Y013193D02*
X033091Y013193D01*
X033091Y013270D02*
X033710Y013270D01*
X033710Y013347D02*
X033091Y013347D01*
X033091Y013425D02*
X033710Y013425D01*
X033710Y013502D02*
X033091Y013502D01*
X033091Y013579D02*
X033710Y013579D01*
X033710Y013656D02*
X033091Y013656D01*
X033091Y013734D02*
X033710Y013734D01*
X033710Y013811D02*
X033091Y013811D01*
X033091Y013888D02*
X033710Y013888D01*
X033710Y013965D02*
X033091Y013965D01*
X033091Y014043D02*
X033710Y014043D01*
X033710Y014120D02*
X033091Y014120D01*
X033091Y014197D02*
X033710Y014197D01*
X033710Y014274D02*
X033091Y014274D01*
X033091Y014352D02*
X033710Y014352D01*
X033710Y014429D02*
X033091Y014429D01*
X033091Y014506D02*
X033710Y014506D01*
X033710Y014583D02*
X033091Y014583D01*
X033091Y014661D02*
X033710Y014661D01*
X033710Y014738D02*
X033091Y014738D01*
X033091Y014815D02*
X033710Y014815D01*
X033710Y014892D02*
X033091Y014892D01*
X033091Y014970D02*
X033710Y014970D01*
X033710Y015047D02*
X033091Y015047D01*
X033091Y015124D02*
X033710Y015124D01*
X033710Y015201D02*
X033091Y015201D01*
X033091Y015278D02*
X033710Y015278D01*
X033710Y015356D02*
X033091Y015356D01*
X033091Y015433D02*
X033710Y015433D01*
X033710Y015510D02*
X033091Y015510D01*
X033091Y015587D02*
X033710Y015587D01*
X033710Y015665D02*
X033091Y015665D01*
X033091Y015742D02*
X033710Y015742D01*
X033710Y015819D02*
X033091Y015819D01*
X033091Y015896D02*
X033710Y015896D01*
X033710Y015974D02*
X033091Y015974D01*
X033091Y016051D02*
X033710Y016051D01*
X033710Y016128D02*
X033091Y016128D01*
X033091Y016205D02*
X033710Y016205D01*
X033710Y016283D02*
X033091Y016283D01*
X033091Y016360D02*
X033710Y016360D01*
X033710Y016437D02*
X033091Y016437D01*
X033091Y016514D02*
X033710Y016514D01*
X033710Y016592D02*
X033091Y016592D01*
X033091Y016669D02*
X033710Y016669D01*
X033710Y016746D02*
X033091Y016746D01*
X033091Y016823D02*
X033710Y016823D01*
X033710Y016901D02*
X033091Y016901D01*
X033091Y016978D02*
X033710Y016978D01*
X033710Y017055D02*
X033091Y017055D01*
X033091Y017132D02*
X033710Y017132D01*
X033710Y017209D02*
X033091Y017209D01*
X033091Y017287D02*
X033710Y017287D01*
X033710Y017364D02*
X033091Y017364D01*
X033091Y017441D02*
X033710Y017441D01*
X033710Y017518D02*
X033091Y017518D01*
X033091Y017596D02*
X033710Y017596D01*
X033710Y017673D02*
X033091Y017673D01*
X033091Y017750D02*
X033710Y017750D01*
X033710Y017827D02*
X033091Y017827D01*
X033091Y017905D02*
X033710Y017905D01*
X033710Y017982D02*
X033091Y017982D01*
X033091Y018059D02*
X033710Y018059D01*
X033710Y018136D02*
X033091Y018136D01*
X033091Y018214D02*
X033710Y018214D01*
X033710Y018291D02*
X033091Y018291D01*
X033091Y018368D02*
X033710Y018368D01*
X033710Y018445D02*
X033091Y018445D01*
X033091Y018523D02*
X033710Y018523D01*
X033710Y018600D02*
X033091Y018600D01*
X033091Y018677D02*
X033710Y018677D01*
X033710Y018754D02*
X033091Y018754D01*
X033091Y018832D02*
X033710Y018832D01*
X033710Y018909D02*
X033091Y018909D01*
X033091Y018986D02*
X033710Y018986D01*
X033710Y019063D02*
X033091Y019063D01*
X033091Y019141D02*
X033710Y019141D01*
X033710Y019218D02*
X033091Y019218D01*
X033091Y019295D02*
X033710Y019295D01*
X033710Y019372D02*
X033091Y019372D01*
X033091Y019449D02*
X033710Y019449D01*
X033710Y019527D02*
X033091Y019527D01*
X033091Y019604D02*
X033710Y019604D01*
X033710Y019681D02*
X033091Y019681D01*
X033091Y019758D02*
X033710Y019758D01*
X033710Y019836D02*
X033091Y019836D01*
X033091Y019913D02*
X033710Y019913D01*
X033710Y019990D02*
X033091Y019990D01*
X033091Y020067D02*
X033710Y020067D01*
X033710Y020145D02*
X033091Y020145D01*
X033091Y020222D02*
X033710Y020222D01*
X033710Y020299D02*
X033091Y020299D01*
X033091Y020376D02*
X033710Y020376D01*
X033710Y020454D02*
X033091Y020454D01*
X033091Y020531D02*
X033710Y020531D01*
X033710Y020608D02*
X033091Y020608D01*
X033091Y020685D02*
X033710Y020685D01*
X033710Y020763D02*
X033091Y020763D01*
X033091Y020840D02*
X033710Y020840D01*
X033710Y020917D02*
X033091Y020917D01*
X033091Y020994D02*
X033710Y020994D01*
X033710Y021072D02*
X033091Y021072D01*
X033091Y021149D02*
X033710Y021149D01*
X033710Y021226D02*
X033091Y021226D01*
X033091Y021303D02*
X033710Y021303D01*
X033710Y021380D02*
X033091Y021380D01*
X033091Y021458D02*
X033710Y021458D01*
X033710Y021535D02*
X033091Y021535D01*
X033091Y021612D02*
X033710Y021612D01*
X033710Y021689D02*
X033091Y021689D01*
X033091Y021767D02*
X033710Y021767D01*
X033710Y021844D02*
X033091Y021844D01*
X033091Y021921D02*
X033710Y021921D01*
X033710Y021998D02*
X033091Y021998D01*
X033091Y022076D02*
X033710Y022076D01*
X033710Y022153D02*
X033091Y022153D01*
X033091Y022230D02*
X033710Y022230D01*
X033710Y022307D02*
X033091Y022307D01*
X033091Y022385D02*
X033710Y022385D01*
X033710Y022462D02*
X033091Y022462D01*
X033091Y022539D02*
X033710Y022539D01*
X033710Y022616D02*
X033091Y022616D01*
X033091Y022694D02*
X033710Y022694D01*
X033710Y022771D02*
X033091Y022771D01*
X033091Y022848D02*
X033710Y022848D01*
X033710Y022925D02*
X033091Y022925D01*
X033091Y023003D02*
X033710Y023003D01*
X033710Y023080D02*
X033091Y023080D01*
X033091Y023157D02*
X033710Y023157D01*
X033710Y023234D02*
X033091Y023234D01*
X033091Y023311D02*
X033710Y023311D01*
X033710Y023389D02*
X033091Y023389D01*
X033091Y023466D02*
X033710Y023466D01*
X033710Y023543D02*
X033091Y023543D01*
X033091Y023620D02*
X033710Y023620D01*
X033710Y023698D02*
X033091Y023698D01*
X033091Y023775D02*
X033710Y023775D01*
X033710Y023852D02*
X033091Y023852D01*
X033091Y023929D02*
X033710Y023929D01*
X033710Y024007D02*
X033091Y024007D01*
X033091Y024084D02*
X033710Y024084D01*
X033710Y024161D02*
X033091Y024161D01*
X033091Y024238D02*
X033710Y024238D01*
X033710Y024316D02*
X033091Y024316D01*
X033091Y024393D02*
X033710Y024393D01*
X033710Y024470D02*
X033091Y024470D01*
X033091Y024547D02*
X033710Y024547D01*
X033710Y024625D02*
X033091Y024625D01*
X033091Y024702D02*
X033710Y024702D01*
X033710Y024779D02*
X033091Y024779D01*
X033091Y024856D02*
X033710Y024856D01*
X033710Y024934D02*
X033091Y024934D01*
X033072Y025011D02*
X033710Y025011D01*
X033710Y025088D02*
X033072Y025088D01*
X033072Y025165D02*
X033710Y025165D01*
X033710Y025243D02*
X033072Y025243D01*
X033072Y025320D02*
X033710Y025320D01*
X033710Y025397D02*
X033579Y025397D01*
X033656Y025474D02*
X033710Y025474D01*
X033185Y025397D02*
X033072Y025397D01*
X033072Y025474D02*
X033107Y025474D01*
X031881Y026247D02*
X016821Y026247D01*
X016744Y026169D02*
X031803Y026169D01*
X031726Y026092D02*
X016667Y026092D01*
X016355Y026401D02*
X013436Y026401D01*
X013436Y026324D02*
X016278Y026324D01*
X016201Y026247D02*
X013418Y026247D01*
X013436Y026264D02*
X013082Y025910D01*
X013082Y025667D01*
X012866Y025451D01*
X012560Y025451D01*
X012343Y025667D01*
X012343Y025973D01*
X012560Y026190D01*
X012802Y026190D01*
X013040Y026428D01*
X013040Y026626D01*
X012866Y026451D01*
X012560Y026451D01*
X012403Y026608D01*
X012403Y026231D01*
X012082Y025910D01*
X012082Y025667D01*
X011866Y025451D01*
X011560Y025451D01*
X011343Y025667D01*
X011343Y025973D01*
X011560Y026190D01*
X011802Y026190D01*
X012007Y026395D01*
X012007Y026592D01*
X011866Y026451D01*
X011560Y026451D01*
X011418Y026592D01*
X011418Y026246D01*
X011082Y025910D01*
X011082Y025667D01*
X010866Y025451D01*
X010560Y025451D01*
X010343Y025667D01*
X010343Y025973D01*
X010560Y026190D01*
X010802Y026190D01*
X011023Y026410D01*
X011023Y026608D01*
X010866Y026451D01*
X010560Y026451D01*
X010343Y026667D01*
X010343Y026973D01*
X010460Y027090D01*
X010460Y027115D01*
X007218Y030358D01*
X007218Y032869D01*
X007211Y032872D01*
X007098Y032984D01*
X007038Y033131D01*
X007038Y033290D01*
X007098Y033436D01*
X007211Y033549D01*
X007358Y033610D01*
X007516Y033610D01*
X007663Y033549D01*
X007776Y033436D01*
X007836Y033290D01*
X007836Y033131D01*
X007776Y032984D01*
X007663Y032872D01*
X007656Y032869D01*
X007656Y030539D01*
X010770Y027426D01*
X010899Y027297D01*
X010899Y027157D01*
X011023Y027033D01*
X011023Y027518D01*
X008759Y029782D01*
X008759Y032911D01*
X008723Y032875D01*
X008667Y032834D01*
X008606Y032803D01*
X008540Y032782D01*
X008476Y032772D01*
X008476Y033171D01*
X008398Y033171D01*
X008398Y032772D01*
X008334Y032782D01*
X008268Y032803D01*
X008207Y032834D01*
X008151Y032875D01*
X008102Y032924D01*
X008061Y032980D01*
X008030Y033042D01*
X008008Y033107D01*
X007998Y033171D01*
X008398Y033171D01*
X008398Y033250D01*
X008398Y033649D01*
X008334Y033639D01*
X008268Y033617D01*
X008207Y033586D01*
X008151Y033545D01*
X008102Y033496D01*
X008061Y033441D01*
X008030Y033379D01*
X008008Y033313D01*
X007998Y033250D01*
X008398Y033250D01*
X008476Y033250D01*
X008476Y033649D01*
X008540Y033639D01*
X008606Y033617D01*
X008667Y033586D01*
X008723Y033545D01*
X008759Y033510D01*
X008759Y033735D01*
X008875Y033851D01*
X009170Y034146D01*
X013960Y034146D01*
X014076Y034030D01*
X014076Y034030D01*
X014496Y033610D01*
X014516Y033610D01*
X014663Y033549D01*
X014776Y033436D01*
X014836Y033290D01*
X014836Y033131D01*
X014776Y032984D01*
X014663Y032872D01*
X014516Y032811D01*
X014358Y032811D01*
X014211Y032872D01*
X014098Y032984D01*
X014038Y033131D01*
X014038Y033290D01*
X014098Y033436D01*
X014104Y033442D01*
X013796Y033751D01*
X009334Y033751D01*
X009154Y033571D01*
X009154Y033493D01*
X009211Y033549D01*
X009358Y033610D01*
X009516Y033610D01*
X009663Y033549D01*
X009776Y033436D01*
X009836Y033290D01*
X009836Y033131D01*
X009776Y032984D01*
X009663Y032872D01*
X009656Y032869D01*
X009656Y030606D01*
X011803Y028459D01*
X011932Y028331D01*
X011932Y027123D01*
X012007Y027049D01*
X012007Y027387D01*
X012123Y027503D01*
X015239Y030619D01*
X015239Y032860D01*
X015211Y032872D01*
X015098Y032984D01*
X015038Y033131D01*
X015038Y033290D01*
X015098Y033436D01*
X015211Y033549D01*
X015358Y033610D01*
X015516Y033610D01*
X015663Y033549D01*
X015776Y033436D01*
X015836Y033290D01*
X015836Y033131D01*
X015776Y032984D01*
X015663Y032872D01*
X015635Y032860D01*
X015635Y030455D01*
X012403Y027223D01*
X012403Y027033D01*
X012560Y027190D01*
X012866Y027190D01*
X013040Y027015D01*
X013040Y027436D01*
X013156Y027552D01*
X016239Y030635D01*
X016239Y032860D01*
X016211Y032872D01*
X016098Y032984D01*
X016038Y033131D01*
X016038Y033290D01*
X016098Y033436D01*
X016211Y033549D01*
X016358Y033610D01*
X016516Y033610D01*
X016663Y033549D01*
X016776Y033436D01*
X016836Y033290D01*
X016836Y033131D01*
X016776Y032984D01*
X016663Y032872D01*
X016635Y032860D01*
X016635Y030471D01*
X013436Y027272D01*
X013436Y027123D01*
X013543Y027230D01*
X013673Y027230D01*
X013673Y026860D01*
X013752Y026860D01*
X013752Y027230D01*
X013882Y027230D01*
X014122Y026990D01*
X014122Y026860D01*
X013752Y026860D01*
X013752Y026781D01*
X013752Y026411D01*
X013882Y026411D01*
X014122Y026651D01*
X014122Y026781D01*
X013752Y026781D01*
X013673Y026781D01*
X013673Y026411D01*
X013543Y026411D01*
X013436Y026518D01*
X013436Y026264D01*
X013341Y026169D02*
X013539Y026169D01*
X013462Y026092D02*
X013264Y026092D01*
X013187Y026015D02*
X013385Y026015D01*
X013343Y025938D02*
X013110Y025938D01*
X013082Y025860D02*
X013343Y025860D01*
X013343Y025783D02*
X013082Y025783D01*
X013082Y025706D02*
X013343Y025706D01*
X013382Y025629D02*
X013043Y025629D01*
X012966Y025551D02*
X013459Y025551D01*
X013536Y025474D02*
X012889Y025474D01*
X012536Y025474D02*
X011889Y025474D01*
X011966Y025551D02*
X012459Y025551D01*
X012382Y025629D02*
X012043Y025629D01*
X012082Y025706D02*
X012343Y025706D01*
X012343Y025783D02*
X012082Y025783D01*
X012082Y025860D02*
X012343Y025860D01*
X012343Y025938D02*
X012110Y025938D01*
X012187Y026015D02*
X012385Y026015D01*
X012462Y026092D02*
X012264Y026092D01*
X012341Y026169D02*
X012539Y026169D01*
X012403Y026247D02*
X012859Y026247D01*
X012936Y026324D02*
X012403Y026324D01*
X012403Y026401D02*
X013014Y026401D01*
X013040Y026478D02*
X012893Y026478D01*
X012970Y026556D02*
X013040Y026556D01*
X013436Y026478D02*
X013476Y026478D01*
X013673Y026478D02*
X013752Y026478D01*
X013752Y026556D02*
X013673Y026556D01*
X013673Y026633D02*
X013752Y026633D01*
X013752Y026710D02*
X013673Y026710D01*
X013752Y026787D02*
X016741Y026787D01*
X016664Y026710D02*
X014122Y026710D01*
X014104Y026633D02*
X016587Y026633D01*
X016510Y026556D02*
X014027Y026556D01*
X013949Y026478D02*
X016432Y026478D01*
X016123Y026169D02*
X013886Y026169D01*
X013963Y026092D02*
X016046Y026092D01*
X015969Y026015D02*
X014041Y026015D01*
X014122Y026865D02*
X016818Y026865D01*
X016896Y026942D02*
X014122Y026942D01*
X014093Y027019D02*
X016973Y027019D01*
X017050Y027096D02*
X014016Y027096D01*
X013938Y027174D02*
X017127Y027174D01*
X017205Y027251D02*
X013436Y027251D01*
X013436Y027174D02*
X013487Y027174D01*
X013492Y027328D02*
X017218Y027328D01*
X017218Y027405D02*
X013569Y027405D01*
X013646Y027482D02*
X017218Y027482D01*
X017218Y027560D02*
X013724Y027560D01*
X013801Y027637D02*
X017218Y027637D01*
X017218Y027714D02*
X013878Y027714D01*
X013955Y027791D02*
X017218Y027791D01*
X017218Y027869D02*
X014033Y027869D01*
X014110Y027946D02*
X017218Y027946D01*
X017218Y028023D02*
X014187Y028023D01*
X014264Y028100D02*
X017218Y028100D01*
X017218Y028178D02*
X014342Y028178D01*
X014419Y028255D02*
X017218Y028255D01*
X017218Y028332D02*
X014496Y028332D01*
X014573Y028409D02*
X017218Y028409D01*
X017218Y028487D02*
X014651Y028487D01*
X014728Y028564D02*
X017218Y028564D01*
X017218Y028641D02*
X014805Y028641D01*
X014882Y028718D02*
X017218Y028718D01*
X017218Y028796D02*
X014960Y028796D01*
X015037Y028873D02*
X017218Y028873D01*
X017218Y028950D02*
X015114Y028950D01*
X015191Y029027D02*
X017218Y029027D01*
X017218Y029105D02*
X015268Y029105D01*
X015346Y029182D02*
X017218Y029182D01*
X017218Y029259D02*
X015423Y029259D01*
X015500Y029336D02*
X017218Y029336D01*
X017218Y029413D02*
X015577Y029413D01*
X015655Y029491D02*
X017218Y029491D01*
X017218Y029568D02*
X015732Y029568D01*
X015809Y029645D02*
X017218Y029645D01*
X017218Y029722D02*
X015886Y029722D01*
X015964Y029800D02*
X017218Y029800D01*
X017218Y029877D02*
X016041Y029877D01*
X016118Y029954D02*
X017218Y029954D01*
X017218Y030031D02*
X016195Y030031D01*
X016273Y030109D02*
X017218Y030109D01*
X017218Y030186D02*
X016350Y030186D01*
X016427Y030263D02*
X017218Y030263D01*
X017218Y030340D02*
X016504Y030340D01*
X016582Y030418D02*
X017218Y030418D01*
X017218Y030495D02*
X016635Y030495D01*
X016635Y030572D02*
X017218Y030572D01*
X017218Y030649D02*
X016635Y030649D01*
X016635Y030727D02*
X017218Y030727D01*
X017218Y030804D02*
X016635Y030804D01*
X016635Y030881D02*
X017218Y030881D01*
X017218Y030958D02*
X016635Y030958D01*
X016635Y031036D02*
X017218Y031036D01*
X017218Y031113D02*
X016635Y031113D01*
X016635Y031190D02*
X017218Y031190D01*
X017218Y031267D02*
X016635Y031267D01*
X016635Y031344D02*
X017218Y031344D01*
X017218Y031422D02*
X016635Y031422D01*
X016635Y031499D02*
X017218Y031499D01*
X017218Y031576D02*
X016635Y031576D01*
X016635Y031653D02*
X017218Y031653D01*
X017218Y031731D02*
X016635Y031731D01*
X016635Y031808D02*
X017218Y031808D01*
X017218Y031885D02*
X016635Y031885D01*
X016635Y031962D02*
X017218Y031962D01*
X017218Y032040D02*
X016635Y032040D01*
X016635Y032117D02*
X017218Y032117D01*
X017218Y032194D02*
X016635Y032194D01*
X016635Y032271D02*
X017218Y032271D01*
X017218Y032349D02*
X016635Y032349D01*
X016635Y032426D02*
X017218Y032426D01*
X017218Y032503D02*
X016635Y032503D01*
X016635Y032580D02*
X017218Y032580D01*
X017218Y032658D02*
X016635Y032658D01*
X016635Y032735D02*
X017218Y032735D01*
X017218Y032812D02*
X016635Y032812D01*
X016681Y032889D02*
X017193Y032889D01*
X017116Y032967D02*
X016758Y032967D01*
X016800Y033044D02*
X017074Y033044D01*
X017042Y033121D02*
X016832Y033121D01*
X016836Y033198D02*
X017038Y033198D01*
X017038Y033276D02*
X016836Y033276D01*
X016810Y033353D02*
X017064Y033353D01*
X017096Y033430D02*
X016778Y033430D01*
X016705Y033507D02*
X017169Y033507D01*
X017297Y033584D02*
X016577Y033584D01*
X016297Y033584D02*
X015577Y033584D01*
X015705Y033507D02*
X016169Y033507D01*
X016096Y033430D02*
X015778Y033430D01*
X015810Y033353D02*
X016064Y033353D01*
X016038Y033276D02*
X015836Y033276D01*
X015836Y033198D02*
X016038Y033198D01*
X016042Y033121D02*
X015832Y033121D01*
X015800Y033044D02*
X016074Y033044D01*
X016116Y032967D02*
X015758Y032967D01*
X015681Y032889D02*
X016193Y032889D01*
X016239Y032812D02*
X015635Y032812D01*
X015635Y032735D02*
X016239Y032735D01*
X016239Y032658D02*
X015635Y032658D01*
X015635Y032580D02*
X016239Y032580D01*
X016239Y032503D02*
X015635Y032503D01*
X015635Y032426D02*
X016239Y032426D01*
X016239Y032349D02*
X015635Y032349D01*
X015635Y032271D02*
X016239Y032271D01*
X016239Y032194D02*
X015635Y032194D01*
X015635Y032117D02*
X016239Y032117D01*
X016239Y032040D02*
X015635Y032040D01*
X015635Y031962D02*
X016239Y031962D01*
X016239Y031885D02*
X015635Y031885D01*
X015635Y031808D02*
X016239Y031808D01*
X016239Y031731D02*
X015635Y031731D01*
X015635Y031653D02*
X016239Y031653D01*
X016239Y031576D02*
X015635Y031576D01*
X015635Y031499D02*
X016239Y031499D01*
X016239Y031422D02*
X015635Y031422D01*
X015635Y031344D02*
X016239Y031344D01*
X016239Y031267D02*
X015635Y031267D01*
X015635Y031190D02*
X016239Y031190D01*
X016239Y031113D02*
X015635Y031113D01*
X015635Y031036D02*
X016239Y031036D01*
X016239Y030958D02*
X015635Y030958D01*
X015635Y030881D02*
X016239Y030881D01*
X016239Y030804D02*
X015635Y030804D01*
X015635Y030727D02*
X016239Y030727D01*
X016239Y030649D02*
X015635Y030649D01*
X015635Y030572D02*
X016177Y030572D01*
X016099Y030495D02*
X015635Y030495D01*
X015597Y030418D02*
X016022Y030418D01*
X015945Y030340D02*
X015520Y030340D01*
X015443Y030263D02*
X015868Y030263D01*
X015790Y030186D02*
X015366Y030186D01*
X015288Y030109D02*
X015713Y030109D01*
X015636Y030031D02*
X015211Y030031D01*
X015134Y029954D02*
X015559Y029954D01*
X015481Y029877D02*
X015057Y029877D01*
X014979Y029800D02*
X015404Y029800D01*
X015327Y029722D02*
X014902Y029722D01*
X014825Y029645D02*
X015250Y029645D01*
X015172Y029568D02*
X014748Y029568D01*
X014670Y029491D02*
X015095Y029491D01*
X015018Y029413D02*
X014593Y029413D01*
X014516Y029336D02*
X014941Y029336D01*
X014864Y029259D02*
X014439Y029259D01*
X014361Y029182D02*
X014786Y029182D01*
X014709Y029105D02*
X014284Y029105D01*
X014207Y029027D02*
X014632Y029027D01*
X014555Y028950D02*
X014130Y028950D01*
X014053Y028873D02*
X014477Y028873D01*
X014400Y028796D02*
X013975Y028796D01*
X013898Y028718D02*
X014323Y028718D01*
X014246Y028641D02*
X013821Y028641D01*
X013744Y028564D02*
X014168Y028564D01*
X014091Y028487D02*
X013666Y028487D01*
X013589Y028409D02*
X014014Y028409D01*
X013937Y028332D02*
X013512Y028332D01*
X013435Y028255D02*
X013859Y028255D01*
X013782Y028178D02*
X013357Y028178D01*
X013280Y028100D02*
X013705Y028100D01*
X013628Y028023D02*
X013203Y028023D01*
X013126Y027946D02*
X013550Y027946D01*
X013473Y027869D02*
X013048Y027869D01*
X012971Y027791D02*
X013396Y027791D01*
X013319Y027714D02*
X012894Y027714D01*
X012817Y027637D02*
X013241Y027637D01*
X013164Y027560D02*
X012739Y027560D01*
X012662Y027482D02*
X013087Y027482D01*
X013040Y027405D02*
X012585Y027405D01*
X012508Y027328D02*
X013040Y027328D01*
X013040Y027251D02*
X012430Y027251D01*
X012403Y027174D02*
X012543Y027174D01*
X012466Y027096D02*
X012403Y027096D01*
X012007Y027096D02*
X011959Y027096D01*
X011932Y027174D02*
X012007Y027174D01*
X012007Y027251D02*
X011932Y027251D01*
X011932Y027328D02*
X012007Y027328D01*
X012026Y027405D02*
X011932Y027405D01*
X011932Y027482D02*
X012103Y027482D01*
X012180Y027560D02*
X011932Y027560D01*
X011932Y027637D02*
X012257Y027637D01*
X012334Y027714D02*
X011932Y027714D01*
X011932Y027791D02*
X012412Y027791D01*
X012489Y027869D02*
X011932Y027869D01*
X011932Y027946D02*
X012566Y027946D01*
X012643Y028023D02*
X011932Y028023D01*
X011932Y028100D02*
X012721Y028100D01*
X012798Y028178D02*
X011932Y028178D01*
X011932Y028255D02*
X012875Y028255D01*
X012952Y028332D02*
X011930Y028332D01*
X011853Y028409D02*
X013030Y028409D01*
X013107Y028487D02*
X011776Y028487D01*
X011699Y028564D02*
X013184Y028564D01*
X013261Y028641D02*
X011622Y028641D01*
X011544Y028718D02*
X013339Y028718D01*
X013416Y028796D02*
X011467Y028796D01*
X011390Y028873D02*
X013493Y028873D01*
X013570Y028950D02*
X011313Y028950D01*
X011235Y029027D02*
X013648Y029027D01*
X013725Y029105D02*
X011158Y029105D01*
X011081Y029182D02*
X013802Y029182D01*
X013879Y029259D02*
X011004Y029259D01*
X010926Y029336D02*
X013957Y029336D01*
X014034Y029413D02*
X010849Y029413D01*
X010772Y029491D02*
X014111Y029491D01*
X014188Y029568D02*
X010695Y029568D01*
X010617Y029645D02*
X014265Y029645D01*
X014343Y029722D02*
X010540Y029722D01*
X010463Y029800D02*
X014420Y029800D01*
X014497Y029877D02*
X010386Y029877D01*
X010308Y029954D02*
X014574Y029954D01*
X014652Y030031D02*
X010231Y030031D01*
X010154Y030109D02*
X014729Y030109D01*
X014806Y030186D02*
X010077Y030186D01*
X009999Y030263D02*
X014883Y030263D01*
X014961Y030340D02*
X009922Y030340D01*
X009845Y030418D02*
X015038Y030418D01*
X015115Y030495D02*
X009768Y030495D01*
X009691Y030572D02*
X015192Y030572D01*
X015239Y030649D02*
X009656Y030649D01*
X009656Y030727D02*
X015239Y030727D01*
X015239Y030804D02*
X009656Y030804D01*
X009656Y030881D02*
X015239Y030881D01*
X015239Y030958D02*
X009656Y030958D01*
X009656Y031036D02*
X015239Y031036D01*
X015239Y031113D02*
X009656Y031113D01*
X009656Y031190D02*
X015239Y031190D01*
X015239Y031267D02*
X009656Y031267D01*
X009656Y031344D02*
X015239Y031344D01*
X015239Y031422D02*
X009656Y031422D01*
X009656Y031499D02*
X015239Y031499D01*
X015239Y031576D02*
X009656Y031576D01*
X009656Y031653D02*
X015239Y031653D01*
X015239Y031731D02*
X009656Y031731D01*
X009656Y031808D02*
X015239Y031808D01*
X015239Y031885D02*
X009656Y031885D01*
X009656Y031962D02*
X015239Y031962D01*
X015239Y032040D02*
X009656Y032040D01*
X009656Y032117D02*
X015239Y032117D01*
X015239Y032194D02*
X009656Y032194D01*
X009656Y032271D02*
X015239Y032271D01*
X015239Y032349D02*
X009656Y032349D01*
X009656Y032426D02*
X015239Y032426D01*
X015239Y032503D02*
X009656Y032503D01*
X009656Y032580D02*
X015239Y032580D01*
X015239Y032658D02*
X009656Y032658D01*
X009656Y032735D02*
X015239Y032735D01*
X015239Y032812D02*
X014519Y032812D01*
X014355Y032812D02*
X013519Y032812D01*
X013516Y032811D02*
X013663Y032872D01*
X013776Y032984D01*
X013836Y033131D01*
X013836Y033290D01*
X013776Y033436D01*
X013663Y033549D01*
X013516Y033610D01*
X013358Y033610D01*
X013211Y033549D01*
X013098Y033436D01*
X013038Y033290D01*
X013038Y033131D01*
X013098Y032984D01*
X013211Y032872D01*
X013358Y032811D01*
X013516Y032811D01*
X013355Y032812D02*
X012519Y032812D01*
X012516Y032811D02*
X012663Y032872D01*
X012776Y032984D01*
X012836Y033131D01*
X012836Y033290D01*
X012776Y033436D01*
X012663Y033549D01*
X012516Y033610D01*
X012358Y033610D01*
X012211Y033549D01*
X012098Y033436D01*
X012038Y033290D01*
X012038Y033131D01*
X012098Y032984D01*
X012211Y032872D01*
X012358Y032811D01*
X012516Y032811D01*
X012355Y032812D02*
X011519Y032812D01*
X011516Y032811D02*
X011663Y032872D01*
X011776Y032984D01*
X011836Y033131D01*
X011836Y033290D01*
X011776Y033436D01*
X011663Y033549D01*
X011516Y033610D01*
X011358Y033610D01*
X011211Y033549D01*
X011098Y033436D01*
X011038Y033290D01*
X011038Y033131D01*
X011098Y032984D01*
X011211Y032872D01*
X011358Y032811D01*
X011516Y032811D01*
X011355Y032812D02*
X010519Y032812D01*
X010516Y032811D02*
X010663Y032872D01*
X010776Y032984D01*
X010836Y033131D01*
X010836Y033290D01*
X010776Y033436D01*
X010663Y033549D01*
X010516Y033610D01*
X010358Y033610D01*
X010211Y033549D01*
X010098Y033436D01*
X010038Y033290D01*
X010038Y033131D01*
X010098Y032984D01*
X010211Y032872D01*
X010358Y032811D01*
X010516Y032811D01*
X010355Y032812D02*
X009656Y032812D01*
X009681Y032889D02*
X010193Y032889D01*
X010116Y032967D02*
X009758Y032967D01*
X009800Y033044D02*
X010074Y033044D01*
X010042Y033121D02*
X009832Y033121D01*
X009836Y033198D02*
X010038Y033198D01*
X010038Y033276D02*
X009836Y033276D01*
X009810Y033353D02*
X010064Y033353D01*
X010096Y033430D02*
X009778Y033430D01*
X009705Y033507D02*
X010169Y033507D01*
X010297Y033584D02*
X009577Y033584D01*
X009297Y033584D02*
X009168Y033584D01*
X009169Y033507D02*
X009154Y033507D01*
X009245Y033662D02*
X013885Y033662D01*
X013808Y033739D02*
X009322Y033739D01*
X009072Y034048D02*
X006641Y034048D01*
X006564Y033971D02*
X008994Y033971D01*
X008917Y033893D02*
X006487Y033893D01*
X006410Y033816D02*
X008840Y033816D01*
X008763Y033739D02*
X006333Y033739D01*
X006255Y033662D02*
X008759Y033662D01*
X008759Y033584D02*
X008669Y033584D01*
X008476Y033584D02*
X008398Y033584D01*
X008398Y033507D02*
X008476Y033507D01*
X008476Y033430D02*
X008398Y033430D01*
X008398Y033353D02*
X008476Y033353D01*
X008476Y033276D02*
X008398Y033276D01*
X008398Y033198D02*
X007836Y033198D01*
X007832Y033121D02*
X008006Y033121D01*
X008029Y033044D02*
X007800Y033044D01*
X007758Y032967D02*
X008071Y032967D01*
X008137Y032889D02*
X007681Y032889D01*
X007656Y032812D02*
X008251Y032812D01*
X008398Y032812D02*
X008476Y032812D01*
X008476Y032889D02*
X008398Y032889D01*
X008398Y032967D02*
X008476Y032967D01*
X008476Y033044D02*
X008398Y033044D01*
X008398Y033121D02*
X008476Y033121D01*
X008623Y032812D02*
X008759Y032812D01*
X008759Y032735D02*
X007656Y032735D01*
X007656Y032658D02*
X008759Y032658D01*
X008759Y032580D02*
X007656Y032580D01*
X007656Y032503D02*
X008759Y032503D01*
X008759Y032426D02*
X007656Y032426D01*
X007656Y032349D02*
X008759Y032349D01*
X008759Y032271D02*
X007656Y032271D01*
X007656Y032194D02*
X008759Y032194D01*
X008759Y032117D02*
X007656Y032117D01*
X007656Y032040D02*
X008759Y032040D01*
X008759Y031962D02*
X007656Y031962D01*
X007656Y031885D02*
X008759Y031885D01*
X008759Y031808D02*
X007656Y031808D01*
X007656Y031731D02*
X008759Y031731D01*
X008759Y031653D02*
X007656Y031653D01*
X007656Y031576D02*
X008759Y031576D01*
X008759Y031499D02*
X007656Y031499D01*
X007656Y031422D02*
X008759Y031422D01*
X008759Y031344D02*
X007656Y031344D01*
X007656Y031267D02*
X008759Y031267D01*
X008759Y031190D02*
X007656Y031190D01*
X007656Y031113D02*
X008759Y031113D01*
X008759Y031036D02*
X007656Y031036D01*
X007656Y030958D02*
X008759Y030958D01*
X008759Y030881D02*
X007656Y030881D01*
X007656Y030804D02*
X008759Y030804D01*
X008759Y030727D02*
X007656Y030727D01*
X007656Y030649D02*
X008759Y030649D01*
X008759Y030572D02*
X007656Y030572D01*
X007701Y030495D02*
X008759Y030495D01*
X008759Y030418D02*
X007778Y030418D01*
X007855Y030340D02*
X008759Y030340D01*
X008759Y030263D02*
X007933Y030263D01*
X008010Y030186D02*
X008759Y030186D01*
X008759Y030109D02*
X008087Y030109D01*
X008164Y030031D02*
X008759Y030031D01*
X008759Y029954D02*
X008242Y029954D01*
X008319Y029877D02*
X008759Y029877D01*
X008759Y029800D02*
X008396Y029800D01*
X008473Y029722D02*
X008818Y029722D01*
X008896Y029645D02*
X008550Y029645D01*
X008628Y029568D02*
X008973Y029568D01*
X009050Y029491D02*
X008705Y029491D01*
X008782Y029413D02*
X009127Y029413D01*
X009205Y029336D02*
X008859Y029336D01*
X008937Y029259D02*
X009282Y029259D01*
X009359Y029182D02*
X009014Y029182D01*
X009091Y029105D02*
X009436Y029105D01*
X009513Y029027D02*
X009168Y029027D01*
X009246Y028950D02*
X009591Y028950D01*
X009668Y028873D02*
X009323Y028873D01*
X009400Y028796D02*
X009745Y028796D01*
X009822Y028718D02*
X009477Y028718D01*
X009555Y028641D02*
X009900Y028641D01*
X009977Y028564D02*
X009632Y028564D01*
X009709Y028487D02*
X010054Y028487D01*
X010131Y028409D02*
X009786Y028409D01*
X009864Y028332D02*
X010209Y028332D01*
X010286Y028255D02*
X009941Y028255D01*
X010018Y028178D02*
X010363Y028178D01*
X010440Y028100D02*
X010095Y028100D01*
X010173Y028023D02*
X010518Y028023D01*
X010595Y027946D02*
X010250Y027946D01*
X010327Y027869D02*
X010672Y027869D01*
X010749Y027791D02*
X010404Y027791D01*
X010481Y027714D02*
X010827Y027714D01*
X010904Y027637D02*
X010559Y027637D01*
X010636Y027560D02*
X010981Y027560D01*
X011023Y027482D02*
X010713Y027482D01*
X010790Y027405D02*
X011023Y027405D01*
X011023Y027328D02*
X010868Y027328D01*
X010899Y027251D02*
X011023Y027251D01*
X011023Y027174D02*
X010899Y027174D01*
X010959Y027096D02*
X011023Y027096D01*
X011023Y026556D02*
X010970Y026556D01*
X011023Y026478D02*
X010893Y026478D01*
X011014Y026401D02*
X000633Y026401D01*
X000633Y026324D02*
X010936Y026324D01*
X010859Y026247D02*
X000633Y026247D01*
X000633Y026169D02*
X009539Y026169D01*
X009560Y026190D02*
X009343Y025973D01*
X009343Y025667D01*
X009560Y025451D01*
X009866Y025451D01*
X010082Y025667D01*
X010082Y025973D01*
X009866Y026190D01*
X009560Y026190D01*
X009462Y026092D02*
X000633Y026092D01*
X000633Y026015D02*
X009385Y026015D01*
X009343Y025938D02*
X000633Y025938D01*
X000633Y025860D02*
X009343Y025860D01*
X009343Y025783D02*
X000633Y025783D01*
X000633Y025706D02*
X009343Y025706D01*
X009382Y025629D02*
X000633Y025629D01*
X000633Y025551D02*
X009459Y025551D01*
X009536Y025474D02*
X000633Y025474D01*
X000633Y026478D02*
X009532Y026478D01*
X009455Y026556D02*
X000633Y026556D01*
X000633Y026633D02*
X008622Y026633D01*
X008545Y026710D02*
X000633Y026710D01*
X000633Y026787D02*
X008468Y026787D01*
X008390Y026865D02*
X000633Y026865D01*
X000633Y026942D02*
X008313Y026942D01*
X008236Y027019D02*
X000633Y027019D01*
X000633Y027096D02*
X008159Y027096D01*
X008081Y027174D02*
X000633Y027174D01*
X000633Y027251D02*
X008004Y027251D01*
X007927Y027328D02*
X000633Y027328D01*
X000633Y027405D02*
X007850Y027405D01*
X007772Y027482D02*
X000633Y027482D01*
X000633Y027560D02*
X007695Y027560D01*
X007618Y027637D02*
X000633Y027637D01*
X000633Y027714D02*
X007541Y027714D01*
X007463Y027791D02*
X000633Y027791D01*
X000633Y027869D02*
X007386Y027869D01*
X007309Y027946D02*
X000633Y027946D01*
X000633Y028023D02*
X007232Y028023D01*
X007154Y028100D02*
X000633Y028100D01*
X000633Y028178D02*
X007077Y028178D01*
X007000Y028255D02*
X000633Y028255D01*
X000633Y028332D02*
X006923Y028332D01*
X006845Y028409D02*
X000633Y028409D01*
X000633Y028487D02*
X006768Y028487D01*
X006691Y028564D02*
X000633Y028564D01*
X000633Y028641D02*
X006614Y028641D01*
X006537Y028718D02*
X000633Y028718D01*
X000633Y028796D02*
X006459Y028796D01*
X006382Y028873D02*
X000633Y028873D01*
X000633Y028950D02*
X006305Y028950D01*
X006228Y029027D02*
X000633Y029027D01*
X000633Y029105D02*
X006150Y029105D01*
X006073Y029182D02*
X000633Y029182D01*
X000633Y029259D02*
X005996Y029259D01*
X005919Y029336D02*
X000633Y029336D01*
X000633Y029413D02*
X005841Y029413D01*
X005764Y029491D02*
X000633Y029491D01*
X000633Y029568D02*
X005687Y029568D01*
X005610Y029645D02*
X000633Y029645D01*
X000633Y029722D02*
X005532Y029722D01*
X005455Y029800D02*
X000633Y029800D01*
X000633Y029877D02*
X005378Y029877D01*
X005301Y029954D02*
X000633Y029954D01*
X000633Y030031D02*
X001668Y030031D01*
X001482Y030109D02*
X000633Y030109D01*
X000633Y030186D02*
X001401Y030186D01*
X001324Y030263D02*
X000633Y030263D01*
X000633Y030340D02*
X001247Y030340D01*
X001206Y030418D02*
X000633Y030418D01*
X000633Y030495D02*
X001174Y030495D01*
X001142Y030572D02*
X000633Y030572D01*
X000633Y030649D02*
X001110Y030649D01*
X001099Y030727D02*
X000633Y030727D01*
X000633Y030804D02*
X001099Y030804D01*
X001099Y030881D02*
X000633Y030881D01*
X000633Y030958D02*
X001099Y030958D01*
X001105Y031036D02*
X000633Y031036D01*
X000633Y031113D02*
X001137Y031113D01*
X001169Y031190D02*
X000633Y031190D01*
X000633Y031267D02*
X001201Y031267D01*
X001236Y031344D02*
X000633Y031344D01*
X000633Y031422D02*
X001313Y031422D01*
X001390Y031499D02*
X000633Y031499D01*
X000633Y031576D02*
X001467Y031576D01*
X001641Y031653D02*
X000633Y031653D01*
X001665Y032580D02*
X005438Y032580D01*
X005361Y032658D02*
X001851Y032658D01*
X002002Y032735D02*
X005283Y032735D01*
X005218Y032812D02*
X004836Y032812D01*
X004849Y032825D02*
X004867Y032856D01*
X004876Y032892D01*
X004876Y033171D01*
X004476Y033171D01*
X004476Y032771D01*
X004755Y032771D01*
X004791Y032780D01*
X004823Y032799D01*
X004849Y032825D01*
X004876Y032889D02*
X005193Y032889D01*
X005116Y032967D02*
X004876Y032967D01*
X004876Y033044D02*
X005074Y033044D01*
X005042Y033121D02*
X004876Y033121D01*
X004876Y033250D02*
X004476Y033250D01*
X004398Y033250D01*
X004398Y033650D01*
X004119Y033650D01*
X004083Y033640D01*
X004051Y033622D01*
X004025Y033596D01*
X004007Y033564D01*
X003998Y033529D01*
X003998Y033250D01*
X004398Y033250D01*
X004398Y033171D01*
X004476Y033171D01*
X004476Y033250D01*
X004476Y033650D01*
X004755Y033650D01*
X004791Y033640D01*
X004823Y033622D01*
X004849Y033596D01*
X004867Y033564D01*
X004876Y033529D01*
X004876Y033250D01*
X004876Y033276D02*
X005038Y033276D01*
X005038Y033198D02*
X004476Y033198D01*
X004476Y033121D02*
X004398Y033121D01*
X004398Y033171D02*
X004398Y032771D01*
X004119Y032771D01*
X004083Y032780D01*
X004051Y032799D01*
X004025Y032825D01*
X004007Y032856D01*
X003998Y032892D01*
X003998Y033171D01*
X004398Y033171D01*
X004398Y033198D02*
X002322Y033198D01*
X002290Y033121D02*
X003998Y033121D01*
X003998Y033044D02*
X002258Y033044D01*
X002226Y032967D02*
X003998Y032967D01*
X003998Y032889D02*
X002156Y032889D01*
X002079Y032812D02*
X004038Y032812D01*
X004398Y032812D02*
X004476Y032812D01*
X004476Y032889D02*
X004398Y032889D01*
X004398Y032967D02*
X004476Y032967D01*
X004476Y033044D02*
X004398Y033044D01*
X004398Y033276D02*
X004476Y033276D01*
X004476Y033353D02*
X004398Y033353D01*
X004398Y033430D02*
X004476Y033430D01*
X004476Y033507D02*
X004398Y033507D01*
X004398Y033584D02*
X004476Y033584D01*
X004855Y033584D02*
X005297Y033584D01*
X005169Y033507D02*
X004876Y033507D01*
X004876Y033430D02*
X005096Y033430D01*
X005064Y033353D02*
X004876Y033353D01*
X005522Y033662D02*
X002336Y033662D01*
X002354Y033584D02*
X004019Y033584D01*
X003998Y033507D02*
X002354Y033507D01*
X002354Y033430D02*
X003998Y033430D01*
X003998Y033353D02*
X002354Y033353D01*
X002354Y033276D02*
X003998Y033276D01*
X005599Y033739D02*
X002304Y033739D01*
X002272Y033816D02*
X005676Y033816D01*
X005753Y033893D02*
X002240Y033893D01*
X002191Y033971D02*
X005831Y033971D01*
X005908Y034048D02*
X002114Y034048D01*
X002037Y034125D02*
X005985Y034125D01*
X006062Y034202D02*
X001947Y034202D01*
X000633Y034820D02*
X039131Y034820D01*
X039131Y034898D02*
X000633Y034898D01*
X002838Y030881D02*
X004955Y030881D01*
X004955Y030804D02*
X002838Y030804D01*
X002838Y030727D02*
X004955Y030727D01*
X005009Y030649D02*
X002827Y030649D01*
X002795Y030572D02*
X005056Y030572D01*
X005056Y030495D02*
X002763Y030495D01*
X002731Y030418D02*
X005056Y030418D01*
X005056Y030340D02*
X002690Y030340D01*
X002613Y030263D02*
X005056Y030263D01*
X005084Y030186D02*
X002536Y030186D01*
X002455Y030109D02*
X005146Y030109D01*
X005223Y030031D02*
X002269Y030031D01*
X005574Y030418D02*
X007218Y030418D01*
X007218Y030495D02*
X005574Y030495D01*
X005574Y030572D02*
X007218Y030572D01*
X007218Y030649D02*
X005574Y030649D01*
X005626Y030727D02*
X007218Y030727D01*
X007218Y030804D02*
X005778Y030804D01*
X005855Y030881D02*
X007218Y030881D01*
X007218Y030958D02*
X005932Y030958D01*
X005879Y030905D02*
X005879Y030905D01*
X006010Y031036D02*
X006175Y031036D01*
X006175Y031018D02*
X006233Y030960D01*
X006906Y030960D01*
X006964Y031018D01*
X006964Y031731D01*
X007218Y031731D01*
X007218Y031808D02*
X006789Y031808D01*
X006789Y031789D02*
X006789Y033017D01*
X006836Y033131D01*
X006836Y033290D01*
X006776Y033436D01*
X006663Y033549D01*
X006516Y033610D01*
X006358Y033610D01*
X006211Y033549D01*
X006098Y033436D01*
X006038Y033290D01*
X006038Y033131D01*
X006098Y032984D01*
X006211Y032872D01*
X006350Y032814D01*
X006350Y031789D01*
X006233Y031789D01*
X006175Y031731D01*
X006174Y031731D01*
X006175Y031731D02*
X006175Y031018D01*
X006175Y031113D02*
X006087Y031113D01*
X006164Y031190D02*
X006175Y031190D01*
X006174Y031267D02*
X006175Y031267D01*
X006174Y031344D02*
X006175Y031344D01*
X006174Y031422D02*
X006175Y031422D01*
X006174Y031499D02*
X006175Y031499D01*
X006174Y031576D02*
X006175Y031576D01*
X006174Y031653D02*
X006175Y031653D01*
X006174Y031808D02*
X006350Y031808D01*
X006350Y031885D02*
X006174Y031885D01*
X006174Y031962D02*
X006350Y031962D01*
X006350Y032040D02*
X006174Y032040D01*
X006174Y032117D02*
X006350Y032117D01*
X006350Y032194D02*
X006174Y032194D01*
X006174Y032271D02*
X006350Y032271D01*
X006350Y032349D02*
X006174Y032349D01*
X006174Y032426D02*
X006350Y032426D01*
X006350Y032503D02*
X006135Y032503D01*
X006058Y032580D02*
X006350Y032580D01*
X006350Y032658D02*
X005981Y032658D01*
X005904Y032735D02*
X006350Y032735D01*
X006350Y032812D02*
X005827Y032812D01*
X005749Y032889D02*
X006193Y032889D01*
X006116Y032967D02*
X005758Y032967D01*
X005800Y033044D02*
X006074Y033044D01*
X006042Y033121D02*
X005832Y033121D01*
X005836Y033198D02*
X006038Y033198D01*
X006038Y033276D02*
X005869Y033276D01*
X005946Y033353D02*
X006064Y033353D01*
X006096Y033430D02*
X006024Y033430D01*
X006101Y033507D02*
X006169Y033507D01*
X006178Y033584D02*
X006297Y033584D01*
X006577Y033584D02*
X007297Y033584D01*
X007169Y033507D02*
X006705Y033507D01*
X006778Y033430D02*
X007096Y033430D01*
X007064Y033353D02*
X006810Y033353D01*
X006836Y033276D02*
X007038Y033276D01*
X007038Y033198D02*
X006836Y033198D01*
X006832Y033121D02*
X007042Y033121D01*
X007074Y033044D02*
X006800Y033044D01*
X006789Y032967D02*
X007116Y032967D01*
X007193Y032889D02*
X006789Y032889D01*
X006789Y032812D02*
X007218Y032812D01*
X007218Y032735D02*
X006789Y032735D01*
X006789Y032658D02*
X007218Y032658D01*
X007218Y032580D02*
X006789Y032580D01*
X006789Y032503D02*
X007218Y032503D01*
X007218Y032426D02*
X006789Y032426D01*
X006789Y032349D02*
X007218Y032349D01*
X007218Y032271D02*
X006789Y032271D01*
X006789Y032194D02*
X007218Y032194D01*
X007218Y032117D02*
X006789Y032117D01*
X006789Y032040D02*
X007218Y032040D01*
X007218Y031962D02*
X006789Y031962D01*
X006789Y031885D02*
X007218Y031885D01*
X007218Y031653D02*
X006964Y031653D01*
X006964Y031576D02*
X007218Y031576D01*
X007218Y031499D02*
X006964Y031499D01*
X006964Y031422D02*
X007218Y031422D01*
X007218Y031344D02*
X006964Y031344D01*
X006964Y031267D02*
X007218Y031267D01*
X007218Y031190D02*
X006964Y031190D01*
X006964Y031113D02*
X007218Y031113D01*
X007218Y031036D02*
X006964Y031036D01*
X006964Y031731D02*
X006906Y031789D01*
X006789Y031789D01*
X005621Y031267D02*
X005617Y031267D01*
X005648Y030340D02*
X007235Y030340D01*
X007312Y030263D02*
X005725Y030263D01*
X005803Y030186D02*
X007389Y030186D01*
X007467Y030109D02*
X005880Y030109D01*
X005957Y030031D02*
X007544Y030031D01*
X007621Y029954D02*
X006034Y029954D01*
X006112Y029877D02*
X007698Y029877D01*
X007776Y029800D02*
X006189Y029800D01*
X006266Y029722D02*
X007853Y029722D01*
X007930Y029645D02*
X006343Y029645D01*
X006420Y029568D02*
X008007Y029568D01*
X008084Y029491D02*
X006498Y029491D01*
X006575Y029413D02*
X008162Y029413D01*
X008239Y029336D02*
X006652Y029336D01*
X006729Y029259D02*
X008316Y029259D01*
X008393Y029182D02*
X006807Y029182D01*
X006884Y029105D02*
X008471Y029105D01*
X008548Y029027D02*
X006961Y029027D01*
X007038Y028950D02*
X008625Y028950D01*
X008702Y028873D02*
X007116Y028873D01*
X007193Y028796D02*
X008780Y028796D01*
X008857Y028718D02*
X007270Y028718D01*
X007347Y028641D02*
X008934Y028641D01*
X009011Y028564D02*
X007425Y028564D01*
X007502Y028487D02*
X009089Y028487D01*
X009166Y028409D02*
X007579Y028409D01*
X007656Y028332D02*
X009243Y028332D01*
X009320Y028255D02*
X007734Y028255D01*
X007811Y028178D02*
X009398Y028178D01*
X009475Y028100D02*
X007888Y028100D01*
X007965Y028023D02*
X009552Y028023D01*
X009629Y027946D02*
X008043Y027946D01*
X008120Y027869D02*
X009707Y027869D01*
X009784Y027791D02*
X008197Y027791D01*
X008274Y027714D02*
X009861Y027714D01*
X009938Y027637D02*
X008352Y027637D01*
X008429Y027560D02*
X010015Y027560D01*
X010093Y027482D02*
X008506Y027482D01*
X008583Y027405D02*
X010170Y027405D01*
X010247Y027328D02*
X008660Y027328D01*
X008738Y027251D02*
X010324Y027251D01*
X010402Y027174D02*
X009882Y027174D01*
X009959Y027096D02*
X010460Y027096D01*
X010389Y027019D02*
X010036Y027019D01*
X010082Y026942D02*
X010343Y026942D01*
X010343Y026865D02*
X010082Y026865D01*
X010082Y026787D02*
X010343Y026787D01*
X010343Y026710D02*
X010082Y026710D01*
X010047Y026633D02*
X010378Y026633D01*
X010455Y026556D02*
X009970Y026556D01*
X009893Y026478D02*
X010532Y026478D01*
X010539Y026169D02*
X009886Y026169D01*
X009963Y026092D02*
X010462Y026092D01*
X010385Y026015D02*
X010041Y026015D01*
X010082Y025938D02*
X010343Y025938D01*
X010343Y025860D02*
X010082Y025860D01*
X010082Y025783D02*
X010343Y025783D01*
X010343Y025706D02*
X010082Y025706D01*
X010043Y025629D02*
X010382Y025629D01*
X010459Y025551D02*
X009966Y025551D01*
X009889Y025474D02*
X010536Y025474D01*
X010889Y025474D02*
X011536Y025474D01*
X011459Y025551D02*
X010966Y025551D01*
X011043Y025629D02*
X011382Y025629D01*
X011343Y025706D02*
X011082Y025706D01*
X011082Y025783D02*
X011343Y025783D01*
X011343Y025860D02*
X011082Y025860D01*
X011110Y025938D02*
X011343Y025938D01*
X011385Y026015D02*
X011187Y026015D01*
X011264Y026092D02*
X011462Y026092D01*
X011539Y026169D02*
X011341Y026169D01*
X011418Y026247D02*
X011859Y026247D01*
X011936Y026324D02*
X011418Y026324D01*
X011418Y026401D02*
X012007Y026401D01*
X012007Y026478D02*
X011893Y026478D01*
X011970Y026556D02*
X012007Y026556D01*
X012403Y026556D02*
X012455Y026556D01*
X012403Y026478D02*
X012532Y026478D01*
X013036Y027019D02*
X013040Y027019D01*
X013040Y027096D02*
X012959Y027096D01*
X012882Y027174D02*
X013040Y027174D01*
X013673Y027174D02*
X013752Y027174D01*
X013752Y027096D02*
X013673Y027096D01*
X013673Y027019D02*
X013752Y027019D01*
X013752Y026942D02*
X013673Y026942D01*
X013673Y026865D02*
X013752Y026865D01*
X011532Y026478D02*
X011418Y026478D01*
X011418Y026556D02*
X011455Y026556D01*
X009543Y027174D02*
X008815Y027174D01*
X008892Y027096D02*
X009466Y027096D01*
X008759Y032889D02*
X008737Y032889D01*
X008002Y033276D02*
X007836Y033276D01*
X007810Y033353D02*
X008021Y033353D01*
X008056Y033430D02*
X007778Y033430D01*
X007705Y033507D02*
X008113Y033507D01*
X008205Y033584D02*
X007577Y033584D01*
X006719Y034125D02*
X009149Y034125D01*
X010577Y033584D02*
X011297Y033584D01*
X011169Y033507D02*
X010705Y033507D01*
X010778Y033430D02*
X011096Y033430D01*
X011064Y033353D02*
X010810Y033353D01*
X010836Y033276D02*
X011038Y033276D01*
X011038Y033198D02*
X010836Y033198D01*
X010832Y033121D02*
X011042Y033121D01*
X011074Y033044D02*
X010800Y033044D01*
X010758Y032967D02*
X011116Y032967D01*
X011193Y032889D02*
X010681Y032889D01*
X011681Y032889D02*
X012193Y032889D01*
X012116Y032967D02*
X011758Y032967D01*
X011800Y033044D02*
X012074Y033044D01*
X012042Y033121D02*
X011832Y033121D01*
X011836Y033198D02*
X012038Y033198D01*
X012038Y033276D02*
X011836Y033276D01*
X011810Y033353D02*
X012064Y033353D01*
X012096Y033430D02*
X011778Y033430D01*
X011705Y033507D02*
X012169Y033507D01*
X012297Y033584D02*
X011577Y033584D01*
X012577Y033584D02*
X013297Y033584D01*
X013169Y033507D02*
X012705Y033507D01*
X012778Y033430D02*
X013096Y033430D01*
X013064Y033353D02*
X012810Y033353D01*
X012836Y033276D02*
X013038Y033276D01*
X013038Y033198D02*
X012836Y033198D01*
X012832Y033121D02*
X013042Y033121D01*
X013074Y033044D02*
X012800Y033044D01*
X012758Y032967D02*
X013116Y032967D01*
X013193Y032889D02*
X012681Y032889D01*
X013681Y032889D02*
X014193Y032889D01*
X014116Y032967D02*
X013758Y032967D01*
X013800Y033044D02*
X014074Y033044D01*
X014042Y033121D02*
X013832Y033121D01*
X013836Y033198D02*
X014038Y033198D01*
X014038Y033276D02*
X013836Y033276D01*
X013810Y033353D02*
X014064Y033353D01*
X014096Y033430D02*
X013778Y033430D01*
X013705Y033507D02*
X014039Y033507D01*
X013962Y033584D02*
X013577Y033584D01*
X014058Y034048D02*
X017546Y034048D01*
X017623Y033971D02*
X014135Y033971D01*
X014213Y033893D02*
X017700Y033893D01*
X017777Y033816D02*
X014290Y033816D01*
X014367Y033739D02*
X017854Y033739D01*
X017932Y033662D02*
X014444Y033662D01*
X014577Y033584D02*
X015297Y033584D01*
X015169Y033507D02*
X014705Y033507D01*
X014778Y033430D02*
X015096Y033430D01*
X015064Y033353D02*
X014810Y033353D01*
X014836Y033276D02*
X015038Y033276D01*
X015038Y033198D02*
X014836Y033198D01*
X014832Y033121D02*
X015042Y033121D01*
X015074Y033044D02*
X014800Y033044D01*
X014758Y032967D02*
X015116Y032967D01*
X015193Y032889D02*
X014681Y032889D01*
X013981Y034125D02*
X017468Y034125D01*
X017577Y033584D02*
X018009Y033584D01*
X018086Y033507D02*
X017705Y033507D01*
X017778Y033430D02*
X018096Y033430D01*
X018064Y033353D02*
X017810Y033353D01*
X017836Y033276D02*
X018038Y033276D01*
X018038Y033198D02*
X017836Y033198D01*
X017832Y033121D02*
X018042Y033121D01*
X018074Y033044D02*
X017800Y033044D01*
X017758Y032967D02*
X018116Y032967D01*
X018696Y032735D02*
X037467Y032735D01*
X037389Y032812D02*
X019623Y032812D01*
X019737Y032889D02*
X037312Y032889D01*
X037242Y032967D02*
X019803Y032967D01*
X019845Y033044D02*
X037210Y033044D01*
X037617Y032658D02*
X018696Y032658D01*
X018696Y032580D02*
X037804Y032580D01*
X038165Y032580D02*
X039131Y032580D01*
X039131Y032503D02*
X018696Y032503D01*
X018696Y032426D02*
X039131Y032426D01*
X039131Y032349D02*
X018696Y032349D01*
X018696Y032271D02*
X039131Y032271D01*
X039131Y032194D02*
X018696Y032194D01*
X018696Y032117D02*
X039131Y032117D01*
X039131Y032040D02*
X018696Y032040D01*
X018696Y031962D02*
X039131Y031962D01*
X039131Y031885D02*
X018696Y031885D01*
X018696Y031808D02*
X039131Y031808D01*
X039131Y031731D02*
X018696Y031731D01*
X018696Y031653D02*
X037468Y031653D01*
X037622Y031717D02*
X037303Y031585D01*
X037058Y031340D01*
X036926Y031021D01*
X036926Y030675D01*
X037058Y030356D01*
X037303Y030111D01*
X037622Y029979D01*
X037968Y029979D01*
X038288Y030111D01*
X038532Y030356D01*
X038665Y030675D01*
X038665Y031021D01*
X038532Y031340D01*
X038288Y031585D01*
X037968Y031717D01*
X037622Y031717D01*
X037294Y031576D02*
X018696Y031576D01*
X018696Y031499D02*
X037217Y031499D01*
X037140Y031422D02*
X018696Y031422D01*
X018696Y031344D02*
X037062Y031344D01*
X037028Y031267D02*
X018696Y031267D01*
X018726Y031190D02*
X036996Y031190D01*
X036964Y031113D02*
X018803Y031113D01*
X018880Y031036D02*
X036932Y031036D01*
X036926Y030958D02*
X018957Y030958D01*
X019035Y030881D02*
X036926Y030881D01*
X036926Y030804D02*
X019112Y030804D01*
X019189Y030727D02*
X036926Y030727D01*
X036937Y030649D02*
X019266Y030649D01*
X019344Y030572D02*
X036969Y030572D01*
X037001Y030495D02*
X019421Y030495D01*
X019498Y030418D02*
X037033Y030418D01*
X037074Y030340D02*
X019575Y030340D01*
X019652Y030263D02*
X037151Y030263D01*
X037228Y030186D02*
X019730Y030186D01*
X019807Y030109D02*
X037309Y030109D01*
X037495Y030031D02*
X019884Y030031D01*
X019961Y029954D02*
X039131Y029954D01*
X039131Y029877D02*
X020039Y029877D01*
X020116Y029800D02*
X039131Y029800D01*
X039131Y029722D02*
X020193Y029722D01*
X020270Y029645D02*
X039131Y029645D01*
X039131Y029568D02*
X020348Y029568D01*
X020425Y029491D02*
X039131Y029491D01*
X039131Y029413D02*
X020502Y029413D01*
X020579Y029336D02*
X039131Y029336D01*
X039131Y029259D02*
X028212Y029259D01*
X028289Y029182D02*
X039131Y029182D01*
X039131Y029105D02*
X028366Y029105D01*
X028443Y029027D02*
X039131Y029027D01*
X039131Y028950D02*
X028521Y028950D01*
X028598Y028873D02*
X039131Y028873D01*
X039131Y028796D02*
X028675Y028796D01*
X028752Y028718D02*
X039131Y028718D01*
X039131Y030031D02*
X038095Y030031D01*
X038282Y030109D02*
X039131Y030109D01*
X039131Y030186D02*
X038362Y030186D01*
X038440Y030263D02*
X039131Y030263D01*
X039131Y030340D02*
X038517Y030340D01*
X038558Y030418D02*
X039131Y030418D01*
X039131Y030495D02*
X038590Y030495D01*
X038622Y030572D02*
X039131Y030572D01*
X039131Y030649D02*
X038654Y030649D01*
X038665Y030727D02*
X039131Y030727D01*
X039131Y030804D02*
X038665Y030804D01*
X038665Y030881D02*
X039131Y030881D01*
X039131Y030958D02*
X038665Y030958D01*
X038659Y031036D02*
X039131Y031036D01*
X039131Y031113D02*
X038627Y031113D01*
X038595Y031190D02*
X039131Y031190D01*
X039131Y031267D02*
X038563Y031267D01*
X038528Y031344D02*
X039131Y031344D01*
X039131Y031422D02*
X038451Y031422D01*
X038374Y031499D02*
X039131Y031499D01*
X039131Y031576D02*
X038296Y031576D01*
X038122Y031653D02*
X039131Y031653D01*
X039131Y032658D02*
X038351Y032658D01*
X038502Y032735D02*
X039131Y032735D01*
X039131Y032812D02*
X038579Y032812D01*
X038656Y032889D02*
X039131Y032889D01*
X039131Y032967D02*
X038730Y032967D01*
X038762Y033044D02*
X039131Y033044D01*
X039131Y033121D02*
X038794Y033121D01*
X038826Y033198D02*
X039131Y033198D01*
X039131Y033276D02*
X038858Y033276D01*
X038861Y033353D02*
X039131Y033353D01*
X039131Y033430D02*
X038861Y033430D01*
X038861Y033507D02*
X039131Y033507D01*
X039131Y033584D02*
X038861Y033584D01*
X038848Y033662D02*
X039131Y033662D01*
X039131Y033739D02*
X038816Y033739D01*
X038784Y033816D02*
X039131Y033816D01*
X039131Y033893D02*
X038752Y033893D01*
X038707Y033971D02*
X039131Y033971D01*
X039131Y034048D02*
X038630Y034048D01*
X038553Y034125D02*
X039131Y034125D01*
X039131Y034202D02*
X038462Y034202D01*
X038276Y034280D02*
X039131Y034280D01*
X034100Y027019D02*
X033607Y027019D01*
X033685Y026942D02*
X034023Y026942D01*
X033973Y026865D02*
X033751Y026865D01*
X033751Y026787D02*
X033973Y026787D01*
X031692Y026015D02*
X031611Y026015D01*
X031689Y025938D02*
X031692Y025938D01*
X032184Y006550D02*
X030544Y006550D01*
X030622Y006473D02*
X032184Y006473D01*
X032184Y006396D02*
X030699Y006396D01*
X030759Y006319D02*
X032184Y006319D01*
X032162Y006241D02*
X030759Y006241D01*
X030028Y006473D02*
X029820Y006473D01*
X029743Y006396D02*
X029951Y006396D01*
X029890Y006319D02*
X029696Y006319D01*
X029696Y006241D02*
X029890Y006241D01*
X029696Y005701D02*
X031809Y005701D01*
X031731Y005623D02*
X029696Y005623D01*
X030492Y005546D02*
X031654Y005546D01*
X031577Y005469D02*
X030569Y005469D01*
X030168Y004619D02*
X032145Y004619D01*
X032145Y004542D02*
X030496Y004542D01*
X030573Y004465D02*
X032145Y004465D01*
X032434Y004001D02*
X032851Y004001D01*
X032851Y003924D02*
X032341Y003924D01*
X032698Y004079D02*
X032851Y004079D01*
X032814Y004156D02*
X032737Y004156D01*
X032737Y004233D02*
X032814Y004233D01*
X032814Y004310D02*
X032737Y004310D01*
X032737Y004388D02*
X032814Y004388D01*
X032814Y004465D02*
X032737Y004465D01*
X032737Y004542D02*
X032814Y004542D01*
X032814Y004619D02*
X032737Y004619D01*
X032851Y003847D02*
X030575Y003847D01*
X030497Y003770D02*
X032851Y003770D01*
X032158Y002997D02*
X030481Y002997D01*
X030559Y002920D02*
X032145Y002920D01*
D23*
X032441Y005966D02*
X032382Y006025D01*
X032382Y006931D01*
X033907Y008456D01*
X033907Y025976D01*
X033382Y026502D01*
X033382Y026722D01*
X032874Y027108D02*
X032874Y024844D01*
X031890Y024450D02*
X031890Y025976D01*
X032382Y026468D01*
X032382Y026722D01*
X032874Y027108D02*
X032677Y027305D01*
X031890Y027305D01*
X031382Y026797D01*
X031382Y026722D01*
X031382Y025722D02*
X031382Y015576D01*
X023606Y007801D01*
X020915Y007801D01*
X019376Y006261D01*
X012713Y025820D02*
X013238Y026346D01*
X013238Y027354D01*
X016437Y030553D01*
X016437Y033210D01*
X015437Y033210D02*
X015437Y030537D01*
X012205Y027305D01*
X012205Y026313D01*
X011713Y025820D01*
X011220Y026328D02*
X010713Y025820D01*
X011220Y026328D02*
X011220Y027600D01*
X008957Y029864D01*
X008957Y033653D01*
X009252Y033948D01*
X013878Y033948D01*
X014437Y033389D01*
X014437Y033210D01*
D24*
X031890Y024450D02*
X032136Y024204D01*
X032136Y009982D01*
X028396Y006242D01*
X028396Y004519D01*
X029478Y005002D02*
X030325Y004155D01*
X029478Y005002D02*
X029478Y006439D01*
X032874Y009834D01*
X032874Y024844D01*
D25*
X019376Y005261D02*
X019376Y004391D01*
X019195Y004210D01*
M02*
