G75*
%MOIN*%
%OFA0B0*%
%FSLAX24Y24*%
%IPPOS*%
%LPD*%
%AMOC8*
5,1,8,0,0,1.08239X$1,22.5*
%
%ADD10C,0.0000*%
D10*
X000394Y000139D02*
X000394Y035179D01*
X039370Y035179D01*
X039370Y000139D01*
X000394Y000139D01*
X000945Y002108D02*
X000947Y002158D01*
X000953Y002208D01*
X000963Y002257D01*
X000977Y002305D01*
X000994Y002352D01*
X001015Y002397D01*
X001040Y002441D01*
X001068Y002482D01*
X001100Y002521D01*
X001134Y002558D01*
X001171Y002592D01*
X001211Y002622D01*
X001253Y002649D01*
X001297Y002673D01*
X001343Y002694D01*
X001390Y002710D01*
X001438Y002723D01*
X001488Y002732D01*
X001537Y002737D01*
X001588Y002738D01*
X001638Y002735D01*
X001687Y002728D01*
X001736Y002717D01*
X001784Y002702D01*
X001830Y002684D01*
X001875Y002662D01*
X001918Y002636D01*
X001959Y002607D01*
X001998Y002575D01*
X002034Y002540D01*
X002066Y002502D01*
X002096Y002462D01*
X002123Y002419D01*
X002146Y002375D01*
X002165Y002329D01*
X002181Y002281D01*
X002193Y002232D01*
X002201Y002183D01*
X002205Y002133D01*
X002205Y002083D01*
X002201Y002033D01*
X002193Y001984D01*
X002181Y001935D01*
X002165Y001887D01*
X002146Y001841D01*
X002123Y001797D01*
X002096Y001754D01*
X002066Y001714D01*
X002034Y001676D01*
X001998Y001641D01*
X001959Y001609D01*
X001918Y001580D01*
X001875Y001554D01*
X001830Y001532D01*
X001784Y001514D01*
X001736Y001499D01*
X001687Y001488D01*
X001638Y001481D01*
X001588Y001478D01*
X001537Y001479D01*
X001488Y001484D01*
X001438Y001493D01*
X001390Y001506D01*
X001343Y001522D01*
X001297Y001543D01*
X001253Y001567D01*
X001211Y001594D01*
X001171Y001624D01*
X001134Y001658D01*
X001100Y001695D01*
X001068Y001734D01*
X001040Y001775D01*
X001015Y001819D01*
X000994Y001864D01*
X000977Y001911D01*
X000963Y001959D01*
X000953Y002008D01*
X000947Y002058D01*
X000945Y002108D01*
X000854Y011793D02*
X000856Y011843D01*
X000862Y011893D01*
X000872Y011942D01*
X000886Y011990D01*
X000903Y012037D01*
X000924Y012082D01*
X000949Y012126D01*
X000977Y012167D01*
X001009Y012206D01*
X001043Y012243D01*
X001080Y012277D01*
X001120Y012307D01*
X001162Y012334D01*
X001206Y012358D01*
X001252Y012379D01*
X001299Y012395D01*
X001347Y012408D01*
X001397Y012417D01*
X001446Y012422D01*
X001497Y012423D01*
X001547Y012420D01*
X001596Y012413D01*
X001645Y012402D01*
X001693Y012387D01*
X001739Y012369D01*
X001784Y012347D01*
X001827Y012321D01*
X001868Y012292D01*
X001907Y012260D01*
X001943Y012225D01*
X001975Y012187D01*
X002005Y012147D01*
X002032Y012104D01*
X002055Y012060D01*
X002074Y012014D01*
X002090Y011966D01*
X002102Y011917D01*
X002110Y011868D01*
X002114Y011818D01*
X002114Y011768D01*
X002110Y011718D01*
X002102Y011669D01*
X002090Y011620D01*
X002074Y011572D01*
X002055Y011526D01*
X002032Y011482D01*
X002005Y011439D01*
X001975Y011399D01*
X001943Y011361D01*
X001907Y011326D01*
X001868Y011294D01*
X001827Y011265D01*
X001784Y011239D01*
X001739Y011217D01*
X001693Y011199D01*
X001645Y011184D01*
X001596Y011173D01*
X001547Y011166D01*
X001497Y011163D01*
X001446Y011164D01*
X001397Y011169D01*
X001347Y011178D01*
X001299Y011191D01*
X001252Y011207D01*
X001206Y011228D01*
X001162Y011252D01*
X001120Y011279D01*
X001080Y011309D01*
X001043Y011343D01*
X001009Y011380D01*
X000977Y011419D01*
X000949Y011460D01*
X000924Y011504D01*
X000903Y011549D01*
X000886Y011596D01*
X000872Y011644D01*
X000862Y011693D01*
X000856Y011743D01*
X000854Y011793D01*
X000846Y011803D02*
X000848Y011853D01*
X000854Y011903D01*
X000864Y011952D01*
X000878Y012000D01*
X000895Y012047D01*
X000916Y012092D01*
X000941Y012136D01*
X000969Y012177D01*
X001001Y012216D01*
X001035Y012253D01*
X001072Y012287D01*
X001112Y012317D01*
X001154Y012344D01*
X001198Y012368D01*
X001244Y012389D01*
X001291Y012405D01*
X001339Y012418D01*
X001389Y012427D01*
X001438Y012432D01*
X001489Y012433D01*
X001539Y012430D01*
X001588Y012423D01*
X001637Y012412D01*
X001685Y012397D01*
X001731Y012379D01*
X001776Y012357D01*
X001819Y012331D01*
X001860Y012302D01*
X001899Y012270D01*
X001935Y012235D01*
X001967Y012197D01*
X001997Y012157D01*
X002024Y012114D01*
X002047Y012070D01*
X002066Y012024D01*
X002082Y011976D01*
X002094Y011927D01*
X002102Y011878D01*
X002106Y011828D01*
X002106Y011778D01*
X002102Y011728D01*
X002094Y011679D01*
X002082Y011630D01*
X002066Y011582D01*
X002047Y011536D01*
X002024Y011492D01*
X001997Y011449D01*
X001967Y011409D01*
X001935Y011371D01*
X001899Y011336D01*
X001860Y011304D01*
X001819Y011275D01*
X001776Y011249D01*
X001731Y011227D01*
X001685Y011209D01*
X001637Y011194D01*
X001588Y011183D01*
X001539Y011176D01*
X001489Y011173D01*
X001438Y011174D01*
X001389Y011179D01*
X001339Y011188D01*
X001291Y011201D01*
X001244Y011217D01*
X001198Y011238D01*
X001154Y011262D01*
X001112Y011289D01*
X001072Y011319D01*
X001035Y011353D01*
X001001Y011390D01*
X000969Y011429D01*
X000941Y011470D01*
X000916Y011514D01*
X000895Y011559D01*
X000878Y011606D01*
X000864Y011654D01*
X000854Y011703D01*
X000848Y011753D01*
X000846Y011803D01*
X001339Y030848D02*
X001341Y030898D01*
X001347Y030948D01*
X001357Y030997D01*
X001371Y031045D01*
X001388Y031092D01*
X001409Y031137D01*
X001434Y031181D01*
X001462Y031222D01*
X001494Y031261D01*
X001528Y031298D01*
X001565Y031332D01*
X001605Y031362D01*
X001647Y031389D01*
X001691Y031413D01*
X001737Y031434D01*
X001784Y031450D01*
X001832Y031463D01*
X001882Y031472D01*
X001931Y031477D01*
X001982Y031478D01*
X002032Y031475D01*
X002081Y031468D01*
X002130Y031457D01*
X002178Y031442D01*
X002224Y031424D01*
X002269Y031402D01*
X002312Y031376D01*
X002353Y031347D01*
X002392Y031315D01*
X002428Y031280D01*
X002460Y031242D01*
X002490Y031202D01*
X002517Y031159D01*
X002540Y031115D01*
X002559Y031069D01*
X002575Y031021D01*
X002587Y030972D01*
X002595Y030923D01*
X002599Y030873D01*
X002599Y030823D01*
X002595Y030773D01*
X002587Y030724D01*
X002575Y030675D01*
X002559Y030627D01*
X002540Y030581D01*
X002517Y030537D01*
X002490Y030494D01*
X002460Y030454D01*
X002428Y030416D01*
X002392Y030381D01*
X002353Y030349D01*
X002312Y030320D01*
X002269Y030294D01*
X002224Y030272D01*
X002178Y030254D01*
X002130Y030239D01*
X002081Y030228D01*
X002032Y030221D01*
X001982Y030218D01*
X001931Y030219D01*
X001882Y030224D01*
X001832Y030233D01*
X001784Y030246D01*
X001737Y030262D01*
X001691Y030283D01*
X001647Y030307D01*
X001605Y030334D01*
X001565Y030364D01*
X001528Y030398D01*
X001494Y030435D01*
X001462Y030474D01*
X001434Y030515D01*
X001409Y030559D01*
X001388Y030604D01*
X001371Y030651D01*
X001357Y030699D01*
X001347Y030748D01*
X001341Y030798D01*
X001339Y030848D01*
X000854Y033446D02*
X000856Y033496D01*
X000862Y033546D01*
X000872Y033595D01*
X000886Y033643D01*
X000903Y033690D01*
X000924Y033735D01*
X000949Y033779D01*
X000977Y033820D01*
X001009Y033859D01*
X001043Y033896D01*
X001080Y033930D01*
X001120Y033960D01*
X001162Y033987D01*
X001206Y034011D01*
X001252Y034032D01*
X001299Y034048D01*
X001347Y034061D01*
X001397Y034070D01*
X001446Y034075D01*
X001497Y034076D01*
X001547Y034073D01*
X001596Y034066D01*
X001645Y034055D01*
X001693Y034040D01*
X001739Y034022D01*
X001784Y034000D01*
X001827Y033974D01*
X001868Y033945D01*
X001907Y033913D01*
X001943Y033878D01*
X001975Y033840D01*
X002005Y033800D01*
X002032Y033757D01*
X002055Y033713D01*
X002074Y033667D01*
X002090Y033619D01*
X002102Y033570D01*
X002110Y033521D01*
X002114Y033471D01*
X002114Y033421D01*
X002110Y033371D01*
X002102Y033322D01*
X002090Y033273D01*
X002074Y033225D01*
X002055Y033179D01*
X002032Y033135D01*
X002005Y033092D01*
X001975Y033052D01*
X001943Y033014D01*
X001907Y032979D01*
X001868Y032947D01*
X001827Y032918D01*
X001784Y032892D01*
X001739Y032870D01*
X001693Y032852D01*
X001645Y032837D01*
X001596Y032826D01*
X001547Y032819D01*
X001497Y032816D01*
X001446Y032817D01*
X001397Y032822D01*
X001347Y032831D01*
X001299Y032844D01*
X001252Y032860D01*
X001206Y032881D01*
X001162Y032905D01*
X001120Y032932D01*
X001080Y032962D01*
X001043Y032996D01*
X001009Y033033D01*
X000977Y033072D01*
X000949Y033113D01*
X000924Y033157D01*
X000903Y033202D01*
X000886Y033249D01*
X000872Y033297D01*
X000862Y033346D01*
X000856Y033396D01*
X000854Y033446D01*
X000846Y033456D02*
X000848Y033506D01*
X000854Y033556D01*
X000864Y033605D01*
X000878Y033653D01*
X000895Y033700D01*
X000916Y033745D01*
X000941Y033789D01*
X000969Y033830D01*
X001001Y033869D01*
X001035Y033906D01*
X001072Y033940D01*
X001112Y033970D01*
X001154Y033997D01*
X001198Y034021D01*
X001244Y034042D01*
X001291Y034058D01*
X001339Y034071D01*
X001389Y034080D01*
X001438Y034085D01*
X001489Y034086D01*
X001539Y034083D01*
X001588Y034076D01*
X001637Y034065D01*
X001685Y034050D01*
X001731Y034032D01*
X001776Y034010D01*
X001819Y033984D01*
X001860Y033955D01*
X001899Y033923D01*
X001935Y033888D01*
X001967Y033850D01*
X001997Y033810D01*
X002024Y033767D01*
X002047Y033723D01*
X002066Y033677D01*
X002082Y033629D01*
X002094Y033580D01*
X002102Y033531D01*
X002106Y033481D01*
X002106Y033431D01*
X002102Y033381D01*
X002094Y033332D01*
X002082Y033283D01*
X002066Y033235D01*
X002047Y033189D01*
X002024Y033145D01*
X001997Y033102D01*
X001967Y033062D01*
X001935Y033024D01*
X001899Y032989D01*
X001860Y032957D01*
X001819Y032928D01*
X001776Y032902D01*
X001731Y032880D01*
X001685Y032862D01*
X001637Y032847D01*
X001588Y032836D01*
X001539Y032829D01*
X001489Y032826D01*
X001438Y032827D01*
X001389Y032832D01*
X001339Y032841D01*
X001291Y032854D01*
X001244Y032870D01*
X001198Y032891D01*
X001154Y032915D01*
X001112Y032942D01*
X001072Y032972D01*
X001035Y033006D01*
X001001Y033043D01*
X000969Y033082D01*
X000941Y033123D01*
X000916Y033167D01*
X000895Y033212D01*
X000878Y033259D01*
X000864Y033307D01*
X000854Y033356D01*
X000848Y033406D01*
X000846Y033456D01*
X037165Y030848D02*
X037167Y030898D01*
X037173Y030948D01*
X037183Y030997D01*
X037197Y031045D01*
X037214Y031092D01*
X037235Y031137D01*
X037260Y031181D01*
X037288Y031222D01*
X037320Y031261D01*
X037354Y031298D01*
X037391Y031332D01*
X037431Y031362D01*
X037473Y031389D01*
X037517Y031413D01*
X037563Y031434D01*
X037610Y031450D01*
X037658Y031463D01*
X037708Y031472D01*
X037757Y031477D01*
X037808Y031478D01*
X037858Y031475D01*
X037907Y031468D01*
X037956Y031457D01*
X038004Y031442D01*
X038050Y031424D01*
X038095Y031402D01*
X038138Y031376D01*
X038179Y031347D01*
X038218Y031315D01*
X038254Y031280D01*
X038286Y031242D01*
X038316Y031202D01*
X038343Y031159D01*
X038366Y031115D01*
X038385Y031069D01*
X038401Y031021D01*
X038413Y030972D01*
X038421Y030923D01*
X038425Y030873D01*
X038425Y030823D01*
X038421Y030773D01*
X038413Y030724D01*
X038401Y030675D01*
X038385Y030627D01*
X038366Y030581D01*
X038343Y030537D01*
X038316Y030494D01*
X038286Y030454D01*
X038254Y030416D01*
X038218Y030381D01*
X038179Y030349D01*
X038138Y030320D01*
X038095Y030294D01*
X038050Y030272D01*
X038004Y030254D01*
X037956Y030239D01*
X037907Y030228D01*
X037858Y030221D01*
X037808Y030218D01*
X037757Y030219D01*
X037708Y030224D01*
X037658Y030233D01*
X037610Y030246D01*
X037563Y030262D01*
X037517Y030283D01*
X037473Y030307D01*
X037431Y030334D01*
X037391Y030364D01*
X037354Y030398D01*
X037320Y030435D01*
X037288Y030474D01*
X037260Y030515D01*
X037235Y030559D01*
X037214Y030604D01*
X037197Y030651D01*
X037183Y030699D01*
X037173Y030748D01*
X037167Y030798D01*
X037165Y030848D01*
X037354Y033446D02*
X037356Y033496D01*
X037362Y033546D01*
X037372Y033595D01*
X037386Y033643D01*
X037403Y033690D01*
X037424Y033735D01*
X037449Y033779D01*
X037477Y033820D01*
X037509Y033859D01*
X037543Y033896D01*
X037580Y033930D01*
X037620Y033960D01*
X037662Y033987D01*
X037706Y034011D01*
X037752Y034032D01*
X037799Y034048D01*
X037847Y034061D01*
X037897Y034070D01*
X037946Y034075D01*
X037997Y034076D01*
X038047Y034073D01*
X038096Y034066D01*
X038145Y034055D01*
X038193Y034040D01*
X038239Y034022D01*
X038284Y034000D01*
X038327Y033974D01*
X038368Y033945D01*
X038407Y033913D01*
X038443Y033878D01*
X038475Y033840D01*
X038505Y033800D01*
X038532Y033757D01*
X038555Y033713D01*
X038574Y033667D01*
X038590Y033619D01*
X038602Y033570D01*
X038610Y033521D01*
X038614Y033471D01*
X038614Y033421D01*
X038610Y033371D01*
X038602Y033322D01*
X038590Y033273D01*
X038574Y033225D01*
X038555Y033179D01*
X038532Y033135D01*
X038505Y033092D01*
X038475Y033052D01*
X038443Y033014D01*
X038407Y032979D01*
X038368Y032947D01*
X038327Y032918D01*
X038284Y032892D01*
X038239Y032870D01*
X038193Y032852D01*
X038145Y032837D01*
X038096Y032826D01*
X038047Y032819D01*
X037997Y032816D01*
X037946Y032817D01*
X037897Y032822D01*
X037847Y032831D01*
X037799Y032844D01*
X037752Y032860D01*
X037706Y032881D01*
X037662Y032905D01*
X037620Y032932D01*
X037580Y032962D01*
X037543Y032996D01*
X037509Y033033D01*
X037477Y033072D01*
X037449Y033113D01*
X037424Y033157D01*
X037403Y033202D01*
X037386Y033249D01*
X037372Y033297D01*
X037362Y033346D01*
X037356Y033396D01*
X037354Y033446D01*
X037362Y033456D02*
X037364Y033506D01*
X037370Y033556D01*
X037380Y033605D01*
X037394Y033653D01*
X037411Y033700D01*
X037432Y033745D01*
X037457Y033789D01*
X037485Y033830D01*
X037517Y033869D01*
X037551Y033906D01*
X037588Y033940D01*
X037628Y033970D01*
X037670Y033997D01*
X037714Y034021D01*
X037760Y034042D01*
X037807Y034058D01*
X037855Y034071D01*
X037905Y034080D01*
X037954Y034085D01*
X038005Y034086D01*
X038055Y034083D01*
X038104Y034076D01*
X038153Y034065D01*
X038201Y034050D01*
X038247Y034032D01*
X038292Y034010D01*
X038335Y033984D01*
X038376Y033955D01*
X038415Y033923D01*
X038451Y033888D01*
X038483Y033850D01*
X038513Y033810D01*
X038540Y033767D01*
X038563Y033723D01*
X038582Y033677D01*
X038598Y033629D01*
X038610Y033580D01*
X038618Y033531D01*
X038622Y033481D01*
X038622Y033431D01*
X038618Y033381D01*
X038610Y033332D01*
X038598Y033283D01*
X038582Y033235D01*
X038563Y033189D01*
X038540Y033145D01*
X038513Y033102D01*
X038483Y033062D01*
X038451Y033024D01*
X038415Y032989D01*
X038376Y032957D01*
X038335Y032928D01*
X038292Y032902D01*
X038247Y032880D01*
X038201Y032862D01*
X038153Y032847D01*
X038104Y032836D01*
X038055Y032829D01*
X038005Y032826D01*
X037954Y032827D01*
X037905Y032832D01*
X037855Y032841D01*
X037807Y032854D01*
X037760Y032870D01*
X037714Y032891D01*
X037670Y032915D01*
X037628Y032942D01*
X037588Y032972D01*
X037551Y033006D01*
X037517Y033043D01*
X037485Y033082D01*
X037457Y033123D01*
X037432Y033167D01*
X037411Y033212D01*
X037394Y033259D01*
X037380Y033307D01*
X037370Y033356D01*
X037364Y033406D01*
X037362Y033456D01*
X037468Y011793D02*
X037470Y011843D01*
X037476Y011893D01*
X037486Y011942D01*
X037500Y011990D01*
X037517Y012037D01*
X037538Y012082D01*
X037563Y012126D01*
X037591Y012167D01*
X037623Y012206D01*
X037657Y012243D01*
X037694Y012277D01*
X037734Y012307D01*
X037776Y012334D01*
X037820Y012358D01*
X037866Y012379D01*
X037913Y012395D01*
X037961Y012408D01*
X038011Y012417D01*
X038060Y012422D01*
X038111Y012423D01*
X038161Y012420D01*
X038210Y012413D01*
X038259Y012402D01*
X038307Y012387D01*
X038353Y012369D01*
X038398Y012347D01*
X038441Y012321D01*
X038482Y012292D01*
X038521Y012260D01*
X038557Y012225D01*
X038589Y012187D01*
X038619Y012147D01*
X038646Y012104D01*
X038669Y012060D01*
X038688Y012014D01*
X038704Y011966D01*
X038716Y011917D01*
X038724Y011868D01*
X038728Y011818D01*
X038728Y011768D01*
X038724Y011718D01*
X038716Y011669D01*
X038704Y011620D01*
X038688Y011572D01*
X038669Y011526D01*
X038646Y011482D01*
X038619Y011439D01*
X038589Y011399D01*
X038557Y011361D01*
X038521Y011326D01*
X038482Y011294D01*
X038441Y011265D01*
X038398Y011239D01*
X038353Y011217D01*
X038307Y011199D01*
X038259Y011184D01*
X038210Y011173D01*
X038161Y011166D01*
X038111Y011163D01*
X038060Y011164D01*
X038011Y011169D01*
X037961Y011178D01*
X037913Y011191D01*
X037866Y011207D01*
X037820Y011228D01*
X037776Y011252D01*
X037734Y011279D01*
X037694Y011309D01*
X037657Y011343D01*
X037623Y011380D01*
X037591Y011419D01*
X037563Y011460D01*
X037538Y011504D01*
X037517Y011549D01*
X037500Y011596D01*
X037486Y011644D01*
X037476Y011693D01*
X037470Y011743D01*
X037468Y011793D01*
X037165Y002108D02*
X037167Y002158D01*
X037173Y002208D01*
X037183Y002257D01*
X037197Y002305D01*
X037214Y002352D01*
X037235Y002397D01*
X037260Y002441D01*
X037288Y002482D01*
X037320Y002521D01*
X037354Y002558D01*
X037391Y002592D01*
X037431Y002622D01*
X037473Y002649D01*
X037517Y002673D01*
X037563Y002694D01*
X037610Y002710D01*
X037658Y002723D01*
X037708Y002732D01*
X037757Y002737D01*
X037808Y002738D01*
X037858Y002735D01*
X037907Y002728D01*
X037956Y002717D01*
X038004Y002702D01*
X038050Y002684D01*
X038095Y002662D01*
X038138Y002636D01*
X038179Y002607D01*
X038218Y002575D01*
X038254Y002540D01*
X038286Y002502D01*
X038316Y002462D01*
X038343Y002419D01*
X038366Y002375D01*
X038385Y002329D01*
X038401Y002281D01*
X038413Y002232D01*
X038421Y002183D01*
X038425Y002133D01*
X038425Y002083D01*
X038421Y002033D01*
X038413Y001984D01*
X038401Y001935D01*
X038385Y001887D01*
X038366Y001841D01*
X038343Y001797D01*
X038316Y001754D01*
X038286Y001714D01*
X038254Y001676D01*
X038218Y001641D01*
X038179Y001609D01*
X038138Y001580D01*
X038095Y001554D01*
X038050Y001532D01*
X038004Y001514D01*
X037956Y001499D01*
X037907Y001488D01*
X037858Y001481D01*
X037808Y001478D01*
X037757Y001479D01*
X037708Y001484D01*
X037658Y001493D01*
X037610Y001506D01*
X037563Y001522D01*
X037517Y001543D01*
X037473Y001567D01*
X037431Y001594D01*
X037391Y001624D01*
X037354Y001658D01*
X037320Y001695D01*
X037288Y001734D01*
X037260Y001775D01*
X037235Y001819D01*
X037214Y001864D01*
X037197Y001911D01*
X037183Y001959D01*
X037173Y002008D01*
X037167Y002058D01*
X037165Y002108D01*
M02*
