G75*
%MOIN*%
%OFA0B0*%
%FSLAX24Y24*%
%IPPOS*%
%LPD*%
%AMOC8*
5,1,8,0,0,1.08239X$1,22.5*
%
%ADD10C,0.0000*%
%ADD11R,0.0220X0.0500*%
%ADD12R,0.0500X0.0220*%
%ADD13R,0.0433X0.0394*%
%ADD14R,0.2100X0.0760*%
%ADD15R,0.1200X0.0315*%
%ADD16R,0.1181X0.0827*%
%ADD17R,0.0394X0.0551*%
%ADD18R,0.0551X0.0394*%
%ADD19R,0.0394X0.0433*%
%ADD20R,0.0260X0.0800*%
D10*
X000497Y002817D02*
X000497Y031557D01*
X031993Y031557D01*
X031993Y002817D01*
X000497Y002817D01*
X001048Y003998D02*
X001050Y004048D01*
X001056Y004098D01*
X001066Y004147D01*
X001080Y004195D01*
X001097Y004242D01*
X001118Y004287D01*
X001143Y004331D01*
X001171Y004372D01*
X001203Y004411D01*
X001237Y004448D01*
X001274Y004482D01*
X001314Y004512D01*
X001356Y004539D01*
X001400Y004563D01*
X001446Y004584D01*
X001493Y004600D01*
X001541Y004613D01*
X001591Y004622D01*
X001640Y004627D01*
X001691Y004628D01*
X001741Y004625D01*
X001790Y004618D01*
X001839Y004607D01*
X001887Y004592D01*
X001933Y004574D01*
X001978Y004552D01*
X002021Y004526D01*
X002062Y004497D01*
X002101Y004465D01*
X002137Y004430D01*
X002169Y004392D01*
X002199Y004352D01*
X002226Y004309D01*
X002249Y004265D01*
X002268Y004219D01*
X002284Y004171D01*
X002296Y004122D01*
X002304Y004073D01*
X002308Y004023D01*
X002308Y003973D01*
X002304Y003923D01*
X002296Y003874D01*
X002284Y003825D01*
X002268Y003777D01*
X002249Y003731D01*
X002226Y003687D01*
X002199Y003644D01*
X002169Y003604D01*
X002137Y003566D01*
X002101Y003531D01*
X002062Y003499D01*
X002021Y003470D01*
X001978Y003444D01*
X001933Y003422D01*
X001887Y003404D01*
X001839Y003389D01*
X001790Y003378D01*
X001741Y003371D01*
X001691Y003368D01*
X001640Y003369D01*
X001591Y003374D01*
X001541Y003383D01*
X001493Y003396D01*
X001446Y003412D01*
X001400Y003433D01*
X001356Y003457D01*
X001314Y003484D01*
X001274Y003514D01*
X001237Y003548D01*
X001203Y003585D01*
X001171Y003624D01*
X001143Y003665D01*
X001118Y003709D01*
X001097Y003754D01*
X001080Y003801D01*
X001066Y003849D01*
X001056Y003898D01*
X001050Y003948D01*
X001048Y003998D01*
X005024Y003998D02*
X005026Y004025D01*
X005032Y004052D01*
X005041Y004078D01*
X005054Y004102D01*
X005070Y004125D01*
X005089Y004144D01*
X005111Y004161D01*
X005135Y004175D01*
X005160Y004185D01*
X005187Y004192D01*
X005214Y004195D01*
X005242Y004194D01*
X005269Y004189D01*
X005295Y004181D01*
X005319Y004169D01*
X005342Y004153D01*
X005363Y004135D01*
X005380Y004114D01*
X005395Y004090D01*
X005406Y004065D01*
X005414Y004039D01*
X005418Y004012D01*
X005418Y003984D01*
X005414Y003957D01*
X005406Y003931D01*
X005395Y003906D01*
X005380Y003882D01*
X005363Y003861D01*
X005342Y003843D01*
X005320Y003827D01*
X005295Y003815D01*
X005269Y003807D01*
X005242Y003802D01*
X005214Y003801D01*
X005187Y003804D01*
X005160Y003811D01*
X005135Y003821D01*
X005111Y003835D01*
X005089Y003852D01*
X005070Y003871D01*
X005054Y003894D01*
X005041Y003918D01*
X005032Y003944D01*
X005026Y003971D01*
X005024Y003998D01*
X027072Y003998D02*
X027074Y004025D01*
X027080Y004052D01*
X027089Y004078D01*
X027102Y004102D01*
X027118Y004125D01*
X027137Y004144D01*
X027159Y004161D01*
X027183Y004175D01*
X027208Y004185D01*
X027235Y004192D01*
X027262Y004195D01*
X027290Y004194D01*
X027317Y004189D01*
X027343Y004181D01*
X027367Y004169D01*
X027390Y004153D01*
X027411Y004135D01*
X027428Y004114D01*
X027443Y004090D01*
X027454Y004065D01*
X027462Y004039D01*
X027466Y004012D01*
X027466Y003984D01*
X027462Y003957D01*
X027454Y003931D01*
X027443Y003906D01*
X027428Y003882D01*
X027411Y003861D01*
X027390Y003843D01*
X027368Y003827D01*
X027343Y003815D01*
X027317Y003807D01*
X027290Y003802D01*
X027262Y003801D01*
X027235Y003804D01*
X027208Y003811D01*
X027183Y003821D01*
X027159Y003835D01*
X027137Y003852D01*
X027118Y003871D01*
X027102Y003894D01*
X027089Y003918D01*
X027080Y003944D01*
X027074Y003971D01*
X027072Y003998D01*
X030182Y003998D02*
X030184Y004048D01*
X030190Y004098D01*
X030200Y004147D01*
X030214Y004195D01*
X030231Y004242D01*
X030252Y004287D01*
X030277Y004331D01*
X030305Y004372D01*
X030337Y004411D01*
X030371Y004448D01*
X030408Y004482D01*
X030448Y004512D01*
X030490Y004539D01*
X030534Y004563D01*
X030580Y004584D01*
X030627Y004600D01*
X030675Y004613D01*
X030725Y004622D01*
X030774Y004627D01*
X030825Y004628D01*
X030875Y004625D01*
X030924Y004618D01*
X030973Y004607D01*
X031021Y004592D01*
X031067Y004574D01*
X031112Y004552D01*
X031155Y004526D01*
X031196Y004497D01*
X031235Y004465D01*
X031271Y004430D01*
X031303Y004392D01*
X031333Y004352D01*
X031360Y004309D01*
X031383Y004265D01*
X031402Y004219D01*
X031418Y004171D01*
X031430Y004122D01*
X031438Y004073D01*
X031442Y004023D01*
X031442Y003973D01*
X031438Y003923D01*
X031430Y003874D01*
X031418Y003825D01*
X031402Y003777D01*
X031383Y003731D01*
X031360Y003687D01*
X031333Y003644D01*
X031303Y003604D01*
X031271Y003566D01*
X031235Y003531D01*
X031196Y003499D01*
X031155Y003470D01*
X031112Y003444D01*
X031067Y003422D01*
X031021Y003404D01*
X030973Y003389D01*
X030924Y003378D01*
X030875Y003371D01*
X030825Y003368D01*
X030774Y003369D01*
X030725Y003374D01*
X030675Y003383D01*
X030627Y003396D01*
X030580Y003412D01*
X030534Y003433D01*
X030490Y003457D01*
X030448Y003484D01*
X030408Y003514D01*
X030371Y003548D01*
X030337Y003585D01*
X030305Y003624D01*
X030277Y003665D01*
X030252Y003709D01*
X030231Y003754D01*
X030214Y003801D01*
X030200Y003849D01*
X030190Y003898D01*
X030184Y003948D01*
X030182Y003998D01*
X030182Y030376D02*
X030184Y030426D01*
X030190Y030476D01*
X030200Y030525D01*
X030214Y030573D01*
X030231Y030620D01*
X030252Y030665D01*
X030277Y030709D01*
X030305Y030750D01*
X030337Y030789D01*
X030371Y030826D01*
X030408Y030860D01*
X030448Y030890D01*
X030490Y030917D01*
X030534Y030941D01*
X030580Y030962D01*
X030627Y030978D01*
X030675Y030991D01*
X030725Y031000D01*
X030774Y031005D01*
X030825Y031006D01*
X030875Y031003D01*
X030924Y030996D01*
X030973Y030985D01*
X031021Y030970D01*
X031067Y030952D01*
X031112Y030930D01*
X031155Y030904D01*
X031196Y030875D01*
X031235Y030843D01*
X031271Y030808D01*
X031303Y030770D01*
X031333Y030730D01*
X031360Y030687D01*
X031383Y030643D01*
X031402Y030597D01*
X031418Y030549D01*
X031430Y030500D01*
X031438Y030451D01*
X031442Y030401D01*
X031442Y030351D01*
X031438Y030301D01*
X031430Y030252D01*
X031418Y030203D01*
X031402Y030155D01*
X031383Y030109D01*
X031360Y030065D01*
X031333Y030022D01*
X031303Y029982D01*
X031271Y029944D01*
X031235Y029909D01*
X031196Y029877D01*
X031155Y029848D01*
X031112Y029822D01*
X031067Y029800D01*
X031021Y029782D01*
X030973Y029767D01*
X030924Y029756D01*
X030875Y029749D01*
X030825Y029746D01*
X030774Y029747D01*
X030725Y029752D01*
X030675Y029761D01*
X030627Y029774D01*
X030580Y029790D01*
X030534Y029811D01*
X030490Y029835D01*
X030448Y029862D01*
X030408Y029892D01*
X030371Y029926D01*
X030337Y029963D01*
X030305Y030002D01*
X030277Y030043D01*
X030252Y030087D01*
X030231Y030132D01*
X030214Y030179D01*
X030200Y030227D01*
X030190Y030276D01*
X030184Y030326D01*
X030182Y030376D01*
X027072Y030376D02*
X027074Y030403D01*
X027080Y030430D01*
X027089Y030456D01*
X027102Y030480D01*
X027118Y030503D01*
X027137Y030522D01*
X027159Y030539D01*
X027183Y030553D01*
X027208Y030563D01*
X027235Y030570D01*
X027262Y030573D01*
X027290Y030572D01*
X027317Y030567D01*
X027343Y030559D01*
X027367Y030547D01*
X027390Y030531D01*
X027411Y030513D01*
X027428Y030492D01*
X027443Y030468D01*
X027454Y030443D01*
X027462Y030417D01*
X027466Y030390D01*
X027466Y030362D01*
X027462Y030335D01*
X027454Y030309D01*
X027443Y030284D01*
X027428Y030260D01*
X027411Y030239D01*
X027390Y030221D01*
X027368Y030205D01*
X027343Y030193D01*
X027317Y030185D01*
X027290Y030180D01*
X027262Y030179D01*
X027235Y030182D01*
X027208Y030189D01*
X027183Y030199D01*
X027159Y030213D01*
X027137Y030230D01*
X027118Y030249D01*
X027102Y030272D01*
X027089Y030296D01*
X027080Y030322D01*
X027074Y030349D01*
X027072Y030376D01*
X005024Y030376D02*
X005026Y030403D01*
X005032Y030430D01*
X005041Y030456D01*
X005054Y030480D01*
X005070Y030503D01*
X005089Y030522D01*
X005111Y030539D01*
X005135Y030553D01*
X005160Y030563D01*
X005187Y030570D01*
X005214Y030573D01*
X005242Y030572D01*
X005269Y030567D01*
X005295Y030559D01*
X005319Y030547D01*
X005342Y030531D01*
X005363Y030513D01*
X005380Y030492D01*
X005395Y030468D01*
X005406Y030443D01*
X005414Y030417D01*
X005418Y030390D01*
X005418Y030362D01*
X005414Y030335D01*
X005406Y030309D01*
X005395Y030284D01*
X005380Y030260D01*
X005363Y030239D01*
X005342Y030221D01*
X005320Y030205D01*
X005295Y030193D01*
X005269Y030185D01*
X005242Y030180D01*
X005214Y030179D01*
X005187Y030182D01*
X005160Y030189D01*
X005135Y030199D01*
X005111Y030213D01*
X005089Y030230D01*
X005070Y030249D01*
X005054Y030272D01*
X005041Y030296D01*
X005032Y030322D01*
X005026Y030349D01*
X005024Y030376D01*
X001048Y030376D02*
X001050Y030426D01*
X001056Y030476D01*
X001066Y030525D01*
X001080Y030573D01*
X001097Y030620D01*
X001118Y030665D01*
X001143Y030709D01*
X001171Y030750D01*
X001203Y030789D01*
X001237Y030826D01*
X001274Y030860D01*
X001314Y030890D01*
X001356Y030917D01*
X001400Y030941D01*
X001446Y030962D01*
X001493Y030978D01*
X001541Y030991D01*
X001591Y031000D01*
X001640Y031005D01*
X001691Y031006D01*
X001741Y031003D01*
X001790Y030996D01*
X001839Y030985D01*
X001887Y030970D01*
X001933Y030952D01*
X001978Y030930D01*
X002021Y030904D01*
X002062Y030875D01*
X002101Y030843D01*
X002137Y030808D01*
X002169Y030770D01*
X002199Y030730D01*
X002226Y030687D01*
X002249Y030643D01*
X002268Y030597D01*
X002284Y030549D01*
X002296Y030500D01*
X002304Y030451D01*
X002308Y030401D01*
X002308Y030351D01*
X002304Y030301D01*
X002296Y030252D01*
X002284Y030203D01*
X002268Y030155D01*
X002249Y030109D01*
X002226Y030065D01*
X002199Y030022D01*
X002169Y029982D01*
X002137Y029944D01*
X002101Y029909D01*
X002062Y029877D01*
X002021Y029848D01*
X001978Y029822D01*
X001933Y029800D01*
X001887Y029782D01*
X001839Y029767D01*
X001790Y029756D01*
X001741Y029749D01*
X001691Y029746D01*
X001640Y029747D01*
X001591Y029752D01*
X001541Y029761D01*
X001493Y029774D01*
X001446Y029790D01*
X001400Y029811D01*
X001356Y029835D01*
X001314Y029862D01*
X001274Y029892D01*
X001237Y029926D01*
X001203Y029963D01*
X001171Y030002D01*
X001143Y030043D01*
X001118Y030087D01*
X001097Y030132D01*
X001080Y030179D01*
X001066Y030227D01*
X001056Y030276D01*
X001050Y030326D01*
X001048Y030376D01*
D11*
X008745Y020551D03*
X009060Y020551D03*
X009375Y020551D03*
X009690Y020551D03*
X010005Y020551D03*
X010320Y020551D03*
X010635Y020551D03*
X010950Y020551D03*
X010950Y017171D03*
X010635Y017171D03*
X010320Y017171D03*
X010005Y017171D03*
X009690Y017171D03*
X009375Y017171D03*
X009060Y017171D03*
X008745Y017171D03*
D12*
X008157Y017758D03*
X008157Y018073D03*
X008157Y018388D03*
X008157Y018703D03*
X008157Y019018D03*
X008157Y019333D03*
X008157Y019648D03*
X008157Y019963D03*
X011537Y019963D03*
X011537Y019648D03*
X011537Y019333D03*
X011537Y019018D03*
X011537Y018703D03*
X011537Y018388D03*
X011537Y018073D03*
X011537Y017758D03*
D13*
X010231Y016006D03*
X009562Y016006D03*
X010792Y012906D03*
X011461Y012906D03*
X006983Y012906D03*
X006314Y012906D03*
X010398Y006951D03*
X011068Y006951D03*
X009345Y026193D03*
X008676Y026193D03*
X006599Y027581D03*
X006599Y028250D03*
X005615Y028250D03*
X005615Y027581D03*
X014227Y027168D03*
X014227Y026498D03*
X015113Y026498D03*
X015113Y027168D03*
X015999Y027168D03*
X015999Y026498D03*
X016885Y026498D03*
X016885Y027168D03*
X017770Y027168D03*
X017770Y026498D03*
X018656Y026498D03*
X018656Y027168D03*
X019542Y027168D03*
X019542Y026498D03*
X020428Y026498D03*
X020428Y027168D03*
X021314Y027168D03*
X021314Y026498D03*
D14*
X010812Y014481D03*
X007012Y014481D03*
D15*
X003076Y022945D03*
X003076Y023437D03*
X003076Y023930D03*
X003076Y024422D03*
X003076Y024914D03*
X003076Y025406D03*
D16*
X001934Y026439D03*
X001934Y021912D03*
D17*
X006698Y025908D03*
X007072Y026774D03*
X006324Y026774D03*
D18*
X005654Y026912D03*
X005654Y026164D03*
X004788Y026538D03*
D19*
X004788Y025111D03*
X005457Y025111D03*
X006019Y025111D03*
X006688Y025111D03*
X005152Y022286D03*
X005152Y021617D03*
X005133Y020977D03*
X005133Y020307D03*
X005113Y019697D03*
X005113Y019028D03*
X013991Y028014D03*
X014660Y028014D03*
X015270Y028014D03*
X015940Y028014D03*
X016550Y028014D03*
X017219Y028014D03*
X017830Y028014D03*
X018499Y028014D03*
X019109Y028014D03*
X019778Y028014D03*
X019089Y028900D03*
X018420Y028900D03*
X017810Y028900D03*
X017141Y028900D03*
X022308Y027276D03*
X022977Y027276D03*
X022977Y026292D03*
X022308Y026292D03*
X019690Y023477D03*
X019690Y022807D03*
X022111Y018762D03*
X022780Y018762D03*
X022780Y017778D03*
X022111Y017778D03*
X022308Y010396D03*
X022977Y010396D03*
X022977Y009412D03*
X022308Y009412D03*
X009296Y028654D03*
X008627Y028654D03*
X008627Y029687D03*
X009296Y029687D03*
X010152Y029244D03*
X010822Y029244D03*
D20*
X015528Y025090D03*
X016028Y025090D03*
X016528Y025090D03*
X017028Y025090D03*
X017528Y025090D03*
X018028Y025090D03*
X018528Y025090D03*
X019028Y025090D03*
X019028Y022670D03*
X018528Y022670D03*
X018028Y022670D03*
X017528Y022670D03*
X017028Y022670D03*
X016528Y022670D03*
X016028Y022670D03*
X015528Y022670D03*
M02*
