%
M48
M72
T01C0.0320
T02C0.0360
T03C0.0394
T04C0.0400
T05C0.1024
T06C0.1260
%
T01
X19376Y5261
X19376Y6261
T02
X30382Y25722
X31382Y25722
X32382Y25722
X33382Y25722
X34382Y25722
X34382Y26722
X33382Y26722
X32382Y26722
X31382Y26722
X30382Y26722
X13713Y26820
X13713Y25820
X12713Y25820
X12713Y26820
X11713Y26820
X11713Y25820
X10713Y25820
X10713Y26820
X9713Y26820
X9713Y25820
T03
X24575Y6155
X24575Y4155
X30325Y4155
X30325Y5155
X30325Y6155
T04
X19437Y33210
X18437Y33210
X17437Y33210
X16437Y33210
X15437Y33210
X14437Y33210
X13437Y33210
X12437Y33210
X11437Y33210
X10437Y33210
X9437Y33210
X8437Y33210
X7437Y33210
X6437Y33210
X5437Y33210
X4437Y33210
T05
X27325Y7280
X27325Y3030
T06
X1575Y2108
X1484Y11793
X1476Y11803
X1969Y30848
X1484Y33446
X1476Y33456
X37795Y30848
X37984Y33446
X37992Y33456
X38098Y11793
X37795Y2108
M30
