G75*
%MOIN*%
%OFA0B0*%
%FSLAX24Y24*%
%IPPOS*%
%LPD*%
%AMOC8*
5,1,8,0,0,1.08239X$1,22.5*
%
%ADD10C,0.0000*%
%ADD11C,0.0060*%
%ADD12C,0.0030*%
%ADD13C,0.0020*%
%ADD14C,0.0050*%
%ADD15C,0.0040*%
D10*
X000497Y002817D02*
X000497Y031557D01*
X031993Y031557D01*
X031993Y002817D01*
X000497Y002817D01*
X001048Y003998D02*
X001050Y004048D01*
X001056Y004098D01*
X001066Y004147D01*
X001080Y004195D01*
X001097Y004242D01*
X001118Y004287D01*
X001143Y004331D01*
X001171Y004372D01*
X001203Y004411D01*
X001237Y004448D01*
X001274Y004482D01*
X001314Y004512D01*
X001356Y004539D01*
X001400Y004563D01*
X001446Y004584D01*
X001493Y004600D01*
X001541Y004613D01*
X001591Y004622D01*
X001640Y004627D01*
X001691Y004628D01*
X001741Y004625D01*
X001790Y004618D01*
X001839Y004607D01*
X001887Y004592D01*
X001933Y004574D01*
X001978Y004552D01*
X002021Y004526D01*
X002062Y004497D01*
X002101Y004465D01*
X002137Y004430D01*
X002169Y004392D01*
X002199Y004352D01*
X002226Y004309D01*
X002249Y004265D01*
X002268Y004219D01*
X002284Y004171D01*
X002296Y004122D01*
X002304Y004073D01*
X002308Y004023D01*
X002308Y003973D01*
X002304Y003923D01*
X002296Y003874D01*
X002284Y003825D01*
X002268Y003777D01*
X002249Y003731D01*
X002226Y003687D01*
X002199Y003644D01*
X002169Y003604D01*
X002137Y003566D01*
X002101Y003531D01*
X002062Y003499D01*
X002021Y003470D01*
X001978Y003444D01*
X001933Y003422D01*
X001887Y003404D01*
X001839Y003389D01*
X001790Y003378D01*
X001741Y003371D01*
X001691Y003368D01*
X001640Y003369D01*
X001591Y003374D01*
X001541Y003383D01*
X001493Y003396D01*
X001446Y003412D01*
X001400Y003433D01*
X001356Y003457D01*
X001314Y003484D01*
X001274Y003514D01*
X001237Y003548D01*
X001203Y003585D01*
X001171Y003624D01*
X001143Y003665D01*
X001118Y003709D01*
X001097Y003754D01*
X001080Y003801D01*
X001066Y003849D01*
X001056Y003898D01*
X001050Y003948D01*
X001048Y003998D01*
X005024Y003998D02*
X005026Y004025D01*
X005032Y004052D01*
X005041Y004078D01*
X005054Y004102D01*
X005070Y004125D01*
X005089Y004144D01*
X005111Y004161D01*
X005135Y004175D01*
X005160Y004185D01*
X005187Y004192D01*
X005214Y004195D01*
X005242Y004194D01*
X005269Y004189D01*
X005295Y004181D01*
X005319Y004169D01*
X005342Y004153D01*
X005363Y004135D01*
X005380Y004114D01*
X005395Y004090D01*
X005406Y004065D01*
X005414Y004039D01*
X005418Y004012D01*
X005418Y003984D01*
X005414Y003957D01*
X005406Y003931D01*
X005395Y003906D01*
X005380Y003882D01*
X005363Y003861D01*
X005342Y003843D01*
X005320Y003827D01*
X005295Y003815D01*
X005269Y003807D01*
X005242Y003802D01*
X005214Y003801D01*
X005187Y003804D01*
X005160Y003811D01*
X005135Y003821D01*
X005111Y003835D01*
X005089Y003852D01*
X005070Y003871D01*
X005054Y003894D01*
X005041Y003918D01*
X005032Y003944D01*
X005026Y003971D01*
X005024Y003998D01*
X027072Y003998D02*
X027074Y004025D01*
X027080Y004052D01*
X027089Y004078D01*
X027102Y004102D01*
X027118Y004125D01*
X027137Y004144D01*
X027159Y004161D01*
X027183Y004175D01*
X027208Y004185D01*
X027235Y004192D01*
X027262Y004195D01*
X027290Y004194D01*
X027317Y004189D01*
X027343Y004181D01*
X027367Y004169D01*
X027390Y004153D01*
X027411Y004135D01*
X027428Y004114D01*
X027443Y004090D01*
X027454Y004065D01*
X027462Y004039D01*
X027466Y004012D01*
X027466Y003984D01*
X027462Y003957D01*
X027454Y003931D01*
X027443Y003906D01*
X027428Y003882D01*
X027411Y003861D01*
X027390Y003843D01*
X027368Y003827D01*
X027343Y003815D01*
X027317Y003807D01*
X027290Y003802D01*
X027262Y003801D01*
X027235Y003804D01*
X027208Y003811D01*
X027183Y003821D01*
X027159Y003835D01*
X027137Y003852D01*
X027118Y003871D01*
X027102Y003894D01*
X027089Y003918D01*
X027080Y003944D01*
X027074Y003971D01*
X027072Y003998D01*
X030182Y003998D02*
X030184Y004048D01*
X030190Y004098D01*
X030200Y004147D01*
X030214Y004195D01*
X030231Y004242D01*
X030252Y004287D01*
X030277Y004331D01*
X030305Y004372D01*
X030337Y004411D01*
X030371Y004448D01*
X030408Y004482D01*
X030448Y004512D01*
X030490Y004539D01*
X030534Y004563D01*
X030580Y004584D01*
X030627Y004600D01*
X030675Y004613D01*
X030725Y004622D01*
X030774Y004627D01*
X030825Y004628D01*
X030875Y004625D01*
X030924Y004618D01*
X030973Y004607D01*
X031021Y004592D01*
X031067Y004574D01*
X031112Y004552D01*
X031155Y004526D01*
X031196Y004497D01*
X031235Y004465D01*
X031271Y004430D01*
X031303Y004392D01*
X031333Y004352D01*
X031360Y004309D01*
X031383Y004265D01*
X031402Y004219D01*
X031418Y004171D01*
X031430Y004122D01*
X031438Y004073D01*
X031442Y004023D01*
X031442Y003973D01*
X031438Y003923D01*
X031430Y003874D01*
X031418Y003825D01*
X031402Y003777D01*
X031383Y003731D01*
X031360Y003687D01*
X031333Y003644D01*
X031303Y003604D01*
X031271Y003566D01*
X031235Y003531D01*
X031196Y003499D01*
X031155Y003470D01*
X031112Y003444D01*
X031067Y003422D01*
X031021Y003404D01*
X030973Y003389D01*
X030924Y003378D01*
X030875Y003371D01*
X030825Y003368D01*
X030774Y003369D01*
X030725Y003374D01*
X030675Y003383D01*
X030627Y003396D01*
X030580Y003412D01*
X030534Y003433D01*
X030490Y003457D01*
X030448Y003484D01*
X030408Y003514D01*
X030371Y003548D01*
X030337Y003585D01*
X030305Y003624D01*
X030277Y003665D01*
X030252Y003709D01*
X030231Y003754D01*
X030214Y003801D01*
X030200Y003849D01*
X030190Y003898D01*
X030184Y003948D01*
X030182Y003998D01*
X030182Y030376D02*
X030184Y030426D01*
X030190Y030476D01*
X030200Y030525D01*
X030214Y030573D01*
X030231Y030620D01*
X030252Y030665D01*
X030277Y030709D01*
X030305Y030750D01*
X030337Y030789D01*
X030371Y030826D01*
X030408Y030860D01*
X030448Y030890D01*
X030490Y030917D01*
X030534Y030941D01*
X030580Y030962D01*
X030627Y030978D01*
X030675Y030991D01*
X030725Y031000D01*
X030774Y031005D01*
X030825Y031006D01*
X030875Y031003D01*
X030924Y030996D01*
X030973Y030985D01*
X031021Y030970D01*
X031067Y030952D01*
X031112Y030930D01*
X031155Y030904D01*
X031196Y030875D01*
X031235Y030843D01*
X031271Y030808D01*
X031303Y030770D01*
X031333Y030730D01*
X031360Y030687D01*
X031383Y030643D01*
X031402Y030597D01*
X031418Y030549D01*
X031430Y030500D01*
X031438Y030451D01*
X031442Y030401D01*
X031442Y030351D01*
X031438Y030301D01*
X031430Y030252D01*
X031418Y030203D01*
X031402Y030155D01*
X031383Y030109D01*
X031360Y030065D01*
X031333Y030022D01*
X031303Y029982D01*
X031271Y029944D01*
X031235Y029909D01*
X031196Y029877D01*
X031155Y029848D01*
X031112Y029822D01*
X031067Y029800D01*
X031021Y029782D01*
X030973Y029767D01*
X030924Y029756D01*
X030875Y029749D01*
X030825Y029746D01*
X030774Y029747D01*
X030725Y029752D01*
X030675Y029761D01*
X030627Y029774D01*
X030580Y029790D01*
X030534Y029811D01*
X030490Y029835D01*
X030448Y029862D01*
X030408Y029892D01*
X030371Y029926D01*
X030337Y029963D01*
X030305Y030002D01*
X030277Y030043D01*
X030252Y030087D01*
X030231Y030132D01*
X030214Y030179D01*
X030200Y030227D01*
X030190Y030276D01*
X030184Y030326D01*
X030182Y030376D01*
X027072Y030376D02*
X027074Y030403D01*
X027080Y030430D01*
X027089Y030456D01*
X027102Y030480D01*
X027118Y030503D01*
X027137Y030522D01*
X027159Y030539D01*
X027183Y030553D01*
X027208Y030563D01*
X027235Y030570D01*
X027262Y030573D01*
X027290Y030572D01*
X027317Y030567D01*
X027343Y030559D01*
X027367Y030547D01*
X027390Y030531D01*
X027411Y030513D01*
X027428Y030492D01*
X027443Y030468D01*
X027454Y030443D01*
X027462Y030417D01*
X027466Y030390D01*
X027466Y030362D01*
X027462Y030335D01*
X027454Y030309D01*
X027443Y030284D01*
X027428Y030260D01*
X027411Y030239D01*
X027390Y030221D01*
X027368Y030205D01*
X027343Y030193D01*
X027317Y030185D01*
X027290Y030180D01*
X027262Y030179D01*
X027235Y030182D01*
X027208Y030189D01*
X027183Y030199D01*
X027159Y030213D01*
X027137Y030230D01*
X027118Y030249D01*
X027102Y030272D01*
X027089Y030296D01*
X027080Y030322D01*
X027074Y030349D01*
X027072Y030376D01*
X005024Y030376D02*
X005026Y030403D01*
X005032Y030430D01*
X005041Y030456D01*
X005054Y030480D01*
X005070Y030503D01*
X005089Y030522D01*
X005111Y030539D01*
X005135Y030553D01*
X005160Y030563D01*
X005187Y030570D01*
X005214Y030573D01*
X005242Y030572D01*
X005269Y030567D01*
X005295Y030559D01*
X005319Y030547D01*
X005342Y030531D01*
X005363Y030513D01*
X005380Y030492D01*
X005395Y030468D01*
X005406Y030443D01*
X005414Y030417D01*
X005418Y030390D01*
X005418Y030362D01*
X005414Y030335D01*
X005406Y030309D01*
X005395Y030284D01*
X005380Y030260D01*
X005363Y030239D01*
X005342Y030221D01*
X005320Y030205D01*
X005295Y030193D01*
X005269Y030185D01*
X005242Y030180D01*
X005214Y030179D01*
X005187Y030182D01*
X005160Y030189D01*
X005135Y030199D01*
X005111Y030213D01*
X005089Y030230D01*
X005070Y030249D01*
X005054Y030272D01*
X005041Y030296D01*
X005032Y030322D01*
X005026Y030349D01*
X005024Y030376D01*
X001048Y030376D02*
X001050Y030426D01*
X001056Y030476D01*
X001066Y030525D01*
X001080Y030573D01*
X001097Y030620D01*
X001118Y030665D01*
X001143Y030709D01*
X001171Y030750D01*
X001203Y030789D01*
X001237Y030826D01*
X001274Y030860D01*
X001314Y030890D01*
X001356Y030917D01*
X001400Y030941D01*
X001446Y030962D01*
X001493Y030978D01*
X001541Y030991D01*
X001591Y031000D01*
X001640Y031005D01*
X001691Y031006D01*
X001741Y031003D01*
X001790Y030996D01*
X001839Y030985D01*
X001887Y030970D01*
X001933Y030952D01*
X001978Y030930D01*
X002021Y030904D01*
X002062Y030875D01*
X002101Y030843D01*
X002137Y030808D01*
X002169Y030770D01*
X002199Y030730D01*
X002226Y030687D01*
X002249Y030643D01*
X002268Y030597D01*
X002284Y030549D01*
X002296Y030500D01*
X002304Y030451D01*
X002308Y030401D01*
X002308Y030351D01*
X002304Y030301D01*
X002296Y030252D01*
X002284Y030203D01*
X002268Y030155D01*
X002249Y030109D01*
X002226Y030065D01*
X002199Y030022D01*
X002169Y029982D01*
X002137Y029944D01*
X002101Y029909D01*
X002062Y029877D01*
X002021Y029848D01*
X001978Y029822D01*
X001933Y029800D01*
X001887Y029782D01*
X001839Y029767D01*
X001790Y029756D01*
X001741Y029749D01*
X001691Y029746D01*
X001640Y029747D01*
X001591Y029752D01*
X001541Y029761D01*
X001493Y029774D01*
X001446Y029790D01*
X001400Y029811D01*
X001356Y029835D01*
X001314Y029862D01*
X001274Y029892D01*
X001237Y029926D01*
X001203Y029963D01*
X001171Y030002D01*
X001143Y030043D01*
X001118Y030087D01*
X001097Y030132D01*
X001080Y030179D01*
X001066Y030227D01*
X001056Y030276D01*
X001050Y030326D01*
X001048Y030376D01*
D11*
X008467Y020241D02*
X008467Y017481D01*
X011087Y017481D01*
X011227Y017620D01*
X011227Y020241D01*
X008467Y020241D01*
X010786Y017781D02*
X010788Y017804D01*
X010794Y017827D01*
X010803Y017848D01*
X010816Y017868D01*
X010832Y017885D01*
X010850Y017899D01*
X010870Y017910D01*
X010892Y017918D01*
X010915Y017922D01*
X010939Y017922D01*
X010962Y017918D01*
X010984Y017910D01*
X011004Y017899D01*
X011022Y017885D01*
X011038Y017868D01*
X011051Y017848D01*
X011060Y017827D01*
X011066Y017804D01*
X011068Y017781D01*
X011066Y017758D01*
X011060Y017735D01*
X011051Y017714D01*
X011038Y017694D01*
X011022Y017677D01*
X011004Y017663D01*
X010984Y017652D01*
X010962Y017644D01*
X010939Y017640D01*
X010915Y017640D01*
X010892Y017644D01*
X010870Y017652D01*
X010850Y017663D01*
X010832Y017677D01*
X010816Y017694D01*
X010803Y017714D01*
X010794Y017735D01*
X010788Y017758D01*
X010786Y017781D01*
X011062Y015431D02*
X006762Y015431D01*
X006745Y015429D01*
X006728Y015425D01*
X006712Y015418D01*
X006698Y015408D01*
X006685Y015395D01*
X006675Y015381D01*
X006668Y015365D01*
X006664Y015348D01*
X006662Y015331D01*
X006662Y014931D01*
X006662Y014031D02*
X006662Y013631D01*
X006664Y013614D01*
X006668Y013597D01*
X006675Y013581D01*
X006685Y013567D01*
X006698Y013554D01*
X006712Y013544D01*
X006728Y013537D01*
X006745Y013533D01*
X006762Y013531D01*
X011062Y013531D01*
X011079Y013533D01*
X011096Y013537D01*
X011112Y013544D01*
X011126Y013554D01*
X011139Y013567D01*
X011149Y013581D01*
X011156Y013597D01*
X011160Y013614D01*
X011162Y013631D01*
X011162Y014031D01*
X011162Y014931D02*
X011162Y015331D01*
X011160Y015348D01*
X011156Y015365D01*
X011149Y015381D01*
X011139Y015395D01*
X011126Y015408D01*
X011112Y015418D01*
X011096Y015425D01*
X011079Y015429D01*
X011062Y015431D01*
X009162Y014731D02*
X009162Y014481D01*
X009162Y014231D01*
X009012Y014231D02*
X008812Y014231D01*
X008812Y014731D01*
X009012Y014731D01*
X009012Y014231D01*
X008662Y014231D02*
X008662Y014481D01*
X008662Y014731D01*
X015278Y023260D02*
X015278Y023680D01*
X015278Y024080D01*
X015278Y024500D01*
X015280Y024523D01*
X015285Y024546D01*
X015294Y024568D01*
X015307Y024588D01*
X015322Y024606D01*
X015340Y024621D01*
X015360Y024634D01*
X015382Y024643D01*
X015405Y024648D01*
X015428Y024650D01*
X015278Y024080D02*
X015305Y024078D01*
X015332Y024073D01*
X015358Y024063D01*
X015382Y024051D01*
X015404Y024035D01*
X015424Y024017D01*
X015441Y023995D01*
X015456Y023972D01*
X015466Y023947D01*
X015474Y023921D01*
X015478Y023894D01*
X015478Y023866D01*
X015474Y023839D01*
X015466Y023813D01*
X015456Y023788D01*
X015441Y023765D01*
X015424Y023743D01*
X015404Y023725D01*
X015382Y023709D01*
X015358Y023697D01*
X015332Y023687D01*
X015305Y023682D01*
X015278Y023680D01*
X015278Y023260D02*
X015280Y023237D01*
X015285Y023214D01*
X015294Y023192D01*
X015307Y023172D01*
X015322Y023154D01*
X015340Y023139D01*
X015360Y023126D01*
X015382Y023117D01*
X015405Y023112D01*
X015428Y023110D01*
X019128Y023110D02*
X019151Y023112D01*
X019174Y023117D01*
X019196Y023126D01*
X019216Y023139D01*
X019234Y023154D01*
X019249Y023172D01*
X019262Y023192D01*
X019271Y023214D01*
X019276Y023237D01*
X019278Y023260D01*
X019278Y024500D01*
X019276Y024523D01*
X019271Y024546D01*
X019262Y024568D01*
X019249Y024588D01*
X019234Y024606D01*
X019216Y024621D01*
X019196Y024634D01*
X019174Y024643D01*
X019151Y024648D01*
X019128Y024650D01*
D12*
X020003Y023395D02*
X019955Y023347D01*
X019955Y023250D01*
X020003Y023202D01*
X020003Y023101D02*
X019955Y023052D01*
X019955Y022955D01*
X020003Y022907D01*
X020197Y022907D01*
X020245Y022955D01*
X020245Y023052D01*
X020197Y023101D01*
X020197Y023202D02*
X020245Y023250D01*
X020245Y023347D01*
X020197Y023395D01*
X020148Y023395D01*
X020100Y023347D01*
X020052Y023395D01*
X020003Y023395D01*
X020100Y023347D02*
X020100Y023299D01*
X012152Y018373D02*
X011862Y018373D01*
X011862Y018277D02*
X011862Y018470D01*
X012056Y018277D02*
X012152Y018373D01*
X012104Y018176D02*
X012152Y018127D01*
X012152Y018030D01*
X012104Y017982D01*
X011911Y017982D01*
X011862Y018030D01*
X011862Y018127D01*
X011911Y018176D01*
X011862Y017882D02*
X011862Y017786D01*
X011862Y017834D02*
X012152Y017834D01*
X012152Y017786D02*
X012152Y017882D01*
X010172Y015742D02*
X010221Y015693D01*
X010221Y015500D01*
X010172Y015451D01*
X010076Y015451D01*
X010027Y015500D01*
X009926Y015500D02*
X009733Y015693D01*
X009733Y015742D01*
X009926Y015742D01*
X010027Y015693D02*
X010076Y015742D01*
X010172Y015742D01*
X009926Y015500D02*
X009926Y015451D01*
X011060Y012641D02*
X011060Y012351D01*
X011156Y012351D02*
X010963Y012351D01*
X011156Y012544D02*
X011060Y012641D01*
X011258Y012593D02*
X011306Y012641D01*
X011403Y012641D01*
X011451Y012593D01*
X011451Y012399D01*
X011403Y012351D01*
X011306Y012351D01*
X011258Y012399D01*
X006883Y013219D02*
X006835Y013171D01*
X006738Y013171D01*
X006690Y013219D01*
X006589Y013171D02*
X006395Y013364D01*
X006395Y013413D01*
X006444Y013461D01*
X006540Y013461D01*
X006589Y013413D01*
X006690Y013413D02*
X006738Y013461D01*
X006835Y013461D01*
X006883Y013413D01*
X006883Y013219D01*
X006589Y013171D02*
X006395Y013171D01*
X004848Y018744D02*
X004558Y018744D01*
X004655Y018744D02*
X004655Y018889D01*
X004703Y018937D01*
X004800Y018937D01*
X004848Y018889D01*
X004848Y018744D01*
X004655Y018840D02*
X004558Y018937D01*
X004606Y019038D02*
X004558Y019087D01*
X004558Y019183D01*
X004606Y019232D01*
X004655Y019232D01*
X004703Y019183D01*
X004703Y019135D01*
X004703Y019183D02*
X004751Y019232D01*
X004800Y019232D01*
X004848Y019183D01*
X004848Y019087D01*
X004800Y019038D01*
X004800Y019333D02*
X004848Y019381D01*
X004848Y019478D01*
X004800Y019526D01*
X004606Y019333D01*
X004558Y019381D01*
X004558Y019478D01*
X004606Y019526D01*
X004800Y019526D01*
X004800Y019333D02*
X004606Y019333D01*
X004578Y020318D02*
X004868Y020318D01*
X004868Y020464D01*
X004820Y020512D01*
X004723Y020512D01*
X004674Y020464D01*
X004674Y020318D01*
X004674Y020415D02*
X004578Y020512D01*
X004578Y020613D02*
X004771Y020807D01*
X004820Y020807D01*
X004868Y020758D01*
X004868Y020661D01*
X004820Y020613D01*
X004578Y020613D02*
X004578Y020807D01*
X004626Y020908D02*
X004578Y020956D01*
X004578Y021053D01*
X004626Y021101D01*
X004820Y021101D01*
X004868Y021053D01*
X004868Y020956D01*
X004820Y020908D01*
X004771Y020908D01*
X004723Y020956D01*
X004723Y021101D01*
X004694Y021332D02*
X004694Y021477D01*
X004742Y021526D01*
X004839Y021526D01*
X004888Y021477D01*
X004888Y021332D01*
X004597Y021332D01*
X004694Y021429D02*
X004597Y021526D01*
X004646Y021627D02*
X004597Y021675D01*
X004597Y021772D01*
X004646Y021820D01*
X004694Y021820D01*
X004742Y021772D01*
X004742Y021724D01*
X004742Y021772D02*
X004791Y021820D01*
X004839Y021820D01*
X004888Y021772D01*
X004888Y021675D01*
X004839Y021627D01*
X004791Y021922D02*
X004888Y022018D01*
X004597Y022018D01*
X004597Y021922D02*
X004597Y022115D01*
X000999Y022467D02*
X000951Y022419D01*
X000757Y022419D01*
X000709Y022467D01*
X000709Y022564D01*
X000757Y022612D01*
X000757Y022714D02*
X000709Y022762D01*
X000709Y022859D01*
X000757Y022907D01*
X000951Y022907D01*
X000999Y022859D01*
X000999Y022762D01*
X000951Y022714D01*
X000757Y022714D01*
X000951Y022612D02*
X000999Y022564D01*
X000999Y022467D01*
X000999Y023008D02*
X000709Y023202D01*
X000999Y023202D01*
X000999Y023303D02*
X000854Y023303D01*
X000902Y023400D01*
X000902Y023448D01*
X000854Y023496D01*
X000757Y023496D01*
X000709Y023448D01*
X000709Y023351D01*
X000757Y023303D01*
X000999Y023303D02*
X000999Y023496D01*
X000999Y023008D02*
X000709Y023008D01*
X008463Y026458D02*
X008656Y026458D01*
X008560Y026458D02*
X008560Y026749D01*
X008656Y026652D01*
X008757Y026458D02*
X008951Y026458D01*
X008854Y026458D02*
X008854Y026749D01*
X008951Y026652D01*
X009052Y026700D02*
X009052Y026603D01*
X009101Y026555D01*
X009246Y026555D01*
X009246Y026458D02*
X009246Y026749D01*
X009101Y026749D01*
X009052Y026700D01*
X009149Y026555D02*
X009052Y026458D01*
X010569Y006686D02*
X010666Y006638D01*
X010763Y006541D01*
X010618Y006541D01*
X010569Y006493D01*
X010569Y006445D01*
X010618Y006396D01*
X010714Y006396D01*
X010763Y006445D01*
X010763Y006541D01*
X010864Y006445D02*
X010912Y006396D01*
X011009Y006396D01*
X011057Y006445D01*
X011057Y006638D01*
X011009Y006686D01*
X010912Y006686D01*
X010864Y006638D01*
D13*
X010262Y013681D02*
X007562Y013681D01*
X007562Y013981D02*
X010262Y013981D01*
X010923Y014931D02*
X010891Y014976D01*
X010855Y015018D01*
X010816Y015058D01*
X010775Y015095D01*
X010731Y015129D01*
X010684Y015160D01*
X010636Y015188D01*
X010586Y015212D01*
X010535Y015233D01*
X010482Y015250D01*
X010428Y015264D01*
X010373Y015273D01*
X010318Y015279D01*
X010262Y015281D01*
X007562Y015281D01*
X007562Y014981D02*
X010262Y014981D01*
X010300Y014980D01*
X010337Y014975D01*
X010374Y014968D01*
X010410Y014959D01*
X010446Y014946D01*
X010480Y014931D01*
X010923Y014031D02*
X010891Y013986D01*
X010855Y013944D01*
X010816Y013904D01*
X010774Y013867D01*
X010731Y013833D01*
X010684Y013802D01*
X010636Y013774D01*
X010586Y013750D01*
X010535Y013729D01*
X010482Y013712D01*
X010428Y013698D01*
X010373Y013689D01*
X010318Y013683D01*
X010262Y013681D01*
X010262Y013981D02*
X010300Y013982D01*
X010337Y013987D01*
X010374Y013994D01*
X010410Y014003D01*
X010446Y014016D01*
X010480Y014031D01*
X009312Y014481D02*
X009162Y014481D01*
X008662Y014481D02*
X008512Y014481D01*
X007562Y013681D02*
X007506Y013683D01*
X007451Y013689D01*
X007396Y013698D01*
X007342Y013712D01*
X007289Y013729D01*
X007238Y013750D01*
X007188Y013774D01*
X007140Y013802D01*
X007093Y013833D01*
X007049Y013867D01*
X007008Y013904D01*
X006969Y013944D01*
X006933Y013986D01*
X006901Y014031D01*
X006901Y014931D02*
X006933Y014976D01*
X006969Y015018D01*
X007008Y015058D01*
X007050Y015095D01*
X007093Y015129D01*
X007140Y015160D01*
X007188Y015188D01*
X007238Y015212D01*
X007289Y015233D01*
X007342Y015250D01*
X007396Y015264D01*
X007451Y015273D01*
X007506Y015279D01*
X007562Y015281D01*
X007562Y014981D02*
X007524Y014980D01*
X007487Y014975D01*
X007450Y014968D01*
X007414Y014959D01*
X007378Y014946D01*
X007344Y014931D01*
X007344Y014031D02*
X007378Y014016D01*
X007414Y014003D01*
X007450Y013994D01*
X007487Y013987D01*
X007524Y013982D01*
X007562Y013981D01*
X015278Y024510D02*
X019278Y024510D01*
D14*
X015104Y024420D02*
X015104Y024270D01*
X015029Y024195D01*
X015029Y024035D02*
X015104Y023960D01*
X015104Y023810D01*
X015029Y023735D01*
X014728Y023735D01*
X014653Y023810D01*
X014653Y023960D01*
X014728Y024035D01*
X014653Y024195D02*
X014954Y024495D01*
X015029Y024495D01*
X015104Y024420D01*
X014653Y024495D02*
X014653Y024195D01*
X014653Y023578D02*
X014653Y023428D01*
X014653Y023503D02*
X015104Y023503D01*
X015104Y023428D02*
X015104Y023578D01*
X008221Y016063D02*
X008071Y016063D01*
X007996Y015988D01*
X007996Y015687D01*
X008071Y015612D01*
X008221Y015612D01*
X008296Y015687D01*
X008296Y015988D01*
X008221Y016063D01*
X008146Y015763D02*
X007996Y015612D01*
X007836Y015612D02*
X007536Y015612D01*
X007686Y015612D02*
X007686Y016063D01*
X007836Y015913D01*
D15*
X005331Y024282D02*
X005331Y024743D01*
X005101Y024743D01*
X005024Y024666D01*
X005024Y024512D01*
X005101Y024436D01*
X005331Y024436D01*
X005177Y024436D02*
X005024Y024282D01*
X004870Y024512D02*
X004563Y024512D01*
X004640Y024282D02*
X004640Y024743D01*
X004870Y024512D01*
X005816Y025457D02*
X005893Y025381D01*
X006046Y025381D01*
X006123Y025457D01*
X006276Y025381D02*
X006430Y025534D01*
X006353Y025534D02*
X006583Y025534D01*
X006583Y025381D02*
X006583Y025841D01*
X006353Y025841D01*
X006276Y025764D01*
X006276Y025611D01*
X006353Y025534D01*
X006123Y025764D02*
X006046Y025841D01*
X005893Y025841D01*
X005816Y025764D01*
X005816Y025688D01*
X005893Y025611D01*
X005816Y025534D01*
X005816Y025457D01*
X005893Y025611D02*
X005969Y025611D01*
X007459Y026194D02*
X007766Y026194D01*
X007459Y026501D01*
X007459Y026577D01*
X007536Y026654D01*
X007689Y026654D01*
X007766Y026577D01*
X007919Y026577D02*
X007919Y026270D01*
X007996Y026194D01*
X008150Y026194D01*
X008226Y026270D01*
X008226Y026577D01*
X008150Y026654D01*
X007996Y026654D01*
X007919Y026577D01*
X008073Y026347D02*
X007919Y026194D01*
X007412Y027659D02*
X006952Y027659D01*
X007105Y027659D02*
X007105Y027889D01*
X007182Y027966D01*
X007336Y027966D01*
X007412Y027889D01*
X007412Y027659D01*
X007105Y027812D02*
X006952Y027966D01*
X006952Y028119D02*
X006952Y028426D01*
X006952Y028273D02*
X007412Y028273D01*
X007259Y028119D01*
X008845Y028077D02*
X008845Y028001D01*
X008922Y027924D01*
X009075Y027924D01*
X009152Y028001D01*
X009152Y028154D01*
X008922Y028154D01*
X008845Y028077D01*
X008998Y028308D02*
X009152Y028154D01*
X009305Y028154D02*
X009382Y028077D01*
X009612Y028077D01*
X009612Y027924D02*
X009612Y028384D01*
X009382Y028384D01*
X009305Y028308D01*
X009305Y028154D01*
X009459Y028077D02*
X009305Y027924D01*
X008998Y028308D02*
X008845Y028384D01*
X008884Y029957D02*
X009038Y030111D01*
X008961Y030111D02*
X009191Y030111D01*
X009191Y029957D02*
X009191Y030418D01*
X008961Y030418D01*
X008884Y030341D01*
X008884Y030188D01*
X008961Y030111D01*
X008731Y030188D02*
X008578Y030264D01*
X008501Y030264D01*
X008424Y030188D01*
X008424Y030034D01*
X008501Y029957D01*
X008654Y029957D01*
X008731Y030034D01*
X008731Y030188D02*
X008731Y030418D01*
X008424Y030418D01*
X010370Y028975D02*
X010370Y028898D01*
X010677Y028591D01*
X010677Y028514D01*
X010831Y028514D02*
X010984Y028668D01*
X010908Y028668D02*
X011138Y028668D01*
X011138Y028514D02*
X011138Y028975D01*
X010908Y028975D01*
X010831Y028898D01*
X010831Y028745D01*
X010908Y028668D01*
X010677Y028975D02*
X010370Y028975D01*
X013350Y027343D02*
X013350Y027036D01*
X013656Y027343D01*
X013733Y027343D01*
X013810Y027267D01*
X013810Y027113D01*
X013733Y027036D01*
X013810Y026729D02*
X013350Y026729D01*
X013350Y026576D02*
X013350Y026883D01*
X013656Y026576D02*
X013810Y026729D01*
X013733Y026423D02*
X013580Y026423D01*
X013503Y026346D01*
X013503Y026116D01*
X013503Y026269D02*
X013350Y026423D01*
X013350Y026116D02*
X013810Y026116D01*
X013810Y026346D01*
X013733Y026423D01*
X014481Y026521D02*
X014635Y026367D01*
X014635Y026444D02*
X014635Y026214D01*
X014481Y026214D02*
X014942Y026214D01*
X014942Y026444D01*
X014865Y026521D01*
X014712Y026521D01*
X014635Y026444D01*
X014788Y026674D02*
X014942Y026828D01*
X014481Y026828D01*
X014481Y026981D02*
X014481Y026674D01*
X014712Y027135D02*
X014712Y027442D01*
X014942Y027365D02*
X014481Y027365D01*
X014712Y027135D02*
X014942Y027365D01*
X015367Y027365D02*
X015444Y027442D01*
X015521Y027442D01*
X015597Y027365D01*
X015597Y027135D01*
X015444Y027135D01*
X015367Y027212D01*
X015367Y027365D01*
X015597Y027135D02*
X015751Y027288D01*
X015828Y027442D01*
X016204Y027365D02*
X016204Y027212D01*
X016281Y027135D01*
X016357Y027135D01*
X016434Y027212D01*
X016434Y027365D01*
X016357Y027442D01*
X016281Y027442D01*
X016204Y027365D01*
X016434Y027365D02*
X016511Y027442D01*
X016588Y027442D01*
X016664Y027365D01*
X016664Y027212D01*
X016588Y027135D01*
X016511Y027135D01*
X016434Y027212D01*
X016204Y026981D02*
X016204Y026674D01*
X016204Y026521D02*
X016357Y026367D01*
X016357Y026444D02*
X016357Y026214D01*
X016204Y026214D02*
X016664Y026214D01*
X016664Y026444D01*
X016588Y026521D01*
X016434Y026521D01*
X016357Y026444D01*
X016511Y026674D02*
X016664Y026828D01*
X016204Y026828D01*
X015828Y026828D02*
X015367Y026828D01*
X015367Y026981D02*
X015367Y026674D01*
X015367Y026521D02*
X015521Y026367D01*
X015521Y026444D02*
X015521Y026214D01*
X015367Y026214D02*
X015828Y026214D01*
X015828Y026444D01*
X015751Y026521D01*
X015597Y026521D01*
X015521Y026444D01*
X015674Y026674D02*
X015828Y026828D01*
X017155Y026719D02*
X017462Y027026D01*
X017538Y027026D01*
X017615Y026949D01*
X017615Y026796D01*
X017538Y026719D01*
X017538Y026566D02*
X017385Y026566D01*
X017308Y026489D01*
X017308Y026259D01*
X017308Y026412D02*
X017155Y026566D01*
X017155Y026719D02*
X017155Y027026D01*
X017231Y027179D02*
X017538Y027486D01*
X017231Y027486D01*
X017155Y027410D01*
X017155Y027256D01*
X017231Y027179D01*
X017538Y027179D01*
X017615Y027256D01*
X017615Y027410D01*
X017538Y027486D01*
X018040Y027486D02*
X018040Y027179D01*
X018347Y027486D01*
X018424Y027486D01*
X018501Y027410D01*
X018501Y027256D01*
X018424Y027179D01*
X018424Y027026D02*
X018347Y027026D01*
X018040Y026719D01*
X018040Y027026D01*
X018424Y027026D02*
X018501Y026949D01*
X018501Y026796D01*
X018424Y026719D01*
X018424Y026566D02*
X018271Y026566D01*
X018194Y026489D01*
X018194Y026259D01*
X018194Y026412D02*
X018040Y026566D01*
X018040Y026259D02*
X018501Y026259D01*
X018501Y026489D01*
X018424Y026566D01*
X018877Y026615D02*
X019031Y026461D01*
X019031Y026538D02*
X019031Y026308D01*
X018877Y026308D02*
X019337Y026308D01*
X019337Y026538D01*
X019261Y026615D01*
X019107Y026615D01*
X019031Y026538D01*
X018877Y026768D02*
X018877Y027075D01*
X019107Y027229D02*
X019107Y027536D01*
X018877Y027459D02*
X019337Y027459D01*
X019107Y027229D01*
X019184Y027075D02*
X019261Y027075D01*
X019337Y026998D01*
X019337Y026845D01*
X019261Y026768D01*
X019184Y027075D02*
X018877Y026768D01*
X017615Y026489D02*
X017615Y026259D01*
X017155Y026259D01*
X017538Y026566D02*
X017615Y026489D01*
X018124Y028219D02*
X018048Y028296D01*
X018048Y028603D01*
X018124Y028680D01*
X018278Y028680D01*
X018355Y028603D01*
X018355Y028526D01*
X018278Y028449D01*
X018048Y028449D01*
X018124Y028219D02*
X018278Y028219D01*
X018355Y028296D01*
X018508Y028219D02*
X018815Y028219D01*
X018968Y028219D02*
X019122Y028373D01*
X019045Y028373D02*
X019275Y028373D01*
X019275Y028219D02*
X019275Y028680D01*
X019045Y028680D01*
X018968Y028603D01*
X018968Y028449D01*
X019045Y028373D01*
X018815Y028526D02*
X018661Y028680D01*
X018661Y028219D01*
X019524Y028367D02*
X019831Y028367D01*
X019984Y028367D02*
X020291Y028367D01*
X019984Y028674D01*
X019984Y028751D01*
X020061Y028827D01*
X020215Y028827D01*
X020291Y028751D01*
X020445Y028751D02*
X020445Y028597D01*
X020522Y028520D01*
X020752Y028520D01*
X020752Y028367D02*
X020752Y028827D01*
X020522Y028827D01*
X020445Y028751D01*
X020598Y028520D02*
X020445Y028367D01*
X019831Y028674D02*
X019677Y028827D01*
X019677Y028367D01*
X018747Y029359D02*
X018747Y029589D01*
X018670Y029666D01*
X018517Y029666D01*
X018440Y029589D01*
X018440Y029359D01*
X018440Y029512D02*
X018287Y029666D01*
X018363Y029819D02*
X018287Y029896D01*
X018287Y030050D01*
X018363Y030126D01*
X018440Y030126D01*
X018517Y030050D01*
X018517Y029896D01*
X018593Y029819D01*
X018670Y029819D01*
X018747Y029896D01*
X018747Y030050D01*
X018670Y030126D01*
X018593Y030126D01*
X018517Y030050D01*
X018517Y029896D02*
X018440Y029819D01*
X018363Y029819D01*
X018287Y029359D02*
X018747Y029359D01*
X017763Y029310D02*
X017763Y029540D01*
X017686Y029617D01*
X017532Y029617D01*
X017456Y029540D01*
X017456Y029310D01*
X017456Y029463D02*
X017302Y029617D01*
X017302Y029770D02*
X017302Y030077D01*
X017302Y029924D02*
X017763Y029924D01*
X017609Y029770D01*
X017763Y030231D02*
X017763Y030537D01*
X017686Y030537D01*
X017379Y030231D01*
X017302Y030231D01*
X016828Y029602D02*
X016828Y029296D01*
X016597Y029296D01*
X016674Y029449D01*
X016674Y029526D01*
X016597Y029602D01*
X016444Y029602D01*
X016367Y029526D01*
X016367Y029372D01*
X016444Y029296D01*
X016367Y029142D02*
X016367Y028835D01*
X016367Y028682D02*
X016521Y028528D01*
X016521Y028605D02*
X016521Y028375D01*
X016367Y028375D02*
X016828Y028375D01*
X016828Y028605D01*
X016751Y028682D01*
X016597Y028682D01*
X016521Y028605D01*
X016674Y028835D02*
X016828Y028989D01*
X016367Y028989D01*
X015893Y028989D02*
X015432Y028989D01*
X015432Y029142D02*
X015432Y028835D01*
X015432Y028682D02*
X015586Y028528D01*
X015586Y028605D02*
X015586Y028375D01*
X015432Y028375D02*
X015893Y028375D01*
X015893Y028605D01*
X015816Y028682D01*
X015662Y028682D01*
X015586Y028605D01*
X015739Y028835D02*
X015893Y028989D01*
X015816Y029296D02*
X015893Y029372D01*
X015893Y029526D01*
X015816Y029602D01*
X015739Y029602D01*
X015662Y029526D01*
X015586Y029602D01*
X015509Y029602D01*
X015432Y029526D01*
X015432Y029372D01*
X015509Y029296D01*
X015662Y029449D02*
X015662Y029526D01*
X014564Y029526D02*
X014487Y029602D01*
X014180Y029296D01*
X014103Y029372D01*
X014103Y029526D01*
X014180Y029602D01*
X014487Y029602D01*
X014564Y029526D02*
X014564Y029372D01*
X014487Y029296D01*
X014180Y029296D01*
X014103Y029142D02*
X014103Y028835D01*
X014103Y028682D02*
X014257Y028528D01*
X014257Y028605D02*
X014257Y028375D01*
X014103Y028375D02*
X014564Y028375D01*
X014564Y028605D01*
X014487Y028682D01*
X014334Y028682D01*
X014257Y028605D01*
X014410Y028835D02*
X014564Y028989D01*
X014103Y028989D01*
X017302Y029310D02*
X017763Y029310D01*
X020316Y026015D02*
X020239Y025938D01*
X020239Y025784D01*
X020316Y025708D01*
X020239Y025554D02*
X020239Y025247D01*
X020546Y025554D01*
X020623Y025554D01*
X020700Y025477D01*
X020700Y025324D01*
X020623Y025247D01*
X020623Y025094D02*
X020469Y025094D01*
X020393Y025017D01*
X020393Y024787D01*
X020393Y024940D02*
X020239Y025094D01*
X020239Y024787D02*
X020700Y024787D01*
X020700Y025017D01*
X020623Y025094D01*
X020623Y025708D02*
X020700Y025784D01*
X020700Y025938D01*
X020623Y026015D01*
X020546Y026015D01*
X020469Y025938D01*
X020393Y026015D01*
X020316Y026015D01*
X020469Y025938D02*
X020469Y025861D01*
X021584Y026603D02*
X022044Y026603D01*
X022044Y026833D01*
X021967Y026910D01*
X021814Y026910D01*
X021737Y026833D01*
X021737Y026603D01*
X021722Y026562D02*
X021875Y026562D01*
X021952Y026638D01*
X021952Y026715D01*
X021875Y026792D01*
X021722Y026792D01*
X021645Y026715D01*
X021645Y026638D01*
X021722Y026562D01*
X021737Y026757D02*
X021584Y026910D01*
X021645Y026945D02*
X021645Y026869D01*
X021722Y026792D01*
X021875Y026792D02*
X021952Y026869D01*
X021952Y026945D01*
X021875Y027022D01*
X021722Y027022D01*
X021645Y026945D01*
X021661Y027063D02*
X021584Y027140D01*
X021584Y027294D01*
X021661Y027370D01*
X021967Y027370D01*
X022044Y027294D01*
X022044Y027140D01*
X021967Y027063D01*
X021891Y027063D01*
X021814Y027140D01*
X021814Y027370D01*
X021996Y027629D02*
X021996Y027705D01*
X021689Y028012D01*
X021689Y028089D01*
X021996Y028089D01*
X022150Y028012D02*
X022226Y028089D01*
X022380Y028089D01*
X022457Y028012D01*
X022610Y028012D02*
X022687Y028089D01*
X022917Y028089D01*
X022917Y027629D01*
X022917Y027782D02*
X022687Y027782D01*
X022610Y027859D01*
X022610Y028012D01*
X022764Y027782D02*
X022610Y027629D01*
X022457Y027629D02*
X022150Y027936D01*
X022150Y028012D01*
X022150Y027629D02*
X022457Y027629D01*
X022335Y027022D02*
X022182Y027022D01*
X022105Y026945D01*
X022105Y026869D01*
X022412Y026562D01*
X022105Y026562D01*
X022412Y026945D02*
X022335Y027022D01*
X022566Y026945D02*
X022566Y026792D01*
X022642Y026715D01*
X022873Y026715D01*
X022873Y026562D02*
X022873Y027022D01*
X022642Y027022D01*
X022566Y026945D01*
X022719Y026715D02*
X022566Y026562D01*
X022622Y019624D02*
X022392Y019624D01*
X022315Y019548D01*
X022315Y019394D01*
X022392Y019318D01*
X022622Y019318D01*
X022468Y019318D02*
X022315Y019164D01*
X022161Y019164D02*
X021854Y019471D01*
X021854Y019548D01*
X021931Y019624D01*
X022085Y019624D01*
X022161Y019548D01*
X022161Y019164D02*
X021854Y019164D01*
X021701Y019241D02*
X021624Y019164D01*
X021471Y019164D01*
X021394Y019241D01*
X021394Y019318D01*
X021471Y019394D01*
X021701Y019394D01*
X021701Y019241D01*
X021701Y019394D02*
X021548Y019548D01*
X021394Y019624D01*
X021448Y018508D02*
X021755Y018508D01*
X021755Y018278D01*
X021601Y018355D01*
X021525Y018355D01*
X021448Y018278D01*
X021448Y018125D01*
X021525Y018048D01*
X021678Y018048D01*
X021755Y018125D01*
X021908Y018048D02*
X022215Y018048D01*
X021908Y018355D01*
X021908Y018432D01*
X021985Y018508D01*
X022139Y018508D01*
X022215Y018432D01*
X022369Y018432D02*
X022369Y018278D01*
X022445Y018201D01*
X022676Y018201D01*
X022676Y018048D02*
X022676Y018508D01*
X022445Y018508D01*
X022369Y018432D01*
X022522Y018201D02*
X022369Y018048D01*
X022622Y019164D02*
X022622Y019624D01*
X022642Y010142D02*
X022566Y010065D01*
X022566Y009912D01*
X022642Y009835D01*
X022873Y009835D01*
X022986Y009820D02*
X022986Y009743D01*
X023063Y009666D01*
X023217Y009666D01*
X023293Y009743D01*
X023447Y009666D02*
X023600Y009820D01*
X023524Y009820D02*
X023754Y009820D01*
X023754Y009666D02*
X023754Y010126D01*
X023524Y010126D01*
X023447Y010050D01*
X023447Y009896D01*
X023524Y009820D01*
X023293Y010050D02*
X023217Y010126D01*
X023063Y010126D01*
X022986Y010050D01*
X022986Y009973D01*
X023063Y009896D01*
X022986Y009820D01*
X023063Y009896D02*
X023140Y009896D01*
X022873Y009682D02*
X022873Y010142D01*
X022642Y010142D01*
X022603Y010126D02*
X022756Y010126D01*
X022833Y010050D01*
X022603Y010126D02*
X022526Y010050D01*
X022526Y009973D01*
X022833Y009666D01*
X022526Y009666D01*
X022566Y009682D02*
X022719Y009835D01*
X022412Y009759D02*
X022335Y009682D01*
X022182Y009682D01*
X022105Y009759D01*
X022105Y009835D01*
X022182Y009912D01*
X022259Y009912D01*
X022182Y009912D02*
X022105Y009989D01*
X022105Y010065D01*
X022182Y010142D01*
X022335Y010142D01*
X022412Y010065D01*
X021952Y010065D02*
X021875Y010142D01*
X021722Y010142D01*
X021645Y010065D01*
X021645Y009989D01*
X021722Y009912D01*
X021645Y009835D01*
X021645Y009759D01*
X021722Y009682D01*
X021875Y009682D01*
X021952Y009759D01*
X021798Y009912D02*
X021722Y009912D01*
X004452Y026464D02*
X004452Y026617D01*
X004375Y026694D01*
X004068Y026694D01*
X003991Y026617D01*
X003991Y026464D01*
X004068Y026387D01*
X004375Y026387D01*
X004452Y026464D01*
X004145Y026540D02*
X003991Y026694D01*
X004068Y026847D02*
X003991Y026924D01*
X003991Y027078D01*
X004068Y027154D01*
X004145Y027154D01*
X004221Y027078D01*
X004221Y027001D01*
X004221Y027078D02*
X004298Y027154D01*
X004375Y027154D01*
X004452Y027078D01*
X004452Y026924D01*
X004375Y026847D01*
X004787Y027560D02*
X005247Y027560D01*
X005247Y027790D01*
X005170Y027867D01*
X005017Y027867D01*
X004940Y027790D01*
X004940Y027560D01*
X004940Y027714D02*
X004787Y027867D01*
X004787Y028021D02*
X005093Y028328D01*
X005170Y028328D01*
X005247Y028251D01*
X005247Y028097D01*
X005170Y028021D01*
X004787Y028021D02*
X004787Y028328D01*
M02*
